<svg width="455" height="490" viewBox="0 0 455 490" fill="none" xmlns="http://www.w3.org/2000/svg">
<rect width="412.27" height="260.381" rx="34.7175" transform="matrix(0.981627 0.190809 0.190809 0.981627 7.62939e-06 155.562)" fill="#2BB32A" stroke="url(#paint0_linear_18_11)" stroke-opacity="0.5" stroke-width="2.16984"/>
<path d="M80.984 355.339L78.8684 344.455L80.8514 344.84L87.2455 353.601L87.2754 353.606L85.7567 345.794L87.6055 346.153L89.7212 357.037L87.7382 356.652L81.3589 347.894L81.3291 347.888L82.8478 355.701L80.984 355.339ZM93.8958 357.992C93.1205 357.841 92.4686 357.514 91.9402 357.009C91.4197 356.497 91.089 355.878 90.948 355.152C90.7721 354.248 90.9898 353.621 91.6008 353.271C92.2119 352.921 93.1685 352.873 94.4706 353.126L95.559 353.337C95.4856 352.959 95.3798 352.662 95.2418 352.443C95.1118 352.217 94.9247 352.042 94.6806 351.918C94.4465 351.796 94.1257 351.696 93.7181 351.616C93.2211 351.52 92.7139 351.469 92.1965 351.464C91.689 351.461 91.221 351.514 90.7925 351.622L90.2728 350.129C90.743 350.039 91.2756 349.999 91.8706 350.009C92.4657 350.02 93.0713 350.085 93.6876 350.205C94.4728 350.357 95.1075 350.571 95.5915 350.847C96.0854 351.125 96.4753 351.507 96.761 351.993C97.0467 352.479 97.2611 353.089 97.4041 353.825L98.3547 358.715L96.6102 358.376L96.4214 357.479L96.3916 357.473C96.1831 357.729 95.8447 357.907 95.3765 358.007C94.9062 358.098 94.4127 358.093 93.8958 357.992ZM94.2736 356.688C94.6414 356.76 94.9668 356.761 95.2498 356.692C95.5309 356.612 95.7387 356.476 95.8732 356.282C96.0076 356.088 96.0469 355.847 95.9908 355.559L95.8082 354.619L94.9882 354.46C94.1334 354.294 93.5095 354.283 93.1166 354.426C92.7317 354.562 92.5837 354.858 92.6725 355.315C92.7382 355.653 92.9097 355.945 93.1869 356.19C93.4641 356.435 93.8263 356.601 94.2736 356.688ZM100.317 359.097L98.8104 351.344L100.51 351.674L100.717 352.589L100.747 352.595C100.959 352.311 101.242 352.118 101.595 352.014C101.946 351.901 102.38 351.894 102.897 351.995C103.403 352.093 103.849 352.271 104.234 352.527C104.626 352.776 104.93 353.083 105.145 353.45L105.175 353.456C105.401 353.146 105.692 352.944 106.047 352.851C106.402 352.757 106.843 352.762 107.369 352.864C108.204 353.026 108.854 353.368 109.319 353.889C109.782 354.399 110.105 355.127 110.288 356.071L111.291 361.23L109.517 360.885L108.601 356.174C108.487 355.587 108.309 355.141 108.068 354.836C107.827 354.531 107.498 354.338 107.081 354.257C106.584 354.16 106.223 354.248 105.998 354.52C105.774 354.792 105.715 355.201 105.821 355.748L106.714 360.34L104.925 359.992L103.983 355.147C103.884 354.64 103.705 354.237 103.446 353.938C103.185 353.629 102.861 353.437 102.474 353.361C102.175 353.303 101.917 353.33 101.7 353.441C101.492 353.553 101.34 353.729 101.243 353.969C101.156 354.21 101.146 354.505 101.214 354.852L102.107 359.445L100.317 359.097ZM117.018 362.487C115.646 362.22 114.525 361.667 113.654 360.829C112.783 359.99 112.222 358.924 111.971 357.632C111.728 356.38 111.875 355.461 112.411 354.877C112.958 354.295 113.823 354.118 115.006 354.348C116.149 354.571 117.099 355.08 117.857 355.878C118.614 356.676 119.114 357.696 119.355 358.938C119.382 359.077 119.407 359.231 119.43 359.398C119.453 359.565 119.467 359.687 119.473 359.765L113.121 358.53L112.863 357.203L117.814 358.165L117.623 358.516C117.465 357.7 117.189 357.068 116.796 356.619C116.41 356.161 115.904 355.872 115.278 355.75C114.612 355.62 114.146 355.731 113.879 356.08C113.62 356.422 113.569 356.996 113.726 357.801L113.827 358.323C113.974 359.078 114.282 359.678 114.751 360.124C115.218 360.559 115.854 360.854 116.659 361.011C117.077 361.092 117.517 361.139 117.978 361.153C118.438 361.156 118.838 361.124 119.179 361.056L119.681 362.531C119.332 362.606 118.923 362.642 118.453 362.636C117.983 362.631 117.505 362.581 117.018 362.487Z" fill="#595959"/>
<path d="M69.7592 272.346C68.5764 272.116 67.5141 271.694 66.5723 271.081C65.6305 270.467 64.8499 269.699 64.2304 268.775C63.6208 267.853 63.2029 266.811 62.9769 265.648C62.7489 264.475 62.7784 263.519 63.0653 262.781C63.3602 262.035 63.8916 261.521 64.6595 261.24C65.4274 260.959 66.4028 260.934 67.5856 261.163C68.9374 261.426 70.1922 261.952 71.3499 262.742L71.2363 264.298C70.1104 263.524 69.0206 263.035 67.967 262.83C67.1817 262.677 66.5317 262.704 66.017 262.91C65.5004 263.106 65.145 263.467 64.9509 263.994C64.7568 264.521 64.7399 265.196 64.9002 266.021C65.0587 266.836 65.3499 267.572 65.774 268.228C66.1961 268.875 66.7264 269.413 67.3647 269.843C68.0011 270.263 68.7119 270.55 69.4972 270.702C70.521 270.901 71.4987 270.814 72.4303 270.44L73.1815 272.165C72.2518 272.548 71.1111 272.609 69.7592 272.346ZM75.1409 273.248L73.6338 265.495L75.3932 265.837L75.6921 267.301L75.722 267.307C75.9147 267.019 76.1618 266.79 76.4634 266.619C76.7729 266.44 77.1298 266.333 77.534 266.296C77.9363 266.25 78.371 266.273 78.8382 266.364L79.1454 267.944C78.5192 267.822 77.9709 267.83 77.5003 267.968C77.0398 268.109 76.695 268.352 76.4661 268.7C76.2452 269.04 76.1831 269.458 76.2797 269.955L76.9897 273.608L75.1409 273.248ZM85.0273 275.314C83.6556 275.047 82.5343 274.494 81.6635 273.656C80.7927 272.817 80.2317 271.751 79.9805 270.459C79.7371 269.207 79.8838 268.288 80.4206 267.704C80.9673 267.122 81.8321 266.945 83.0149 267.175C84.158 267.398 85.1084 267.907 85.866 268.705C86.6236 269.503 87.1231 270.523 87.3646 271.765C87.3917 271.904 87.4167 272.058 87.4396 272.225C87.4625 272.392 87.4767 272.514 87.4822 272.592L81.1306 271.357L80.8727 270.03L85.8227 270.992L85.6326 271.343C85.4742 270.527 85.1983 269.895 84.8048 269.446C84.4194 268.988 83.9136 268.699 83.2874 268.577C82.6214 268.447 82.155 268.558 81.8883 268.908C81.6296 269.249 81.5784 269.823 81.7349 270.628L81.8364 271.15C81.9832 271.905 82.2912 272.505 82.7603 272.951C83.2274 273.386 83.8636 273.681 84.6687 273.838C85.0862 273.919 85.5257 273.966 85.9874 273.98C86.4471 273.983 86.8473 273.951 87.1881 273.883L87.6899 275.358C87.3412 275.433 86.932 275.469 86.4623 275.463C85.9927 275.458 85.5143 275.408 85.0273 275.314ZM92.6047 276.787C91.571 276.586 90.6972 276.076 89.9835 275.258C89.2699 274.441 88.7893 273.396 88.542 272.123C88.2947 270.851 88.3907 269.918 88.8301 269.324C89.2694 268.731 90.0059 268.534 91.0397 268.735C91.5566 268.836 92.0411 269.016 92.4934 269.276C92.9456 269.536 93.3497 269.868 93.7056 270.272L93.7503 270.281L92.9649 266.24L94.769 266.591L96.8847 277.475L95.17 277.142L94.9634 276.226L94.9336 276.221C94.711 276.503 94.3945 276.694 93.9839 276.796C93.5813 276.89 93.1216 276.887 92.6047 276.787ZM92.792 275.388C93.1797 275.464 93.5071 275.451 93.7744 275.35C94.0516 275.251 94.2527 275.079 94.3775 274.836C94.5023 274.592 94.5309 274.296 94.4633 273.949L94.1908 272.547C94.1213 272.189 93.971 271.859 93.7399 271.556C93.5069 271.242 93.2258 270.977 92.8967 270.76C92.5676 270.543 92.2042 270.396 91.8066 270.319C91.1804 270.197 90.7359 270.321 90.473 270.691C90.22 271.063 90.1728 271.656 90.3312 272.471C90.4897 273.286 90.7804 273.945 91.2033 274.448C91.6362 274.953 92.1658 275.267 92.792 275.388ZM97.4238 268.8L97.0818 267.04L98.9306 267.4L99.2726 269.159L97.4238 268.8ZM99.1974 277.925L97.6991 270.216L99.5479 270.576L101.046 278.284L99.1974 277.925ZM106.862 279.558C105.948 279.38 105.25 279.063 104.769 278.606C104.288 278.149 103.965 277.493 103.798 276.638L103.016 272.613L101.286 272.276L101.002 270.815L102.732 271.151L102.239 268.617L104.088 268.976L104.581 271.511L107.19 272.018L107.474 273.479L104.865 272.972L105.557 276.535C105.654 277.032 105.801 277.396 105.999 277.625C106.205 277.847 106.516 277.999 106.934 278.08C107.152 278.122 107.377 278.147 107.608 278.153C107.839 278.16 108.042 278.147 108.217 278.114L108.674 279.652C108.355 279.686 108.051 279.693 107.76 279.675C107.47 279.657 107.17 279.618 106.862 279.558ZM119.905 282.093C118.722 281.863 117.66 281.442 116.718 280.828C115.776 280.215 114.996 279.446 114.376 278.522C113.767 277.6 113.349 276.558 113.123 275.395C112.895 274.222 112.924 273.267 113.211 272.528C113.506 271.782 114.038 271.269 114.805 270.988C115.573 270.707 116.549 270.681 117.732 270.911C119.083 271.174 120.338 271.7 121.496 272.489L121.382 274.045C120.256 273.271 119.167 272.782 118.113 272.577C117.328 272.425 116.678 272.451 116.163 272.657C115.646 272.854 115.291 273.215 115.097 273.741C114.903 274.268 114.886 274.944 115.046 275.769C115.205 276.584 115.496 277.32 115.92 277.976C116.342 278.622 116.872 279.16 117.511 279.591C118.147 280.011 118.858 280.297 119.643 280.45C120.667 280.649 121.645 280.562 122.576 280.188L123.327 281.912C122.398 282.296 121.257 282.356 119.905 282.093ZM127.077 283.487C126.302 283.337 125.65 283.009 125.122 282.505C124.601 281.992 124.27 281.373 124.129 280.648C123.954 279.743 124.171 279.116 124.782 278.766C125.393 278.416 126.35 278.368 127.652 278.621L128.74 278.832C128.667 278.455 128.561 278.157 128.423 277.939C128.293 277.713 128.106 277.537 127.862 277.414C127.628 277.291 127.307 277.191 126.9 277.112C126.403 277.015 125.895 276.964 125.378 276.959C124.87 276.956 124.402 277.009 123.974 277.117L123.454 275.624C123.924 275.534 124.457 275.494 125.052 275.504C125.647 275.515 126.253 275.58 126.869 275.7C127.654 275.852 128.289 276.067 128.773 276.342C129.267 276.62 129.657 277.002 129.942 277.488C130.228 277.974 130.443 278.585 130.586 279.32L131.536 284.211L129.792 283.871L129.603 282.974L129.573 282.968C129.365 283.224 129.026 283.402 128.558 283.503C128.088 283.593 127.594 283.588 127.077 283.487ZM127.455 282.184C127.823 282.255 128.148 282.256 128.431 282.187C128.712 282.107 128.92 281.971 129.055 281.777C129.189 281.583 129.228 281.342 129.172 281.054L128.99 280.115L128.17 279.955C127.315 279.789 126.691 279.778 126.298 279.921C125.913 280.057 125.765 280.353 125.854 280.811C125.92 281.149 126.091 281.44 126.368 281.685C126.646 281.93 127.008 282.097 127.455 282.184ZM133.499 284.592L131.992 276.839L133.751 277.181L134.05 278.645L134.08 278.651C134.273 278.363 134.52 278.134 134.821 277.963C135.131 277.784 135.488 277.676 135.892 277.64C136.294 277.594 136.729 277.616 137.196 277.707L137.503 279.288C136.877 279.166 136.329 279.174 135.858 279.312C135.398 279.452 135.053 279.696 134.824 280.044C134.603 280.383 134.541 280.802 134.638 281.299L135.348 284.951L133.499 284.592ZM142.401 286.466C141.367 286.265 140.494 285.756 139.78 284.938C139.066 284.12 138.586 283.075 138.339 281.803C138.091 280.53 138.187 279.597 138.627 279.004C139.066 278.41 139.802 278.214 140.836 278.415C141.353 278.515 141.838 278.695 142.29 278.955C142.742 279.216 143.146 279.548 143.502 279.951L143.547 279.96L142.761 275.92L144.565 276.27L146.681 287.154L144.967 286.821L144.76 285.906L144.73 285.9C144.508 286.182 144.191 286.374 143.78 286.476C143.378 286.57 142.918 286.566 142.401 286.466ZM142.588 285.068C142.976 285.143 143.304 285.13 143.571 285.029C143.848 284.93 144.049 284.759 144.174 284.515C144.299 284.272 144.327 283.976 144.26 283.628L143.987 282.226C143.918 281.869 143.767 281.538 143.536 281.235C143.303 280.922 143.022 280.657 142.693 280.44C142.364 280.223 142.001 280.076 141.603 279.998C140.977 279.877 140.532 280.001 140.269 280.37C140.017 280.742 139.969 281.335 140.128 282.151C140.286 282.966 140.577 283.625 141 284.128C141.433 284.633 141.962 284.946 142.588 285.068ZM153.129 288.408L151.013 277.524L152.996 277.909L159.391 286.67L159.42 286.675L157.902 278.863L159.751 279.222L161.866 290.106L159.883 289.721L153.504 280.963L153.474 280.957L154.993 288.77L153.129 288.408ZM167.577 291.36C166.324 291.116 165.287 290.58 164.466 289.751C163.653 288.914 163.122 287.854 162.873 286.572C162.624 285.289 162.769 284.366 163.31 283.802C163.859 283.229 164.759 283.065 166.012 283.308C167.264 283.552 168.302 284.093 169.125 284.932C169.946 285.761 170.481 286.817 170.73 288.099C170.979 289.381 170.83 290.309 170.281 290.881C169.73 291.444 168.829 291.603 167.577 291.36ZM167.293 289.898C167.978 290.032 168.459 289.919 168.733 289.562C169.006 289.194 169.061 288.587 168.896 287.743C168.732 286.898 168.43 286.227 167.989 285.73C167.546 285.223 166.981 284.903 166.296 284.769C165.62 284.638 165.14 284.755 164.858 285.121C164.583 285.479 164.528 286.08 164.692 286.925C164.856 287.77 165.16 288.446 165.602 288.953C166.053 289.452 166.617 289.767 167.293 289.898ZM172.934 292.258L172.525 290.155L174.643 290.567L175.051 292.669L172.934 292.258Z" fill="#595959"/>
<path d="M211.15 376.541L209.034 365.657L216.31 367.071L216.623 368.682L211.211 367.63L211.756 370.433L216.87 371.427L217.177 373.007L212.063 372.013L212.701 375.293L218.113 376.345L218.426 377.956L211.15 376.541ZM219.621 378.188L221.321 374.76L218.143 370.441L220.171 370.835L222.374 374.046L222.403 374.052L223.481 371.478L225.509 371.872L223.826 375.247L227.046 379.631L225.018 379.237L222.777 375.975L222.747 375.969L221.663 378.585L219.621 378.188ZM231.364 372.867C232.397 373.068 233.271 373.577 233.985 374.395C234.698 375.213 235.179 376.258 235.426 377.53C235.674 378.802 235.578 379.735 235.138 380.329C234.699 380.923 233.962 381.119 232.929 380.918C232.422 380.82 231.937 380.639 231.475 380.377C231.021 380.107 230.617 379.775 230.263 379.381L230.233 379.375L231.018 383.416L229.184 383.06L227.069 372.175L228.813 372.514L229.005 373.427L229.035 373.433C229.265 373.143 229.582 372.951 229.984 372.857C230.387 372.763 230.847 372.766 231.364 372.867ZM231.176 374.265C230.799 374.192 230.471 374.204 230.194 374.304C229.917 374.403 229.716 374.574 229.591 374.818C229.474 375.053 229.45 375.35 229.52 375.708L229.792 377.109C229.86 377.457 230.005 377.787 230.228 378.098C230.461 378.411 230.747 378.677 231.087 378.896C231.426 379.115 231.784 379.261 232.162 379.334C232.798 379.458 233.242 379.334 233.495 378.962C233.748 378.591 233.796 377.997 233.637 377.182C233.479 376.367 233.188 375.708 232.765 375.205C232.342 374.702 231.812 374.389 231.176 374.265ZM237.638 381.69L237.229 379.588L239.346 379.999L239.755 382.102L237.638 381.69Z" fill="#595959"/>
<path d="M220.785 406.447C219.541 406.205 218.541 405.633 217.783 404.732C217.026 403.831 216.489 402.566 216.173 400.939C215.857 399.312 215.925 398.165 216.377 397.499C216.83 396.832 217.678 396.62 218.922 396.862C220.166 397.104 221.162 397.674 221.911 398.574C222.668 399.476 223.205 400.74 223.521 402.367C223.838 403.995 223.77 405.141 223.317 405.808C222.873 406.476 222.029 406.689 220.785 406.447ZM220.509 405.028C221.216 405.166 221.679 404.993 221.897 404.511C222.114 404.029 222.111 403.208 221.885 402.049C221.659 400.882 221.331 399.999 220.903 399.399C220.473 398.791 219.905 398.418 219.198 398.28C218.491 398.143 218.024 398.315 217.798 398.795C217.578 399.269 217.582 400.09 217.809 401.257C218.034 402.416 218.361 403.299 218.791 403.907C219.229 404.517 219.802 404.891 220.509 405.028ZM227.134 398.458C227.901 398.607 228.575 398.869 229.156 399.245C229.737 399.62 230.211 400.097 230.578 400.677C230.953 401.258 231.217 401.941 231.37 402.725C231.598 403.9 231.568 404.882 231.278 405.67C230.996 406.452 230.481 407.012 229.736 407.35C228.99 407.689 228.031 407.777 226.86 407.615L226.328 406.27C227.373 406.416 228.19 406.357 228.778 406.094C229.365 405.823 229.741 405.335 229.908 404.629L229.88 404.612C229.608 404.731 229.306 404.803 228.975 404.829C228.652 404.857 228.287 404.831 227.878 404.751C226.932 404.567 226.133 404.146 225.48 403.486C224.835 402.828 224.418 402.009 224.227 401.029C224.095 400.347 224.122 399.791 224.309 399.36C224.496 398.929 224.828 398.637 225.307 398.484C225.784 398.323 226.393 398.314 227.134 398.458ZM227.4 399.826C226.769 399.703 226.316 399.775 226.04 400.041C225.77 400.3 225.693 400.724 225.807 401.311C225.921 401.899 226.168 402.39 226.548 402.784C226.935 403.17 227.427 403.422 228.023 403.537C228.449 403.62 228.802 403.623 229.082 403.547C229.361 403.461 229.555 403.298 229.663 403.057C229.779 402.809 229.801 402.498 229.728 402.123C229.663 401.79 229.535 401.466 229.342 401.15C229.158 400.835 228.904 400.561 228.579 400.325C228.261 400.083 227.868 399.917 227.4 399.826ZM233.322 409.253L235.859 399.785L237.419 400.088L234.881 409.556L233.322 409.253ZM243.919 410.821L242.453 403.28L242.427 403.275L239.531 404.569L238.8 403.087L242.105 401.491L243.728 401.807L245.542 411.136L243.919 410.821ZM252.131 412.417L250.665 404.877L250.64 404.872L247.743 406.166L247.012 404.683L250.317 403.088L251.94 403.403L253.754 412.732L252.131 412.417Z" fill="#424242"/>
<path d="M85.6728 380.061L83.8594 370.731L86.671 371.278C88.0427 371.544 89.0868 371.961 89.8034 372.526C90.5285 373.093 90.9846 373.858 91.1718 374.821C91.3556 375.767 91.1863 376.414 90.664 376.764C90.1502 377.115 89.2713 377.169 88.0274 376.928L85.6503 376.465L85.4119 375.239L87.5844 375.661C88.4535 375.83 89.0565 375.832 89.3935 375.668C89.7374 375.497 89.8564 375.139 89.7504 374.594C89.6444 374.049 89.3722 373.619 88.9339 373.304C88.5025 372.982 87.8523 372.737 86.9833 372.568L85.5136 372.283L87.0786 380.334L85.6728 380.061ZM91.1298 381.121L86.07 376.031L87.8464 376.376L92.9573 381.477L91.1298 381.121ZM94.4839 381.773L92.6705 372.444L98.8048 373.636L99.0483 374.889L94.3197 373.97L94.8215 376.551L99.2945 377.421L99.5329 378.648L95.06 377.778L95.6463 380.794L100.375 381.713L100.618 382.966L94.4839 381.773ZM108.322 384.463L106.509 375.134L107.914 375.407L109.728 384.736L108.322 384.463ZM102.571 383.345L100.758 374.016L102.164 374.289L103.977 383.619L102.571 383.345ZM102.449 379.239L102.201 377.961L107.952 379.079L108.2 380.357L102.449 379.239ZM110.986 384.981L112.572 376.312L114.477 376.683L119.677 386.67L118.13 386.37L113.764 377.7L113.739 377.695L112.533 385.282L110.986 384.981ZM112.295 382.985L112.047 381.707L117.223 382.713L117.471 383.991L112.295 382.985ZM120.93 386.914L119.116 377.585L120.65 377.883L126.464 385.776L126.489 385.781L125.123 378.752L126.529 379.025L128.342 388.355L126.808 388.057L120.995 380.163L120.969 380.158L122.336 387.187L120.93 386.914ZM134.096 389.473L132.283 380.144L135.095 380.69C136.466 380.957 137.51 381.373 138.227 381.939C138.952 382.506 139.408 383.271 139.595 384.234C139.779 385.179 139.61 385.827 139.088 386.176C138.574 386.527 137.695 386.582 136.451 386.34L134.074 385.878L133.836 384.651L136.008 385.074C136.877 385.242 137.48 385.245 137.817 385.081C138.161 384.91 138.28 384.552 138.174 384.007C138.068 383.461 137.796 383.031 137.358 382.717C136.926 382.395 136.276 382.15 135.407 381.981L133.937 381.695L135.502 389.746L134.096 389.473ZM139.553 390.534L134.494 385.443L136.27 385.788L141.381 390.889L139.553 390.534ZM141.987 391.007L143.573 382.339L145.478 382.709L150.678 392.696L149.131 392.396L144.765 383.726L144.74 383.721L143.534 391.308L141.987 391.007ZM143.296 389.011L143.048 387.733L148.224 388.739L148.472 390.017L143.296 389.011ZM152.046 392.962L150.232 383.633L151.689 383.916L153.503 393.245L152.046 392.962ZM161.538 394.807L159.725 385.478L161.131 385.751L162.944 395.081L161.538 394.807ZM155.787 393.689L153.974 384.36L155.38 384.633L157.193 393.963L155.787 393.689ZM155.665 389.583L155.417 388.305L161.168 389.423L161.416 390.701L155.665 389.583ZM164.202 395.325L165.788 386.657L167.693 387.027L172.893 397.014L171.346 396.714L166.98 388.044L166.955 388.039L165.749 395.626L164.202 395.325ZM165.511 393.329L165.263 392.051L170.439 393.057L170.687 394.335L165.511 393.329ZM174.146 397.258L172.332 387.929L173.866 388.227L179.68 396.12L179.705 396.125L178.339 389.096L179.745 389.369L181.558 398.699L180.025 398.401L174.211 390.507L174.185 390.502L175.552 397.531L174.146 397.258Z" fill="#424242"/>
<path fill-rule="evenodd" clip-rule="evenodd" d="M71.5894 217.474C73.6769 215.632 74.6185 212.59 73.8946 208.866C73.1707 205.142 70.9262 201.481 67.9305 198.651C69.7992 197.002 72.5873 196.315 75.921 196.963C82.979 198.335 89.8131 205.169 91.185 212.227C92.5569 219.285 87.9473 223.894 80.8893 222.522C77.5556 221.874 74.2709 220.007 71.5894 217.474ZM71.5894 217.474C69.7207 219.122 66.9326 219.81 63.5989 219.162C56.5409 217.79 49.7068 210.956 48.3349 203.898C46.963 196.84 51.5726 192.23 58.6306 193.602C61.9643 194.25 65.249 196.117 67.9305 198.651C65.843 200.492 64.9014 203.534 65.6253 207.258C66.3492 210.983 68.5937 214.644 71.5894 217.474Z" fill="#424242"/>
<path fill-rule="evenodd" clip-rule="evenodd" d="M375.315 255.397C375.828 255.087 376.685 255.386 377.227 256.066C380.115 259.684 383.876 265.628 385.843 271.817C387.823 278.049 388.001 284.61 383.531 289.168C383.118 289.59 382.278 289.432 381.656 288.815C381.034 288.199 380.865 287.357 381.279 286.935C385.177 282.96 385.062 277.269 383.277 271.652C381.479 265.992 378.002 260.491 375.367 257.19C374.824 256.51 374.801 255.708 375.315 255.397ZM370.506 259.148C371.019 258.837 371.875 259.135 372.418 259.814C374.455 262.361 377.101 266.533 378.487 270.888C379.886 275.286 380.016 279.949 376.83 283.182C376.415 283.603 375.576 283.444 374.954 282.827C374.333 282.209 374.165 281.368 374.58 280.947C377.192 278.296 377.124 274.504 375.922 270.724C374.705 266.9 372.344 263.172 370.561 260.942C370.018 260.263 369.993 259.46 370.506 259.148ZM367.108 263.602C367.618 263.287 368.474 263.581 369.02 264.259C370.13 265.637 371.561 267.878 372.313 270.233C373.08 272.633 373.155 275.227 371.368 277.015C370.95 277.432 370.11 277.269 369.49 276.65C368.871 276.03 368.708 275.19 369.125 274.772C370.333 273.564 370.316 271.846 369.749 270.072C369.168 268.254 368.027 266.46 367.172 265.398C366.626 264.721 366.598 263.916 367.108 263.602ZM364.53 268.394C364.041 268.299 363.722 268.618 363.817 269.107C363.912 269.596 364.386 270.069 364.874 270.164C365.363 270.259 365.683 269.94 365.588 269.451C365.493 268.962 365.019 268.489 364.53 268.394ZM361.162 268.591C360.782 266.636 362.059 265.358 364.014 265.739C365.97 266.119 367.863 268.012 368.243 269.968C368.623 271.923 367.346 273.2 365.391 272.82C363.435 272.44 361.542 270.546 361.162 268.591Z" fill="#424242"/>
<path d="M73.2787 305.437L70.9394 293.403L70.8968 293.395L67.0798 296.321L66.4008 292.828L70.2563 289.888L73.3235 290.485L76.3458 306.033L73.2787 305.437ZM83.8848 307.704C82.692 307.472 81.6935 307.08 80.8892 306.527C80.0992 305.977 79.4498 305.202 78.941 304.201C78.4465 303.204 78.0474 301.924 77.7437 300.362C77.3159 298.161 77.2508 296.42 77.5482 295.138C77.843 293.843 78.5205 292.97 79.5808 292.521C80.6411 292.071 82.1057 292.014 83.9745 292.35L84.4879 294.991C83.6359 294.826 82.8967 294.819 82.2704 294.97C81.6412 295.107 81.1677 295.377 80.8497 295.78C80.5318 296.183 80.4079 296.705 80.478 297.348L80.5632 297.364C80.9194 297.228 81.2667 297.152 81.6052 297.136C81.9436 297.12 82.3187 297.152 82.7305 297.232C84.0937 297.497 85.1762 298.11 85.9781 299.072C86.7913 300.023 87.3677 301.372 87.7072 303.118C88.0909 305.092 87.9835 306.437 87.3851 307.155C86.7981 307.86 85.6313 308.043 83.8848 307.704ZM83.4092 305.152C84.0482 305.276 84.4727 305.14 84.6825 304.744C84.8896 304.333 84.8993 303.645 84.7117 302.679C84.524 301.714 84.2369 300.975 83.8503 300.462C83.4611 299.936 82.9469 299.61 82.3079 299.486C81.6689 299.362 81.2459 299.505 81.0388 299.916C80.8289 300.312 80.8178 300.993 81.0055 301.959C81.1932 302.925 81.4817 303.671 81.871 304.197C82.2575 304.71 82.7702 305.028 83.4092 305.152ZM93.1849 302.83C92.7305 302.742 92.3422 302.537 92.02 302.214C91.6977 301.892 91.4938 301.511 91.4083 301.071C91.3199 300.616 91.3858 300.288 91.6059 300.084C91.8233 299.867 92.1592 299.803 92.6136 299.891C93.068 299.979 93.4563 300.184 93.7785 300.507C94.098 300.815 94.3019 301.196 94.3902 301.65C94.4758 302.091 94.4099 302.419 94.1925 302.637C93.9752 302.854 93.6393 302.919 93.1849 302.83ZM94.5346 309.774C93.3561 309.545 92.3733 309.128 91.5864 308.525C90.7968 307.907 90.1409 307.028 89.6187 305.888C89.0966 304.748 88.6616 303.283 88.3138 301.494L88.0654 300.216C87.7148 298.413 87.5923 297.009 87.6977 296.005C87.8003 294.986 88.1539 294.31 88.7586 293.977C89.3606 293.629 90.2509 293.57 91.4294 293.799C92.5938 294.025 93.5708 294.448 94.3605 295.066C95.1616 295.672 95.8232 296.546 96.3454 297.685C96.8648 298.811 97.2997 300.276 97.6503 302.079L97.8987 303.357C98.2465 305.146 98.3691 306.55 98.2664 307.569C98.1638 308.587 97.8044 309.269 97.1883 309.613C96.5836 309.947 95.699 310 94.5346 309.774ZM94.0212 307.133C94.504 307.227 94.8413 307.169 95.033 306.961C95.2247 306.752 95.2956 306.308 95.2455 305.629C95.2069 304.938 95.0551 303.911 94.7901 302.548L94.6245 301.696C94.3595 300.333 94.1097 299.294 93.8751 298.578C93.6519 297.852 93.3947 297.337 93.1037 297.035C92.8126 296.732 92.4256 296.534 91.9428 296.44C91.4742 296.349 91.137 296.407 90.9311 296.613C90.7394 296.821 90.6628 297.271 90.7014 297.962C90.7515 298.641 90.909 299.662 91.174 301.025L91.3396 301.877C91.6045 303.24 91.8486 304.285 92.0718 305.012C92.3065 305.727 92.5694 306.236 92.8604 306.538C93.1657 306.844 93.5527 307.042 94.0212 307.133ZM100.386 308.247C101.15 307.398 101.788 306.634 102.298 305.954C102.805 305.26 103.201 304.627 103.486 304.054C103.768 303.466 103.949 302.921 104.028 302.417C104.108 301.913 104.101 301.42 104.007 300.937C103.861 300.185 103.59 299.599 103.194 299.181C102.799 298.762 102.253 298.485 101.557 298.35C100.649 298.174 99.6275 298.228 98.4942 298.513L97.956 295.744C98.9299 295.483 100.184 295.501 101.717 295.799C103.265 296.1 104.473 296.69 105.34 297.569C106.205 298.434 106.79 299.647 107.093 301.209C107.22 301.863 107.258 302.512 107.206 303.158C107.165 303.792 107.029 304.428 106.798 305.066C106.567 305.705 106.247 306.346 105.84 306.991C105.447 307.639 104.951 308.287 104.353 308.936L104.369 309.021L108.906 309.903L109.403 312.459L100.883 310.803L100.386 308.247ZM135.784 311.111C135.33 311.022 134.942 310.817 134.619 310.495C134.297 310.173 134.093 309.791 134.008 309.351C133.919 308.897 133.985 308.568 134.205 308.365C134.423 308.148 134.759 308.083 135.213 308.171C135.667 308.26 136.056 308.465 136.378 308.787C136.697 309.095 136.901 309.476 136.99 309.931C137.075 310.371 137.009 310.7 136.792 310.917C136.575 311.135 136.239 311.199 135.784 311.111ZM137.134 318.054C135.956 317.825 134.973 317.409 134.186 316.805C133.396 316.187 132.74 315.308 132.218 314.168C131.696 313.028 131.261 311.564 130.913 309.775L130.665 308.497C130.314 306.693 130.192 305.289 130.297 304.285C130.4 303.267 130.753 302.591 131.358 302.257C131.96 301.91 132.85 301.851 134.029 302.08C135.193 302.306 136.17 302.728 136.96 303.346C137.761 303.953 138.423 304.826 138.945 305.966C139.464 307.092 139.899 308.556 140.25 310.36L140.498 311.638C140.846 313.427 140.969 314.831 140.866 315.849C140.763 316.868 140.404 317.549 139.788 317.894C139.183 318.227 138.299 318.281 137.134 318.054ZM136.621 315.413C137.104 315.507 137.441 315.45 137.633 315.241C137.824 315.032 137.895 314.588 137.845 313.909C137.806 313.219 137.655 312.192 137.39 310.828L137.224 309.976C136.959 308.613 136.709 307.574 136.475 306.859C136.251 306.132 135.994 305.618 135.703 305.315C135.412 305.013 135.025 304.815 134.542 304.721C134.074 304.63 133.736 304.687 133.531 304.893C133.339 305.102 133.262 305.551 133.301 306.242C133.351 306.921 133.508 307.943 133.773 309.306L133.939 310.158C134.204 311.521 134.448 312.566 134.671 313.292C134.906 314.007 135.169 314.516 135.46 314.819C135.765 315.124 136.152 315.322 136.621 315.413ZM144.679 304.15C145.886 304.384 146.884 304.777 147.674 305.326C148.464 305.876 149.107 306.65 149.601 307.648C150.11 308.649 150.516 309.93 150.82 311.492C151.245 313.679 151.31 315.42 151.015 316.715C150.721 318.011 150.043 318.883 148.983 319.333C147.937 319.785 146.472 319.842 144.589 319.504L144.076 316.862C144.942 317.031 145.682 317.045 146.297 316.905C146.924 316.753 147.396 316.476 147.714 316.073C148.029 315.657 148.153 315.134 148.086 314.506L148 314.49C147.644 314.625 147.297 314.701 146.958 314.717C146.62 314.734 146.245 314.702 145.833 314.622C144.47 314.357 143.382 313.749 142.568 312.798C141.767 311.836 141.196 310.482 140.856 308.735C140.473 306.762 140.574 305.422 141.161 304.716C141.76 303.999 142.932 303.81 144.679 304.15ZM145.154 306.702C144.515 306.577 144.092 306.721 143.885 307.131C143.675 307.528 143.664 308.209 143.852 309.174C144.04 310.14 144.328 310.886 144.717 311.413C145.104 311.925 145.617 312.243 146.256 312.367C146.895 312.492 147.319 312.355 147.529 311.959C147.736 311.548 147.746 310.86 147.558 309.895C147.37 308.929 147.083 308.19 146.697 307.678C146.307 307.151 145.793 306.826 145.154 306.702ZM158.478 321.998L156.138 309.964L156.096 309.956L152.279 312.882L151.6 309.389L155.455 306.449L158.522 307.046L161.545 322.594L158.478 321.998ZM169.128 324.068L166.788 312.034L166.746 312.026L162.929 314.952L162.25 311.459L166.105 308.52L169.172 309.116L172.195 324.665L169.128 324.068ZM196.235 326.878C196.999 326.029 197.636 325.265 198.146 324.585C198.654 323.892 199.05 323.258 199.335 322.685C199.617 322.098 199.798 321.552 199.877 321.048C199.957 320.545 199.95 320.051 199.856 319.569C199.71 318.816 199.439 318.23 199.043 317.812C198.648 317.393 198.102 317.117 197.406 316.981C196.497 316.805 195.476 316.859 194.343 317.144L193.805 314.375C194.779 314.114 196.033 314.132 197.566 314.43C199.114 314.731 200.322 315.321 201.189 316.2C202.054 317.065 202.639 318.278 202.942 319.84C203.069 320.494 203.107 321.143 203.055 321.789C203.014 322.423 202.878 323.059 202.647 323.698C202.416 324.336 202.096 324.977 201.689 325.622C201.295 326.27 200.8 326.918 200.202 327.567L200.218 327.652L204.755 328.534L205.252 331.09L196.732 329.434L196.235 326.878ZM210.334 325.602C209.879 325.513 209.491 325.308 209.169 324.986C208.846 324.664 208.642 324.282 208.557 323.842C208.469 323.388 208.534 323.059 208.755 322.856C208.972 322.638 209.308 322.574 209.762 322.662C210.217 322.751 210.605 322.956 210.927 323.278C211.247 323.586 211.451 323.967 211.539 324.422C211.624 324.862 211.559 325.191 211.341 325.408C211.124 325.625 210.788 325.69 210.334 325.602ZM211.683 332.545C210.505 332.316 209.522 331.9 208.735 331.296C207.945 330.678 207.29 329.799 206.767 328.659C206.245 327.519 205.81 326.055 205.462 324.265L205.214 322.987C204.863 321.184 204.741 319.78 204.846 318.776C204.949 317.757 205.303 317.082 205.907 316.748C206.509 316.401 207.399 316.341 208.578 316.571C209.742 316.797 210.719 317.219 211.509 317.837C212.31 318.444 212.972 319.317 213.494 320.457C214.013 321.583 214.448 323.047 214.799 324.851L215.047 326.128C215.395 327.918 215.518 329.321 215.415 330.34C215.312 331.358 214.953 332.04 214.337 332.385C213.732 332.718 212.848 332.772 211.683 332.545ZM211.17 329.904C211.653 329.998 211.99 329.941 212.182 329.732C212.373 329.523 212.444 329.079 212.394 328.4C212.356 327.709 212.204 326.682 211.939 325.319L211.773 324.467C211.508 323.104 211.258 322.065 211.024 321.35C210.8 320.623 210.543 320.109 210.252 319.806C209.961 319.504 209.574 319.306 209.091 319.212C208.623 319.121 208.286 319.178 208.08 319.384C207.888 319.593 207.811 320.042 207.85 320.733C207.9 321.412 208.058 322.433 208.323 323.797L208.488 324.649C208.753 326.012 208.997 327.057 209.22 327.783C209.455 328.498 209.718 329.007 210.009 329.31C210.314 329.615 210.701 329.813 211.17 329.904ZM222.377 334.419L220.038 322.385L219.995 322.376L216.178 325.303L215.499 321.81L219.355 318.87L222.422 319.466L225.444 335.015L222.377 334.419ZM229.878 320.711C231.085 320.945 232.083 321.338 232.873 321.887C233.663 322.437 234.306 323.211 234.8 324.209C235.309 325.21 235.715 326.491 236.019 328.053C236.444 330.24 236.509 331.981 236.214 333.276C235.92 334.572 235.242 335.444 234.182 335.894C233.136 336.346 231.671 336.403 229.788 336.065L229.275 333.423C230.141 333.592 230.881 333.606 231.496 333.466C232.123 333.314 232.595 333.037 232.913 332.634C233.228 332.218 233.352 331.695 233.285 331.067L233.199 331.051C232.843 331.186 232.496 331.262 232.157 331.278C231.819 331.295 231.444 331.263 231.032 331.183C229.669 330.918 228.581 330.31 227.767 329.359C226.966 328.397 226.395 327.043 226.055 325.296C225.672 323.323 225.773 321.983 226.36 321.277C226.959 320.56 228.131 320.371 229.878 320.711ZM230.353 323.263C229.714 323.138 229.291 323.282 229.084 323.692C228.874 324.089 228.863 324.77 229.051 325.735C229.239 326.701 229.527 327.447 229.916 327.974C230.303 328.486 230.816 328.804 231.455 328.928C232.094 329.053 232.518 328.916 232.728 328.52C232.935 328.109 232.945 327.421 232.757 326.456C232.569 325.49 232.282 324.751 231.896 324.239C231.506 323.712 230.992 323.387 230.353 323.263ZM260.134 339.299C260.899 338.45 261.536 337.686 262.046 337.006C262.553 336.312 262.949 335.679 263.234 335.106C263.516 334.518 263.697 333.973 263.777 333.469C263.856 332.965 263.849 332.472 263.755 331.989C263.609 331.237 263.338 330.651 262.943 330.233C262.547 329.814 262.001 329.537 261.305 329.402C260.397 329.225 259.376 329.28 258.242 329.565L257.704 326.796C258.678 326.534 259.932 326.553 261.465 326.851C263.013 327.152 264.221 327.742 265.089 328.621C265.954 329.486 266.538 330.699 266.841 332.261C266.968 332.914 267.006 333.564 266.954 334.21C266.913 334.844 266.777 335.48 266.546 336.118C266.315 336.757 265.995 337.398 265.588 338.043C265.195 338.691 264.699 339.339 264.101 339.988L264.118 340.073L268.654 340.955L269.151 343.511L260.631 341.855L260.134 339.299ZM274.233 338.022C273.778 337.934 273.39 337.729 273.068 337.407C272.746 337.084 272.542 336.703 272.456 336.263C272.368 335.808 272.434 335.48 272.654 335.277C272.871 335.059 273.207 334.995 273.661 335.083C274.116 335.171 274.504 335.377 274.826 335.699C275.146 336.007 275.35 336.388 275.438 336.843C275.524 337.283 275.458 337.611 275.24 337.829C275.023 338.046 274.687 338.111 274.233 338.022ZM275.583 344.966C274.404 344.737 273.421 344.321 272.634 343.717C271.845 343.099 271.189 342.22 270.667 341.08C270.144 339.94 269.709 338.475 269.362 336.686L269.113 335.408C268.763 333.605 268.64 332.201 268.746 331.197C268.848 330.178 269.202 329.502 269.807 329.169C270.408 328.821 271.299 328.762 272.477 328.991C273.642 329.218 274.619 329.64 275.408 330.258C276.209 330.864 276.871 331.738 277.393 332.878C277.913 334.003 278.348 335.468 278.698 337.271L278.947 338.549C279.294 340.338 279.417 341.742 279.314 342.761C279.212 343.779 278.852 344.461 278.236 344.806C277.631 345.139 276.747 345.192 275.583 344.966ZM275.069 342.325C275.552 342.419 275.889 342.361 276.081 342.153C276.273 341.944 276.343 341.5 276.293 340.821C276.255 340.13 276.103 339.103 275.838 337.74L275.672 336.888C275.407 335.525 275.158 334.486 274.923 333.771C274.7 333.044 274.443 332.53 274.152 332.227C273.86 331.924 273.474 331.726 272.991 331.632C272.522 331.541 272.185 331.599 271.979 331.805C271.787 332.013 271.711 332.463 271.749 333.154C271.799 333.833 271.957 334.854 272.222 336.217L272.387 337.069C272.652 338.433 272.897 339.477 273.12 340.204C273.354 340.919 273.617 341.428 273.908 341.73C274.214 342.036 274.601 342.234 275.069 342.325ZM281.434 343.439C282.198 342.59 282.835 341.826 283.345 341.146C283.853 340.453 284.249 339.819 284.534 339.246C284.816 338.659 284.997 338.113 285.076 337.609C285.156 337.106 285.149 336.612 285.055 336.13C284.909 335.377 284.638 334.791 284.242 334.373C283.847 333.954 283.301 333.678 282.605 333.542C281.696 333.366 280.675 333.42 279.542 333.705L279.004 330.936C279.978 330.675 281.232 330.693 282.765 330.991C284.313 331.292 285.521 331.882 286.388 332.761C287.253 333.626 287.838 334.839 288.141 336.401C288.268 337.055 288.306 337.704 288.254 338.35C288.213 338.984 288.077 339.62 287.846 340.259C287.615 340.897 287.295 341.538 286.888 342.183C286.494 342.831 285.999 343.479 285.401 344.128L285.417 344.213L289.954 345.095L290.451 347.651L281.931 345.995L281.434 343.439ZM296.926 348.91L294.587 336.876L294.544 336.867L290.727 339.794L290.048 336.301L293.904 333.361L296.971 333.957L299.993 349.506L296.926 348.91Z" fill="#424242"/>
<path d="M374.648 417.046C374.522 416.397 374.946 415.973 375.595 416.099L385.584 418.041C386.233 418.167 386.861 418.795 386.987 419.444L388.442 426.928C388.53 427.382 388.35 427.744 387.979 427.859L383.446 429.267C383.156 429.357 382.785 429.285 382.436 429.07L376.979 425.721C376.532 425.447 376.191 424.983 376.103 424.53L374.648 417.046Z" fill="#424242"/>
<path d="M393.451 420.701C393.325 420.052 393.749 419.628 394.398 419.754L397.335 420.325C397.984 420.451 398.613 421.08 398.739 421.729L399.196 424.079C399.322 424.728 398.898 425.152 398.249 425.026L395.311 424.455C394.662 424.328 394.034 423.7 393.908 423.051L393.451 420.701Z" fill="#424242"/>
<path d="M405.202 422.985C405.076 422.336 405.5 421.912 406.149 422.038L416.138 423.98C416.787 424.106 417.415 424.734 417.542 425.383L418.912 432.434C419.038 433.083 418.614 433.507 417.965 433.381L407.977 431.439C407.328 431.313 406.699 430.685 406.573 430.036L405.202 422.985Z" fill="#424242"/>
<path d="M377.047 429.385C376.921 428.736 377.344 428.312 377.993 428.438L387.982 430.38C388.631 430.506 389.26 431.134 389.386 431.783L390.756 438.834C390.883 439.483 390.459 439.907 389.81 439.781L379.821 437.839C379.172 437.713 378.543 437.085 378.417 436.436L377.047 429.385Z" fill="#424242"/>
<path d="M391.41 427.654C391.284 427.005 391.708 426.581 392.357 426.707L402.346 428.649C402.995 428.775 403.623 429.403 403.749 430.052L406.947 446.505C407.073 447.154 406.65 447.577 406.001 447.451L396.012 445.51C395.363 445.383 394.734 444.755 394.608 444.106L391.41 427.654Z" fill="#424242"/>
<path d="M407.601 435.324C407.475 434.675 407.899 434.251 408.548 434.377L418.536 436.319C419.185 436.445 419.814 437.074 419.94 437.723L421.311 444.773C421.437 445.423 421.013 445.846 420.364 445.72L410.375 443.779C409.726 443.652 409.098 443.024 408.971 442.375L407.601 435.324Z" fill="#424242"/>
<path d="M379.445 441.724C379.319 441.075 379.743 440.651 380.392 440.777L390.381 442.719C391.03 442.845 391.658 443.474 391.784 444.123L393.155 451.174C393.281 451.823 392.857 452.246 392.208 452.12L382.219 450.179C381.57 450.052 380.942 449.424 380.816 448.775L379.445 441.724Z" fill="#424242"/>
<path d="M399.161 450.08C399.035 449.431 399.459 449.007 400.108 449.133L403.046 449.704C403.695 449.83 404.324 450.458 404.45 451.107L404.907 453.458C405.033 454.107 404.609 454.531 403.96 454.405L401.022 453.833C400.373 453.707 399.745 453.079 399.618 452.43L399.161 450.08Z" fill="#424242"/>
<path d="M409.915 447.23C409.827 446.777 410.007 446.415 410.379 446.299L414.911 444.892C415.201 444.802 415.572 444.874 415.921 445.088L421.378 448.437C421.825 448.712 422.166 449.175 422.254 449.629L423.709 457.113C423.835 457.762 423.411 458.186 422.762 458.059L412.774 456.118C412.125 455.992 411.496 455.363 411.37 454.714L409.915 447.23Z" fill="#424242"/>
<g filter="url(#filter0_b_18_11)">
<rect width="412.27" height="260.381" rx="34.7175" transform="matrix(1 0 0.0348995 0.999391 20.8482 1.46777)" fill="white" fill-opacity="0.1"/>
<rect width="412.27" height="260.381" rx="34.7175" transform="matrix(1 0 0.0348995 0.999391 20.8482 1.46777)" stroke="url(#paint1_linear_18_11)" stroke-opacity="0.5" stroke-width="2.16984"/>
</g>
<path d="M72.2749 196.191L71.8879 185.11H73.908L79.1525 193.064H79.1829L78.9052 185.11H80.7886L81.1755 196.191H79.1554L73.9261 188.237H73.8957L74.1735 196.191H72.2749ZM85.4041 196.343C84.6142 196.343 83.9841 196.131 83.5136 195.706C83.0528 195.271 82.8096 194.684 82.7838 193.945C82.7516 193.024 83.0863 192.316 83.788 191.82C84.4896 191.324 85.5037 191.076 86.8302 191.076H87.9389C87.9255 190.691 87.8646 190.398 87.7563 190.195C87.6578 189.983 87.4906 189.836 87.2549 189.755C87.0293 189.674 86.7089 189.634 86.2937 189.634C85.7875 189.634 85.2627 189.684 84.7194 189.786C84.1863 189.887 83.6853 190.039 83.2164 190.241L82.922 188.769C83.4317 188.576 83.9985 188.425 84.6224 188.313C85.2463 188.202 85.8722 188.146 86.5 188.146C87.3 188.146 87.9311 188.242 88.3935 188.435C88.866 188.627 89.2115 188.951 89.4299 189.406C89.6483 189.862 89.7706 190.464 89.7968 191.213L89.9706 196.191H88.1935L88.1465 195.281H88.1162C87.8537 195.594 87.4678 195.852 86.9585 196.055C86.4487 196.247 85.9306 196.343 85.4041 196.343ZM86.0215 194.886C86.3962 194.886 86.7381 194.82 87.0474 194.689C87.3564 194.547 87.5979 194.36 87.7721 194.127C87.9462 193.894 88.0282 193.631 88.0179 193.338L87.9845 192.381H87.1491C86.2783 192.381 85.6242 192.498 85.1868 192.73C84.7591 192.953 84.5534 193.297 84.5697 193.763C84.5817 194.107 84.7128 194.38 84.9629 194.582C85.2129 194.785 85.5658 194.886 86.0215 194.886ZM91.9701 196.191L91.6945 188.298H93.426L93.4887 189.224H93.5191C93.7906 188.88 94.1206 188.617 94.5092 188.435C94.8974 188.242 95.3547 188.146 95.8813 188.146C96.3977 188.146 96.8365 188.242 97.1976 188.435C97.5685 188.617 97.8359 188.88 97.9998 189.224H98.0302C98.3209 188.85 98.6607 188.576 99.0496 188.404C99.4385 188.232 99.9013 188.146 100.438 188.146C101.289 188.146 101.914 188.374 102.315 188.829C102.715 189.275 102.932 189.978 102.966 190.939L103.149 196.191H101.342L101.174 191.395C101.153 190.798 101.042 190.362 100.84 190.089C100.638 189.816 100.324 189.679 99.8991 189.679C99.3928 189.679 98.9987 189.846 98.7167 190.18C98.4347 190.514 98.3034 190.96 98.3229 191.516L98.4861 196.191H96.6635L96.4912 191.258C96.4732 190.742 96.3532 190.352 96.1314 190.089C95.9092 189.816 95.6007 189.679 95.2058 189.679C94.902 189.679 94.6263 189.76 94.3789 189.922C94.1415 190.084 93.9516 190.302 93.8093 190.575C93.6771 190.848 93.6171 191.162 93.6295 191.516L93.7928 196.191H91.9701ZM108.959 196.343C107.562 196.343 106.476 195.989 105.702 195.281C104.928 194.572 104.518 193.56 104.472 192.245C104.427 190.97 104.737 189.968 105.4 189.239C106.073 188.511 107.012 188.146 108.217 188.146C109.382 188.146 110.295 188.49 110.957 189.178C111.619 189.867 111.972 190.843 112.016 192.108C112.021 192.25 112.021 192.407 112.017 192.579C112.013 192.751 112.007 192.877 112 192.958H105.53L105.483 191.607H110.525L110.266 192.017C110.237 191.187 110.054 190.575 109.716 190.18C109.388 189.776 108.905 189.573 108.267 189.573C107.589 189.573 107.08 189.786 106.74 190.211C106.41 190.626 106.26 191.243 106.288 192.063L106.307 192.594C106.334 193.363 106.556 193.935 106.974 194.309C107.392 194.673 108.011 194.856 108.831 194.856C109.256 194.856 109.711 194.815 110.194 194.734C110.677 194.643 111.103 194.527 111.473 194.385L111.752 195.842C111.372 195.994 110.936 196.116 110.443 196.207C109.95 196.298 109.455 196.343 108.959 196.343Z" fill="#EDEDED"/>
<path d="M74.4841 110.686C73.2791 110.686 72.2333 110.458 71.3465 110.003C70.4598 109.548 69.7687 108.895 69.2732 108.045C68.7879 107.195 68.5245 106.178 68.4832 104.994C68.4415 103.8 68.6338 102.782 69.0601 101.943C69.4962 101.092 70.1418 100.44 70.9967 99.9844C71.8516 99.529 72.8816 99.3013 74.0865 99.3013C75.4637 99.3013 76.6943 99.5998 77.7783 100.197L77.3962 101.867C76.3428 101.28 75.2795 100.986 74.2061 100.986C73.4062 100.986 72.7182 101.148 72.1422 101.472C71.5659 101.786 71.1312 102.241 70.8381 102.838C70.5451 103.435 70.4132 104.154 70.4425 104.994C70.4715 105.823 70.6536 106.542 70.9887 107.149C71.3234 107.746 71.7901 108.207 72.3887 108.53C72.987 108.844 73.6861 109.001 74.486 109.001C75.529 109.001 76.5718 108.708 77.6146 108.121L78.1134 109.79C77.071 110.387 75.8612 110.686 74.4841 110.686ZM79.9907 110.534L79.7151 102.641H81.5074L81.5745 104.128H81.6049C81.8561 103.784 82.1547 103.491 82.5007 103.248C82.8564 102.995 83.2498 102.808 83.681 102.686C84.1118 102.555 84.5652 102.489 85.0411 102.489L85.0973 104.098C84.4593 104.098 83.8813 104.219 83.3633 104.462C82.8553 104.705 82.4516 105.034 82.1522 105.449C81.8626 105.854 81.7266 106.309 81.7443 106.815L81.8741 110.534H79.9907ZM90.0379 110.686C88.6405 110.686 87.5548 110.332 86.7807 109.623C86.0067 108.915 85.5967 107.903 85.5507 106.587C85.5062 105.312 85.8155 104.311 86.4786 103.582C87.1519 102.853 88.091 102.489 89.296 102.489C90.4605 102.489 91.3737 102.833 92.0356 103.521C92.6976 104.209 93.0507 105.186 93.0949 106.451C93.0998 106.593 93.1002 106.749 93.0961 106.921C93.092 107.093 93.0863 107.22 93.079 107.301H86.6085L86.5613 105.95H91.604L91.3449 106.36C91.316 105.53 91.1326 104.918 90.7948 104.523C90.4667 104.118 89.9837 103.916 89.3458 103.916C88.6674 103.916 88.1584 104.128 87.8188 104.553C87.489 104.968 87.3384 105.586 87.367 106.405L87.3856 106.937C87.4125 107.706 87.6349 108.277 88.0531 108.652C88.4708 109.016 89.0898 109.198 89.91 109.198C90.3353 109.198 90.7895 109.158 91.2728 109.077C91.7556 108.986 92.1819 108.87 92.5516 108.728L92.8303 110.185C92.4509 110.337 92.0146 110.458 91.5216 110.549C91.0286 110.64 90.5341 110.686 90.0379 110.686ZM97.7572 110.686C96.7041 110.686 95.8713 110.327 95.2589 109.608C94.6465 108.89 94.3177 107.883 94.2725 106.587C94.2273 105.292 94.4857 104.285 95.048 103.567C95.6102 102.848 96.4178 102.489 97.4709 102.489C97.9975 102.489 98.4766 102.58 98.9082 102.762C99.3399 102.944 99.7087 103.213 100.015 103.567H100.06L99.9166 99.4531H101.754L102.141 110.534H100.395L100.332 109.608H100.302C100.02 109.952 99.6547 110.22 99.2058 110.413C98.7666 110.595 98.2837 110.686 97.7572 110.686ZM98.1902 109.168C98.5851 109.168 98.9316 109.087 99.2298 108.925C99.538 108.763 99.7783 108.541 99.9507 108.257C100.123 107.974 100.203 107.655 100.191 107.301L100.141 105.874C100.128 105.51 100.026 105.191 99.8341 104.918C99.6419 104.634 99.3911 104.412 99.0817 104.25C98.7722 104.088 98.415 104.007 98.01 104.007C97.372 104.007 96.8836 104.23 96.5448 104.675C96.2161 105.12 96.0662 105.758 96.0952 106.587C96.1241 107.417 96.3185 108.055 96.6784 108.5C97.0483 108.945 97.5523 109.168 98.1902 109.168ZM104.173 101.244L104.111 99.4531H105.994L106.057 101.244H104.173ZM104.498 110.534L104.223 102.686H106.107L106.381 110.534H104.498ZM112.282 110.686C111.35 110.686 110.67 110.494 110.241 110.109C109.813 109.725 109.583 109.097 109.553 108.227L109.41 104.128H107.648L107.596 102.641H109.358L109.268 100.06H111.151L111.241 102.641H113.899L113.951 104.128H111.293L111.42 107.756C111.437 108.262 111.531 108.617 111.7 108.819C111.879 109.011 112.181 109.107 112.606 109.107C112.829 109.107 113.061 109.087 113.303 109.047C113.544 109.006 113.76 108.95 113.95 108.88L114.171 110.413C113.83 110.514 113.508 110.585 113.206 110.625C112.904 110.666 112.595 110.686 112.282 110.686ZM125.569 110.686C124.364 110.686 123.318 110.458 122.431 110.003C121.544 109.548 120.853 108.895 120.358 108.045C119.872 107.195 119.609 106.178 119.568 104.994C119.526 103.8 119.718 102.782 120.145 101.943C120.581 101.092 121.226 100.44 122.081 99.9844C122.936 99.529 123.966 99.3013 125.171 99.3013C126.548 99.3013 127.779 99.5998 128.863 100.197L128.481 101.867C127.427 101.28 126.364 100.986 125.291 100.986C124.491 100.986 123.803 101.148 123.227 101.472C122.65 101.786 122.216 102.241 121.923 102.838C121.63 103.435 121.498 104.154 121.527 104.994C121.556 105.823 121.738 106.542 122.073 107.149C122.408 107.746 122.875 108.207 123.473 108.53C124.071 108.844 124.771 109.001 125.571 109.001C126.613 109.001 127.656 108.708 128.699 108.121L129.198 109.79C128.155 110.387 126.946 110.686 125.569 110.686ZM132.875 110.686C132.085 110.686 131.455 110.473 130.984 110.048C130.524 109.613 130.28 109.026 130.255 108.288C130.222 107.367 130.557 106.658 131.259 106.162C131.96 105.667 132.975 105.419 134.301 105.419H135.41C135.396 105.034 135.336 104.741 135.227 104.538C135.129 104.326 134.961 104.179 134.726 104.098C134.5 104.017 134.18 103.977 133.765 103.977C133.258 103.977 132.734 104.027 132.19 104.128C131.657 104.23 131.156 104.381 130.687 104.584L130.393 103.111C130.903 102.919 131.469 102.767 132.093 102.656C132.717 102.545 133.343 102.489 133.971 102.489C134.771 102.489 135.402 102.585 135.864 102.777C136.337 102.97 136.682 103.294 136.901 103.749C137.119 104.204 137.241 104.806 137.268 105.555L137.441 110.534H135.664L135.617 109.623H135.587C135.325 109.937 134.939 110.195 134.429 110.398C133.92 110.59 133.401 110.686 132.875 110.686ZM133.492 109.229C133.867 109.229 134.209 109.163 134.518 109.031C134.827 108.89 135.069 108.703 135.243 108.47C135.417 108.237 135.499 107.974 135.489 107.68L135.455 106.724H134.62C133.749 106.724 133.095 106.84 132.658 107.073C132.23 107.296 132.024 107.64 132.041 108.105C132.053 108.45 132.184 108.723 132.434 108.925C132.684 109.128 133.037 109.229 133.492 109.229ZM139.441 110.534L139.165 102.641H140.958L141.025 104.128H141.055C141.306 103.784 141.605 103.491 141.951 103.248C142.307 102.995 142.7 102.808 143.131 102.686C143.562 102.555 144.015 102.489 144.491 102.489L144.548 104.098C143.91 104.098 143.332 104.219 142.814 104.462C142.306 104.705 141.902 105.034 141.602 105.449C141.313 105.854 141.177 106.309 141.195 106.815L141.324 110.534H139.441ZM148.486 110.686C147.433 110.686 146.6 110.327 145.987 109.608C145.375 108.89 145.046 107.883 145.001 106.587C144.956 105.292 145.214 104.285 145.776 103.567C146.339 102.848 147.146 102.489 148.199 102.489C148.726 102.489 149.205 102.58 149.637 102.762C150.068 102.944 150.437 103.213 150.743 103.567H150.789L150.645 99.4531H152.483L152.87 110.534H151.123L151.061 109.608H151.03C150.749 109.952 150.383 110.22 149.934 110.413C149.495 110.595 149.012 110.686 148.486 110.686ZM148.919 109.168C149.314 109.168 149.66 109.087 149.958 108.925C150.267 108.763 150.507 108.541 150.679 108.257C150.852 107.974 150.932 107.655 150.919 107.301L150.869 105.874C150.857 105.51 150.754 105.191 150.563 104.918C150.37 104.634 150.12 104.412 149.81 104.25C149.501 104.088 149.144 104.007 148.738 104.007C148.101 104.007 147.612 104.23 147.273 104.675C146.945 105.12 146.795 105.758 146.824 106.587C146.853 107.417 147.047 108.055 147.407 108.5C147.777 108.945 148.281 109.168 148.919 109.168ZM159.439 110.534L159.052 99.4531H161.072L166.316 107.407H166.347L166.069 99.4531H167.952L168.339 110.534H166.319L161.09 102.58H161.059L161.337 110.534H159.439ZM174.132 110.686C172.856 110.686 171.857 110.332 171.133 109.623C170.42 108.905 170.04 107.893 169.994 106.587C169.949 105.282 170.258 104.275 170.922 103.567C171.595 102.848 172.57 102.489 173.846 102.489C175.122 102.489 176.122 102.848 176.845 103.567C177.569 104.275 177.953 105.282 177.999 106.587C178.045 107.893 177.731 108.905 177.057 109.623C176.383 110.332 175.408 110.686 174.132 110.686ZM174.08 109.198C174.779 109.198 175.303 108.981 175.652 108.546C176.001 108.1 176.161 107.448 176.131 106.587C176.101 105.727 175.896 105.08 175.516 104.645C175.136 104.199 174.597 103.977 173.898 103.977C173.209 103.977 172.686 104.199 172.326 104.645C171.977 105.08 171.817 105.727 171.847 106.587C171.878 107.448 172.083 108.1 172.463 108.546C172.853 108.981 173.392 109.198 174.08 109.198ZM179.614 110.534L179.539 108.394H181.696L181.771 110.534H179.614Z" fill="#EDEDED"/>
<path d="M205.569 191.854L205.182 180.773H212.594L212.652 182.412H207.138L207.238 185.266H212.447L212.504 186.875H207.294L207.41 190.215H212.924L212.981 191.854H205.569ZM214.198 191.854L216.566 187.877L213.953 183.961H216.019L217.793 186.905H217.823L219.391 183.961H221.457L219.118 187.877L221.763 191.854H219.697L217.891 188.864H217.861L216.279 191.854H214.198ZM227.445 183.809C228.498 183.809 229.331 184.168 229.943 184.887C230.556 185.605 230.884 186.612 230.93 187.907C230.975 189.203 230.716 190.21 230.154 190.928C229.592 191.647 228.784 192.006 227.731 192.006C227.215 192.006 226.736 191.915 226.294 191.733C225.862 191.54 225.493 191.272 225.187 190.928H225.157L225.301 195.042H223.433L223.046 183.961H224.823L224.87 184.887H224.901C225.192 184.532 225.557 184.264 225.996 184.082C226.436 183.9 226.918 183.809 227.445 183.809ZM227.012 185.327C226.627 185.327 226.281 185.408 225.972 185.57C225.664 185.732 225.424 185.954 225.252 186.238C225.089 186.511 225.014 186.83 225.027 187.194L225.077 188.621C225.089 188.975 225.186 189.294 225.368 189.577C225.56 189.86 225.816 190.083 226.136 190.245C226.455 190.407 226.807 190.488 227.192 190.488C227.84 190.488 228.329 190.265 228.657 189.82C228.986 189.375 229.136 188.737 229.107 187.907C229.078 187.077 228.884 186.44 228.524 185.995C228.164 185.549 227.66 185.327 227.012 185.327ZM232.553 191.854L232.478 189.714H234.635L234.71 191.854H232.553Z" fill="#EDEDED"/>
<path d="M210.652 221.514C209.385 221.514 208.429 221.115 207.785 220.317C207.141 219.519 206.79 218.291 206.732 216.634C206.674 214.978 206.94 213.75 207.528 212.952C208.116 212.154 209.044 211.755 210.311 211.755C211.578 211.755 212.53 212.154 213.165 212.952C213.809 213.75 214.16 214.978 214.218 216.634C214.276 218.291 214.011 219.519 213.422 220.317C212.843 221.115 211.919 221.514 210.652 221.514ZM210.602 220.069C211.322 220.069 211.837 219.792 212.148 219.237C212.458 218.681 212.593 217.814 212.552 216.634C212.51 215.446 212.315 214.579 211.966 214.032C211.617 213.477 211.082 213.199 210.362 213.199C209.641 213.199 209.122 213.477 208.802 214.032C208.492 214.579 208.357 215.446 208.399 216.634C208.44 217.814 208.635 218.681 208.984 219.237C209.342 219.792 209.881 220.069 210.602 220.069ZM218.677 211.755C219.458 211.755 220.123 211.894 220.67 212.172C221.218 212.449 221.636 212.857 221.924 213.395C222.22 213.932 222.383 214.6 222.411 215.398C222.452 216.595 222.254 217.641 221.817 218.534C221.388 219.419 220.753 220.117 219.911 220.629C219.07 221.141 218.047 221.431 216.843 221.501L216.511 220.186C217.585 220.126 218.454 219.896 219.117 219.497C219.779 219.089 220.258 218.495 220.552 217.714L220.525 217.701C220.219 217.883 219.89 218.022 219.537 218.118C219.193 218.213 218.813 218.261 218.396 218.261C217.433 218.261 216.664 217.979 216.089 217.415C215.522 216.851 215.221 216.071 215.187 215.073C215.162 214.379 215.285 213.785 215.554 213.291C215.823 212.796 216.222 212.419 216.751 212.159C217.28 211.89 217.922 211.755 218.677 211.755ZM218.726 213.147C218.083 213.147 217.595 213.317 217.259 213.655C216.932 213.984 216.779 214.449 216.8 215.047C216.821 215.646 216.998 216.114 217.331 216.452C217.672 216.782 218.147 216.947 218.754 216.947C219.188 216.947 219.559 216.877 219.867 216.738C220.174 216.591 220.405 216.378 220.56 216.101C220.724 215.815 220.799 215.481 220.786 215.099C220.774 214.761 220.693 214.444 220.544 214.149C220.404 213.854 220.183 213.616 219.881 213.434C219.588 213.243 219.203 213.147 218.726 213.147ZM223.361 221.904L227.628 211.365H229.216L224.95 221.904H223.361ZM234.239 221.383L233.971 213.707H233.945L230.681 215.672L230.163 214.253L233.908 211.885H235.561L235.893 221.383H234.239ZM242.605 221.383L242.337 213.707H242.311L239.047 215.672L238.529 214.253L242.274 211.885H243.927L244.259 221.383H242.605Z" fill="white"/>
<path d="M73.0307 221.383L72.699 211.885H75.5632C76.9606 211.885 77.9883 212.111 78.6463 212.562C79.313 213.013 79.6635 213.729 79.6977 214.709C79.7314 215.672 79.444 216.392 78.8358 216.869C78.2362 217.346 77.3028 217.584 76.0356 217.584H73.6141L73.5705 216.335H75.7837C76.669 216.335 77.3027 216.214 77.6848 215.971C78.0753 215.719 78.2608 215.316 78.2414 214.761C78.222 214.206 78.0085 213.807 77.6007 213.564C77.2014 213.312 76.5591 213.186 75.6738 213.186H74.1766L74.4628 221.383H73.0307ZM78.5899 221.383L74.1288 217.038H75.9385L80.4516 221.383H78.5899ZM82.0068 221.383L81.6751 211.885H87.9242L87.9687 213.16H83.1517L83.2435 215.789H87.8001L87.8438 217.038H83.2871L83.3943 220.108H88.2114L88.2559 221.383H82.0068ZM96.1039 221.383L95.7723 211.885H97.2044L97.536 221.383H96.1039ZM90.2454 221.383L89.9137 211.885H91.3458L91.6775 221.383H90.2454ZM90.8106 217.064L90.7651 215.763H96.6237L96.6691 217.064H90.8106ZM98.818 221.383L101.949 211.885H103.889L107.671 221.383H106.096L102.969 213.108H102.942L100.393 221.383H98.818ZM100.531 219.002L100.486 217.701H105.759L105.804 219.002H100.531ZM108.948 221.383L108.616 211.885H110.178L114.959 219.041H114.985L114.735 211.885H116.167L116.499 221.383H114.936L110.156 214.227H110.13L110.38 221.383H108.948ZM122.361 221.383L122.029 211.885H124.893C126.291 211.885 127.318 212.111 127.976 212.562C128.643 213.013 128.993 213.729 129.028 214.709C129.061 215.672 128.774 216.392 128.166 216.869C127.566 217.346 126.633 217.584 125.366 217.584H122.944L122.9 216.335H125.114C125.999 216.335 126.633 216.214 127.015 215.971C127.405 215.719 127.591 215.316 127.571 214.761C127.552 214.206 127.338 213.807 126.931 213.564C126.531 213.312 125.889 213.186 125.004 213.186H123.507L123.793 221.383H122.361ZM127.92 221.383L123.459 217.038H125.268L129.782 221.383H127.92ZM130.399 221.383L133.531 211.885H135.471L139.252 221.383H137.677L134.55 213.108H134.524L131.975 221.383H130.399ZM132.113 219.002L132.067 217.701H137.34L137.386 219.002H132.113ZM140.646 221.383L140.314 211.885H141.799L142.13 221.383H140.646ZM150.316 221.383L149.984 211.885H151.416L151.748 221.383H150.316ZM144.457 221.383L144.126 211.885H145.558L145.89 221.383H144.457ZM145.023 217.064L144.977 215.763H150.836L150.881 217.064H145.023ZM153.03 221.383L156.162 211.885H158.101L161.883 221.383H160.308L157.181 213.108H157.155L154.605 221.383H153.03ZM154.744 219.002L154.698 217.701H159.971L160.016 219.002H154.744ZM163.16 221.383L162.828 211.885H164.39L169.171 219.041H169.197L168.947 211.885H170.379L170.711 221.383H169.148L164.368 214.227H164.342L164.592 221.383H163.16Z" fill="white"/>
<path fill-rule="evenodd" clip-rule="evenodd" d="M85.6737 52.251C88.1798 49.8727 89.6835 46.4607 89.5511 42.6691C89.4187 38.8774 87.6767 35.4654 85.0044 33.0871C87.2478 30.9585 90.2956 29.658 93.6917 29.658C100.882 29.658 106.914 35.4834 107.165 42.6691C107.416 49.8548 101.791 55.6802 94.6004 55.6802C91.2043 55.6802 88.0657 54.3797 85.6737 52.251ZM85.6737 52.251C83.4303 54.3797 80.3825 55.6802 76.9864 55.6802C69.7963 55.6802 63.7639 49.8548 63.513 42.6691C63.2621 35.4834 68.8876 29.658 76.0777 29.658C79.4738 29.658 82.6124 30.9585 85.0044 33.0871C82.4983 35.4654 80.9946 38.8774 81.127 42.6691C81.2594 46.4607 83.0015 49.8727 85.6737 52.251Z" fill="white"/>
<path fill-rule="evenodd" clip-rule="evenodd" d="M398.65 29.9101C399.242 29.476 400.092 29.6165 400.548 30.2239C402.973 33.4581 405.925 38.9742 406.948 45.1183C407.978 51.3044 407.057 58.2102 401.588 63.952C401.082 64.4834 400.225 64.489 399.675 63.9646C399.125 63.4402 399.09 62.5843 399.596 62.0529C404.366 57.0452 405.207 51.0473 404.278 45.4708C403.342 39.8523 400.615 34.7469 398.402 31.7959C397.946 31.1885 398.057 30.3442 398.65 29.9101ZM392.96 34.8678C393.552 34.4328 394.402 34.5721 394.858 35.1788C396.57 37.4547 398.648 41.3256 399.37 45.6481C400.098 50.0132 399.447 54.9207 395.552 58.9969C395.045 59.5275 394.188 59.5318 393.639 59.0065C393.09 58.4812 393.056 57.6253 393.563 57.0948C396.757 53.7523 397.327 49.7545 396.7 46.0017C396.066 42.2064 394.214 38.7469 392.715 36.7541C392.258 36.1473 392.368 35.3028 392.96 34.8678ZM388.635 40.2788C389.225 39.8409 390.075 39.9761 390.534 40.5808C391.469 41.8111 392.595 43.8879 392.989 46.2249C393.389 48.6064 393.031 51.3357 390.85 53.5945C390.34 54.1224 389.483 54.1224 388.937 53.5945C388.39 53.0666 388.36 52.2107 388.87 51.6828C390.344 50.1566 390.616 48.3423 390.32 46.5821C390.016 44.7773 389.118 43.1141 388.399 42.1665C387.939 41.5618 388.045 40.7167 388.635 40.2788ZM385.115 45.8797C384.617 45.8797 384.227 46.2831 384.245 46.7809C384.262 47.2786 384.68 47.6821 385.178 47.6821C385.676 47.6821 386.066 47.2786 386.048 46.7809C386.031 46.2831 385.613 45.8797 385.115 45.8797ZM381.539 46.7809C381.47 44.79 383.028 43.1761 385.021 43.1761C387.013 43.1761 388.684 44.79 388.753 46.7809C388.823 48.7717 387.264 50.3857 385.272 50.3857C383.28 50.3857 381.609 48.7717 381.539 46.7809Z" fill="white"/>
<path d="M72.5986 144.975L72.1707 132.723H72.1273L67.6194 136.605L67.4952 133.049L72.0458 129.145H75.1703L75.7232 144.975H72.5986ZM83.3686 145.192C82.1535 145.192 81.1697 144.983 80.4173 144.563C79.6794 144.144 79.1274 143.458 78.7614 142.503C78.4098 141.549 78.2063 140.277 78.1508 138.687C78.0725 136.446 78.298 134.617 78.8271 133.2C79.3557 131.769 80.2155 130.707 81.4064 130.013C82.5973 129.319 84.1469 128.957 86.0554 128.928L86.1493 131.617C85.2813 131.617 84.5052 131.762 83.821 132.051C83.1362 132.326 82.5927 132.709 82.1904 133.2C81.788 133.692 81.5695 134.27 81.5349 134.935H81.6217C82.0191 134.718 82.3972 134.567 82.7558 134.48C83.1144 134.393 83.5035 134.35 83.923 134.35C85.3117 134.35 86.3464 134.776 87.0271 135.629C87.7218 136.468 88.1002 137.776 88.1623 139.554C88.2325 141.564 87.8924 143.009 87.1421 143.891C86.4057 144.759 85.1478 145.192 83.3686 145.192ZM83.2994 142.59C83.9503 142.59 84.4196 142.359 84.7073 141.896C84.9944 141.419 85.1208 140.689 85.0864 139.706C85.0521 138.723 84.875 138 84.555 137.537C84.2346 137.06 83.7489 136.822 83.098 136.822C82.447 136.822 81.978 137.06 81.6909 137.537C81.4032 138 81.2766 138.723 81.3109 139.706C81.3452 140.689 81.5226 141.419 81.8431 141.896C82.163 142.359 82.6484 142.59 83.2994 142.59ZM93.9709 138.123C93.508 138.123 93.1343 137.986 92.8499 137.711C92.5655 137.436 92.4154 137.075 92.3998 136.627C92.3836 136.164 92.5084 135.803 92.7742 135.542C93.0394 135.268 93.4035 135.13 93.8664 135.13C94.3293 135.13 94.703 135.268 94.9874 135.542C95.2713 135.803 95.4214 136.164 95.4375 136.627C95.4532 137.075 95.3284 137.436 95.0631 137.711C94.7979 137.986 94.4338 138.123 93.9709 138.123ZM94.2178 145.192C93.0171 145.192 92.0541 144.954 91.3286 144.477C90.6026 143.985 90.0613 143.19 89.7047 142.091C89.3481 140.993 89.138 139.533 89.0744 137.711L89.0289 136.41C88.9648 134.574 89.073 133.114 89.3533 132.029C89.6332 130.931 90.1192 130.143 90.8114 129.666C91.503 129.174 92.4492 128.928 93.6498 128.928C94.836 128.928 95.7921 129.174 96.5181 129.666C97.258 130.143 97.8063 130.931 98.1629 132.029C98.519 133.114 98.7291 134.574 98.7932 136.41L98.8387 137.711C98.9023 139.533 98.7941 140.993 98.5143 142.091C98.2344 143.19 97.7414 143.985 97.0353 144.477C96.3431 144.954 95.404 145.192 94.2178 145.192ZM94.1239 142.503C94.6157 142.503 94.98 142.373 95.2169 142.113C95.4537 141.853 95.6031 141.369 95.6652 140.66C95.7412 139.937 95.755 138.882 95.7065 137.494L95.6762 136.627C95.6278 135.239 95.5405 134.191 95.4145 133.482C95.3025 132.759 95.119 132.268 94.864 132.008C94.609 131.748 94.2356 131.617 93.7437 131.617C93.2664 131.617 92.902 131.748 92.6507 132.008C92.4139 132.268 92.2575 132.759 92.1815 133.482C92.1194 134.191 92.1126 135.239 92.1611 136.627L92.1914 137.494C92.2398 138.882 92.3201 139.937 92.4321 140.66C92.5581 141.369 92.7486 141.853 93.0036 142.113C93.2731 142.373 93.6465 142.503 94.1239 142.503ZM100.629 142.373C101.576 141.318 102.375 140.378 103.026 139.554C103.676 138.716 104.2 137.964 104.596 137.299C104.992 136.619 105.274 136.005 105.443 135.456C105.612 134.906 105.688 134.386 105.671 133.894C105.644 133.128 105.458 132.564 105.112 132.203C104.767 131.841 104.24 131.661 103.531 131.661C102.605 131.661 101.523 131.928 100.283 132.463L100.184 129.644C101.253 129.167 102.568 128.928 104.13 128.928C105.707 128.928 106.877 129.304 107.641 130.056C108.405 130.793 108.814 131.957 108.87 133.547C108.893 134.212 108.823 134.892 108.659 135.586C108.509 136.265 108.259 136.966 107.908 137.689C107.557 138.412 107.113 139.157 106.575 139.923C106.053 140.689 105.422 141.477 104.683 142.287L104.686 142.373H109.308L109.399 144.975H100.72L100.629 142.373ZM137.368 138.123C136.905 138.123 136.531 137.986 136.247 137.711C135.962 137.436 135.812 137.075 135.797 136.627C135.78 136.164 135.905 135.803 136.171 135.542C136.436 135.268 136.8 135.13 137.263 135.13C137.726 135.13 138.1 135.268 138.384 135.542C138.668 135.803 138.818 136.164 138.834 136.627C138.85 137.075 138.725 137.436 138.46 137.711C138.195 137.986 137.831 138.123 137.368 138.123ZM137.615 145.192C136.414 145.192 135.451 144.954 134.725 144.477C133.999 143.985 133.458 143.19 133.102 142.091C132.745 140.993 132.535 139.533 132.471 137.711L132.426 136.41C132.362 134.574 132.47 133.114 132.75 132.029C133.03 130.931 133.516 130.143 134.208 129.666C134.9 129.174 135.846 128.928 137.047 128.928C138.233 128.928 139.189 129.174 139.915 129.666C140.655 130.143 141.203 130.931 141.56 132.029C141.916 133.114 142.126 134.574 142.19 136.41L142.235 137.711C142.299 139.533 142.191 140.993 141.911 142.091C141.631 143.19 141.138 143.985 140.432 144.477C139.74 144.954 138.801 145.192 137.615 145.192ZM137.521 142.503C138.013 142.503 138.377 142.373 138.614 142.113C138.851 141.853 139 141.369 139.062 140.66C139.138 139.937 139.152 138.882 139.103 137.494L139.073 136.627C139.025 135.239 138.937 134.191 138.811 133.482C138.699 132.759 138.516 132.268 138.261 132.008C138.006 131.748 137.632 131.617 137.141 131.617C136.663 131.617 136.299 131.748 136.048 132.008C135.811 132.268 135.654 132.759 135.578 133.482C135.516 134.191 135.509 135.239 135.558 136.627L135.588 137.494C135.637 138.882 135.717 139.937 135.829 140.66C135.955 141.369 136.145 141.853 136.4 142.113C136.67 142.373 137.043 142.503 137.521 142.503ZM147.896 128.928C149.125 128.928 150.109 129.138 150.847 129.557C151.585 129.977 152.13 130.663 152.481 131.617C152.847 132.572 153.058 133.844 153.114 135.434C153.191 137.66 152.966 139.489 152.437 140.92C151.909 142.352 151.049 143.414 149.858 144.108C148.682 144.802 147.132 145.163 145.209 145.192L145.115 142.503C145.998 142.503 146.774 142.366 147.444 142.091C148.128 141.802 148.672 141.412 149.074 140.92C149.476 140.414 149.694 139.836 149.73 139.186H149.643C149.245 139.402 148.867 139.554 148.509 139.641C148.15 139.728 147.761 139.771 147.341 139.771C145.953 139.771 144.911 139.352 144.216 138.513C143.536 137.66 143.164 136.345 143.102 134.567C143.032 132.557 143.365 131.119 144.101 130.251C144.852 129.369 146.117 128.928 147.896 128.928ZM147.965 131.531C147.314 131.531 146.845 131.769 146.558 132.246C146.27 132.709 146.144 133.432 146.178 134.415C146.212 135.398 146.39 136.128 146.71 136.605C147.03 137.068 147.516 137.299 148.166 137.299C148.817 137.299 149.287 137.068 149.574 136.605C149.861 136.128 149.988 135.398 149.954 134.415C149.919 133.432 149.742 132.709 149.422 132.246C149.102 131.769 148.616 131.531 147.965 131.531ZM159.392 144.975L158.964 132.723H158.921L154.413 136.605L154.289 133.049L158.839 129.145H161.964L162.517 144.975H159.392ZM170.241 144.975L169.814 132.723H169.77L165.262 136.605L165.138 133.049L169.689 129.145H172.813L173.366 144.975H170.241ZM198.272 142.373C199.219 141.318 200.017 140.378 200.669 139.554C201.319 138.716 201.843 137.964 202.239 137.299C202.635 136.619 202.917 136.005 203.086 135.456C203.255 134.906 203.331 134.386 203.313 133.894C203.287 133.128 203.101 132.564 202.755 132.203C202.41 131.841 201.883 131.661 201.174 131.661C200.248 131.661 199.165 131.928 197.926 132.463L197.827 129.644C198.895 129.167 200.211 128.928 201.773 128.928C203.35 128.928 204.52 129.304 205.284 130.056C206.048 130.793 206.457 131.957 206.513 133.547C206.536 134.212 206.466 134.892 206.302 135.586C206.152 136.265 205.902 136.966 205.551 137.689C205.2 138.412 204.756 139.157 204.218 139.923C203.695 140.689 203.065 141.477 202.326 142.287L202.329 142.373H206.951L207.042 144.975H198.363L198.272 142.373ZM213.312 138.123C212.849 138.123 212.476 137.986 212.191 137.711C211.907 137.436 211.757 137.075 211.741 136.627C211.725 136.164 211.85 135.803 212.115 135.542C212.381 135.268 212.745 135.13 213.208 135.13C213.671 135.13 214.044 135.268 214.329 135.542C214.613 135.803 214.763 136.164 214.779 136.627C214.794 137.075 214.67 137.436 214.404 137.711C214.139 137.986 213.775 138.123 213.312 138.123ZM213.559 145.192C212.358 145.192 211.395 144.954 210.67 144.477C209.944 143.985 209.403 143.19 209.046 142.091C208.689 140.993 208.479 139.533 208.416 137.711L208.37 136.41C208.306 134.574 208.414 133.114 208.695 132.029C208.974 130.931 209.46 130.143 210.153 129.666C210.844 129.174 211.79 128.928 212.991 128.928C214.177 128.928 215.133 129.174 215.859 129.666C216.599 130.143 217.148 130.931 217.504 132.029C217.86 133.114 218.07 134.574 218.134 136.41L218.18 137.711C218.244 139.533 218.135 140.993 217.856 142.091C217.576 143.19 217.083 143.985 216.377 144.477C215.684 144.954 214.745 145.192 213.559 145.192ZM213.465 142.503C213.957 142.503 214.321 142.373 214.558 142.113C214.795 141.853 214.944 141.369 215.006 140.66C215.082 139.937 215.096 138.882 215.048 137.494L215.017 136.627C214.969 135.239 214.882 134.191 214.756 133.482C214.644 132.759 214.46 132.268 214.205 132.008C213.95 131.748 213.577 131.617 213.085 131.617C212.608 131.617 212.243 131.748 211.992 132.008C211.755 132.268 211.599 132.759 211.523 133.482C211.461 134.191 211.454 135.239 211.502 136.627L211.533 137.494C211.581 138.882 211.661 139.937 211.773 140.66C211.899 141.369 212.09 141.853 212.345 142.113C212.614 142.373 212.988 142.503 213.465 142.503ZM224.487 144.975L224.06 132.723H224.016L219.508 136.605L219.384 133.049L223.935 129.145H227.059L227.612 144.975H224.487ZM234.689 128.928C235.919 128.928 236.903 129.138 237.641 129.557C238.379 129.977 238.923 130.663 239.275 131.617C239.641 132.572 239.852 133.844 239.907 135.434C239.985 137.66 239.76 139.489 239.231 140.92C238.702 142.352 237.843 143.414 236.652 144.108C235.475 144.802 233.926 145.163 232.003 145.192L231.909 142.503C232.791 142.503 233.568 142.366 234.238 142.091C234.922 141.802 235.465 141.412 235.868 140.92C236.27 140.414 236.488 139.836 236.523 139.186H236.436C236.039 139.402 235.661 139.554 235.302 139.641C234.944 139.728 234.555 139.771 234.135 139.771C232.746 139.771 231.705 139.352 231.01 138.513C230.329 137.66 229.958 136.345 229.896 134.567C229.826 132.557 230.159 131.119 230.895 130.251C231.645 129.369 232.91 128.928 234.689 128.928ZM234.759 131.531C234.108 131.531 233.639 131.769 233.352 132.246C233.064 132.709 232.937 133.432 232.972 134.415C233.006 135.398 233.183 136.128 233.504 136.605C233.824 137.068 234.309 137.299 234.96 137.299C235.611 137.299 236.08 137.068 236.368 136.605C236.655 136.128 236.781 135.398 236.747 134.415C236.713 133.432 236.536 132.709 236.216 132.246C235.895 131.769 235.41 131.531 234.759 131.531ZM263.367 142.373C264.314 141.318 265.113 140.378 265.764 139.554C266.414 138.716 266.938 137.964 267.334 137.299C267.73 136.619 268.012 136.005 268.181 135.456C268.35 134.906 268.426 134.386 268.409 133.894C268.382 133.128 268.196 132.564 267.851 132.203C267.505 131.841 266.978 131.661 266.269 131.661C265.344 131.661 264.261 131.928 263.021 132.463L262.922 129.644C263.991 129.167 265.306 128.928 266.868 128.928C268.445 128.928 269.615 129.304 270.379 130.056C271.143 130.793 271.552 131.957 271.608 133.547C271.631 134.212 271.561 134.892 271.397 135.586C271.247 136.265 270.997 136.966 270.646 137.689C270.295 138.412 269.851 139.157 269.314 139.923C268.791 140.689 268.16 141.477 267.422 142.287L267.425 142.373H272.046L272.137 144.975H263.458L263.367 142.373ZM278.407 138.123C277.945 138.123 277.571 137.986 277.286 137.711C277.002 137.436 276.852 137.075 276.836 136.627C276.82 136.164 276.945 135.803 277.211 135.542C277.476 135.268 277.84 135.13 278.303 135.13C278.766 135.13 279.139 135.268 279.424 135.542C279.708 135.803 279.858 136.164 279.874 136.627C279.89 137.075 279.765 137.436 279.5 137.711C279.234 137.986 278.87 138.123 278.407 138.123ZM278.654 145.192C277.454 145.192 276.491 144.954 275.765 144.477C275.039 143.985 274.498 143.19 274.141 142.091C273.785 140.993 273.574 139.533 273.511 137.711L273.465 136.41C273.401 134.574 273.509 133.114 273.79 132.029C274.07 130.931 274.556 130.143 275.248 129.666C275.94 129.174 276.886 128.928 278.086 128.928C279.273 128.928 280.229 129.174 280.955 129.666C281.695 130.143 282.243 130.931 282.599 132.029C282.956 133.114 283.166 134.574 283.23 136.41L283.275 137.711C283.339 139.533 283.231 140.993 282.951 142.091C282.671 143.19 282.178 143.985 281.472 144.477C280.78 144.954 279.84 145.192 278.654 145.192ZM278.56 142.503C279.052 142.503 279.417 142.373 279.653 142.113C279.89 141.853 280.04 141.369 280.102 140.66C280.178 139.937 280.191 138.882 280.143 137.494L280.113 136.627C280.064 135.239 279.977 134.191 279.851 133.482C279.739 132.759 279.555 132.268 279.3 132.008C279.045 131.748 278.672 131.617 278.18 131.617C277.703 131.617 277.339 131.748 277.087 132.008C276.85 132.268 276.694 132.759 276.618 133.482C276.556 134.191 276.549 135.239 276.598 136.627L276.628 137.494C276.676 138.882 276.757 139.937 276.869 140.66C276.995 141.369 277.185 141.853 277.44 142.113C277.71 142.373 278.083 142.503 278.56 142.503ZM285.065 142.373C286.012 141.318 286.811 140.378 287.462 139.554C288.113 138.716 288.636 137.964 289.033 137.299C289.428 136.619 289.711 136.005 289.88 135.456C290.048 134.906 290.124 134.386 290.107 133.894C290.08 133.128 289.894 132.564 289.549 132.203C289.204 131.841 288.677 131.661 287.968 131.661C287.042 131.661 285.959 131.928 284.719 132.463L284.621 129.644C285.689 129.167 287.004 128.928 288.567 128.928C290.143 128.928 291.314 129.304 292.078 130.056C292.841 130.793 293.251 131.957 293.306 133.547C293.33 134.212 293.259 134.892 293.095 135.586C292.946 136.265 292.695 136.966 292.344 137.689C291.993 138.412 291.549 139.157 291.012 139.923C290.489 140.689 289.858 141.477 289.12 142.287L289.123 142.373H293.745L293.836 144.975H285.156L285.065 142.373ZM300.432 144.975L300.004 132.723H299.961L295.453 136.605L295.329 133.049L299.879 129.145H303.004L303.556 144.975H300.432Z" fill="white"/>
<path d="M370.654 201.083C370.631 200.422 371.149 199.887 371.81 199.887H381.986C382.647 199.887 383.201 200.422 383.224 201.083L383.491 208.703C383.507 209.164 383.256 209.584 382.846 209.783L377.842 212.204C377.522 212.359 377.144 212.359 376.813 212.204L371.641 209.783C371.217 209.584 370.937 209.164 370.92 208.703L370.654 201.083Z" fill="white"/>
<path d="M389.809 201.083C389.786 200.422 390.303 199.887 390.964 199.887H393.957C394.618 199.887 395.173 200.422 395.196 201.083L395.28 203.476C395.303 204.137 394.785 204.672 394.124 204.672H391.131C390.47 204.672 389.915 204.137 389.892 203.476L389.809 201.083Z" fill="white"/>
<path d="M401.78 201.083C401.757 200.422 402.275 199.887 402.936 199.887H413.112C413.773 199.887 414.327 200.422 414.35 201.083L414.601 208.262C414.624 208.922 414.107 209.458 413.446 209.458H403.27C402.609 209.458 402.054 208.922 402.031 208.262L401.78 201.083Z" fill="white"/>
<path d="M371.093 213.646C371.07 212.985 371.587 212.449 372.248 212.449H382.424C383.085 212.449 383.64 212.985 383.663 213.646L383.914 220.824C383.937 221.485 383.42 222.021 382.758 222.021H372.583C371.921 222.021 371.367 221.485 371.344 220.824L371.093 213.646Z" fill="white"/>
<path d="M386.489 208.86C386.466 208.199 386.983 207.663 387.644 207.663H397.82C398.481 207.663 399.036 208.199 399.059 208.86L399.644 225.61C399.667 226.271 399.15 226.806 398.489 226.806H388.313C387.652 226.806 387.097 226.271 387.074 225.61L386.489 208.86Z" fill="white"/>
<path d="M402.219 213.646C402.196 212.985 402.713 212.449 403.374 212.449H413.55C414.211 212.449 414.766 212.985 414.789 213.646L415.04 220.824C415.063 221.485 414.546 222.021 413.884 222.021H403.709C403.047 222.021 402.493 221.485 402.47 220.824L402.219 213.646Z" fill="white"/>
<path d="M371.532 226.208C371.509 225.547 372.026 225.012 372.687 225.012H382.863C383.524 225.012 384.079 225.547 384.102 226.208L384.353 233.387C384.376 234.047 383.858 234.583 383.197 234.583H373.021C372.36 234.583 371.805 234.047 371.782 233.387L371.532 226.208Z" fill="white"/>
<path d="M390.853 230.994C390.83 230.333 391.348 229.797 392.009 229.797H395.002C395.663 229.797 396.217 230.333 396.24 230.994L396.324 233.387C396.347 234.047 395.83 234.583 395.169 234.583H392.176C391.515 234.583 390.96 234.047 390.937 233.387L390.853 230.994Z" fill="white"/>
<path d="M402.642 225.767C402.626 225.306 402.877 224.885 403.287 224.687L408.29 222.266C408.611 222.111 408.989 222.111 409.32 222.266L414.492 224.687C414.916 224.885 415.196 225.306 415.212 225.767L415.479 233.387C415.502 234.047 414.984 234.583 414.323 234.583H404.147C403.486 234.583 402.931 234.047 402.908 233.387L402.642 225.767Z" fill="white"/>
<defs>
<filter id="filter0_b_18_11" x="7.9933" y="-12.5758" width="447.067" height="288.309" filterUnits="userSpaceOnUse" color-interpolation-filters="sRGB">
<feFlood flood-opacity="0" result="BackgroundImageFix"/>
<feGaussianBlur in="BackgroundImageFix" stdDeviation="6.47968"/>
<feComposite in2="SourceAlpha" operator="in" result="effect1_backgroundBlur_18_11"/>
<feBlend mode="normal" in="SourceGraphic" in2="effect1_backgroundBlur_18_11" result="shape"/>
</filter>
<linearGradient id="paint0_linear_18_11" x1="30.3778" y1="11.9341" x2="250.617" y2="260.381" gradientUnits="userSpaceOnUse">
<stop stop-color="white"/>
<stop offset="1" stop-color="white" stop-opacity="0.55"/>
</linearGradient>
<linearGradient id="paint1_linear_18_11" x1="30.3778" y1="11.9341" x2="250.617" y2="260.381" gradientUnits="userSpaceOnUse">
<stop stop-color="white"/>
<stop offset="1" stop-color="white" stop-opacity="0.55"/>
</linearGradient>
</defs>
</svg>
