<svg width="457" height="492" viewBox="0 0 457 492" fill="none" xmlns="http://www.w3.org/2000/svg">
<path d="M7.89641 189.726C4.23785 170.904 16.53 158.612 35.3516 162.271L371.888 227.687C390.71 231.345 408.933 249.569 412.592 268.391L449.026 455.829C452.685 474.65 440.393 486.942 421.571 483.284L85.0346 417.868C66.2129 414.209 47.9892 395.985 44.3306 377.164L7.89641 189.726Z" fill="#2BB32A"/>
<path fill-rule="evenodd" clip-rule="evenodd" d="M6.83142 189.519C3.05853 170.109 15.7348 157.433 35.1446 161.206L371.681 226.622C391.091 230.395 409.884 249.188 413.657 268.598L450.091 456.036C453.864 475.445 441.188 488.122 421.778 484.349L85.2416 418.933C65.8318 415.16 47.0385 396.367 43.2656 376.957L6.83142 189.519ZM35.5586 163.336C17.3251 159.792 5.41716 171.7 8.96139 189.933L45.3956 377.371C48.9398 395.604 66.5941 413.259 84.8276 416.803L421.364 482.219C439.597 485.763 451.505 473.855 447.961 455.622L411.527 268.184C407.983 249.95 390.328 232.296 372.095 228.752L35.5586 163.336Z" fill="url(#paint0_linear_18_11)" fill-opacity="0.5"/>
<path d="M118.29 362.571C116.918 362.304 115.797 361.752 114.926 360.913C114.055 360.074 113.494 359.009 113.243 357.717C113 356.464 113.147 355.546 113.683 354.962C114.23 354.379 115.095 354.203 116.278 354.433C117.421 354.655 118.371 355.165 119.129 355.963C119.886 356.76 120.386 357.78 120.627 359.023C120.654 359.162 120.679 359.315 120.702 359.482C120.725 359.649 120.739 359.771 120.745 359.849L114.393 358.614L114.135 357.287L119.086 358.25L118.895 358.6C118.737 357.785 118.461 357.153 118.068 356.703C117.682 356.246 117.176 355.956 116.55 355.834C115.884 355.705 115.418 355.815 115.151 356.165C114.892 356.507 114.841 357.08 114.998 357.885L115.099 358.407C115.246 359.163 115.554 359.763 116.023 360.208C116.49 360.643 117.126 360.939 117.931 361.095C118.349 361.177 118.788 361.224 119.25 361.237C119.71 361.24 120.11 361.208 120.451 361.14L120.953 362.615C120.604 362.691 120.195 362.726 119.725 362.721C119.255 362.716 118.777 362.666 118.29 362.571Z" fill="#595959"/>
<path d="M101.589 359.181L100.082 351.428L101.782 351.759L101.989 352.674L102.019 352.68C102.231 352.396 102.514 352.202 102.867 352.099C103.218 351.985 103.652 351.978 104.168 352.079C104.675 352.177 105.121 352.355 105.506 352.611C105.898 352.86 106.202 353.168 106.417 353.535L106.447 353.54C106.673 353.231 106.964 353.029 107.319 352.935C107.674 352.842 108.115 352.846 108.641 352.948C109.476 353.111 110.126 353.452 110.591 353.973C111.054 354.484 111.377 355.211 111.56 356.156L112.563 361.314L110.789 360.969L109.873 356.258C109.759 355.671 109.581 355.226 109.34 354.921C109.099 354.616 108.77 354.422 108.353 354.341C107.856 354.245 107.495 354.332 107.27 354.604C107.046 354.876 106.987 355.286 107.093 355.832L107.986 360.425L106.197 360.077L105.255 355.231C105.156 354.724 104.977 354.321 104.718 354.022C104.457 353.713 104.133 353.521 103.746 353.446C103.447 353.388 103.189 353.414 102.972 353.525C102.764 353.638 102.612 353.814 102.515 354.053C102.428 354.294 102.418 354.589 102.486 354.937L103.379 359.529L101.589 359.181Z" fill="#595959"/>
<path d="M95.1678 358.077C94.3925 357.926 93.7406 357.598 93.2122 357.094C92.6917 356.581 92.361 355.962 92.2199 355.237C92.0441 354.332 92.2617 353.705 92.8728 353.355C93.4839 353.005 94.4404 352.957 95.7426 353.21L96.831 353.422C96.7576 353.044 96.6518 352.746 96.5138 352.528C96.3838 352.302 96.1967 352.127 95.9526 352.003C95.7185 351.881 95.3977 351.78 94.9901 351.701C94.4931 351.604 93.9859 351.554 93.4685 351.549C92.961 351.546 92.493 351.598 92.0645 351.706L91.5448 350.213C92.015 350.123 92.5476 350.083 93.1426 350.094C93.7377 350.104 94.3433 350.169 94.9596 350.289C95.7448 350.442 96.3795 350.656 96.8635 350.932C97.3574 351.209 97.7472 351.591 98.033 352.077C98.3187 352.563 98.5331 353.174 98.6761 353.909L99.6267 358.8L97.8822 358.461L97.6934 357.563L97.6636 357.557C97.4551 357.813 97.1167 357.992 96.6484 358.092C96.1782 358.182 95.6847 358.177 95.1678 358.077ZM95.5456 356.773C95.9134 356.844 96.2388 356.845 96.5218 356.776C96.8029 356.697 97.0107 356.56 97.1451 356.366C97.2796 356.172 97.3188 355.931 97.2628 355.643L97.0802 354.704L96.2602 354.544C95.4054 354.378 94.7815 354.367 94.3886 354.511C94.0037 354.646 93.8556 354.943 93.9445 355.4C94.0102 355.738 94.1817 356.029 94.4589 356.275C94.7361 356.52 95.0983 356.686 95.5456 356.773Z" fill="#595959"/>
<path d="M82.256 355.423L80.1404 344.539L82.1234 344.925L88.5175 353.685L88.5473 353.691L87.0287 345.878L88.8775 346.237L90.9932 357.122L89.0102 356.736L82.6309 347.979L82.6011 347.973L84.1198 355.786L82.256 355.423Z" fill="#595959"/>
<path d="M174.206 292.342L173.797 290.24L175.915 290.651L176.323 292.753L174.206 292.342Z" fill="#595959"/>
<path d="M168.849 291.444C167.596 291.2 166.559 290.664 165.738 289.835C164.925 288.998 164.394 287.938 164.145 286.656C163.895 285.374 164.041 284.45 164.582 283.886C165.131 283.314 166.031 283.149 167.283 283.393C168.536 283.636 169.574 284.177 170.397 285.016C171.218 285.845 171.753 286.901 172.002 288.183C172.251 289.466 172.102 290.393 171.553 290.965C171.002 291.528 170.101 291.687 168.849 291.444ZM168.564 289.983C169.25 290.116 169.731 290.004 170.005 289.646C170.278 289.278 170.333 288.672 170.168 287.827C170.004 286.982 169.701 286.311 169.261 285.814C168.818 285.307 168.253 284.987 167.568 284.854C166.892 284.722 166.412 284.84 166.13 285.205C165.855 285.563 165.799 286.165 165.964 287.01C166.128 287.854 166.431 288.53 166.874 289.037C167.325 289.536 167.889 289.851 168.564 289.983Z" fill="#595959"/>
<path d="M154.401 288.492L152.285 277.608L154.268 277.993L160.663 286.754L160.692 286.76L159.174 278.947L161.023 279.306L163.138 290.19L161.155 289.805L154.776 281.047L154.746 281.042L156.265 288.854L154.401 288.492Z" fill="#595959"/>
<path d="M143.673 286.55C142.639 286.349 141.766 285.84 141.052 285.022C140.338 284.204 139.858 283.159 139.611 281.887C139.363 280.615 139.459 279.682 139.899 279.088C140.338 278.494 141.074 278.298 142.108 278.499C142.625 278.599 143.11 278.78 143.562 279.04C144.014 279.3 144.418 279.632 144.774 280.036L144.819 280.044L144.033 276.004L145.837 276.355L147.953 287.239L146.239 286.905L146.032 285.99L146.002 285.984C145.78 286.266 145.463 286.458 145.052 286.56C144.65 286.654 144.19 286.651 143.673 286.55ZM143.86 285.152C144.248 285.227 144.576 285.215 144.843 285.113C145.12 285.014 145.321 284.843 145.446 284.599C145.571 284.356 145.599 284.06 145.532 283.712L145.259 282.311C145.19 281.953 145.039 281.622 144.808 281.319C144.575 281.006 144.294 280.741 143.965 280.524C143.636 280.307 143.273 280.16 142.875 280.083C142.249 279.961 141.804 280.085 141.541 280.455C141.289 280.826 141.241 281.42 141.4 282.235C141.558 283.05 141.849 283.709 142.272 284.212C142.705 284.717 143.234 285.03 143.86 285.152Z" fill="#595959"/>
<path d="M134.771 284.676L133.264 276.923L135.023 277.265L135.322 278.729L135.352 278.735C135.545 278.447 135.792 278.218 136.093 278.047C136.403 277.868 136.76 277.761 137.164 277.724C137.566 277.678 138.001 277.701 138.468 277.791L138.775 279.372C138.149 279.25 137.601 279.258 137.13 279.396C136.67 279.536 136.325 279.78 136.096 280.128C135.875 280.468 135.813 280.886 135.91 281.383L136.62 285.036L134.771 284.676Z" fill="#595959"/>
<path d="M128.349 283.572C127.574 283.421 126.922 283.093 126.394 282.589C125.873 282.077 125.542 281.458 125.401 280.732C125.226 279.827 125.443 279.2 126.054 278.85C126.665 278.5 127.622 278.452 128.924 278.705L130.012 278.917C129.939 278.539 129.833 278.241 129.695 278.023C129.565 277.797 129.378 277.622 129.134 277.498C128.9 277.376 128.579 277.275 128.172 277.196C127.675 277.099 127.167 277.049 126.65 277.044C126.142 277.041 125.674 277.093 125.246 277.201L124.726 275.709C125.196 275.618 125.729 275.578 126.324 275.589C126.919 275.599 127.525 275.664 128.141 275.784C128.926 275.937 129.561 276.151 130.045 276.427C130.539 276.705 130.929 277.086 131.214 277.572C131.5 278.058 131.715 278.669 131.858 279.405L132.808 284.295L131.064 283.956L130.875 283.058L130.845 283.053C130.637 283.309 130.298 283.487 129.83 283.587C129.36 283.677 128.866 283.672 128.349 283.572ZM128.727 282.268C129.095 282.339 129.42 282.34 129.703 282.271C129.984 282.192 130.192 282.055 130.327 281.861C130.461 281.668 130.5 281.427 130.444 281.138L130.262 280.199L129.442 280.04C128.587 279.873 127.963 279.862 127.57 280.006C127.185 280.141 127.037 280.438 127.126 280.895C127.192 281.233 127.363 281.525 127.64 281.77C127.918 282.015 128.28 282.181 128.727 282.268Z" fill="#595959"/>
<path d="M121.177 282.177C119.994 281.947 118.932 281.526 117.99 280.912C117.048 280.299 116.268 279.53 115.648 278.606C115.039 277.685 114.621 276.642 114.395 275.479C114.167 274.306 114.196 273.351 114.483 272.613C114.778 271.867 115.31 271.353 116.077 271.072C116.845 270.791 117.821 270.765 119.004 270.995C120.355 271.258 121.61 271.784 122.768 272.573L122.654 274.129C121.528 273.356 120.439 272.866 119.385 272.662C118.6 272.509 117.95 272.536 117.435 272.742C116.918 272.938 116.563 273.299 116.369 273.826C116.175 274.352 116.158 275.028 116.318 275.853C116.477 276.668 116.768 277.404 117.192 278.06C117.614 278.706 118.144 279.245 118.783 279.675C119.419 280.095 120.13 280.381 120.915 280.534C121.939 280.733 122.917 280.646 123.848 280.272L124.599 281.996C123.67 282.38 122.529 282.44 121.177 282.177Z" fill="#595959"/>
<path d="M108.134 279.642C107.22 279.464 106.522 279.147 106.041 278.69C105.56 278.233 105.237 277.577 105.07 276.722L104.288 272.697L102.558 272.361L102.274 270.899L104.004 271.236L103.511 268.701L105.36 269.06L105.853 271.595L108.462 272.102L108.746 273.563L106.137 273.056L106.829 276.62C106.926 277.117 107.073 277.48 107.271 277.71C107.476 277.931 107.788 278.083 108.206 278.164C108.424 278.206 108.649 278.231 108.88 278.238C109.111 278.244 109.314 278.231 109.489 278.198L109.946 279.736C109.627 279.77 109.323 279.777 109.032 279.759C108.742 279.741 108.442 279.702 108.134 279.642Z" fill="#595959"/>
<path d="M98.6957 268.884L98.3538 267.125L100.203 267.484L100.545 269.243L98.6957 268.884ZM100.469 278.009L98.9711 270.301L100.82 270.66L102.318 278.368L100.469 278.009Z" fill="#595959"/>
<path d="M93.8767 276.871C92.8429 276.67 91.9692 276.161 91.2555 275.343C90.5418 274.525 90.0613 273.48 89.814 272.208C89.5667 270.935 89.6627 270.002 90.102 269.409C90.5414 268.815 91.2779 268.619 92.3117 268.82C92.8285 268.92 93.3131 269.1 93.7654 269.36C94.2176 269.62 94.6217 269.952 94.9776 270.356L95.0223 270.365L94.2369 266.324L96.041 266.675L98.1566 277.559L96.442 277.226L96.2354 276.311L96.2056 276.305C95.983 276.587 95.6664 276.779 95.2559 276.881C94.8533 276.975 94.3936 276.971 93.8767 276.871ZM94.064 275.473C94.4516 275.548 94.7791 275.535 95.0464 275.434C95.3236 275.335 95.5246 275.164 95.6495 274.92C95.7743 274.676 95.8029 274.381 95.7352 274.033L95.4628 272.631C95.3933 272.273 95.2429 271.943 95.0119 271.64C94.7788 271.327 94.4978 271.062 94.1687 270.845C93.8396 270.628 93.4762 270.481 93.0786 270.403C92.4524 270.282 92.0078 270.406 91.745 270.775C91.492 271.147 91.4448 271.74 91.6032 272.555C91.7616 273.37 92.0523 274.029 92.4753 274.533C92.9082 275.038 93.4378 275.351 94.064 275.473Z" fill="#595959"/>
<path d="M86.2992 275.398C84.9275 275.131 83.8063 274.579 82.9355 273.74C82.0647 272.901 81.5037 271.836 81.2525 270.543C81.0091 269.291 81.1558 268.373 81.6926 267.788C82.2393 267.206 83.1041 267.03 84.2869 267.26C85.43 267.482 86.3804 267.992 87.138 268.789C87.8956 269.587 88.3951 270.607 88.6366 271.85C88.6637 271.989 88.6887 272.142 88.7116 272.309C88.7345 272.476 88.7487 272.598 88.7542 272.676L82.4026 271.441L82.1447 270.114L87.0947 271.077L86.9046 271.427C86.7462 270.612 86.4702 269.98 86.0768 269.53C85.6914 269.073 85.1856 268.783 84.5594 268.661C83.8934 268.532 83.427 268.642 83.1603 268.992C82.9015 269.334 82.8504 269.907 83.0069 270.712L83.1084 271.234C83.2552 271.99 83.5632 272.59 84.0322 273.035C84.4994 273.47 85.1355 273.766 85.9407 273.922C86.3581 274.004 86.7977 274.051 87.2594 274.064C87.7191 274.067 88.1193 274.035 88.46 273.967L88.9619 275.442C88.6132 275.518 88.204 275.553 87.7343 275.548C87.2647 275.543 86.7863 275.493 86.2992 275.398Z" fill="#595959"/>
<path d="M76.4129 273.333L74.9058 265.58L76.6652 265.922L76.9641 267.386L76.9939 267.391C77.1867 267.104 77.4338 266.874 77.7353 266.703C78.0449 266.524 78.4018 266.417 78.806 266.381C79.2083 266.335 79.643 266.357 80.1102 266.448L80.4174 268.028C79.7912 267.906 79.2428 267.915 78.7723 268.053C78.3118 268.193 77.967 268.437 77.7381 268.784C77.5172 269.124 77.455 269.542 77.5516 270.039L78.2617 273.692L76.4129 273.333Z" fill="#595959"/>
<path d="M71.0312 272.43C69.8484 272.2 68.7861 271.778 67.8443 271.165C66.9025 270.552 66.1219 269.783 65.5023 268.859C64.8927 267.937 64.4749 266.895 64.2489 265.732C64.0209 264.559 64.0503 263.603 64.3373 262.865C64.6322 262.119 65.1636 261.606 65.9315 261.325C66.6994 261.043 67.6748 261.018 68.8576 261.248C70.2094 261.51 71.4642 262.037 72.6219 262.826L72.5083 264.382C71.3823 263.608 70.2926 263.119 69.2389 262.914C68.4537 262.762 67.8037 262.788 67.289 262.994C66.7724 263.19 66.417 263.552 66.2229 264.078C66.0288 264.605 66.0119 265.281 66.1722 266.106C66.3307 266.921 66.6219 267.656 67.046 268.313C67.4681 268.959 67.9983 269.497 68.6367 269.927C69.2731 270.348 69.9839 270.634 70.7692 270.787C71.793 270.986 72.7707 270.898 73.7023 270.525L74.4535 272.249C73.5238 272.632 72.3831 272.693 71.0312 272.43Z" fill="#595959"/>
<path d="M238.91 381.774L238.501 379.672L240.618 380.083L241.027 382.186L238.91 381.774Z" fill="#595959"/>
<path d="M232.636 372.951C233.669 373.152 234.543 373.661 235.257 374.479C235.97 375.297 236.451 376.342 236.698 377.614C236.946 378.886 236.85 379.819 236.41 380.413C235.971 381.007 235.234 381.203 234.201 381.002C233.694 380.904 233.209 380.723 232.747 380.461C232.293 380.191 231.889 379.859 231.535 379.465L231.505 379.46L232.29 383.5L230.456 383.144L228.341 372.259L230.085 372.599L230.277 373.511L230.307 373.517C230.537 373.227 230.854 373.035 231.256 372.941C231.659 372.847 232.119 372.85 232.636 372.951ZM232.448 374.349C232.071 374.276 231.743 374.289 231.466 374.388C231.189 374.487 230.988 374.658 230.863 374.902C230.746 375.137 230.722 375.434 230.792 375.792L231.064 377.193C231.132 377.541 231.277 377.871 231.5 378.182C231.733 378.495 232.019 378.761 232.359 378.98C232.698 379.199 233.056 379.345 233.434 379.418C234.07 379.542 234.514 379.418 234.767 379.046C235.02 378.675 235.068 378.081 234.909 377.266C234.751 376.451 234.46 375.792 234.037 375.289C233.614 374.786 233.084 374.473 232.448 374.349Z" fill="#595959"/>
<path d="M220.893 378.272L222.593 374.844L219.415 370.525L221.443 370.919L223.646 374.13L223.675 374.136L224.753 371.562L226.781 371.956L225.098 375.331L228.318 379.715L226.29 379.321L224.049 376.059L224.019 376.053L222.935 378.669L220.893 378.272Z" fill="#595959"/>
<path d="M212.422 376.625L210.306 365.741L217.582 367.156L217.895 368.766L212.483 367.714L213.028 370.517L218.142 371.511L218.449 373.091L213.335 372.097L213.973 375.377L219.385 376.429L219.698 378.04L212.422 376.625Z" fill="#595959"/>
<path d="M253.403 412.501L251.937 404.961L251.912 404.956L249.015 406.25L248.284 404.767L251.589 403.172L253.212 403.487L255.026 412.816L253.403 412.501Z" fill="#424242"/>
<path d="M245.191 410.905L243.725 403.364L243.699 403.36L240.803 404.653L240.072 403.171L243.377 401.575L245 401.891L246.814 411.22L245.191 410.905Z" fill="#424242"/>
<path d="M234.594 409.337L237.131 399.869L238.691 400.173L236.153 409.64L234.594 409.337Z" fill="#424242"/>
<path d="M228.406 398.542C229.173 398.691 229.847 398.954 230.428 399.329C231.009 399.704 231.483 400.182 231.85 400.761C232.225 401.342 232.489 402.025 232.642 402.809C232.87 403.985 232.84 404.967 232.55 405.755C232.268 406.536 231.753 407.096 231.008 407.435C230.262 407.773 229.303 407.862 228.132 407.7L227.6 406.354C228.645 406.5 229.462 406.441 230.05 406.179C230.637 405.907 231.013 405.419 231.18 404.713L231.152 404.696C230.88 404.815 230.578 404.888 230.247 404.913C229.924 404.941 229.559 404.915 229.15 404.835C228.204 404.652 227.405 404.23 226.752 403.57C226.107 402.912 225.69 402.093 225.499 401.113C225.367 400.432 225.394 399.875 225.581 399.444C225.768 399.013 226.1 398.721 226.579 398.568C227.056 398.407 227.665 398.398 228.406 398.542ZM228.672 399.91C228.041 399.787 227.588 399.859 227.312 400.125C227.042 400.384 226.965 400.808 227.079 401.396C227.193 401.983 227.44 402.474 227.82 402.868C228.207 403.254 228.699 403.506 229.295 403.622C229.721 403.704 230.074 403.708 230.354 403.631C230.633 403.546 230.827 403.382 230.935 403.141C231.051 402.893 231.073 402.582 231 402.207C230.935 401.875 230.807 401.55 230.614 401.234C230.43 400.92 230.176 400.645 229.851 400.41C229.533 400.167 229.14 400.001 228.672 399.91Z" fill="#424242"/>
<path d="M222.057 406.531C220.813 406.289 219.813 405.717 219.055 404.816C218.298 403.915 217.761 402.65 217.445 401.023C217.129 399.396 217.197 398.249 217.649 397.583C218.102 396.916 218.95 396.704 220.194 396.946C221.438 397.188 222.434 397.758 223.183 398.658C223.94 399.56 224.477 400.824 224.793 402.451C225.11 404.079 225.042 405.225 224.589 405.892C224.145 406.56 223.301 406.773 222.057 406.531ZM221.781 405.112C222.488 405.25 222.951 405.077 223.169 404.595C223.386 404.113 223.383 403.292 223.157 402.133C222.931 400.966 222.603 400.083 222.175 399.483C221.745 398.875 221.177 398.502 220.47 398.364C219.763 398.227 219.296 398.399 219.07 398.879C218.85 399.353 218.854 400.174 219.081 401.341C219.306 402.5 219.633 403.383 220.063 403.991C220.501 404.601 221.074 404.975 221.781 405.112Z" fill="#424242"/>
<path d="M175.418 397.342L173.604 388.013L175.138 388.311L180.952 396.205L180.977 396.21L179.611 389.181L181.017 389.454L182.83 398.783L181.297 398.485L175.483 390.592L175.457 390.587L176.824 397.616L175.418 397.342Z" fill="#424242"/>
<path d="M165.474 395.41L167.06 386.741L168.965 387.111L174.165 397.099L172.618 396.798L168.252 388.129L168.227 388.124L167.021 395.71L165.474 395.41ZM166.783 393.414L166.535 392.136L171.711 393.142L171.959 394.42L166.783 393.414Z" fill="#424242"/>
<path d="M162.81 394.892L160.997 385.562L162.403 385.836L164.216 395.165L162.81 394.892ZM157.059 393.774L155.246 384.445L156.652 384.718L158.465 394.047L157.059 393.774ZM156.937 389.668L156.689 388.39L162.44 389.507L162.688 390.785L156.937 389.668Z" fill="#424242"/>
<path d="M153.318 393.047L151.504 383.717L152.961 384L154.775 393.33L153.318 393.047Z" fill="#424242"/>
<path d="M143.259 391.091L144.845 382.423L146.75 382.793L151.95 392.781L150.403 392.48L146.037 383.811L146.012 383.806L144.806 391.392L143.259 391.091ZM144.568 389.096L144.32 387.818L149.496 388.824L149.744 390.102L144.568 389.096Z" fill="#424242"/>
<path d="M135.368 389.558L133.555 380.228L136.367 380.775C137.738 381.041 138.782 381.458 139.499 382.023C140.224 382.59 140.68 383.355 140.867 384.318C141.051 385.264 140.882 385.911 140.36 386.261C139.846 386.612 138.967 386.666 137.723 386.425L135.346 385.962L135.107 384.736L137.28 385.158C138.149 385.327 138.752 385.329 139.089 385.165C139.433 384.994 139.552 384.636 139.446 384.091C139.34 383.546 139.068 383.116 138.63 382.801C138.198 382.479 137.548 382.234 136.679 382.065L135.209 381.78L136.774 389.831L135.368 389.558ZM140.825 390.618L135.766 385.528L137.542 385.873L142.653 390.974L140.825 390.618Z" fill="#424242"/>
<path d="M122.202 386.998L120.388 377.669L121.922 377.967L127.736 385.86L127.761 385.865L126.395 378.836L127.801 379.11L129.614 388.439L128.08 388.141L122.267 380.248L122.241 380.243L123.608 387.271L122.202 386.998Z" fill="#424242"/>
<path d="M112.258 385.065L113.844 376.397L115.749 376.767L120.949 386.755L119.402 386.454L115.036 377.784L115.011 377.78L113.805 385.366L112.258 385.065ZM113.567 383.069L113.319 381.791L118.495 382.798L118.743 384.076L113.567 383.069Z" fill="#424242"/>
<path d="M109.594 384.548L107.781 375.218L109.186 375.491L111 384.821L109.594 384.548ZM103.843 383.43L102.03 374.1L103.436 374.374L105.249 383.703L103.843 383.43ZM103.721 379.323L103.473 378.045L109.224 379.163L109.472 380.441L103.721 379.323Z" fill="#424242"/>
<path d="M95.7559 381.858L93.9425 372.528L100.077 373.721L100.32 374.973L95.5917 374.054L96.0935 376.636L100.566 377.505L100.805 378.732L96.332 377.862L96.9183 380.878L101.647 381.798L101.89 383.05L95.7559 381.858Z" fill="#424242"/>
<path d="M86.9448 380.145L85.1314 370.816L87.9429 371.362C89.3146 371.629 90.3588 372.045 91.0754 372.611C91.8005 373.178 92.2566 373.943 92.4438 374.906C92.6276 375.851 92.4583 376.499 91.936 376.848C91.4222 377.199 90.5433 377.254 89.2994 377.012L86.9223 376.55L86.6838 375.323L88.8564 375.745C89.7255 375.914 90.3285 375.917 90.6655 375.753C91.0094 375.582 91.1283 375.224 91.0224 374.678C90.9164 374.133 90.6442 373.703 90.2059 373.388C89.7745 373.067 89.1243 372.822 88.2553 372.653L86.7856 372.367L88.3506 380.418L86.9448 380.145ZM92.4018 381.206L87.342 376.115L89.1184 376.46L94.2293 381.561L92.4018 381.206Z" fill="#424242"/>
<path fill-rule="evenodd" clip-rule="evenodd" d="M72.8614 217.558C74.9489 215.716 75.8905 212.675 75.1666 208.95C74.4427 205.226 72.1982 201.565 69.2025 198.735C71.0712 197.086 73.8593 196.399 77.193 197.047C84.251 198.419 91.0851 205.253 92.457 212.311C93.8289 219.369 89.2193 223.979 82.1613 222.607C78.8276 221.959 75.5429 220.091 72.8614 217.558ZM72.8614 217.558C70.9927 219.207 68.2046 219.894 64.8709 219.246C57.8129 217.874 50.9788 211.04 49.6069 203.982C48.235 196.924 52.8446 192.314 59.9026 193.686C63.2363 194.334 66.521 196.202 69.2025 198.735C67.115 200.577 66.1734 203.619 66.8973 207.343C67.6212 211.067 69.8657 214.728 72.8614 217.558Z" fill="#424242"/>
<path fill-rule="evenodd" clip-rule="evenodd" d="M376.587 255.482C377.1 255.171 377.957 255.47 378.499 256.15C381.387 259.768 385.148 265.712 387.115 271.901C389.095 278.133 389.273 284.694 384.803 289.252C384.39 289.674 383.55 289.516 382.928 288.9C382.306 288.283 382.137 287.441 382.551 287.019C386.449 283.044 386.334 277.353 384.549 271.736C382.751 266.076 379.274 260.575 376.639 257.274C376.096 256.594 376.073 255.792 376.587 255.482ZM371.778 259.232C372.291 258.921 373.147 259.219 373.69 259.898C375.727 262.445 378.373 266.618 379.759 270.972C381.158 275.37 381.288 280.033 378.102 283.266C377.687 283.687 376.848 283.528 376.226 282.911C375.605 282.294 375.437 281.452 375.852 281.031C378.464 278.38 378.396 274.588 377.194 270.808C375.977 266.984 373.616 263.256 371.833 261.026C371.29 260.347 371.265 259.544 371.778 259.232ZM368.38 263.686C368.89 263.371 369.746 263.665 370.292 264.343C371.402 265.722 372.833 267.963 373.585 270.317C374.352 272.717 374.427 275.311 372.64 277.099C372.222 277.517 371.382 277.353 370.762 276.734C370.143 276.115 369.98 275.274 370.397 274.856C371.605 273.648 371.588 271.93 371.021 270.157C370.44 268.338 369.299 266.544 368.444 265.482C367.898 264.805 367.87 264.001 368.38 263.686ZM365.802 268.478C365.313 268.383 364.994 268.703 365.089 269.191C365.184 269.68 365.658 270.154 366.146 270.249C366.635 270.344 366.955 270.024 366.86 269.536C366.765 269.047 366.291 268.573 365.802 268.478ZM362.434 268.675C362.054 266.72 363.331 265.443 365.286 265.823C367.242 266.203 369.135 268.096 369.515 270.052C369.895 272.007 368.618 273.284 366.663 272.904C364.707 272.524 362.814 270.631 362.434 268.675Z" fill="#424242"/>
<path d="M298.198 348.994L295.859 336.96L295.816 336.951L291.999 339.878L291.32 336.385L295.176 333.445L298.243 334.042L301.265 349.59L298.198 348.994Z" fill="#424242"/>
<path d="M282.706 343.523C283.47 342.675 284.107 341.91 284.617 341.231C285.125 340.537 285.521 339.903 285.806 339.33C286.088 338.743 286.269 338.197 286.348 337.694C286.428 337.19 286.421 336.697 286.327 336.214C286.181 335.461 285.91 334.876 285.514 334.457C285.119 334.039 284.573 333.762 283.877 333.627C282.968 333.45 281.947 333.504 280.814 333.789L280.276 331.021C281.25 330.759 282.504 330.777 284.037 331.075C285.585 331.376 286.793 331.966 287.66 332.845C288.525 333.71 289.11 334.924 289.413 336.486C289.54 337.139 289.578 337.788 289.526 338.434C289.485 339.068 289.349 339.705 289.118 340.343C288.887 340.981 288.567 341.623 288.16 342.268C287.766 342.915 287.271 343.564 286.673 344.213L286.689 344.298L291.226 345.18L291.723 347.736L283.203 346.079L282.706 343.523Z" fill="#424242"/>
<path d="M275.505 338.107C275.05 338.018 274.662 337.813 274.34 337.491C274.018 337.169 273.814 336.787 273.728 336.347C273.64 335.893 273.706 335.564 273.926 335.361C274.143 335.144 274.479 335.079 274.933 335.167C275.388 335.256 275.776 335.461 276.098 335.783C276.418 336.091 276.622 336.472 276.71 336.927C276.796 337.367 276.73 337.696 276.512 337.913C276.295 338.131 275.959 338.195 275.505 338.107ZM276.855 345.05C275.676 344.821 274.693 344.405 273.906 343.801C273.117 343.183 272.461 342.304 271.939 341.164C271.416 340.024 270.981 338.56 270.634 336.77L270.385 335.492C270.035 333.689 269.912 332.285 270.018 331.281C270.12 330.263 270.474 329.587 271.079 329.253C271.68 328.906 272.571 328.847 273.749 329.076C274.914 329.302 275.891 329.724 276.68 330.342C277.481 330.949 278.143 331.822 278.665 332.962C279.185 334.088 279.62 335.552 279.97 337.356L280.219 338.634C280.566 340.423 280.689 341.827 280.586 342.845C280.484 343.863 280.124 344.545 279.508 344.89C278.903 345.223 278.019 345.277 276.855 345.05ZM276.341 342.409C276.824 342.503 277.161 342.446 277.353 342.237C277.545 342.028 277.615 341.584 277.565 340.905C277.527 340.214 277.375 339.188 277.11 337.824L276.944 336.972C276.679 335.609 276.43 334.57 276.195 333.855C275.972 333.128 275.715 332.614 275.424 332.311C275.132 332.009 274.746 331.811 274.263 331.717C273.794 331.626 273.457 331.683 273.251 331.889C273.059 332.098 272.983 332.547 273.021 333.238C273.071 333.917 273.229 334.938 273.494 336.302L273.659 337.154C273.924 338.517 274.169 339.562 274.392 340.288C274.626 341.003 274.889 341.512 275.18 341.815C275.486 342.12 275.873 342.318 276.341 342.409Z" fill="#424242"/>
<path d="M261.406 339.383C262.171 338.534 262.808 337.77 263.318 337.09C263.825 336.397 264.221 335.763 264.506 335.19C264.788 334.603 264.969 334.057 265.049 333.553C265.128 333.05 265.121 332.556 265.027 332.074C264.881 331.321 264.61 330.736 264.214 330.317C263.819 329.899 263.273 329.622 262.577 329.486C261.669 329.31 260.648 329.364 259.514 329.649L258.976 326.88C259.95 326.619 261.204 326.637 262.737 326.935C264.285 327.236 265.493 327.826 266.361 328.705C267.226 329.57 267.81 330.784 268.113 332.346C268.24 332.999 268.278 333.648 268.226 334.294C268.185 334.928 268.049 335.564 267.818 336.203C267.587 336.841 267.267 337.483 266.86 338.127C266.467 338.775 265.971 339.423 265.373 340.072L265.389 340.158L269.926 341.039L270.423 343.595L261.903 341.939L261.406 339.383Z" fill="#424242"/>
<path d="M231.15 320.795C232.357 321.03 233.355 321.422 234.145 321.972C234.935 322.521 235.578 323.295 236.072 324.293C236.581 325.294 236.987 326.575 237.291 328.137C237.716 330.324 237.781 332.065 237.486 333.36C237.192 334.656 236.514 335.528 235.454 335.978C234.408 336.431 232.943 336.488 231.06 336.149L230.547 333.508C231.413 333.676 232.153 333.69 232.768 333.55C233.395 333.399 233.867 333.121 234.185 332.719C234.5 332.302 234.624 331.779 234.557 331.151L234.471 331.135C234.115 331.271 233.768 331.346 233.429 331.363C233.091 331.379 232.716 331.347 232.304 331.267C230.941 331.002 229.853 330.394 229.039 329.444C228.238 328.482 227.667 327.127 227.327 325.381C226.944 323.407 227.045 322.067 227.632 321.361C228.231 320.644 229.403 320.456 231.15 320.795ZM231.625 323.347C230.986 323.223 230.563 323.366 230.356 323.776C230.146 324.173 230.135 324.854 230.323 325.82C230.511 326.785 230.799 327.531 231.188 328.058C231.575 328.57 232.088 328.888 232.727 329.013C233.366 329.137 233.79 329.001 234 328.604C234.207 328.194 234.217 327.506 234.029 326.54C233.841 325.574 233.554 324.835 233.168 324.323C232.778 323.796 232.264 323.471 231.625 323.347Z" fill="#424242"/>
<path d="M223.649 334.503L221.31 322.469L221.267 322.461L217.45 325.387L216.771 321.894L220.627 318.955L223.694 319.551L226.716 335.1L223.649 334.503Z" fill="#424242"/>
<path d="M211.606 325.686C211.151 325.598 210.763 325.392 210.441 325.07C210.118 324.748 209.914 324.367 209.829 323.927C209.741 323.472 209.806 323.143 210.027 322.94C210.244 322.723 210.58 322.658 211.034 322.747C211.489 322.835 211.877 323.04 212.199 323.363C212.519 323.671 212.723 324.052 212.811 324.506C212.896 324.946 212.83 325.275 212.613 325.492C212.396 325.71 212.06 325.774 211.606 325.686ZM212.955 332.63C211.777 332.401 210.794 331.984 210.007 331.38C209.217 330.762 208.562 329.883 208.039 328.743C207.517 327.604 207.082 326.139 206.734 324.35L206.486 323.072C206.135 321.268 206.013 319.865 206.118 318.86C206.221 317.842 206.575 317.166 207.179 316.833C207.781 316.485 208.671 316.426 209.85 316.655C211.014 316.881 211.991 317.303 212.781 317.922C213.582 318.528 214.244 319.401 214.766 320.541C215.285 321.667 215.72 323.132 216.071 324.935L216.319 326.213C216.667 328.002 216.79 329.406 216.687 330.424C216.584 331.443 216.225 332.124 215.609 332.469C215.004 332.803 214.12 332.856 212.955 332.63ZM212.442 329.989C212.925 330.082 213.262 330.025 213.454 329.816C213.645 329.608 213.716 329.164 213.666 328.484C213.628 327.794 213.476 326.767 213.211 325.404L213.045 324.552C212.78 323.189 212.53 322.149 212.296 321.434C212.072 320.708 211.815 320.193 211.524 319.891C211.233 319.588 210.846 319.39 210.363 319.296C209.895 319.205 209.558 319.262 209.352 319.468C209.16 319.677 209.083 320.127 209.122 320.817C209.172 321.497 209.33 322.518 209.595 323.881L209.76 324.733C210.025 326.096 210.269 327.141 210.492 327.868C210.727 328.583 210.99 329.092 211.281 329.394C211.586 329.699 211.973 329.898 212.442 329.989Z" fill="#424242"/>
<path d="M197.507 326.962C198.271 326.114 198.908 325.349 199.418 324.67C199.926 323.976 200.322 323.342 200.607 322.769C200.889 322.182 201.07 321.636 201.149 321.132C201.229 320.629 201.222 320.136 201.128 319.653C200.982 318.9 200.711 318.315 200.315 317.896C199.92 317.478 199.374 317.201 198.678 317.066C197.769 316.889 196.748 316.943 195.615 317.228L195.077 314.459C196.051 314.198 197.305 314.216 198.838 314.514C200.386 314.815 201.594 315.405 202.461 316.284C203.326 317.149 203.911 318.363 204.214 319.925C204.341 320.578 204.379 321.227 204.327 321.873C204.286 322.507 204.15 323.144 203.919 323.782C203.688 324.42 203.368 325.062 202.961 325.707C202.567 326.354 202.072 327.003 201.474 327.651L201.49 327.737L206.027 328.619L206.524 331.175L198.004 329.518L197.507 326.962Z" fill="#424242"/>
<path d="M170.4 324.153L168.06 312.118L168.018 312.11L164.201 315.037L163.522 311.544L167.377 308.604L170.444 309.2L173.467 324.749L170.4 324.153Z" fill="#424242"/>
<path d="M159.75 322.083L157.41 310.048L157.368 310.04L153.551 312.967L152.872 309.473L156.727 306.534L159.794 307.13L162.817 322.679L159.75 322.083Z" fill="#424242"/>
<path d="M145.951 304.234C147.158 304.469 148.156 304.861 148.946 305.411C149.736 305.96 150.379 306.734 150.873 307.732C151.382 308.733 151.788 310.014 152.092 311.576C152.517 313.763 152.582 315.504 152.287 316.799C151.993 318.095 151.315 318.967 150.255 319.417C149.209 319.87 147.744 319.926 145.861 319.588L145.348 316.947C146.214 317.115 146.954 317.129 147.569 316.989C148.196 316.838 148.668 316.56 148.986 316.158C149.301 315.741 149.425 315.218 149.358 314.59L149.272 314.574C148.916 314.709 148.569 314.785 148.23 314.802C147.892 314.818 147.517 314.786 147.105 314.706C145.742 314.441 144.654 313.833 143.84 312.883C143.039 311.921 142.468 310.566 142.128 308.82C141.745 306.846 141.846 305.506 142.433 304.8C143.032 304.083 144.204 303.894 145.951 304.234ZM146.426 306.786C145.787 306.662 145.364 306.805 145.157 307.215C144.947 307.612 144.936 308.293 145.124 309.258C145.312 310.224 145.6 310.97 145.989 311.497C146.376 312.009 146.889 312.327 147.528 312.452C148.167 312.576 148.591 312.44 148.801 312.043C149.008 311.633 149.018 310.944 148.83 309.979C148.642 309.013 148.355 308.274 147.969 307.762C147.579 307.235 147.065 306.91 146.426 306.786Z" fill="#424242"/>
<path d="M137.056 311.195C136.602 311.107 136.214 310.901 135.891 310.579C135.569 310.257 135.365 309.876 135.28 309.436C135.191 308.981 135.257 308.652 135.477 308.449C135.695 308.232 136.031 308.167 136.485 308.256C136.939 308.344 137.328 308.549 137.65 308.872C137.969 309.18 138.173 309.561 138.262 310.015C138.347 310.455 138.281 310.784 138.064 311.002C137.847 311.219 137.511 311.283 137.056 311.195ZM138.406 318.139C137.228 317.91 136.245 317.493 135.458 316.889C134.668 316.271 134.012 315.392 133.49 314.252C132.968 313.113 132.533 311.648 132.185 309.859L131.937 308.581C131.586 306.777 131.464 305.374 131.569 304.369C131.672 303.351 132.025 302.675 132.63 302.342C133.232 301.994 134.122 301.935 135.301 302.164C136.465 302.39 137.442 302.813 138.232 303.431C139.033 304.037 139.695 304.91 140.217 306.05C140.736 307.176 141.171 308.641 141.522 310.444L141.77 311.722C142.118 313.511 142.241 314.915 142.138 315.933C142.035 316.952 141.676 317.633 141.06 317.978C140.455 318.312 139.571 318.365 138.406 318.139ZM137.893 315.498C138.376 315.591 138.713 315.534 138.905 315.325C139.096 315.117 139.167 314.673 139.117 313.994C139.078 313.303 138.927 312.276 138.662 310.913L138.496 310.061C138.231 308.698 137.981 307.658 137.747 306.943C137.523 306.217 137.266 305.702 136.975 305.4C136.684 305.097 136.297 304.899 135.814 304.805C135.346 304.714 135.008 304.771 134.803 304.977C134.611 305.186 134.534 305.636 134.573 306.326C134.623 307.006 134.78 308.027 135.045 309.39L135.211 310.242C135.476 311.605 135.72 312.65 135.943 313.377C136.178 314.092 136.441 314.601 136.732 314.903C137.037 315.208 137.424 315.407 137.893 315.498Z" fill="#424242"/>
<path d="M101.658 308.331C102.422 307.482 103.059 306.718 103.57 306.038C104.077 305.345 104.473 304.711 104.758 304.138C105.04 303.551 105.221 303.005 105.3 302.501C105.38 301.998 105.373 301.504 105.279 301.022C105.133 300.269 104.862 299.684 104.466 299.265C104.071 298.847 103.525 298.57 102.829 298.434C101.921 298.258 100.899 298.312 99.7662 298.597L99.228 295.828C100.202 295.567 101.456 295.585 102.989 295.883C104.537 296.184 105.745 296.774 106.612 297.653C107.477 298.518 108.062 299.732 108.365 301.294C108.492 301.947 108.53 302.596 108.478 303.242C108.437 303.876 108.301 304.512 108.07 305.151C107.839 305.789 107.519 306.431 107.112 307.075C106.718 307.723 106.223 308.371 105.625 309.02L105.641 309.106L110.178 309.987L110.675 312.543L102.155 310.887L101.658 308.331Z" fill="#424242"/>
<path d="M94.4569 302.915C94.0025 302.826 93.6142 302.621 93.292 302.299C92.9697 301.976 92.7658 301.595 92.6802 301.155C92.5919 300.701 92.6578 300.372 92.8779 300.169C93.0953 299.951 93.4312 299.887 93.8856 299.975C94.3399 300.064 94.7283 300.269 95.0505 300.591C95.37 300.899 95.5739 301.28 95.6622 301.735C95.7478 302.175 95.6819 302.504 95.4645 302.721C95.2472 302.938 94.9113 303.003 94.4569 302.915ZM95.8066 309.858C94.628 309.629 93.6453 309.213 92.8584 308.609C92.0688 307.991 91.4129 307.112 90.8907 305.972C90.3686 304.832 89.9336 303.367 89.5858 301.578L89.3374 300.3C88.9868 298.497 88.8643 297.093 88.9696 296.089C89.0723 295.07 89.4259 294.394 90.0306 294.061C90.6326 293.714 91.5229 293.654 92.7014 293.883C93.8658 294.11 94.8428 294.532 95.6325 295.15C96.4336 295.757 97.0952 296.63 97.6173 297.77C98.1368 298.896 98.5717 300.36 98.9223 302.163L99.1707 303.441C99.5185 305.231 99.641 306.634 99.5384 307.653C99.4358 308.671 99.0764 309.353 98.4603 309.698C97.8556 310.031 96.971 310.085 95.8066 309.858ZM95.2932 307.217C95.776 307.311 96.1133 307.254 96.305 307.045C96.4967 306.836 96.5675 306.392 96.5175 305.713C96.4789 305.022 96.3271 303.995 96.0621 302.632L95.8965 301.78C95.6315 300.417 95.3817 299.378 95.1471 298.663C94.9239 297.936 94.6667 297.422 94.3756 297.119C94.0846 296.817 93.6976 296.618 93.2148 296.525C92.7462 296.434 92.409 296.491 92.2031 296.697C92.0114 296.906 91.9348 297.355 91.9734 298.046C92.0235 298.725 92.181 299.746 92.446 301.11L92.6116 301.962C92.8765 303.325 93.1206 304.37 93.3438 305.096C93.5785 305.811 93.8413 306.32 94.1324 306.623C94.4377 306.928 94.8246 307.126 95.2932 307.217Z" fill="#424242"/>
<path d="M85.1568 307.788C83.964 307.556 82.9655 307.164 82.1612 306.612C81.3712 306.062 80.7218 305.286 80.213 304.286C79.7184 303.288 79.3194 302.008 79.0157 300.446C78.5879 298.245 78.5227 296.504 78.8202 295.223C79.115 293.927 79.7925 293.055 80.8528 292.605C81.9131 292.155 83.3777 292.098 85.2465 292.434L85.7599 295.076C84.9079 294.91 84.1687 294.903 83.5423 295.054C82.9132 295.192 82.4396 295.462 82.1217 295.864C81.8037 296.267 81.6799 296.79 81.75 297.432L81.8352 297.448C82.1914 297.313 82.5387 297.237 82.8772 297.221C83.2156 297.204 83.5907 297.236 84.0025 297.316C85.3657 297.581 86.4482 298.195 87.2501 299.157C88.0633 300.107 88.6397 301.456 88.9792 303.202C89.3629 305.176 89.2555 306.522 88.6571 307.239C88.0701 307.945 86.9033 308.128 85.1568 307.788ZM84.6812 305.236C85.3202 305.361 85.7446 305.224 85.9545 304.828C86.1616 304.417 86.1713 303.729 85.9836 302.764C85.796 301.798 85.5088 301.059 85.1223 300.547C84.733 300.02 84.2189 299.695 83.5799 299.571C82.9409 299.446 82.5179 299.59 82.3108 300C82.1009 300.397 82.0898 301.078 82.2775 302.043C82.4652 303.009 82.7537 303.755 83.1429 304.281C83.5295 304.794 84.0422 305.112 84.6812 305.236Z" fill="#424242"/>
<path d="M74.5507 305.521L72.2114 293.487L72.1688 293.479L68.3518 296.405L67.6728 292.912L71.5283 289.973L74.5954 290.569L77.6178 306.118L74.5507 305.521Z" fill="#424242"/>
<path d="M375.92 417.13C375.794 416.481 376.218 416.057 376.867 416.183L386.856 418.125C387.505 418.251 388.133 418.879 388.259 419.528L389.714 427.013C389.802 427.466 389.622 427.828 389.251 427.943L384.718 429.351C384.428 429.441 384.057 429.369 383.708 429.154L378.251 425.805C377.804 425.531 377.463 425.067 377.375 424.614L375.92 417.13Z" fill="#424242"/>
<path d="M394.723 420.785C394.597 420.136 395.021 419.712 395.67 419.838L398.607 420.409C399.256 420.535 399.885 421.164 400.011 421.813L400.468 424.163C400.594 424.812 400.17 425.236 399.521 425.11L396.583 424.539C395.934 424.413 395.306 423.784 395.18 423.135L394.723 420.785Z" fill="#424242"/>
<path d="M406.474 423.069C406.348 422.42 406.772 421.996 407.421 422.122L417.41 424.064C418.059 424.19 418.687 424.819 418.814 425.468L420.184 432.519C420.31 433.168 419.886 433.591 419.237 433.465L409.249 431.524C408.6 431.397 407.971 430.769 407.845 430.12L406.474 423.069Z" fill="#424242"/>
<path d="M378.319 429.469C378.193 428.82 378.616 428.396 379.265 428.522L389.254 430.464C389.903 430.59 390.532 431.219 390.658 431.868L392.028 438.919C392.155 439.568 391.731 439.991 391.082 439.865L381.093 437.924C380.444 437.798 379.815 437.169 379.689 436.52L378.319 429.469Z" fill="#424242"/>
<path d="M392.682 427.738C392.556 427.089 392.98 426.665 393.629 426.791L403.618 428.733C404.267 428.859 404.895 429.488 405.021 430.137L408.219 446.589C408.345 447.238 407.922 447.662 407.273 447.536L397.284 445.594C396.635 445.468 396.006 444.839 395.88 444.19L392.682 427.738Z" fill="#424242"/>
<path d="M408.873 435.408C408.747 434.759 409.171 434.335 409.82 434.462L419.808 436.403C420.457 436.529 421.086 437.158 421.212 437.807L422.583 444.858C422.709 445.507 422.285 445.931 421.636 445.804L411.647 443.863C410.998 443.737 410.37 443.108 410.243 442.459L408.873 435.408Z" fill="#424242"/>
<path d="M380.717 441.808C380.591 441.159 381.015 440.735 381.664 440.862L391.653 442.803C392.302 442.929 392.93 443.558 393.056 444.207L394.427 451.258C394.553 451.907 394.129 452.331 393.48 452.204L383.491 450.263C382.842 450.137 382.214 449.508 382.088 448.859L380.717 441.808Z" fill="#424242"/>
<path d="M400.433 450.164C400.307 449.515 400.731 449.091 401.38 449.217L404.318 449.788C404.967 449.914 405.596 450.543 405.722 451.192L406.179 453.542C406.305 454.191 405.881 454.615 405.232 454.489L402.294 453.918C401.645 453.792 401.017 453.163 400.89 452.514L400.433 450.164Z" fill="#424242"/>
<path d="M411.187 447.314C411.099 446.861 411.28 446.499 411.651 446.383L416.183 444.976C416.473 444.886 416.844 444.958 417.193 445.172L422.65 448.522C423.097 448.796 423.438 449.259 423.526 449.713L424.981 457.197C425.107 457.846 424.683 458.27 424.034 458.144L414.046 456.202C413.397 456.076 412.768 455.447 412.642 454.798L411.187 447.314Z" fill="#424242"/>
<g filter="url(#filter0_b_18_11)">
<path d="M23.3318 36.2483C22.6626 17.0861 37.6637 1.552 56.8376 1.552H399.673C418.847 1.552 434.933 17.0861 435.602 36.2483L442.266 227.078C442.935 246.24 427.934 261.774 408.76 261.774H65.9248C46.7508 261.774 30.6649 246.24 29.9957 227.078L23.3318 36.2483Z" fill="white" fill-opacity="0.1"/>
</g>
<g filter="url(#filter1_b_18_11)">
<path fill-rule="evenodd" clip-rule="evenodd" d="M22.2469 36.2483C21.5568 16.4873 37.0267 0.467773 56.7998 0.467773H399.635C419.408 0.467773 435.997 16.4873 436.687 36.2483L443.351 227.078C444.041 246.839 428.571 262.859 408.798 262.859H65.9626C46.1895 262.859 29.6009 246.839 28.9108 227.078L22.2469 36.2483ZM56.8755 2.63629C38.3008 2.63629 23.7685 17.6849 24.4167 36.2483L31.0806 227.078C31.7289 245.641 47.3122 260.69 65.8869 260.69H408.722C427.297 260.69 441.829 245.641 441.181 227.078L434.517 36.2483C433.869 17.6849 418.285 2.63629 399.711 2.63629H56.8755Z" fill="url(#paint1_linear_18_11)" fill-opacity="0.5"/>
</g>
<path d="M110.231 196.427C108.834 196.427 107.748 196.073 106.974 195.365C106.2 194.657 105.79 193.645 105.744 192.329C105.699 191.054 106.009 190.052 106.672 189.323C107.345 188.595 108.284 188.23 109.489 188.23C110.654 188.23 111.567 188.575 112.229 189.263C112.891 189.951 113.244 190.927 113.288 192.192C113.293 192.334 113.293 192.491 113.289 192.663C113.285 192.835 113.279 192.961 113.272 193.042H106.802L106.754 191.691H111.797L111.538 192.101C111.509 191.271 111.326 190.659 110.988 190.265C110.66 189.86 110.177 189.657 109.539 189.657C108.861 189.657 108.352 189.87 108.012 190.295C107.682 190.71 107.532 191.327 107.56 192.147L107.579 192.678C107.606 193.447 107.828 194.019 108.246 194.393C108.664 194.758 109.283 194.94 110.103 194.94C110.528 194.94 110.983 194.899 111.466 194.818C111.949 194.727 112.375 194.611 112.745 194.469L113.024 195.927C112.644 196.078 112.208 196.2 111.715 196.291C111.222 196.382 110.727 196.427 110.231 196.427Z" fill="#EDEDED"/>
<path d="M93.2421 196.276L92.9664 188.382H94.698L94.7607 189.308H94.7911C95.0626 188.964 95.3926 188.701 95.7812 188.519C96.1693 188.327 96.6267 188.23 97.1533 188.23C97.6697 188.23 98.1085 188.327 98.4696 188.519C98.8405 188.701 99.1079 188.964 99.2718 189.308H99.3022C99.5929 188.934 99.9327 188.661 100.322 188.489C100.71 188.316 101.173 188.23 101.71 188.23C102.561 188.23 103.186 188.458 103.587 188.914C103.987 189.359 104.204 190.062 104.238 191.024L104.421 196.276H102.614L102.446 191.479C102.425 190.882 102.314 190.447 102.112 190.173C101.91 189.9 101.596 189.764 101.171 189.764C100.665 189.764 100.271 189.931 99.9887 190.265C99.7067 190.598 99.5754 191.044 99.5948 191.6L99.7581 196.276H97.9354L97.7632 191.342C97.7451 190.826 97.6252 190.437 97.4034 190.173C97.1812 189.9 96.8727 189.764 96.4777 189.764C96.174 189.764 95.8983 189.845 95.6508 190.006C95.4135 190.168 95.2236 190.386 95.0813 190.659C94.949 190.932 94.8891 191.246 94.9015 191.6L95.0647 196.276H93.2421Z" fill="#EDEDED"/>
<path d="M86.676 196.427C85.8862 196.427 85.2561 196.215 84.7855 195.79C84.3248 195.355 84.0815 194.768 84.0557 194.029C84.0236 193.108 84.3583 192.4 85.0599 191.904C85.7616 191.408 86.7756 191.16 88.1021 191.16H89.2109C89.1975 190.776 89.1366 190.482 89.0283 190.28C88.9297 190.067 88.7626 189.92 88.5269 189.84C88.3013 189.759 87.9809 189.718 87.5657 189.718C87.0594 189.718 86.5346 189.769 85.9914 189.87C85.4582 189.971 84.9572 190.123 84.4884 190.325L84.194 188.853C84.7037 188.661 85.2705 188.509 85.8944 188.397C86.5183 188.286 87.1442 188.23 87.772 188.23C88.5719 188.23 89.2031 188.327 89.6655 188.519C90.138 188.711 90.4835 189.035 90.7019 189.49C90.9203 189.946 91.0426 190.548 91.0687 191.297L91.2426 196.276H89.4655L89.4185 195.365H89.3881C89.1257 195.679 88.7398 195.937 88.2304 196.139C87.7207 196.331 87.2026 196.427 86.676 196.427ZM87.2935 194.97C87.6681 194.97 88.0101 194.904 88.3194 194.773C88.6284 194.631 88.8699 194.444 89.0441 194.211C89.2182 193.978 89.3001 193.715 89.2899 193.422L89.2565 192.466H88.4211C87.5503 192.466 86.8962 192.582 86.4588 192.815C86.0311 193.037 85.8254 193.381 85.8417 193.847C85.8537 194.191 85.9847 194.464 86.2348 194.667C86.4849 194.869 86.8378 194.97 87.2935 194.97Z" fill="#EDEDED"/>
<path d="M73.5468 196.276L73.1599 185.195H75.18L80.4245 193.149H80.4549L80.1771 185.195H82.0606L82.4475 196.276H80.4274L75.1981 188.322H75.1677L75.4455 196.276H73.5468Z" fill="#EDEDED"/>
<path d="M180.886 110.618L180.811 108.478H182.968L183.043 110.618H180.886Z" fill="#EDEDED"/>
<path d="M175.404 110.77C174.128 110.77 173.129 110.416 172.405 109.708C171.692 108.989 171.312 107.977 171.266 106.672C171.221 105.366 171.53 104.359 172.194 103.651C172.867 102.932 173.842 102.573 175.118 102.573C176.394 102.573 177.394 102.932 178.117 103.651C178.841 104.359 179.225 105.366 179.271 106.672C179.317 107.977 179.003 108.989 178.329 109.708C177.655 110.416 176.68 110.77 175.404 110.77ZM175.352 109.283C176.051 109.283 176.575 109.065 176.924 108.63C177.273 108.185 177.433 107.532 177.403 106.672C177.373 105.812 177.168 105.164 176.788 104.729C176.408 104.283 175.869 104.061 175.17 104.061C174.481 104.061 173.958 104.283 173.598 104.729C173.249 105.164 173.089 105.812 173.119 106.672C173.149 107.532 173.355 108.185 173.735 108.63C174.124 109.065 174.664 109.283 175.352 109.283Z" fill="#EDEDED"/>
<path d="M160.711 110.618L160.324 99.5374H162.344L167.588 107.491H167.619L167.341 99.5374H169.224L169.611 110.618H167.591L162.362 102.664H162.331L162.609 110.618H160.711Z" fill="#EDEDED"/>
<path d="M149.758 110.77C148.705 110.77 147.872 110.411 147.259 109.693C146.647 108.974 146.318 107.967 146.273 106.672C146.228 105.376 146.486 104.37 147.048 103.651C147.611 102.933 148.418 102.573 149.471 102.573C149.998 102.573 150.477 102.664 150.909 102.847C151.34 103.029 151.709 103.297 152.015 103.651H152.061L151.917 99.5374H153.755L154.142 110.618H152.395L152.333 109.693H152.302C152.02 110.037 151.655 110.305 151.206 110.497C150.767 110.679 150.284 110.77 149.758 110.77ZM150.191 109.252C150.586 109.252 150.932 109.171 151.23 109.009C151.538 108.848 151.779 108.625 151.951 108.342C152.124 108.058 152.204 107.739 152.191 107.385L152.141 105.958C152.129 105.594 152.026 105.275 151.835 105.002C151.642 104.719 151.392 104.496 151.082 104.334C150.773 104.172 150.415 104.091 150.01 104.091C149.373 104.091 148.884 104.314 148.545 104.759C148.217 105.204 148.067 105.842 148.096 106.672C148.125 107.502 148.319 108.139 148.679 108.584C149.049 109.03 149.553 109.252 150.191 109.252Z" fill="#EDEDED"/>
<path d="M140.713 110.618L140.437 102.725H142.23L142.297 104.213H142.327C142.578 103.869 142.877 103.575 143.223 103.332C143.579 103.079 143.972 102.892 144.403 102.771C144.834 102.639 145.287 102.573 145.763 102.573L145.819 104.182C145.182 104.182 144.604 104.304 144.085 104.547C143.578 104.789 143.174 105.118 142.874 105.533C142.585 105.938 142.449 106.393 142.467 106.899L142.596 110.618H140.713Z" fill="#EDEDED"/>
<path d="M134.147 110.77C133.357 110.77 132.727 110.558 132.256 110.133C131.796 109.698 131.552 109.111 131.527 108.372C131.494 107.451 131.829 106.743 132.531 106.247C133.232 105.751 134.247 105.503 135.573 105.503H136.682C136.668 105.118 136.608 104.825 136.499 104.622C136.401 104.41 136.233 104.263 135.998 104.182C135.772 104.101 135.452 104.061 135.037 104.061C134.53 104.061 134.006 104.111 133.462 104.213C132.929 104.314 132.428 104.466 131.959 104.668L131.665 103.196C132.175 103.003 132.741 102.852 133.365 102.74C133.989 102.629 134.615 102.573 135.243 102.573C136.043 102.573 136.674 102.669 137.136 102.862C137.609 103.054 137.954 103.378 138.173 103.833C138.391 104.289 138.513 104.891 138.54 105.64L138.713 110.618H136.936L136.889 109.708H136.859C136.597 110.021 136.211 110.279 135.701 110.482C135.192 110.674 134.673 110.77 134.147 110.77ZM134.764 109.313C135.139 109.313 135.481 109.247 135.79 109.116C136.099 108.974 136.341 108.787 136.515 108.554C136.689 108.321 136.771 108.058 136.761 107.765L136.727 106.808H135.892C135.021 106.808 134.367 106.925 133.93 107.157C133.502 107.38 133.296 107.724 133.313 108.19C133.325 108.534 133.456 108.807 133.706 109.009C133.956 109.212 134.309 109.313 134.764 109.313Z" fill="#EDEDED"/>
<path d="M126.841 110.77C125.636 110.77 124.59 110.543 123.703 110.087C122.816 109.632 122.125 108.979 121.63 108.129C121.144 107.279 120.881 106.262 120.84 105.078C120.798 103.884 120.99 102.867 121.417 102.027C121.853 101.177 122.498 100.524 123.353 100.069C124.208 99.6132 125.238 99.3855 126.443 99.3855C127.82 99.3855 129.051 99.684 130.135 100.281L129.753 101.951C128.699 101.364 127.636 101.07 126.563 101.07C125.763 101.07 125.075 101.232 124.499 101.556C123.922 101.87 123.488 102.325 123.195 102.922C122.902 103.519 122.77 104.238 122.799 105.078C122.828 105.908 123.01 106.626 123.345 107.233C123.68 107.83 124.147 108.291 124.745 108.615C125.343 108.928 126.043 109.085 126.843 109.085C127.885 109.085 128.928 108.792 129.971 108.205L130.47 109.875C129.427 110.472 128.218 110.77 126.841 110.77Z" fill="#EDEDED"/>
<path d="M113.554 110.77C112.622 110.77 111.942 110.578 111.513 110.193C111.085 109.809 110.855 109.181 110.825 108.311L110.682 104.213H108.92L108.868 102.725H110.63L110.54 100.145H112.423L112.513 102.725H115.171L115.223 104.213H112.565L112.692 107.841C112.709 108.347 112.803 108.701 112.972 108.903C113.151 109.095 113.453 109.192 113.878 109.192C114.101 109.192 114.333 109.171 114.575 109.131C114.816 109.09 115.032 109.035 115.222 108.964L115.443 110.497C115.102 110.598 114.78 110.669 114.478 110.71C114.176 110.75 113.867 110.77 113.554 110.77Z" fill="#EDEDED"/>
<path d="M105.445 101.329L105.383 99.5374H107.266L107.329 101.329H105.445ZM105.769 110.618L105.495 102.771H107.379L107.653 110.618H105.769Z" fill="#EDEDED"/>
<path d="M99.0292 110.77C97.9761 110.77 97.1433 110.411 96.5309 109.693C95.9185 108.974 95.5897 107.967 95.5445 106.672C95.4992 105.376 95.7577 104.37 96.3199 103.651C96.8822 102.933 97.6898 102.573 98.7429 102.573C99.2695 102.573 99.7486 102.664 100.18 102.847C100.612 103.029 100.981 103.297 101.287 103.651H101.332L101.189 99.5374H103.026L103.413 110.618H101.667L101.604 109.693H101.574C101.292 110.037 100.927 110.305 100.478 110.497C100.039 110.679 99.5557 110.77 99.0292 110.77ZM99.4622 109.252C99.8571 109.252 100.204 109.171 100.502 109.009C100.81 108.848 101.05 108.625 101.223 108.342C101.395 108.058 101.475 107.739 101.463 107.385L101.413 105.958C101.4 105.594 101.298 105.275 101.106 105.002C100.914 104.719 100.663 104.496 100.354 104.334C100.044 104.172 99.687 104.091 99.282 104.091C98.644 104.091 98.1556 104.314 97.8168 104.759C97.488 105.204 97.3382 105.842 97.3671 106.672C97.3961 107.502 97.5905 108.139 97.9504 108.584C98.3203 109.03 98.8243 109.252 99.4622 109.252Z" fill="#EDEDED"/>
<path d="M91.3099 110.77C89.9125 110.77 88.8268 110.416 88.0527 109.708C87.2787 108.999 86.8687 107.987 86.8227 106.672C86.7782 105.397 87.0875 104.395 87.7506 103.666C88.4239 102.938 89.363 102.573 90.568 102.573C91.7324 102.573 92.6457 102.917 93.3076 103.605C93.9696 104.294 94.3227 105.27 94.3668 106.535C94.3718 106.677 94.3722 106.834 94.3681 107.006C94.364 107.178 94.3583 107.304 94.351 107.385H87.8805L87.8333 106.034H92.876L92.6169 106.444C92.588 105.614 92.4046 105.002 92.0668 104.607C91.7387 104.203 91.2557 104 90.6178 104C89.9394 104 89.4304 104.213 89.0908 104.638C88.761 105.053 88.6104 105.67 88.639 106.49L88.6576 107.021C88.6844 107.79 88.9069 108.362 89.325 108.736C89.7428 109.1 90.3618 109.283 91.182 109.283C91.6073 109.283 92.0615 109.242 92.5447 109.161C93.0276 109.07 93.4539 108.954 93.8236 108.812L94.1023 110.269C93.7228 110.421 93.2866 110.543 92.7936 110.634C92.3006 110.725 91.806 110.77 91.3099 110.77Z" fill="#EDEDED"/>
<path d="M81.2627 110.618L80.9871 102.725H82.7794L82.8465 104.213H82.8769C83.1281 103.869 83.4267 103.575 83.7726 103.332C84.1283 103.079 84.5218 102.892 84.953 102.771C85.3838 102.639 85.8371 102.573 86.3131 102.573L86.3693 104.182C85.7313 104.182 85.1533 104.304 84.6353 104.547C84.1273 104.789 83.7236 105.118 83.4242 105.533C83.1346 105.938 82.9986 106.393 83.0163 106.899L83.1461 110.618H81.2627Z" fill="#EDEDED"/>
<path d="M75.7561 110.77C74.5511 110.77 73.5053 110.543 72.6185 110.087C71.7318 109.632 71.0407 108.979 70.5452 108.129C70.0599 107.279 69.7965 106.262 69.7552 105.078C69.7135 103.884 69.9058 102.867 70.3321 102.027C70.7682 101.177 71.4137 100.524 72.2687 100.069C73.1236 99.6132 74.1536 99.3855 75.3585 99.3855C76.7357 99.3855 77.9663 99.684 79.0503 100.281L78.6682 101.951C77.6148 101.364 76.5515 101.07 75.4781 101.07C74.6782 101.07 73.9902 101.232 73.4142 101.556C72.8379 101.87 72.4032 102.325 72.1101 102.922C71.8171 103.519 71.6852 104.238 71.7145 105.078C71.7435 105.908 71.9256 106.626 72.2607 107.233C72.5954 107.83 73.0621 108.291 73.6607 108.615C74.259 108.928 74.9581 109.085 75.758 109.085C76.801 109.085 77.8438 108.792 78.8866 108.205L79.3853 109.875C78.343 110.472 77.1332 110.77 75.7561 110.77Z" fill="#EDEDED"/>
<path d="M233.825 191.938L233.75 189.798H235.907L235.982 191.938H233.825Z" fill="#EDEDED"/>
<path d="M228.717 183.893C229.77 183.893 230.603 184.252 231.215 184.971C231.828 185.689 232.156 186.696 232.202 187.991C232.247 189.287 231.988 190.294 231.426 191.012C230.864 191.731 230.056 192.09 229.003 192.09C228.487 192.09 228.008 191.999 227.566 191.817C227.134 191.624 226.765 191.356 226.459 191.012H226.429L226.573 195.126H224.705L224.318 184.045H226.095L226.142 184.971H226.173C226.464 184.616 226.829 184.348 227.268 184.166C227.708 183.984 228.19 183.893 228.717 183.893ZM228.284 185.411C227.899 185.411 227.553 185.492 227.244 185.654C226.936 185.816 226.696 186.038 226.524 186.322C226.361 186.595 226.286 186.914 226.299 187.278L226.349 188.705C226.361 189.059 226.458 189.378 226.64 189.661C226.832 189.944 227.088 190.167 227.408 190.329C227.727 190.491 228.079 190.572 228.464 190.572C229.112 190.572 229.601 190.349 229.929 189.904C230.258 189.459 230.408 188.821 230.379 187.991C230.35 187.162 230.156 186.524 229.796 186.079C229.436 185.633 228.932 185.411 228.284 185.411Z" fill="#EDEDED"/>
<path d="M215.47 191.938L217.838 187.961L215.225 184.045H217.291L219.065 186.99H219.095L220.663 184.045H222.729L220.39 187.961L223.035 191.938H220.969L219.163 188.948H219.133L217.551 191.938H215.47Z" fill="#EDEDED"/>
<path d="M206.841 191.938L206.454 180.857H213.866L213.924 182.496H208.41L208.51 185.35H213.719L213.776 186.959H208.566L208.682 190.299H214.196L214.253 191.938H206.841Z" fill="#EDEDED"/>
<path d="M243.877 221.468L243.609 213.791H243.583L240.319 215.756L239.801 214.338L243.546 211.97H245.199L245.531 221.468H243.877Z" fill="white"/>
<path d="M235.511 221.468L235.243 213.791H235.217L231.953 215.756L231.435 214.338L235.18 211.97H236.833L237.165 221.468H235.511Z" fill="white"/>
<path d="M224.633 221.988L228.9 211.449H230.488L226.222 221.988H224.633Z" fill="white"/>
<path d="M219.949 211.84C220.73 211.84 221.395 211.978 221.942 212.256C222.49 212.534 222.908 212.941 223.196 213.479C223.492 214.017 223.655 214.685 223.683 215.483C223.724 216.68 223.527 217.725 223.089 218.618C222.66 219.503 222.025 220.201 221.183 220.713C220.342 221.225 219.319 221.516 218.115 221.585L217.783 220.271C218.857 220.21 219.726 219.98 220.389 219.581C221.051 219.174 221.53 218.579 221.824 217.799L221.797 217.786C221.491 217.968 221.162 218.107 220.809 218.202C220.465 218.297 220.085 218.345 219.668 218.345C218.705 218.345 217.936 218.063 217.361 217.499C216.794 216.936 216.493 216.155 216.459 215.157C216.434 214.464 216.557 213.869 216.826 213.375C217.095 212.88 217.494 212.503 218.023 212.243C218.552 211.974 219.194 211.84 219.949 211.84ZM219.998 213.232C219.355 213.232 218.867 213.401 218.531 213.739C218.204 214.069 218.051 214.533 218.072 215.131C218.093 215.73 218.27 216.198 218.603 216.537C218.944 216.866 219.419 217.031 220.026 217.031C220.46 217.031 220.831 216.962 221.139 216.823C221.446 216.675 221.677 216.463 221.832 216.185C221.996 215.899 222.071 215.565 222.058 215.183C222.046 214.845 221.965 214.529 221.816 214.234C221.676 213.939 221.455 213.7 221.153 213.518C220.86 213.327 220.475 213.232 219.998 213.232Z" fill="white"/>
<path d="M211.924 221.598C210.657 221.598 209.701 221.199 209.057 220.401C208.413 219.603 208.062 218.376 208.004 216.719C207.946 215.062 208.212 213.835 208.8 213.037C209.388 212.239 210.316 211.84 211.583 211.84C212.85 211.84 213.802 212.239 214.437 213.037C215.081 213.835 215.432 215.062 215.49 216.719C215.548 218.376 215.283 219.603 214.694 220.401C214.115 221.199 213.191 221.598 211.924 221.598ZM211.874 220.154C212.594 220.154 213.109 219.876 213.42 219.321C213.73 218.766 213.865 217.898 213.824 216.719C213.782 215.53 213.587 214.663 213.238 214.117C212.889 213.561 212.354 213.284 211.634 213.284C210.913 213.284 210.394 213.561 210.074 214.117C209.764 214.663 209.629 215.53 209.671 216.719C209.712 217.898 209.907 218.766 210.256 219.321C210.614 219.876 211.153 220.154 211.874 220.154Z" fill="white"/>
<path d="M164.432 221.468L164.1 211.969H165.662L170.443 219.126H170.469L170.219 211.969H171.651L171.983 221.468H170.42L165.64 214.311H165.614L165.864 221.468H164.432Z" fill="white"/>
<path d="M154.302 221.468L157.433 211.969H159.373L163.155 221.468H161.58L158.453 213.193H158.427L155.877 221.468H154.302ZM156.016 219.087L155.97 217.785H161.243L161.288 219.087H156.016Z" fill="white"/>
<path d="M151.588 221.468L151.256 211.969H152.688L153.02 221.468H151.588ZM145.729 221.468L145.398 211.969H146.83L147.162 221.468H145.729ZM146.295 217.148L146.249 215.847H152.108L152.153 217.148H146.295Z" fill="white"/>
<path d="M141.918 221.468L141.586 211.969H143.071L143.402 221.468H141.918Z" fill="white"/>
<path d="M131.671 221.468L134.803 211.969H136.743L140.524 221.468H138.949L135.822 213.193H135.796L133.247 221.468H131.671ZM133.385 219.087L133.339 217.785H138.612L138.658 219.087H133.385Z" fill="white"/>
<path d="M123.633 221.468L123.301 211.969H126.165C127.563 211.969 128.59 212.195 129.248 212.646C129.915 213.097 130.265 213.813 130.3 214.793C130.333 215.756 130.046 216.476 129.438 216.953C128.838 217.43 127.905 217.668 126.638 217.668H124.216L124.172 216.419H126.386C127.271 216.419 127.905 216.298 128.287 216.055C128.677 215.803 128.863 215.4 128.843 214.845C128.824 214.29 128.61 213.891 128.203 213.648C127.803 213.396 127.161 213.271 126.276 213.271H124.779L125.065 221.468H123.633ZM129.192 221.468L124.731 217.122H126.54L131.054 221.468H129.192Z" fill="white"/>
<path d="M110.22 221.468L109.888 211.969H111.45L116.231 219.126H116.257L116.007 211.969H117.439L117.771 221.468H116.208L111.428 214.311H111.402L111.652 221.468H110.22Z" fill="white"/>
<path d="M100.09 221.468L103.221 211.969H105.161L108.943 221.468H107.368L104.241 213.193H104.214L101.665 221.468H100.09ZM101.803 219.087L101.758 217.785H107.031L107.076 219.087H101.803Z" fill="white"/>
<path d="M97.3759 221.468L97.0442 211.969H98.4763L98.808 221.468H97.3759ZM91.5174 221.468L91.1857 211.969H92.6178L92.9494 221.468H91.5174ZM92.0826 217.148L92.0371 215.847H97.8957L97.9411 217.148H92.0826Z" fill="white"/>
<path d="M83.2787 221.468L82.9471 211.969H89.1962L89.2407 213.245H84.4237L84.5155 215.873H89.0721L89.1157 217.122H84.5591L84.6663 220.193H89.4833L89.5279 221.468H83.2787Z" fill="white"/>
<path d="M74.3027 221.468L73.971 211.969H76.8352C78.2326 211.969 79.2603 212.195 79.9183 212.646C80.585 213.097 80.9355 213.813 80.9697 214.793C81.0034 215.756 80.716 216.476 80.1078 216.953C79.5082 217.43 78.5748 217.668 77.3076 217.668H74.8861L74.8425 216.419H77.0557C77.941 216.419 78.5747 216.298 78.9568 216.055C79.3473 215.803 79.5328 215.4 79.5134 214.845C79.494 214.29 79.2805 213.891 78.8727 213.648C78.4734 213.396 77.8311 213.271 76.9458 213.271H75.4486L75.7348 221.468H74.3027ZM79.8619 221.468L75.4008 217.122H77.2104L81.7236 221.468H79.8619Z" fill="white"/>
<path fill-rule="evenodd" clip-rule="evenodd" d="M86.9457 52.3352C89.4518 49.9569 90.9555 46.545 90.8231 42.7533C90.6907 38.9616 88.9487 35.5497 86.2765 33.1714C88.5198 31.0427 91.5676 29.7422 94.9637 29.7422C102.154 29.7422 108.186 35.5676 108.437 42.7533C108.688 49.939 103.063 55.7644 95.8724 55.7644C92.4763 55.7644 89.3377 54.4639 86.9457 52.3352ZM86.9457 52.3352C84.7023 54.4639 81.6545 55.7644 78.2584 55.7644C71.0683 55.7644 65.0359 49.939 64.785 42.7533C64.5341 35.5676 70.1596 29.7422 77.3497 29.7422C80.7458 29.7422 83.8844 31.0427 86.2765 33.1714C83.7704 35.5497 82.2666 38.9616 82.399 42.7533C82.5314 46.545 84.2735 49.9569 86.9457 52.3352Z" fill="white"/>
<path fill-rule="evenodd" clip-rule="evenodd" d="M399.922 29.9943C400.514 29.5602 401.364 29.7007 401.82 30.3081C404.245 33.5423 407.197 39.0584 408.22 45.2025C409.25 51.3886 408.329 58.2945 402.86 64.0362C402.354 64.5676 401.497 64.5732 400.947 64.0488C400.397 63.5244 400.362 62.6685 400.868 62.1371C405.638 57.1294 406.479 51.1316 405.55 45.5551C404.614 39.9366 401.887 34.8311 399.674 31.8801C399.218 31.2727 399.329 30.4284 399.922 29.9943ZM394.232 34.9521C394.824 34.5171 395.674 34.6563 396.13 35.2631C397.842 37.5389 399.92 41.4098 400.642 45.7323C401.37 50.0974 400.719 55.0049 396.824 59.0812C396.317 59.6117 395.46 59.616 394.911 59.0907C394.362 58.5655 394.328 57.7096 394.835 57.179C398.029 53.8366 398.599 49.8387 397.972 46.086C397.338 42.2906 395.486 38.8311 393.987 36.8383C393.53 36.2316 393.64 35.3871 394.232 34.9521ZM389.907 40.363C390.497 39.9251 391.347 40.0604 391.806 40.665C392.741 41.8953 393.867 43.9721 394.261 46.3091C394.661 48.6907 394.303 51.4199 392.122 53.6788C391.612 54.2067 390.755 54.2067 390.209 53.6788C389.662 53.1508 389.632 52.2949 390.142 51.767C391.616 50.2408 391.888 48.4265 391.592 46.6663C391.288 44.8615 390.39 43.1983 389.671 42.2507C389.211 41.646 389.317 40.8009 389.907 40.363ZM386.387 45.9639C385.889 45.9639 385.499 46.3674 385.517 46.8651C385.534 47.3628 385.952 47.7663 386.45 47.7663C386.948 47.7663 387.338 47.3628 387.32 46.8651C387.303 46.3674 386.885 45.9639 386.387 45.9639ZM382.811 46.8651C382.742 44.8742 384.301 43.2603 386.293 43.2603C388.285 43.2603 389.956 44.8742 390.025 46.8651C390.095 48.856 388.536 50.4699 386.544 50.4699C384.552 50.4699 382.881 48.856 382.811 46.8651Z" fill="white"/>
<path d="M301.704 145.06L301.276 132.808H301.233L296.725 136.689L296.601 133.133L301.151 129.229H304.276L304.828 145.06H301.704Z" fill="white"/>
<path d="M286.337 142.458C287.284 141.402 288.083 140.462 288.734 139.638C289.385 138.8 289.908 138.048 290.305 137.383C290.7 136.704 290.983 136.089 291.152 135.54C291.32 134.991 291.396 134.47 291.379 133.979C291.352 133.212 291.166 132.649 290.821 132.287C290.476 131.926 289.949 131.745 289.24 131.745C288.314 131.745 287.231 132.012 285.991 132.547L285.893 129.728C286.961 129.251 288.276 129.013 289.839 129.013C291.415 129.013 292.586 129.389 293.35 130.14C294.113 130.878 294.523 132.041 294.578 133.632C294.602 134.297 294.531 134.976 294.367 135.67C294.218 136.35 293.967 137.051 293.616 137.774C293.265 138.496 292.821 139.241 292.284 140.007C291.761 140.773 291.13 141.561 290.392 142.371L290.395 142.458H295.017L295.108 145.06H286.428L286.337 142.458Z" fill="white"/>
<path d="M279.679 138.207C279.217 138.207 278.843 138.07 278.558 137.795C278.274 137.521 278.124 137.159 278.108 136.711C278.092 136.248 278.217 135.887 278.483 135.627C278.748 135.352 279.112 135.215 279.575 135.215C280.038 135.215 280.411 135.352 280.696 135.627C280.98 135.887 281.13 136.248 281.146 136.711C281.162 137.159 281.037 137.521 280.772 137.795C280.506 138.07 280.142 138.207 279.679 138.207ZM279.926 145.277C278.726 145.277 277.763 145.038 277.037 144.561C276.311 144.069 275.77 143.274 275.413 142.176C275.057 141.077 274.846 139.617 274.783 137.795L274.737 136.494C274.673 134.658 274.781 133.198 275.062 132.114C275.342 131.015 275.828 130.227 276.52 129.75C277.212 129.258 278.158 129.013 279.358 129.013C280.545 129.013 281.501 129.258 282.227 129.75C282.967 130.227 283.515 131.015 283.871 132.114C284.228 133.198 284.438 134.658 284.502 136.494L284.547 137.795C284.611 139.617 284.503 141.077 284.223 142.176C283.943 143.274 283.45 144.069 282.744 144.561C282.052 145.038 281.112 145.277 279.926 145.277ZM279.832 142.588C280.324 142.588 280.689 142.458 280.925 142.197C281.162 141.937 281.312 141.453 281.374 140.744C281.45 140.022 281.463 138.966 281.415 137.578L281.385 136.711C281.336 135.323 281.249 134.275 281.123 133.567C281.011 132.844 280.827 132.352 280.572 132.092C280.317 131.832 279.944 131.702 279.452 131.702C278.975 131.702 278.611 131.832 278.359 132.092C278.122 132.352 277.966 132.844 277.89 133.567C277.828 134.275 277.821 135.323 277.87 136.711L277.9 137.578C277.948 138.966 278.029 140.022 278.141 140.744C278.267 141.453 278.457 141.937 278.712 142.197C278.982 142.458 279.355 142.588 279.832 142.588Z" fill="white"/>
<path d="M264.639 142.458C265.586 141.402 266.385 140.462 267.036 139.638C267.686 138.8 268.21 138.048 268.606 137.383C269.002 136.704 269.284 136.089 269.453 135.54C269.622 134.991 269.698 134.47 269.681 133.979C269.654 133.212 269.468 132.649 269.123 132.287C268.777 131.926 268.25 131.745 267.541 131.745C266.616 131.745 265.533 132.012 264.293 132.547L264.194 129.728C265.263 129.251 266.578 129.013 268.14 129.013C269.717 129.013 270.887 129.389 271.651 130.14C272.415 130.878 272.824 132.041 272.88 133.632C272.903 134.297 272.833 134.976 272.669 135.67C272.519 136.35 272.269 137.051 271.918 137.774C271.567 138.496 271.123 139.241 270.586 140.007C270.063 140.773 269.432 141.561 268.694 142.371L268.697 142.458H273.318L273.409 145.06H264.73L264.639 142.458Z" fill="white"/>
<path d="M235.961 129.013C237.191 129.013 238.175 129.222 238.913 129.642C239.651 130.061 240.195 130.748 240.547 131.702C240.913 132.656 241.124 133.928 241.179 135.518C241.257 137.745 241.032 139.573 240.503 141.005C239.974 142.436 239.115 143.498 237.924 144.192C236.747 144.886 235.198 145.248 233.275 145.277L233.181 142.588C234.063 142.588 234.84 142.45 235.51 142.176C236.194 141.886 236.737 141.496 237.14 141.005C237.542 140.499 237.76 139.92 237.795 139.27H237.708C237.311 139.487 236.933 139.638 236.574 139.725C236.216 139.812 235.827 139.855 235.407 139.855C234.018 139.855 232.977 139.436 232.282 138.598C231.601 137.745 231.23 136.429 231.168 134.651C231.098 132.641 231.431 131.203 232.167 130.335C232.917 129.454 234.182 129.013 235.961 129.013ZM236.031 131.615C235.38 131.615 234.911 131.853 234.624 132.331C234.336 132.793 234.209 133.516 234.244 134.499C234.278 135.482 234.455 136.212 234.776 136.689C235.096 137.152 235.581 137.383 236.232 137.383C236.883 137.383 237.352 137.152 237.64 136.689C237.927 136.212 238.053 135.482 238.019 134.499C237.985 133.516 237.808 132.793 237.488 132.331C237.167 131.853 236.682 131.615 236.031 131.615Z" fill="white"/>
<path d="M225.759 145.06L225.332 132.808H225.288L220.78 136.689L220.656 133.133L225.207 129.229H228.331L228.884 145.06H225.759Z" fill="white"/>
<path d="M214.584 138.207C214.121 138.207 213.748 138.07 213.463 137.795C213.179 137.521 213.029 137.159 213.013 136.711C212.997 136.248 213.122 135.887 213.387 135.627C213.653 135.352 214.017 135.215 214.48 135.215C214.943 135.215 215.316 135.352 215.601 135.627C215.885 135.887 216.035 136.248 216.051 136.711C216.066 137.159 215.942 137.521 215.676 137.795C215.411 138.07 215.047 138.207 214.584 138.207ZM214.831 145.277C213.63 145.277 212.667 145.038 211.942 144.561C211.216 144.069 210.675 143.274 210.318 142.176C209.961 141.077 209.751 139.617 209.688 137.795L209.642 136.494C209.578 134.658 209.686 133.198 209.967 132.114C210.246 131.015 210.732 130.227 211.425 129.75C212.116 129.258 213.062 129.013 214.263 129.013C215.449 129.013 216.405 129.258 217.131 129.75C217.871 130.227 218.42 131.015 218.776 132.114C219.132 133.198 219.342 134.658 219.406 136.494L219.452 137.795C219.516 139.617 219.407 141.077 219.127 142.176C218.848 143.274 218.355 144.069 217.649 144.561C216.956 145.038 216.017 145.277 214.831 145.277ZM214.737 142.588C215.229 142.588 215.593 142.458 215.83 142.197C216.067 141.937 216.216 141.453 216.278 140.744C216.354 140.022 216.368 138.966 216.32 137.578L216.289 136.711C216.241 135.323 216.154 134.275 216.028 133.567C215.916 132.844 215.732 132.352 215.477 132.092C215.222 131.832 214.849 131.702 214.357 131.702C213.88 131.702 213.515 131.832 213.264 132.092C213.027 132.352 212.871 132.844 212.795 133.567C212.733 134.275 212.726 135.323 212.774 136.711L212.805 137.578C212.853 138.966 212.933 140.022 213.045 140.744C213.171 141.453 213.362 141.937 213.617 142.197C213.886 142.458 214.26 142.588 214.737 142.588Z" fill="white"/>
<path d="M199.544 142.458C200.49 141.402 201.289 140.462 201.941 139.638C202.591 138.8 203.115 138.048 203.511 137.383C203.907 136.704 204.189 136.089 204.358 135.54C204.527 134.991 204.603 134.47 204.585 133.979C204.559 133.212 204.373 132.649 204.027 132.287C203.682 131.926 203.155 131.745 202.446 131.745C201.52 131.745 200.437 132.012 199.198 132.547L199.099 129.728C200.167 129.251 201.483 129.013 203.045 129.013C204.622 129.013 205.792 129.389 206.556 130.14C207.32 130.878 207.729 132.041 207.785 133.632C207.808 134.297 207.738 134.976 207.574 135.67C207.424 136.35 207.174 137.051 206.823 137.774C206.472 138.496 206.028 139.241 205.49 140.007C204.967 140.773 204.337 141.561 203.598 142.371L203.601 142.458H208.223L208.314 145.06H199.635L199.544 142.458Z" fill="white"/>
<path d="M171.513 145.06L171.086 132.808H171.042L166.534 136.689L166.41 133.133L170.961 129.229H174.085L174.638 145.06H171.513Z" fill="white"/>
<path d="M160.664 145.06L160.236 132.808H160.193L155.685 136.689L155.561 133.133L160.111 129.229H163.236L163.789 145.06H160.664Z" fill="white"/>
<path d="M149.168 129.013C150.397 129.013 151.381 129.222 152.119 129.642C152.857 130.061 153.402 130.748 153.753 131.702C154.119 132.656 154.33 133.928 154.386 135.518C154.463 137.745 154.238 139.573 153.709 141.005C153.181 142.436 152.321 143.498 151.13 144.192C149.954 144.886 148.404 145.248 146.481 145.277L146.387 142.588C147.27 142.588 148.046 142.45 148.716 142.176C149.4 141.886 149.944 141.496 150.346 141.005C150.748 140.499 150.966 139.92 151.002 139.27H150.915C150.517 139.487 150.139 139.638 149.781 139.725C149.422 139.812 149.033 139.855 148.613 139.855C147.225 139.855 146.183 139.436 145.488 138.598C144.808 137.745 144.436 136.429 144.374 134.651C144.304 132.641 144.637 131.203 145.373 130.335C146.124 129.454 147.389 129.013 149.168 129.013ZM149.237 131.615C148.586 131.615 148.117 131.853 147.83 132.331C147.542 132.793 147.416 133.516 147.45 134.499C147.484 135.482 147.662 136.212 147.982 136.689C148.302 137.152 148.788 137.383 149.438 137.383C150.089 137.383 150.559 137.152 150.846 136.689C151.133 136.212 151.26 135.482 151.226 134.499C151.191 133.516 151.014 132.793 150.694 132.331C150.374 131.853 149.888 131.615 149.237 131.615Z" fill="white"/>
<path d="M138.64 138.207C138.177 138.207 137.803 138.07 137.519 137.795C137.234 137.521 137.084 137.159 137.069 136.711C137.052 136.248 137.177 135.887 137.443 135.627C137.708 135.352 138.072 135.215 138.535 135.215C138.998 135.215 139.372 135.352 139.656 135.627C139.94 135.887 140.09 136.248 140.106 136.711C140.122 137.159 139.997 137.521 139.732 137.795C139.467 138.07 139.103 138.207 138.64 138.207ZM138.887 145.277C137.686 145.277 136.723 145.038 135.997 144.561C135.271 144.069 134.73 143.274 134.374 142.176C134.017 141.077 133.807 139.617 133.743 137.795L133.698 136.494C133.634 134.658 133.742 133.198 134.022 132.114C134.302 131.015 134.788 130.227 135.48 129.75C136.172 129.258 137.118 129.013 138.319 129.013C139.505 129.013 140.461 129.258 141.187 129.75C141.927 130.227 142.475 131.015 142.832 132.114C143.188 133.198 143.398 134.658 143.462 136.494L143.507 137.795C143.571 139.617 143.463 141.077 143.183 142.176C142.903 143.274 142.41 144.069 141.704 144.561C141.012 145.038 140.073 145.277 138.887 145.277ZM138.793 142.588C139.285 142.588 139.649 142.458 139.886 142.197C140.122 141.937 140.272 141.453 140.334 140.744C140.41 140.022 140.424 138.966 140.375 137.578L140.345 136.711C140.297 135.323 140.209 134.275 140.083 133.567C139.971 132.844 139.788 132.352 139.533 132.092C139.278 131.832 138.904 131.702 138.413 131.702C137.935 131.702 137.571 131.832 137.32 132.092C137.083 132.352 136.926 132.844 136.85 133.567C136.788 134.275 136.781 135.323 136.83 136.711L136.86 137.578C136.909 138.966 136.989 140.022 137.101 140.744C137.227 141.453 137.417 141.937 137.672 142.197C137.942 142.458 138.315 142.588 138.793 142.588Z" fill="white"/>
<path d="M101.901 142.458C102.848 141.402 103.647 140.462 104.298 139.638C104.948 138.8 105.472 138.048 105.868 137.383C106.264 136.704 106.546 136.089 106.715 135.54C106.884 134.991 106.96 134.47 106.943 133.979C106.916 133.212 106.73 132.649 106.384 132.287C106.039 131.926 105.512 131.745 104.803 131.745C103.877 131.745 102.795 132.012 101.555 132.547L101.456 129.728C102.525 129.251 103.84 129.013 105.402 129.013C106.979 129.013 108.149 129.389 108.913 130.14C109.677 130.878 110.086 132.041 110.142 133.632C110.165 134.297 110.095 134.976 109.931 135.67C109.781 136.35 109.531 137.051 109.18 137.774C108.829 138.496 108.385 139.241 107.847 140.007C107.324 140.773 106.694 141.561 105.955 142.371L105.958 142.458H110.58L110.671 145.06H101.992L101.901 142.458Z" fill="white"/>
<path d="M95.2429 138.207C94.78 138.207 94.4063 138.07 94.1219 137.795C93.8375 137.521 93.6874 137.159 93.6718 136.711C93.6556 136.248 93.7804 135.887 94.0462 135.627C94.3114 135.352 94.6755 135.215 95.1384 135.215C95.6013 135.215 95.975 135.352 96.2594 135.627C96.5433 135.887 96.6934 136.248 96.7095 136.711C96.7252 137.159 96.6004 137.521 96.3351 137.795C96.0699 138.07 95.7058 138.207 95.2429 138.207ZM95.4898 145.277C94.2891 145.277 93.3261 145.038 92.6006 144.561C91.8746 144.069 91.3333 143.274 90.9767 142.176C90.6201 141.077 90.41 139.617 90.3464 137.795L90.3009 136.494C90.2368 134.658 90.3449 133.198 90.6253 132.114C90.9052 131.015 91.3912 130.227 92.0834 129.75C92.775 129.258 93.7212 129.013 94.9218 129.013C96.108 129.013 97.0641 129.258 97.7901 129.75C98.53 130.227 99.0783 131.015 99.4349 132.114C99.791 133.198 100.001 134.658 100.065 136.494L100.111 137.795C100.174 139.617 100.066 141.077 99.7863 142.176C99.5064 143.274 99.0134 144.069 98.3073 144.561C97.6151 145.038 96.6759 145.277 95.4898 145.277ZM95.3959 142.588C95.8877 142.588 96.252 142.458 96.4889 142.197C96.7257 141.937 96.8751 141.453 96.9372 140.744C97.0132 140.022 97.027 138.966 96.9785 137.578L96.9482 136.711C96.8998 135.323 96.8125 134.275 96.6865 133.567C96.5745 132.844 96.391 132.352 96.136 132.092C95.881 131.832 95.5075 131.702 95.0157 131.702C94.5384 131.702 94.174 131.832 93.9227 132.092C93.6859 132.352 93.5295 132.844 93.4535 133.567C93.3914 134.275 93.3846 135.323 93.4331 136.711L93.4634 137.578C93.5118 138.966 93.5921 140.022 93.7041 140.744C93.8301 141.453 94.0206 141.937 94.2756 142.197C94.5451 142.458 94.9185 142.588 95.3959 142.588Z" fill="white"/>
<path d="M84.6406 145.277C83.4254 145.277 82.4417 145.067 81.6893 144.648C80.9514 144.228 80.3994 143.542 80.0334 142.588C79.6818 141.633 79.4783 140.361 79.4227 138.771C79.3445 136.53 79.5699 134.701 80.0991 133.285C80.6277 131.853 81.4875 130.791 82.6784 130.097C83.8693 129.403 85.4189 129.042 87.3274 129.013L87.4213 131.702C86.5533 131.702 85.7772 131.846 85.093 132.135C84.4082 132.41 83.8647 132.793 83.4623 133.285C83.06 133.776 82.8415 134.354 82.8069 135.019H82.8937C83.2911 134.803 83.6692 134.651 84.0278 134.564C84.3864 134.477 84.7754 134.434 85.195 134.434C86.5837 134.434 87.6184 134.86 88.2991 135.713C88.9938 136.552 89.3722 137.86 89.4343 139.638C89.5045 141.648 89.1644 143.094 88.414 143.975C87.6777 144.843 86.4198 145.277 84.6406 145.277ZM84.5714 142.674C85.2223 142.674 85.6916 142.443 85.9792 141.98C86.2664 141.503 86.3928 140.773 86.3584 139.79C86.3241 138.807 86.147 138.084 85.827 137.622C85.5066 137.145 85.0209 136.906 84.3699 136.906C83.719 136.906 83.25 137.145 82.9628 137.622C82.6752 138.084 82.5486 138.807 82.5829 139.79C82.6172 140.773 82.7946 141.503 83.1151 141.98C83.435 142.443 83.9204 142.674 84.5714 142.674Z" fill="white"/>
<path d="M73.8706 145.06L73.4427 132.808H73.3993L68.8914 136.689L68.7672 133.133L73.3178 129.229H76.4423L76.9951 145.06H73.8706Z" fill="white"/>
<path d="M371.926 201.167C371.903 200.507 372.421 199.971 373.082 199.971H383.258C383.919 199.971 384.473 200.507 384.496 201.167L384.763 208.787C384.779 209.248 384.528 209.669 384.118 209.867L379.114 212.288C378.794 212.443 378.416 212.443 378.085 212.288L372.913 209.867C372.489 209.669 372.209 209.248 372.192 208.787L371.926 201.167Z" fill="white"/>
<path d="M391.081 201.167C391.058 200.507 391.575 199.971 392.236 199.971H395.229C395.89 199.971 396.445 200.507 396.468 201.167L396.552 203.56C396.575 204.221 396.057 204.757 395.396 204.757H392.403C391.742 204.757 391.187 204.221 391.164 203.56L391.081 201.167Z" fill="white"/>
<path d="M403.052 201.167C403.029 200.507 403.547 199.971 404.208 199.971H414.384C415.045 199.971 415.599 200.507 415.622 201.167L415.873 208.346C415.896 209.007 415.379 209.542 414.718 209.542H404.542C403.881 209.542 403.326 209.007 403.303 208.346L403.052 201.167Z" fill="white"/>
<path d="M372.365 213.73C372.342 213.069 372.859 212.533 373.52 212.533H383.696C384.357 212.533 384.912 213.069 384.935 213.73L385.186 220.908C385.209 221.569 384.692 222.105 384.03 222.105H373.855C373.193 222.105 372.639 221.569 372.616 220.908L372.365 213.73Z" fill="white"/>
<path d="M387.761 208.944C387.738 208.283 388.255 207.748 388.916 207.748H399.092C399.753 207.748 400.308 208.283 400.331 208.944L400.916 225.694C400.939 226.355 400.422 226.89 399.761 226.89H389.585C388.924 226.89 388.369 226.355 388.346 225.694L387.761 208.944Z" fill="white"/>
<path d="M403.491 213.73C403.468 213.069 403.985 212.533 404.646 212.533H414.822C415.483 212.533 416.038 213.069 416.061 213.73L416.312 220.908C416.335 221.569 415.818 222.105 415.156 222.105H404.981C404.319 222.105 403.765 221.569 403.742 220.908L403.491 213.73Z" fill="white"/>
<path d="M372.804 226.292C372.781 225.632 373.298 225.096 373.959 225.096H384.135C384.796 225.096 385.351 225.632 385.374 226.292L385.625 233.471C385.648 234.132 385.13 234.667 384.469 234.667H374.293C373.632 234.667 373.077 234.132 373.054 233.471L372.804 226.292Z" fill="white"/>
<path d="M392.125 231.078C392.102 230.417 392.62 229.882 393.281 229.882H396.274C396.935 229.882 397.489 230.417 397.512 231.078L397.596 233.471C397.619 234.132 397.102 234.667 396.441 234.667H393.448C392.787 234.667 392.232 234.132 392.209 233.471L392.125 231.078Z" fill="white"/>
<path d="M403.914 225.851C403.898 225.39 404.149 224.969 404.559 224.771L409.562 222.35C409.883 222.195 410.261 222.195 410.592 222.35L415.764 224.771C416.188 224.969 416.468 225.39 416.484 225.851L416.751 233.471C416.774 234.132 416.256 234.667 415.595 234.667H405.419C404.758 234.667 404.203 234.132 404.18 233.471L403.914 225.851Z" fill="white"/>
<defs>
<filter id="filter0_b_18_11" x="10.3509" y="-11.4074" width="444.896" height="286.141" filterUnits="userSpaceOnUse" color-interpolation-filters="sRGB">
<feFlood flood-opacity="0" result="BackgroundImageFix"/>
<feGaussianBlur in="BackgroundImageFix" stdDeviation="6.47968"/>
<feComposite in2="SourceAlpha" operator="in" result="effect1_backgroundBlur_18_11"/>
<feBlend mode="normal" in="SourceGraphic" in2="effect1_backgroundBlur_18_11" result="shape"/>
</filter>
<filter id="filter1_b_18_11" x="9.26529" y="-12.4916" width="447.067" height="288.31" filterUnits="userSpaceOnUse" color-interpolation-filters="sRGB">
<feFlood flood-opacity="0" result="BackgroundImageFix"/>
<feGaussianBlur in="BackgroundImageFix" stdDeviation="6.47968"/>
<feComposite in2="SourceAlpha" operator="in" result="effect1_backgroundBlur_18_11"/>
<feBlend mode="normal" in="SourceGraphic" in2="effect1_backgroundBlur_18_11" result="shape"/>
</filter>
<linearGradient id="paint0_linear_18_11" x1="33.3688" y1="173.158" x2="282.528" y2="471.137" gradientUnits="userSpaceOnUse">
<stop stop-color="white"/>
<stop offset="1" stop-color="white" stop-opacity="0.55"/>
</linearGradient>
<linearGradient id="paint1_linear_18_11" x1="52.9145" y1="13.4789" x2="280.78" y2="262.729" gradientUnits="userSpaceOnUse">
<stop stop-color="white"/>
<stop offset="1" stop-color="white" stop-opacity="0.55"/>
</linearGradient>
</defs>
</svg>
