<svg width="7" height="10" viewBox="0 0 7 10" fill="none" xmlns="http://www.w3.org/2000/svg">
<path d="M3.45936 9.72931C2.29136 9.72931 1.42336 9.36131 0.855357 8.62531C0.287357 7.88931 0.00335693 6.75731 0.00335693 5.22931C0.00335693 3.70131 0.287357 2.56931 0.855357 1.83331C1.42336 1.09731 2.29136 0.729309 3.45936 0.729309C4.62736 0.729309 5.49136 1.09731 6.05136 1.83331C6.61936 2.56931 6.90336 3.70131 6.90336 5.22931C6.90336 6.75731 6.61936 7.88931 6.05136 8.62531C5.49136 9.36131 4.62736 9.72931 3.45936 9.72931ZM3.45936 8.39731C4.12336 8.39731 4.60736 8.14131 4.91136 7.62931C5.21536 7.11731 5.36736 6.31731 5.36736 5.22931C5.36736 4.13331 5.21536 3.33331 4.91136 2.82931C4.60736 2.31731 4.12336 2.06131 3.45936 2.06131C2.79536 2.06131 2.30736 2.31731 1.99536 2.82931C1.69136 3.33331 1.53936 4.13331 1.53936 5.22931C1.53936 6.31731 1.69136 7.11731 1.99536 7.62931C2.30736 8.14131 2.79536 8.39731 3.45936 8.39731Z" fill="white"/>
</svg>
