<svg width="8" height="10" viewBox="0 0 8 10" fill="none" xmlns="http://www.w3.org/2000/svg">
<path d="M4.17031 0.729309C4.89031 0.729309 5.49831 0.857309 5.99431 1.11331C6.49031 1.36931 6.86231 1.74531 7.11031 2.24131C7.36631 2.73731 7.49431 3.35331 7.49431 4.08931C7.49431 5.19331 7.27831 6.15731 6.84631 6.98131C6.42231 7.79731 5.81431 8.44131 5.02231 8.91331C4.23031 9.38531 3.27831 9.65331 2.16631 9.71731L1.90231 8.50531C2.89431 8.44931 3.70231 8.23731 4.32631 7.86931C4.95031 7.49331 5.41031 6.94531 5.70631 6.22531L5.68231 6.21331C5.39431 6.38131 5.08631 6.50931 4.75831 6.59731C4.43831 6.68531 4.08631 6.72931 3.70231 6.72931C2.81431 6.72931 2.11431 6.46931 1.60231 5.94931C1.09831 5.42931 0.846313 4.70931 0.846313 3.78931C0.846313 3.14931 0.978313 2.60131 1.24231 2.14531C1.50631 1.68931 1.88631 1.34131 2.38231 1.10131C2.87831 0.853309 3.47431 0.729309 4.17031 0.729309ZM4.17031 2.01331C3.57831 2.01331 3.12231 2.16931 2.80231 2.48131C2.49031 2.78531 2.33431 3.21331 2.33431 3.76531C2.33431 4.31731 2.48231 4.74931 2.77831 5.06131C3.08231 5.36531 3.51431 5.51731 4.07431 5.51731C4.47431 5.51731 4.81831 5.45331 5.10631 5.32531C5.39431 5.18931 5.61431 4.99331 5.76631 4.73731C5.92631 4.47331 6.00631 4.16531 6.00631 3.81331C6.00631 3.50131 5.94231 3.20931 5.81431 2.93731C5.69431 2.66531 5.49831 2.44531 5.22631 2.27731C4.96231 2.10131 4.61031 2.01331 4.17031 2.01331Z" fill="white"/>
</svg>
