<svg width="554" height="351" viewBox="0 0 554 351" fill="none" xmlns="http://www.w3.org/2000/svg">
<g filter="url(#filter0_b_139_403)">
<path d="M1.66687 33.4111C1.66687 15.738 15.9938 1.41113 33.6669 1.41113L520.965 1.41113C538.638 1.41113 552.965 15.738 552.965 33.4111V317.599C552.965 335.272 538.638 349.599 520.965 349.599L33.6669 349.599C15.9938 349.599 1.66687 335.272 1.66687 317.599L1.66687 33.4111Z" fill="url(#paint0_linear_139_403)" fill-opacity="0.37"/>
</g>
<g filter="url(#filter1_b_139_403)">
<path fill-rule="evenodd" clip-rule="evenodd" d="M0.66687 33.4111C0.66687 15.1857 15.4415 0.411133 33.6669 0.411133L520.965 0.411133C539.19 0.411133 553.965 15.1857 553.965 33.4111V317.599C553.965 335.825 539.19 350.599 520.965 350.599L33.6669 350.599C15.4415 350.599 0.66687 335.825 0.66687 317.599L0.66687 33.4111ZM33.6669 2.41113C16.546 2.41113 2.66687 16.2903 2.66687 33.4111L2.66687 317.599C2.66687 334.72 16.546 348.599 33.6669 348.599L520.965 348.599C538.086 348.599 551.965 334.72 551.965 317.599V33.4111C551.965 16.2903 538.086 2.41113 520.965 2.41113L33.6669 2.41113Z" fill="url(#paint1_linear_139_403)" fill-opacity="0.5"/>
</g>
<path d="M94.6397 254.029C93.3517 254.029 92.3624 253.702 91.6717 253.049C90.9811 252.395 90.6357 251.462 90.6357 250.249C90.6357 249.073 90.9531 248.149 91.5877 247.477C92.2317 246.805 93.1091 246.469 94.2197 246.469C95.2931 246.469 96.1237 246.786 96.7117 247.421C97.2997 248.055 97.5937 248.956 97.5937 250.123C97.5937 250.253 97.5891 250.398 97.5797 250.557C97.5704 250.715 97.5611 250.832 97.5517 250.907H91.5877V249.661H96.2357L95.9837 250.039C95.9837 249.273 95.8344 248.709 95.5357 248.345C95.2464 247.971 94.8077 247.785 94.2197 247.785C93.5944 247.785 93.1184 247.981 92.7917 248.373C92.4744 248.755 92.3157 249.325 92.3157 250.081V250.571C92.3157 251.28 92.5024 251.807 92.8757 252.153C93.2491 252.489 93.8137 252.657 94.5697 252.657C94.9617 252.657 95.3817 252.619 95.8297 252.545C96.2777 252.461 96.6744 252.353 97.0197 252.223L97.2297 253.567C96.8751 253.707 96.4691 253.819 96.0117 253.903C95.5544 253.987 95.0971 254.029 94.6397 254.029Z" fill="#B9BEBD"/>
<path d="M78.9855 253.889V246.609H80.5815L80.6095 247.463H80.6375C80.8988 247.145 81.2115 246.903 81.5755 246.735C81.9395 246.557 82.3641 246.469 82.8495 246.469C83.3255 246.469 83.7268 246.557 84.0535 246.735C84.3895 246.903 84.6275 247.145 84.7675 247.463H84.7955C85.0755 247.117 85.3975 246.865 85.7615 246.707C86.1255 246.548 86.5548 246.469 87.0495 246.469C87.8335 246.469 88.4028 246.679 88.7575 247.099C89.1121 247.509 89.2895 248.158 89.2895 249.045V253.889H87.6235V249.465C87.6235 248.914 87.5348 248.513 87.3575 248.261C87.1801 248.009 86.8955 247.883 86.5035 247.883C86.0368 247.883 85.6681 248.037 85.3975 248.345C85.1268 248.653 84.9915 249.063 84.9915 249.577V253.889H83.3115V249.339C83.3115 248.863 83.2135 248.503 83.0175 248.261C82.8215 248.009 82.5415 247.883 82.1775 247.883C81.8975 247.883 81.6408 247.957 81.4075 248.107C81.1835 248.256 81.0015 248.457 80.8615 248.709C80.7308 248.961 80.6655 249.25 80.6655 249.577V253.889H78.9855Z" fill="#B9BEBD"/>
<path d="M72.9285 254.029C72.2005 254.029 71.6265 253.833 71.2065 253.441C70.7958 253.039 70.5905 252.498 70.5905 251.817C70.5905 250.967 70.9218 250.314 71.5845 249.857C72.2472 249.399 73.1898 249.171 74.4125 249.171H75.4345C75.4345 248.816 75.3878 248.545 75.2945 248.359C75.2105 248.163 75.0612 248.027 74.8465 247.953C74.6412 247.878 74.3472 247.841 73.9645 247.841C73.4978 247.841 73.0125 247.887 72.5085 247.981C72.0138 248.074 71.5472 248.214 71.1085 248.401L70.8845 247.043C71.3605 246.865 71.8878 246.725 72.4665 246.623C73.0452 246.52 73.6238 246.469 74.2025 246.469C74.9398 246.469 75.5185 246.557 75.9385 246.735C76.3678 246.912 76.6758 247.211 76.8625 247.631C77.0492 248.051 77.1425 248.606 77.1425 249.297V253.889H75.5045L75.4905 253.049H75.4625C75.2105 253.338 74.8465 253.576 74.3705 253.763C73.8945 253.94 73.4138 254.029 72.9285 254.029ZM73.5445 252.685C73.8898 252.685 74.2072 252.624 74.4965 252.503C74.7858 252.372 75.0145 252.199 75.1825 251.985C75.3505 251.77 75.4345 251.527 75.4345 251.257V250.375H74.6645C73.8618 250.375 73.2552 250.482 72.8445 250.697C72.4432 250.902 72.2425 251.219 72.2425 251.649C72.2425 251.966 72.3545 252.218 72.5785 252.405C72.8025 252.591 73.1245 252.685 73.5445 252.685Z" fill="#B9BEBD"/>
<path d="M60.8318 253.889V243.669H62.6938L67.2718 251.005H67.2998V243.669H69.0358V253.889H67.1738L62.6098 246.553H62.5818V253.889H60.8318Z" fill="#B9BEBD"/>
<path d="M162.526 139.276V137.302H164.514V139.276H162.526Z" fill="#B9BEBD"/>
<path d="M157.468 139.416C156.292 139.416 155.382 139.09 154.738 138.436C154.104 137.774 153.786 136.84 153.786 135.636C153.786 134.432 154.104 133.504 154.738 132.85C155.382 132.188 156.292 131.856 157.468 131.856C158.644 131.856 159.554 132.188 160.198 132.85C160.842 133.504 161.164 134.432 161.164 135.636C161.164 136.84 160.842 137.774 160.198 138.436C159.554 139.09 158.644 139.416 157.468 139.416ZM157.468 138.044C158.112 138.044 158.602 137.844 158.938 137.442C159.274 137.032 159.442 136.43 159.442 135.636C159.442 134.843 159.274 134.246 158.938 133.844C158.602 133.434 158.112 133.228 157.468 133.228C156.834 133.228 156.344 133.434 155.998 133.844C155.662 134.246 155.494 134.843 155.494 135.636C155.494 136.43 155.662 137.032 155.998 137.442C156.344 137.844 156.834 138.044 157.468 138.044Z" fill="#B9BEBD"/>
<path d="M143.93 139.276V129.056H145.792L150.37 136.392H150.398V129.056H152.134V139.276H150.272L145.708 131.94H145.68V139.276H143.93Z" fill="#B9BEBD"/>
<path d="M133.829 139.416C132.859 139.416 132.103 139.085 131.561 138.422C131.02 137.76 130.749 136.831 130.749 135.636C130.749 134.442 131.02 133.513 131.561 132.85C132.103 132.188 132.859 131.856 133.829 131.856C134.315 131.856 134.753 131.94 135.145 132.108C135.537 132.276 135.869 132.524 136.139 132.85H136.181V129.056H137.875V139.276H136.265L136.237 138.422H136.209C135.939 138.74 135.593 138.987 135.173 139.164C134.763 139.332 134.315 139.416 133.829 139.416ZM134.277 138.016C134.641 138.016 134.963 137.942 135.243 137.792C135.533 137.643 135.761 137.438 135.929 137.176C136.097 136.915 136.181 136.621 136.181 136.294V134.978C136.181 134.642 136.097 134.348 135.929 134.096C135.761 133.835 135.537 133.63 135.257 133.48C134.977 133.331 134.651 133.256 134.277 133.256C133.689 133.256 133.232 133.462 132.905 133.872C132.588 134.283 132.429 134.871 132.429 135.636C132.429 136.402 132.588 136.99 132.905 137.4C133.232 137.811 133.689 138.016 134.277 138.016Z" fill="#B9BEBD"/>
<path d="M125.497 139.276V131.996H127.149L127.163 133.368H127.191C127.434 133.051 127.719 132.78 128.045 132.556C128.381 132.323 128.75 132.15 129.151 132.038C129.553 131.917 129.973 131.856 130.411 131.856V133.34C129.823 133.34 129.287 133.452 128.801 133.676C128.325 133.9 127.943 134.204 127.653 134.586C127.373 134.96 127.233 135.38 127.233 135.846V139.276H125.497Z" fill="#B9BEBD"/>
<path d="M119.44 139.416C118.712 139.416 118.138 139.22 117.718 138.828C117.308 138.427 117.102 137.886 117.102 137.204C117.102 136.355 117.434 135.702 118.096 135.244C118.759 134.787 119.702 134.558 120.924 134.558H121.946C121.946 134.204 121.9 133.933 121.806 133.746C121.722 133.55 121.573 133.415 121.358 133.34C121.153 133.266 120.859 133.228 120.476 133.228C120.01 133.228 119.524 133.275 119.02 133.368C118.526 133.462 118.059 133.602 117.62 133.788L117.396 132.43C117.872 132.253 118.4 132.113 118.978 132.01C119.557 131.908 120.136 131.856 120.714 131.856C121.452 131.856 122.03 131.945 122.45 132.122C122.88 132.3 123.188 132.598 123.374 133.018C123.561 133.438 123.654 133.994 123.654 134.684V139.276H122.016L122.002 138.436H121.974C121.722 138.726 121.358 138.964 120.882 139.15C120.406 139.328 119.926 139.416 119.44 139.416ZM120.056 138.072C120.402 138.072 120.719 138.012 121.008 137.89C121.298 137.76 121.526 137.587 121.694 137.372C121.862 137.158 121.946 136.915 121.946 136.644V135.762H121.176C120.374 135.762 119.767 135.87 119.356 136.084C118.955 136.29 118.754 136.607 118.754 137.036C118.754 137.354 118.866 137.606 119.09 137.792C119.314 137.979 119.636 138.072 120.056 138.072Z" fill="#B9BEBD"/>
<path d="M112.706 139.416C111.595 139.416 110.639 139.206 109.836 138.786C109.033 138.366 108.417 137.764 107.988 136.98C107.568 136.196 107.358 135.258 107.358 134.166C107.358 133.065 107.568 132.127 107.988 131.352C108.417 130.568 109.033 129.966 109.836 129.546C110.639 129.126 111.595 128.916 112.706 128.916C113.975 128.916 115.1 129.192 116.08 129.742L115.674 131.282C114.722 130.741 113.751 130.47 112.762 130.47C112.025 130.47 111.385 130.62 110.844 130.918C110.303 131.208 109.887 131.628 109.598 132.178C109.309 132.729 109.164 133.392 109.164 134.166C109.164 134.932 109.309 135.594 109.598 136.154C109.887 136.705 110.303 137.13 110.844 137.428C111.385 137.718 112.025 137.862 112.762 137.862C113.723 137.862 114.694 137.592 115.674 137.05L116.08 138.59C115.1 139.141 113.975 139.416 112.706 139.416Z" fill="#B9BEBD"/>
<path d="M100.459 139.416C99.6003 139.416 98.9796 139.239 98.5969 138.884C98.2143 138.53 98.0229 137.951 98.0229 137.148V133.368H96.3989V131.996H98.0229V129.616H99.7589V131.996H102.209V133.368H99.7589V136.714C99.7589 137.181 99.8336 137.508 99.9829 137.694C100.142 137.872 100.417 137.96 100.809 137.96C101.014 137.96 101.229 137.942 101.453 137.904C101.677 137.867 101.878 137.816 102.055 137.75L102.209 139.164C101.892 139.258 101.593 139.323 101.313 139.36C101.033 139.398 100.748 139.416 100.459 139.416Z" fill="#B9BEBD"/>
<path d="M93.2891 130.708V129.056H95.0251V130.708H93.2891ZM93.2891 139.276V132.038H95.0251V139.276H93.2891Z" fill="#B9BEBD"/>
<path d="M87.0714 139.416C86.1007 139.416 85.3447 139.085 84.8034 138.422C84.2621 137.76 83.9914 136.831 83.9914 135.636C83.9914 134.442 84.2621 133.513 84.8034 132.85C85.3447 132.188 86.1007 131.856 87.0714 131.856C87.5567 131.856 87.9954 131.94 88.3874 132.108C88.7794 132.276 89.1107 132.524 89.3814 132.85H89.4234V129.056H91.1174V139.276H89.5074L89.4794 138.422H89.4514C89.1807 138.74 88.8354 138.987 88.4154 139.164C88.0047 139.332 87.5567 139.416 87.0714 139.416ZM87.5194 138.016C87.8834 138.016 88.2054 137.942 88.4854 137.792C88.7747 137.643 89.0034 137.438 89.1714 137.176C89.3394 136.915 89.4234 136.621 89.4234 136.294V134.978C89.4234 134.642 89.3394 134.348 89.1714 134.096C89.0034 133.835 88.7794 133.63 88.4994 133.48C88.2194 133.331 87.8927 133.256 87.5194 133.256C86.9314 133.256 86.4741 133.462 86.1474 133.872C85.8301 134.283 85.6714 134.871 85.6714 135.636C85.6714 136.402 85.8301 136.99 86.1474 137.4C86.4741 137.811 86.9314 138.016 87.5194 138.016Z" fill="#B9BEBD"/>
<path d="M79.9563 139.416C78.6683 139.416 77.679 139.09 76.9883 138.436C76.2977 137.783 75.9523 136.85 75.9523 135.636C75.9523 134.46 76.2697 133.536 76.9043 132.864C77.5483 132.192 78.4257 131.856 79.5363 131.856C80.6097 131.856 81.4403 132.174 82.0283 132.808C82.6163 133.443 82.9103 134.344 82.9103 135.51C82.9103 135.641 82.9057 135.786 82.8963 135.944C82.887 136.103 82.8777 136.22 82.8683 136.294H76.9043V135.048H81.5523L81.3003 135.426C81.3003 134.661 81.151 134.096 80.8523 133.732C80.563 133.359 80.1243 133.172 79.5363 133.172C78.911 133.172 78.435 133.368 78.1083 133.76C77.791 134.143 77.6323 134.712 77.6323 135.468V135.958C77.6323 136.668 77.819 137.195 78.1923 137.54C78.5657 137.876 79.1303 138.044 79.8863 138.044C80.2783 138.044 80.6983 138.007 81.1463 137.932C81.5943 137.848 81.991 137.741 82.3363 137.61L82.5463 138.954C82.1917 139.094 81.7857 139.206 81.3283 139.29C80.871 139.374 80.4137 139.416 79.9563 139.416Z" fill="#B9BEBD"/>
<path d="M70.7005 139.276V131.996H72.3525L72.3665 133.368H72.3945C72.6372 133.051 72.9218 132.78 73.2485 132.556C73.5845 132.323 73.9532 132.15 74.3545 132.038C74.7558 131.917 75.1758 131.856 75.6145 131.856V133.34C75.0265 133.34 74.4898 133.452 74.0045 133.676C73.5285 133.9 73.1458 134.204 72.8565 134.586C72.5765 134.96 72.4365 135.38 72.4365 135.846V139.276H70.7005Z" fill="#B9BEBD"/>
<path d="M65.62 139.416C64.5094 139.416 63.5527 139.206 62.75 138.786C61.9474 138.366 61.3314 137.764 60.902 136.98C60.482 136.196 60.272 135.258 60.272 134.166C60.272 133.065 60.482 132.127 60.902 131.352C61.3314 130.568 61.9474 129.966 62.75 129.546C63.5527 129.126 64.5094 128.916 65.62 128.916C66.8894 128.916 68.014 129.192 68.994 129.742L68.588 131.282C67.636 130.741 66.6654 130.47 65.676 130.47C64.9387 130.47 64.2994 130.62 63.758 130.918C63.2167 131.208 62.8014 131.628 62.512 132.178C62.2227 132.729 62.078 133.392 62.078 134.166C62.078 134.932 62.2227 135.594 62.512 136.154C62.8014 136.705 63.2167 137.13 63.758 137.428C64.2994 137.718 64.9387 137.862 65.676 137.862C66.6374 137.862 67.608 137.592 68.588 137.05L68.994 138.59C68.014 139.141 66.8894 139.416 65.62 139.416Z" fill="#B9BEBD"/>
<path d="M264.15 254.086V252.112H266.138V254.086H264.15Z" fill="#B9BEBD"/>
<path d="M259.701 246.666C260.672 246.666 261.428 246.997 261.969 247.66C262.51 248.322 262.781 249.251 262.781 250.446C262.781 251.64 262.51 252.569 261.969 253.232C261.428 253.894 260.672 254.226 259.701 254.226C259.225 254.226 258.786 254.142 258.385 253.974C257.993 253.796 257.662 253.549 257.391 253.232H257.363V257.026H255.641V246.806H257.279L257.293 247.66H257.321C257.601 247.333 257.946 247.086 258.357 246.918C258.768 246.75 259.216 246.666 259.701 246.666ZM259.253 248.066C258.898 248.066 258.576 248.14 258.287 248.29C257.998 248.439 257.769 248.644 257.601 248.906C257.442 249.158 257.363 249.452 257.363 249.788V251.104C257.363 251.43 257.442 251.724 257.601 251.986C257.769 252.247 257.998 252.452 258.287 252.602C258.576 252.751 258.898 252.826 259.253 252.826C259.85 252.826 260.308 252.62 260.625 252.21C260.942 251.799 261.101 251.211 261.101 250.446C261.101 249.68 260.942 249.092 260.625 248.682C260.308 248.271 259.85 248.066 259.253 248.066Z" fill="#B9BEBD"/>
<path d="M247.232 254.086L249.542 250.418L247.26 246.806H249.164L250.704 249.522H250.732L252.272 246.806H254.176L251.894 250.418L254.204 254.086H252.3L250.732 251.328H250.704L249.15 254.086H247.232Z" fill="#B9BEBD"/>
<path d="M239.279 254.086V243.866H246.111V245.378H241.029V248.01H245.831V249.494H241.029V252.574H246.111V254.086H239.279Z" fill="#B9BEBD"/>
<path d="M272.916 289.609V282.529H272.892L269.82 284.341L269.388 283.033L272.916 280.849H274.44V289.609H272.916Z" fill="white"/>
<path d="M265.205 289.609V282.529H265.181L262.109 284.341L261.677 283.033L265.205 280.849H266.729V289.609H265.205Z" fill="white"/>
<path d="M255.161 290.089L259.433 280.369H260.897L256.625 290.089H255.161Z" fill="white"/>
<path d="M251.17 280.729C251.89 280.729 252.498 280.857 252.994 281.113C253.49 281.369 253.862 281.745 254.11 282.241C254.366 282.737 254.494 283.353 254.494 284.089C254.494 285.193 254.278 286.157 253.846 286.981C253.422 287.797 252.814 288.441 252.022 288.913C251.23 289.385 250.278 289.653 249.166 289.717L248.902 288.505C249.894 288.449 250.702 288.237 251.326 287.869C251.95 287.493 252.41 286.945 252.706 286.225L252.682 286.213C252.394 286.381 252.086 286.509 251.758 286.597C251.438 286.685 251.086 286.729 250.702 286.729C249.814 286.729 249.114 286.469 248.602 285.949C248.098 285.429 247.846 284.709 247.846 283.789C247.846 283.149 247.978 282.601 248.242 282.145C248.506 281.689 248.886 281.341 249.382 281.101C249.878 280.853 250.474 280.729 251.17 280.729ZM251.17 282.013C250.578 282.013 250.122 282.169 249.802 282.481C249.49 282.785 249.334 283.213 249.334 283.765C249.334 284.317 249.482 284.749 249.778 285.061C250.082 285.365 250.514 285.517 251.074 285.517C251.474 285.517 251.818 285.453 252.106 285.325C252.394 285.189 252.614 284.993 252.766 284.737C252.926 284.473 253.006 284.165 253.006 283.813C253.006 283.501 252.942 283.209 252.814 282.937C252.694 282.665 252.498 282.445 252.226 282.277C251.962 282.101 251.61 282.013 251.17 282.013Z" fill="white"/>
<path d="M243.459 289.729C242.291 289.729 241.423 289.361 240.855 288.625C240.287 287.889 240.003 286.757 240.003 285.229C240.003 283.701 240.287 282.569 240.855 281.833C241.423 281.097 242.291 280.729 243.459 280.729C244.627 280.729 245.491 281.097 246.051 281.833C246.619 282.569 246.903 283.701 246.903 285.229C246.903 286.757 246.619 287.889 246.051 288.625C245.491 289.361 244.627 289.729 243.459 289.729ZM243.459 288.397C244.123 288.397 244.607 288.141 244.911 287.629C245.215 287.117 245.367 286.317 245.367 285.229C245.367 284.133 245.215 283.333 244.911 282.829C244.607 282.317 244.123 282.061 243.459 282.061C242.795 282.061 242.307 282.317 241.995 282.829C241.691 283.333 241.539 284.133 241.539 285.229C241.539 286.317 241.691 287.117 241.995 287.629C242.307 288.141 242.795 288.397 243.459 288.397Z" fill="white"/>
<path d="M143.792 289.61V280.85H145.232L149.408 287.45H149.432V280.85H150.752V289.61H149.312L145.136 283.01H145.112V289.61H143.792Z" fill="white"/>
<path d="M134.456 289.61L137.648 280.85H139.436L142.616 289.61H141.164L138.548 281.978H138.524L135.908 289.61H134.456ZM136.112 287.414V286.214H140.972V287.414H136.112Z" fill="white"/>
<path d="M131.954 289.61V280.85H133.274V289.61H131.954ZM126.554 289.61V280.85H127.874V289.61H126.554ZM127.214 285.626V284.426H132.614V285.626H127.214Z" fill="white"/>
<path d="M123.041 289.61V280.85H124.409V289.61H123.041Z" fill="white"/>
<path d="M113.596 289.61L116.788 280.85H118.576L121.756 289.61H120.304L117.688 281.978H117.664L115.048 289.61H113.596ZM115.252 287.414V286.214H120.112V287.414H115.252Z" fill="white"/>
<path d="M106.187 289.61V280.85H108.827C110.115 280.85 111.055 281.058 111.647 281.474C112.247 281.89 112.547 282.55 112.547 283.454C112.547 284.342 112.259 285.006 111.683 285.446C111.115 285.886 110.247 286.106 109.079 286.106H106.847V284.954H108.887C109.703 284.954 110.291 284.842 110.651 284.618C111.019 284.386 111.203 284.014 111.203 283.502C111.203 282.99 111.019 282.622 110.651 282.398C110.291 282.166 109.703 282.05 108.887 282.05H107.507V289.61H106.187ZM111.311 289.61L107.339 285.602H109.007L113.027 289.61H111.311Z" fill="white"/>
<path d="M93.8235 289.61V280.85H95.2635L99.4395 287.45H99.4635V280.85H100.783V289.61H99.3435L95.1675 283.01H95.1435V289.61H93.8235Z" fill="white"/>
<path d="M84.4868 289.61L87.6788 280.85H89.4668L92.6468 289.61H91.1948L88.5788 281.978H88.5548L85.9388 289.61H84.4868ZM86.1428 287.414V286.214H91.0028V287.414H86.1428Z" fill="white"/>
<path d="M81.9852 289.61V280.85H83.3052V289.61H81.9852ZM76.5852 289.61V280.85H77.9052V289.61H76.5852ZM77.2452 285.626V284.426H82.6452V285.626H77.2452Z" fill="white"/>
<path d="M68.9915 289.61V280.85H74.7515V282.026H70.3115V284.45H74.5115V285.602H70.3115V288.434H74.7515V289.61H68.9915Z" fill="white"/>
<path d="M60.718 289.61V280.85H63.358C64.646 280.85 65.586 281.058 66.178 281.474C66.778 281.89 67.078 282.55 67.078 283.454C67.078 284.342 66.79 285.006 66.214 285.446C65.646 285.886 64.778 286.106 63.61 286.106H61.378V284.954H63.418C64.234 284.954 64.822 284.842 65.182 284.618C65.55 284.386 65.734 284.014 65.734 283.502C65.734 282.99 65.55 282.622 65.182 282.398C64.822 282.166 64.234 282.05 63.418 282.05H62.038V289.61H60.718ZM65.842 289.61L61.87 285.602H63.538L67.558 289.61H65.842Z" fill="white"/>
<path fill-rule="evenodd" clip-rule="evenodd" d="M85.9838 69.3621C89.4461 66.1799 91.6163 61.6145 91.6163 56.5411C91.6163 51.4677 89.4461 46.9023 85.9838 43.7201C89.0831 40.8718 93.2194 39.1317 97.7608 39.1317C107.376 39.1317 115.17 46.9263 115.17 56.5411C115.17 66.1559 107.376 73.9505 97.7608 73.9505C93.2194 73.9505 89.0831 72.2104 85.9838 69.3621ZM85.9838 69.3621C82.8846 72.2104 78.7483 73.9505 74.2069 73.9505C64.5921 73.9505 56.7975 66.1559 56.7975 56.5411C56.7975 46.9263 64.5921 39.1317 74.2069 39.1317C78.7483 39.1317 82.8846 40.8718 85.9838 43.7201C82.5216 46.9023 80.3514 51.4677 80.3514 56.5411C80.3514 61.6145 82.5216 66.1799 85.9838 69.3621Z" fill="white"/>
<path fill-rule="evenodd" clip-rule="evenodd" d="M505.544 39.4692C506.357 38.8884 507.487 39.0764 508.068 39.8891C511.16 44.2166 514.849 51.5974 515.931 59.8184C517.019 68.0957 515.466 77.336 507.883 85.0188C507.182 85.7298 506.036 85.7373 505.325 85.0356C504.614 84.3339 504.607 83.1887 505.309 82.4777C511.922 75.7771 513.325 67.7518 512.344 60.2902C511.355 52.7724 507.946 45.9411 505.124 41.9925C504.544 41.1798 504.732 40.0501 505.544 39.4692ZM497.704 46.1029C498.516 45.5209 499.646 45.7072 500.228 46.5191C502.411 49.5643 505.009 54.7436 505.772 60.5273C506.543 66.3681 505.443 72.9345 500.043 78.3886C499.341 79.0985 498.195 79.1043 497.485 78.4015C496.776 77.6986 496.77 76.5534 497.473 75.8435C501.9 71.3712 502.848 66.0219 502.186 61.0006C501.516 55.9222 499.2 51.2933 497.288 48.6268C496.706 47.815 496.892 46.685 497.704 46.1029ZM491.668 53.343C492.477 52.7571 493.608 52.938 494.194 53.7471C495.386 55.3933 496.796 58.1722 497.212 61.2992C497.637 64.4858 497.03 68.1376 494.008 71.16C493.301 71.8664 492.156 71.8664 491.45 71.16C490.743 70.4537 490.743 69.3084 491.45 68.602C493.492 66.5599 493.94 64.1323 493.626 61.7771C493.305 59.3622 492.182 57.1368 491.264 55.8689C490.678 55.0598 490.859 53.9289 491.668 53.343Z" fill="white"/>
<path d="M400.925 189.35V171.27H400.861L394.013 176.998V171.75L400.925 165.99H405.533V189.35H400.925Z" fill="white"/>
<path d="M378.397 185.51C379.848 183.952 381.074 182.566 382.077 181.35C383.08 180.112 383.89 179.003 384.509 178.022C385.128 177.019 385.576 176.112 385.853 175.302C386.13 174.491 386.269 173.723 386.269 172.998C386.269 171.867 386.024 171.035 385.533 170.502C385.042 169.968 384.274 169.702 383.229 169.702C381.864 169.702 380.253 170.096 378.397 170.886V166.726C379.997 166.022 381.949 165.67 384.253 165.67C386.578 165.67 388.285 166.224 389.373 167.334C390.461 168.422 391.005 170.139 391.005 172.486C391.005 173.467 390.866 174.47 390.589 175.494C390.333 176.496 389.928 177.531 389.373 178.598C388.818 179.664 388.125 180.763 387.293 181.894C386.482 183.024 385.512 184.187 384.381 185.382V185.51H391.197V189.35H378.397V185.51Z" fill="white"/>
<path d="M368.797 179.238C368.114 179.238 367.57 179.035 367.165 178.63C366.76 178.224 366.557 177.691 366.557 177.03C366.557 176.347 366.76 175.814 367.165 175.43C367.57 175.024 368.114 174.822 368.797 174.822C369.48 174.822 370.024 175.024 370.429 175.43C370.834 175.814 371.037 176.347 371.037 177.03C371.037 177.691 370.834 178.224 370.429 178.63C370.024 179.035 369.48 179.238 368.797 179.238ZM368.797 189.67C367.026 189.67 365.618 189.318 364.573 188.614C363.528 187.888 362.77 186.715 362.301 185.094C361.832 183.472 361.597 181.318 361.597 178.63V176.71C361.597 174 361.832 171.846 362.301 170.246C362.77 168.624 363.528 167.462 364.573 166.758C365.618 166.032 367.026 165.67 368.797 165.67C370.546 165.67 371.944 166.032 372.989 166.758C374.056 167.462 374.824 168.624 375.293 170.246C375.762 171.846 375.997 174 375.997 176.71V178.63C375.997 181.318 375.762 183.472 375.293 185.094C374.824 186.715 374.056 187.888 372.989 188.614C371.944 189.318 370.546 189.67 368.797 189.67ZM368.797 185.702C369.522 185.702 370.066 185.51 370.429 185.126C370.792 184.742 371.037 184.027 371.165 182.982C371.314 181.915 371.389 180.358 371.389 178.31V177.03C371.389 174.982 371.314 173.435 371.165 172.39C371.037 171.323 370.792 170.598 370.429 170.214C370.066 169.83 369.522 169.638 368.797 169.638C368.093 169.638 367.549 169.83 367.165 170.214C366.802 170.598 366.546 171.323 366.397 172.39C366.269 173.435 366.205 174.982 366.205 177.03V178.31C366.205 180.358 366.269 181.915 366.397 182.982C366.546 184.027 366.802 184.742 367.165 185.126C367.549 185.51 368.093 185.702 368.797 185.702Z" fill="white"/>
<path d="M346.397 185.51C347.848 183.952 349.074 182.566 350.077 181.35C351.08 180.112 351.89 179.003 352.509 178.022C353.128 177.019 353.576 176.112 353.853 175.302C354.13 174.491 354.269 173.723 354.269 172.998C354.269 171.867 354.024 171.035 353.533 170.502C353.042 169.968 352.274 169.702 351.229 169.702C349.864 169.702 348.253 170.096 346.397 170.886V166.726C347.997 166.022 349.949 165.67 352.253 165.67C354.578 165.67 356.285 166.224 357.373 167.334C358.461 168.422 359.005 170.139 359.005 172.486C359.005 173.467 358.866 174.47 358.589 175.494C358.333 176.496 357.928 177.531 357.373 178.598C356.818 179.664 356.125 180.763 355.293 181.894C354.482 183.024 353.512 184.187 352.381 185.382V185.51H359.197V189.35H346.397V185.51Z" fill="white"/>
<path d="M304.797 165.67C306.61 165.67 308.05 165.979 309.117 166.598C310.184 167.216 310.952 168.23 311.421 169.638C311.912 171.046 312.157 172.923 312.157 175.27C312.157 178.555 311.73 181.254 310.877 183.366C310.024 185.478 308.701 187.046 306.909 188.07C305.138 189.094 302.834 189.627 299.997 189.67V185.702C301.298 185.702 302.45 185.499 303.453 185.094C304.477 184.667 305.298 184.091 305.917 183.366C306.536 182.619 306.888 181.766 306.973 180.806H306.845C306.248 181.126 305.682 181.35 305.149 181.478C304.616 181.606 304.04 181.67 303.421 181.67C301.373 181.67 299.858 181.051 298.877 179.814C297.917 178.555 297.437 176.614 297.437 173.99C297.437 171.024 298.002 168.902 299.133 167.622C300.285 166.32 302.173 165.67 304.797 165.67ZM304.765 169.51C303.805 169.51 303.101 169.862 302.653 170.566C302.205 171.248 301.981 172.315 301.981 173.766C301.981 175.216 302.205 176.294 302.653 176.998C303.101 177.68 303.805 178.022 304.765 178.022C305.725 178.022 306.429 177.68 306.877 176.998C307.325 176.294 307.549 175.216 307.549 173.766C307.549 172.315 307.325 171.248 306.877 170.566C306.429 169.862 305.725 169.51 304.765 169.51Z" fill="white"/>
<path d="M288.925 189.35V171.27H288.861L282.013 176.998V171.75L288.925 165.99H293.533V189.35H288.925Z" fill="white"/>
<path d="M272.797 179.238C272.114 179.238 271.57 179.035 271.165 178.63C270.76 178.224 270.557 177.691 270.557 177.03C270.557 176.347 270.76 175.814 271.165 175.43C271.57 175.024 272.114 174.822 272.797 174.822C273.48 174.822 274.024 175.024 274.429 175.43C274.834 175.814 275.037 176.347 275.037 177.03C275.037 177.691 274.834 178.224 274.429 178.63C274.024 179.035 273.48 179.238 272.797 179.238ZM272.797 189.67C271.026 189.67 269.618 189.318 268.573 188.614C267.528 187.888 266.77 186.715 266.301 185.094C265.832 183.472 265.597 181.318 265.597 178.63V176.71C265.597 174 265.832 171.846 266.301 170.246C266.77 168.624 267.528 167.462 268.573 166.758C269.618 166.032 271.026 165.67 272.797 165.67C274.546 165.67 275.944 166.032 276.989 166.758C278.056 167.462 278.824 168.624 279.293 170.246C279.762 171.846 279.997 174 279.997 176.71V178.63C279.997 181.318 279.762 183.472 279.293 185.094C278.824 186.715 278.056 187.888 276.989 188.614C275.944 189.318 274.546 189.67 272.797 189.67ZM272.797 185.702C273.522 185.702 274.066 185.51 274.429 185.126C274.792 184.742 275.037 184.027 275.165 182.982C275.314 181.915 275.389 180.358 275.389 178.31V177.03C275.389 174.982 275.314 173.435 275.165 172.39C275.037 171.323 274.792 170.598 274.429 170.214C274.066 169.83 273.522 169.638 272.797 169.638C272.093 169.638 271.549 169.83 271.165 170.214C270.802 170.598 270.546 171.323 270.397 172.39C270.269 173.435 270.205 174.982 270.205 177.03V178.31C270.205 180.358 270.269 181.915 270.397 182.982C270.546 184.027 270.802 184.742 271.165 185.126C271.549 185.51 272.093 185.702 272.797 185.702Z" fill="white"/>
<path d="M250.397 185.51C251.848 183.952 253.074 182.566 254.077 181.35C255.08 180.112 255.89 179.003 256.509 178.022C257.128 177.019 257.576 176.112 257.853 175.302C258.13 174.491 258.269 173.723 258.269 172.998C258.269 171.867 258.024 171.035 257.533 170.502C257.042 169.968 256.274 169.702 255.229 169.702C253.864 169.702 252.253 170.096 250.397 170.886V166.726C251.997 166.022 253.949 165.67 256.253 165.67C258.578 165.67 260.285 166.224 261.373 167.334C262.461 168.422 263.005 170.139 263.005 172.486C263.005 173.467 262.866 174.47 262.589 175.494C262.333 176.496 261.928 177.531 261.373 178.598C260.818 179.664 260.125 180.763 259.293 181.894C258.482 183.024 257.512 184.187 256.381 185.382V185.51H263.197V189.35H250.397V185.51Z" fill="white"/>
<path d="M208.925 189.35V171.27H208.861L202.013 176.998V171.75L208.925 165.99H213.533V189.35H208.925Z" fill="white"/>
<path d="M192.925 189.35V171.27H192.861L186.013 176.998V171.75L192.925 165.99H197.533V189.35H192.925Z" fill="white"/>
<path d="M176.797 165.67C178.61 165.67 180.05 165.979 181.117 166.598C182.184 167.216 182.952 168.23 183.421 169.638C183.912 171.046 184.157 172.923 184.157 175.27C184.157 178.555 183.73 181.254 182.877 183.366C182.024 185.478 180.701 187.046 178.909 188.07C177.138 189.094 174.834 189.627 171.997 189.67V185.702C173.298 185.702 174.45 185.499 175.453 185.094C176.477 184.667 177.298 184.091 177.917 183.366C178.536 182.619 178.888 181.766 178.973 180.806H178.845C178.248 181.126 177.682 181.35 177.149 181.478C176.616 181.606 176.04 181.67 175.421 181.67C173.373 181.67 171.858 181.051 170.877 179.814C169.917 178.555 169.437 176.614 169.437 173.99C169.437 171.024 170.002 168.902 171.133 167.622C172.285 166.32 174.173 165.67 176.797 165.67ZM176.765 169.51C175.805 169.51 175.101 169.862 174.653 170.566C174.205 171.248 173.981 172.315 173.981 173.766C173.981 175.216 174.205 176.294 174.653 176.998C175.101 177.68 175.805 178.022 176.765 178.022C177.725 178.022 178.429 177.68 178.877 176.998C179.325 176.294 179.549 175.216 179.549 173.766C179.549 172.315 179.325 171.248 178.877 170.566C178.429 169.862 177.725 169.51 176.765 169.51Z" fill="white"/>
<path d="M160.797 179.238C160.114 179.238 159.57 179.035 159.165 178.63C158.76 178.224 158.557 177.691 158.557 177.03C158.557 176.347 158.76 175.814 159.165 175.43C159.57 175.024 160.114 174.822 160.797 174.822C161.48 174.822 162.024 175.024 162.429 175.43C162.834 175.814 163.037 176.347 163.037 177.03C163.037 177.691 162.834 178.224 162.429 178.63C162.024 179.035 161.48 179.238 160.797 179.238ZM160.797 189.67C159.026 189.67 157.618 189.318 156.573 188.614C155.528 187.888 154.77 186.715 154.301 185.094C153.832 183.472 153.597 181.318 153.597 178.63V176.71C153.597 174 153.832 171.846 154.301 170.246C154.77 168.624 155.528 167.462 156.573 166.758C157.618 166.032 159.026 165.67 160.797 165.67C162.546 165.67 163.944 166.032 164.989 166.758C166.056 167.462 166.824 168.624 167.293 170.246C167.762 171.846 167.997 174 167.997 176.71V178.63C167.997 181.318 167.762 183.472 167.293 185.094C166.824 186.715 166.056 187.888 164.989 188.614C163.944 189.318 162.546 189.67 160.797 189.67ZM160.797 185.702C161.522 185.702 162.066 185.51 162.429 185.126C162.792 184.742 163.037 184.027 163.165 182.982C163.314 181.915 163.389 180.358 163.389 178.31V177.03C163.389 174.982 163.314 173.435 163.165 172.39C163.037 171.323 162.792 170.598 162.429 170.214C162.066 169.83 161.522 169.638 160.797 169.638C160.093 169.638 159.549 169.83 159.165 170.214C158.802 170.598 158.546 171.323 158.397 172.39C158.269 173.435 158.205 174.982 158.205 177.03V178.31C158.205 180.358 158.269 181.915 158.397 182.982C158.546 184.027 158.802 184.742 159.165 185.126C159.549 185.51 160.093 185.702 160.797 185.702Z" fill="white"/>
<path d="M106.397 185.51C107.848 183.952 109.074 182.566 110.077 181.35C111.08 180.112 111.89 179.003 112.509 178.022C113.128 177.019 113.576 176.112 113.853 175.302C114.13 174.491 114.269 173.723 114.269 172.998C114.269 171.867 114.024 171.035 113.533 170.502C113.042 169.968 112.274 169.702 111.229 169.702C109.864 169.702 108.253 170.096 106.397 170.886V166.726C107.997 166.022 109.949 165.67 112.253 165.67C114.578 165.67 116.285 166.224 117.373 167.334C118.461 168.422 119.005 170.139 119.005 172.486C119.005 173.467 118.866 174.47 118.589 175.494C118.333 176.496 117.928 177.531 117.373 178.598C116.818 179.664 116.125 180.763 115.293 181.894C114.482 183.024 113.512 184.187 112.381 185.382V185.51H119.197V189.35H106.397V185.51Z" fill="white"/>
<path d="M96.797 179.238C96.1144 179.238 95.5704 179.035 95.165 178.63C94.7597 178.224 94.557 177.691 94.557 177.03C94.557 176.347 94.7597 175.814 95.165 175.43C95.5704 175.024 96.1144 174.822 96.797 174.822C97.4797 174.822 98.0237 175.024 98.429 175.43C98.8344 175.814 99.037 176.347 99.037 177.03C99.037 177.691 98.8344 178.224 98.429 178.63C98.0237 179.035 97.4797 179.238 96.797 179.238ZM96.797 189.67C95.0264 189.67 93.6184 189.318 92.573 188.614C91.5277 187.888 90.7704 186.715 90.301 185.094C89.8317 183.472 89.597 181.318 89.597 178.63V176.71C89.597 174 89.8317 171.846 90.301 170.246C90.7704 168.624 91.5277 167.462 92.573 166.758C93.6184 166.032 95.0264 165.67 96.797 165.67C98.5464 165.67 99.9437 166.032 100.989 166.758C102.056 167.462 102.824 168.624 103.293 170.246C103.762 171.846 103.997 174 103.997 176.71V178.63C103.997 181.318 103.762 183.472 103.293 185.094C102.824 186.715 102.056 187.888 100.989 188.614C99.9437 189.318 98.5464 189.67 96.797 189.67ZM96.797 185.702C97.5224 185.702 98.0664 185.51 98.429 185.126C98.7917 184.742 99.037 184.027 99.165 182.982C99.3144 181.915 99.389 180.358 99.389 178.31V177.03C99.389 174.982 99.3144 173.435 99.165 172.39C99.037 171.323 98.7917 170.598 98.429 170.214C98.0664 169.83 97.5224 169.638 96.797 169.638C96.093 169.638 95.549 169.83 95.165 170.214C94.8024 170.598 94.5464 171.323 94.397 172.39C94.269 173.435 94.205 174.982 94.205 177.03V178.31C94.205 180.358 94.269 181.915 94.397 182.982C94.5464 184.027 94.8024 184.742 95.165 185.126C95.549 185.51 96.093 185.702 96.797 185.702Z" fill="white"/>
<path d="M80.7971 189.67C79.0051 189.67 77.5651 189.36 76.4771 188.742C75.4104 188.123 74.6317 187.11 74.1411 185.702C73.6717 184.294 73.4371 182.416 73.4371 180.07C73.4371 176.763 73.8637 174.064 74.7171 171.974C75.5704 169.862 76.8931 168.294 78.6851 167.27C80.4771 166.246 82.7811 165.712 85.5971 165.67V169.638C84.3171 169.638 83.1651 169.851 82.1411 170.278C81.1171 170.683 80.2957 171.248 79.6771 171.974C79.0584 172.699 78.7064 173.552 78.6211 174.534H78.7491C79.3464 174.214 79.9117 173.99 80.4451 173.862C80.9784 173.734 81.5544 173.67 82.1731 173.67C84.2211 173.67 85.7251 174.299 86.6851 175.558C87.6664 176.795 88.1571 178.726 88.1571 181.35C88.1571 184.315 87.5811 186.448 86.4291 187.75C85.2984 189.03 83.4211 189.67 80.7971 189.67ZM80.8291 185.83C81.7891 185.83 82.4931 185.488 82.9411 184.806C83.3891 184.102 83.6131 183.024 83.6131 181.574C83.6131 180.123 83.3891 179.056 82.9411 178.374C82.4931 177.67 81.7891 177.318 80.8291 177.318C79.8691 177.318 79.1651 177.67 78.7171 178.374C78.2691 179.056 78.0451 180.123 78.0451 181.574C78.0451 183.024 78.2691 184.102 78.7171 184.806C79.1651 185.488 79.8691 185.83 80.8291 185.83Z" fill="white"/>
<path d="M64.9251 189.35V171.27H64.8611L58.0131 176.998V171.75L64.9251 165.99H69.5331V189.35H64.9251Z" fill="white"/>
<path d="M460.114 268.506C460.114 267.622 460.831 266.905 461.715 266.905H475.323C476.207 266.905 476.923 267.622 476.923 268.506V278.701C476.923 279.319 476.568 279.881 476.011 280.147L469.207 283.387C468.772 283.594 468.266 283.594 467.831 283.387L461.027 280.147C460.469 279.881 460.114 279.319 460.114 278.701V268.506Z" fill="white"/>
<path d="M485.728 268.506C485.728 267.622 486.445 266.905 487.329 266.905H491.331C492.215 266.905 492.932 267.622 492.932 268.506V271.708C492.932 272.592 492.215 273.309 491.331 273.309H487.329C486.445 273.309 485.728 272.592 485.728 271.708V268.506Z" fill="white"/>
<path d="M501.737 268.506C501.737 267.622 502.454 266.905 503.338 266.905H516.945C517.829 266.905 518.546 267.622 518.546 268.506V278.111C518.546 278.995 517.829 279.712 516.945 279.712H503.338C502.454 279.712 501.737 278.995 501.737 278.111V268.506Z" fill="white"/>
<path d="M460.114 285.315C460.114 284.431 460.831 283.714 461.715 283.714H475.323C476.207 283.714 476.923 284.431 476.923 285.315V294.92C476.923 295.804 476.207 296.521 475.323 296.521H461.715C460.831 296.521 460.114 295.804 460.114 294.92V285.315Z" fill="white"/>
<path d="M480.926 278.912C480.926 278.028 481.642 277.311 482.526 277.311H496.134C497.018 277.311 497.735 278.028 497.735 278.912V301.324C497.735 302.208 497.018 302.925 496.134 302.925H482.526C481.642 302.925 480.926 302.208 480.926 301.324V278.912Z" fill="white"/>
<path d="M501.737 285.315C501.737 284.431 502.454 283.714 503.338 283.714H516.945C517.829 283.714 518.546 284.431 518.546 285.315V294.92C518.546 295.804 517.829 296.521 516.945 296.521H503.338C502.454 296.521 501.737 295.804 501.737 294.92V285.315Z" fill="white"/>
<path d="M460.114 302.124C460.114 301.24 460.831 300.523 461.715 300.523H475.323C476.207 300.523 476.923 301.24 476.923 302.124V311.729C476.923 312.614 476.207 313.33 475.323 313.33H461.715C460.831 313.33 460.114 312.614 460.114 311.729V302.124Z" fill="white"/>
<path d="M485.728 308.528C485.728 307.644 486.445 306.927 487.329 306.927H491.331C492.215 306.927 492.932 307.644 492.932 308.528V311.729C492.932 312.614 492.215 313.33 491.331 313.33H487.329C486.445 313.33 485.728 312.614 485.728 311.729V308.528Z" fill="white"/>
<path d="M501.737 301.534C501.737 300.917 502.092 300.354 502.649 300.089L509.453 296.849C509.889 296.642 510.394 296.642 510.83 296.849L517.633 300.089C518.191 300.354 518.546 300.917 518.546 301.534V311.729C518.546 312.614 517.829 313.33 516.945 313.33H503.338C502.454 313.33 501.737 312.614 501.737 311.729V301.534Z" fill="white"/>
<defs>
<filter id="filter0_b_139_403" x="-73.3331" y="-73.5889" width="701.298" height="498.188" filterUnits="userSpaceOnUse" color-interpolation-filters="sRGB">
<feFlood flood-opacity="0" result="BackgroundImageFix"/>
<feGaussianBlur in="BackgroundImageFix" stdDeviation="37.5"/>
<feComposite in2="SourceAlpha" operator="in" result="effect1_backgroundBlur_139_403"/>
<feBlend mode="normal" in="SourceGraphic" in2="effect1_backgroundBlur_139_403" result="shape"/>
</filter>
<filter id="filter1_b_139_403" x="-74.3331" y="-74.5889" width="703.298" height="500.188" filterUnits="userSpaceOnUse" color-interpolation-filters="sRGB">
<feFlood flood-opacity="0" result="BackgroundImageFix"/>
<feGaussianBlur in="BackgroundImageFix" stdDeviation="37.5"/>
<feComposite in2="SourceAlpha" operator="in" result="effect1_backgroundBlur_139_403"/>
<feBlend mode="normal" in="SourceGraphic" in2="effect1_backgroundBlur_139_403" result="shape"/>
</filter>
<linearGradient id="paint0_linear_139_403" x1="65.6438" y1="26.1972" x2="556.33" y2="348.687" gradientUnits="userSpaceOnUse">
<stop stop-color="white"/>
<stop offset="1" stop-color="white" stop-opacity="0"/>
</linearGradient>
<linearGradient id="paint1_linear_139_403" x1="42.2888" y1="17.3697" x2="336.798" y2="349.599" gradientUnits="userSpaceOnUse">
<stop stop-color="white"/>
<stop offset="1" stop-color="white" stop-opacity="0.55"/>
</linearGradient>
</defs>
</svg>
