<svg width="552" height="533" fill="none" xmlns="http://www.w3.org/2000/svg"><g filter="url('#filter0_d_1_137')"><path d="M89.655 267.127c6.92-19.013 28.932-34.426 49.165-34.426h361.776c20.234 0 31.026 15.413 24.106 34.426l-68.916 189.344c-6.92 19.013-28.932 34.426-49.165 34.426H44.845c-20.234 0-31.026-15.413-24.106-34.427l68.916-189.343Z" fill="#fff"/><path fill-rule="evenodd" clip-rule="evenodd" d="M88.51 267.127c7.136-19.607 29.836-35.502 50.702-35.502h361.776c20.865 0 31.995 15.895 24.859 35.502l-68.916 189.344c-7.136 19.607-29.836 35.502-50.702 35.502H44.453c-20.866 0-31.995-15.895-24.859-35.502L88.51 267.127Zm49.919-33.35c-19.601 0-40.926 14.931-47.63 33.35L21.884 456.471c-6.704 18.419 3.751 33.35 23.352 33.35h361.776c19.601 0 40.926-14.931 47.629-33.35l68.916-189.344c6.704-18.419-3.751-33.35-23.352-33.35H138.429Z" fill="url('#paint0_linear_1_137')" fill-opacity=".5"/><path d="M117.946 425.124c-1.475 0-2.479-.351-3.014-1.054-.535-.703-.565-1.707-.09-3.012.46-1.265 1.186-2.259 2.175-2.982 1.001-.723 2.137-1.085 3.408-1.085 1.229 0 2.056.342 2.48 1.024.425.683.409 1.652-.048 2.907a8.996 8.996 0 0 1-.186.467 8.235 8.235 0 0 1-.169.377h-6.828l.488-1.341h5.321l-.436.407c.3-.823.35-1.431.15-1.823-.185-.401-.614-.602-1.287-.602-.716 0-1.338.211-1.865.633-.513.411-.918 1.024-1.214 1.837l-.192.527c-.278.763-.27 1.331.022 1.702.296.362.876.542 1.742.542a10.242 10.242 0 0 0 2.975-.467l-.286 1.446c-.461.151-.97.271-1.526.362-.557.09-1.097.135-1.62.135ZM100.079 424.974l2.85-7.832h1.828l-.303.919h.032a4.902 4.902 0 0 1 1.359-.784 4.255 4.255 0 0 1 1.563-.286c.545 0 .97.096 1.274.286.319.181.496.442.532.784h.033a4.742 4.742 0 0 1 1.402-.814 4.649 4.649 0 0 1 1.567-.256c.898 0 1.467.226 1.709.678.245.442.194 1.14-.153 2.094l-1.897 5.211h-1.907l1.732-4.76c.216-.592.272-1.024.167-1.295-.104-.271-.381-.407-.829-.407-.535 0-1.017.166-1.448.497-.43.332-.746.774-.947 1.326l-1.688 4.639h-1.924l1.782-4.895c.186-.512.215-.899.086-1.16-.126-.271-.397-.407-.814-.407a2.18 2.18 0 0 0-.969.241 3.206 3.206 0 0 0-.861.648 2.755 2.755 0 0 0-.564.934l-1.689 4.639h-1.923ZM93.09 425.124c-.834 0-1.414-.21-1.742-.632-.313-.432-.336-1.014-.069-1.747.333-.914.968-1.617 1.905-2.109.938-.492 2.107-.738 3.507-.738h1.17c.139-.381.191-.673.157-.873-.019-.211-.137-.357-.353-.437-.206-.081-.528-.121-.966-.121-.535 0-1.109.05-1.722.151-.603.1-1.192.251-1.767.452l.275-1.461a13.888 13.888 0 0 1 1.975-.452 13.118 13.118 0 0 1 2.048-.166c.844 0 1.472.096 1.884.286.422.191.657.512.707.964.049.452-.062 1.05-.332 1.793l-1.798 4.94h-1.875l.312-.904h-.032c-.401.311-.911.567-1.53.768-.614.191-1.199.286-1.754.286Zm1.231-1.446c.395 0 .782-.065 1.161-.195.383-.141.712-.327.988-.558.277-.231.468-.492.574-.783l.345-.949h-.881c-.92 0-1.656.116-2.21.347-.54.221-.894.562-1.062 1.024-.124.341-.095.612.089.813.183.201.515.301.996.301ZM79.295 424.974l4.002-10.995h2.132l2.368 7.892h.033l2.872-7.892h1.988l-4.002 10.995h-2.132l-2.353-7.892h-.032l-2.872 7.892h-2.004ZM226.655 339.984l.773-2.124h2.276l-.773 2.124h-2.276ZM220.81 340.134c-1.346 0-2.26-.351-2.741-1.054-.468-.713-.465-1.717.006-3.012.471-1.296 1.198-2.295 2.181-2.998.997-.713 2.168-1.069 3.514-1.069 1.347 0 2.259.356 2.737 1.069.481.703.486 1.702.015 2.998-.472 1.295-1.206 2.299-2.203 3.012-.993.703-2.162 1.054-3.509 1.054Zm.537-1.476c.738 0 1.377-.216 1.919-.648.546-.441.974-1.089 1.284-1.942.311-.854.353-1.497.125-1.928-.224-.442-.704-.663-1.442-.663-.726 0-1.368.221-1.924.663-.542.431-.968 1.074-1.279 1.928-.31.853-.354 1.501-.13 1.942.238.432.721.648 1.447.648ZM205.365 339.984l4.002-10.995h2.132l2.368 7.892h.032l2.873-7.892h1.987l-4.001 10.995h-2.132l-2.353-7.893h-.032l-2.872 7.893h-2.004ZM193.747 340.134c-1.112 0-1.847-.356-2.208-1.069-.36-.713-.306-1.712.162-2.997.468-1.286 1.141-2.285 2.02-2.998.879-.712 1.875-1.069 2.986-1.069.556 0 1.025.09 1.408.271.383.181.665.447.847.798h.049l1.485-4.081h1.939l-4.001 10.995h-1.844l.303-.919h-.032a5.055 5.055 0 0 1-3.114 1.069Zm1.061-1.506c.417 0 .814-.08 1.194-.241a3.287 3.287 0 0 0 1.026-.663c.295-.281.506-.597.634-.948l.515-1.416c.132-.362.151-.678.057-.949a1.183 1.183 0 0 0-.528-.663c-.262-.16-.607-.241-1.034-.241a2.77 2.77 0 0 0-1.812.663c-.524.442-.936 1.074-1.236 1.898-.3.823-.348 1.456-.146 1.897.213.442.657.663 1.33.663ZM184.263 339.984l2.85-7.832h1.892l-.522 1.476h.033a6.96 6.96 0 0 1 1.295-.874 6.254 6.254 0 0 1 1.469-.557 6.033 6.033 0 0 1 1.514-.196l-.581 1.596c-.673 0-1.332.121-1.975.362a5.607 5.607 0 0 0-1.67.979c-.467.402-.792.853-.975 1.355l-1.343 3.691h-1.987ZM177.274 340.134c-.834 0-1.414-.211-1.742-.632-.313-.432-.336-1.015-.069-1.748.333-.913.968-1.616 1.905-2.108.938-.492 2.107-.738 3.507-.738h1.17c.139-.382.191-.673.157-.874-.019-.211-.137-.356-.353-.437-.206-.08-.528-.12-.966-.12-.535 0-1.109.05-1.722.151-.603.1-1.192.251-1.767.451l.275-1.461a14.01 14.01 0 0 1 1.976-.451 13.106 13.106 0 0 1 2.047-.166c.845 0 1.472.095 1.884.286.422.191.657.512.707.964.049.452-.062 1.049-.332 1.792l-1.798 4.941h-1.875l.312-.904h-.032c-.401.311-.911.567-1.529.768-.615.191-1.2.286-1.755.286Zm1.231-1.446a3.53 3.53 0 0 0 1.161-.196c.383-.14.712-.326.988-.557.277-.231.468-.492.574-.783l.345-.949h-.881c-.919 0-1.656.116-2.21.347-.54.22-.894.562-1.062 1.024-.124.341-.095.612.089.813.183.201.515.301.996.301ZM169.564 340.134c-1.272 0-2.285-.226-3.04-.678-.754-.451-1.224-1.099-1.408-1.942-.174-.844-.047-1.853.381-3.028.431-1.185 1.038-2.194 1.823-3.027a8.162 8.162 0 0 1 2.823-1.943c1.083-.452 2.26-.678 3.532-.678 1.453 0 2.633.296 3.539.889l-1.068 1.657c-.877-.583-1.883-.874-3.015-.874-.845 0-1.635.161-2.372.482a5.528 5.528 0 0 0-1.92 1.355 6.292 6.292 0 0 0-1.275 2.139c-.3.824-.393 1.536-.281 2.139.115.592.424 1.049.927 1.37.507.312 1.182.467 2.026.467 1.101 0 2.318-.291 3.652-.873l-.138 1.657a10.236 10.236 0 0 1-4.186.888ZM155.542 340.134c-.983 0-1.624-.19-1.923-.572-.299-.382-.292-1.004.023-1.868l1.48-4.066h-1.86l.538-1.476h1.859l.932-2.561h1.987l-.932 2.561h2.805l-.537 1.476h-2.805l-1.31 3.599c-.183.503-.225.854-.127 1.055.112.191.392.286.841.286.235 0 .488-.02.759-.06.272-.04.521-.096.75-.166l-.377 1.521a8.8 8.8 0 0 1-1.103.211c-.335.04-.668.06-1 .06ZM150.744 330.766l.647-1.777h1.987l-.647 1.777h-1.987Zm-3.355 9.218 2.834-7.787h1.987l-2.834 7.787h-1.987ZM140.216 340.134c-1.112 0-1.847-.356-2.208-1.069-.36-.713-.306-1.712.162-2.997.467-1.286 1.141-2.285 2.02-2.998.879-.712 1.875-1.069 2.986-1.069.555 0 1.025.09 1.408.271.383.181.665.447.847.798h.048l1.486-4.081h1.939l-4.001 10.995h-1.844l.303-.919h-.032a5.068 5.068 0 0 1-3.114 1.069Zm1.061-1.506c.416 0 .814-.08 1.193-.241a3.28 3.28 0 0 0 1.027-.663c.295-.281.506-.597.634-.948l.515-1.416c.132-.362.151-.678.057-.949a1.183 1.183 0 0 0-.528-.663c-.262-.16-.607-.241-1.034-.241-.674 0-1.278.221-1.812.663-.525.442-.936 1.074-1.236 1.898-.3.823-.348 1.456-.146 1.897.213.442.656.663 1.33.663ZM132.07 340.134c-1.475 0-2.479-.351-3.014-1.054-.535-.703-.565-1.707-.09-3.012.46-1.266 1.186-2.26 2.175-2.983 1.001-.723 2.137-1.084 3.408-1.084 1.229 0 2.056.341 2.48 1.024.425.683.409 1.652-.048 2.907a8.996 8.996 0 0 1-.186.467 7.619 7.619 0 0 1-.169.376h-6.828l.488-1.34h5.321l-.436.407c.3-.824.35-1.431.15-1.823-.185-.401-.614-.602-1.287-.602-.716 0-1.338.211-1.865.632-.513.412-.918 1.025-1.214 1.838l-.192.527c-.278.763-.27 1.33.022 1.702.296.361.876.542 1.742.542.449 0 .944-.04 1.486-.12a10.943 10.943 0 0 0 1.489-.347l-.286 1.446c-.461.151-.97.271-1.526.362-.557.09-1.097.135-1.62.135ZM121.528 339.984l2.851-7.832h1.891l-.521 1.476h.032a6.992 6.992 0 0 1 1.295-.874 6.254 6.254 0 0 1 1.469-.557 6.033 6.033 0 0 1 1.514-.196l-.581 1.596c-.673 0-1.331.121-1.975.362a5.62 5.62 0 0 0-1.67.979c-.467.402-.792.853-.974 1.355l-1.344 3.691h-1.987ZM115.657 340.134c-1.272 0-2.285-.226-3.039-.678-.755-.451-1.224-1.099-1.409-1.942-.174-.844-.047-1.853.381-3.028.431-1.185 1.039-2.194 1.823-3.027a8.162 8.162 0 0 1 2.823-1.943c1.083-.452 2.261-.678 3.532-.678 1.453 0 2.633.296 3.539.889l-1.067 1.657c-.878-.583-1.884-.874-3.016-.874-.844 0-1.635.161-2.371.482a5.519 5.519 0 0 0-1.92 1.355c-.547.593-.972 1.306-1.276 2.139-.299.824-.393 1.536-.281 2.139a2.02 2.02 0 0 0 .927 1.37c.507.312 1.182.467 2.026.467 1.101 0 2.318-.291 3.652-.873l-.138 1.657a10.236 10.236 0 0 1-4.186.888ZM250.155 420.67l.773-2.124h2.276l-.773 2.124h-2.276ZM247.967 412.688c1.111 0 1.847.356 2.207 1.069.36.713.306 1.712-.161 2.997-.468 1.285-1.142 2.284-2.021 2.997-.879.713-1.874 1.07-2.986 1.07-.545 0-1.014-.091-1.408-.271a1.91 1.91 0 0 1-.847-.799h-.032l-1.486 4.082h-1.971l4.002-10.995h1.875l-.318.919h.032c.448-.352.94-.618 1.476-.798a5.087 5.087 0 0 1 1.638-.271Zm-1.061 1.506c-.407 0-.804.08-1.194.241-.39.16-.732.381-1.027.662-.28.271-.486.588-.618.949l-.515 1.416c-.128.351-.152.668-.073.949.09.281.272.502.544.663.273.16.613.241 1.019.241.684 0 1.288-.221 1.812-.663.524-.442.936-1.075 1.235-1.898.3-.823.349-1.456.146-1.898-.202-.441-.646-.662-1.329-.662ZM230.786 420.67l4.081-3.946-1.198-3.886h2.18l.699 2.922h.032l2.827-2.922h2.18l-4.027 3.886 1.208 3.946h-2.179l-.716-2.967h-.032l-2.859 2.967h-2.196ZM221.68 420.67l4.002-10.995h7.822l-.592 1.627h-5.819l-1.03 2.831h5.497l-.581 1.597h-5.497l-1.206 3.314h5.818l-.592 1.626h-7.822Z" fill="#ADADAD"/><path d="m248.611 451.065 2.773-7.617h-.028l-4.226 1.95.017-1.408 4.895-2.349h1.744l-3.43 9.424h-1.745ZM239.783 451.065l2.773-7.617h-.028l-4.226 1.95.017-1.408 4.895-2.349h1.744l-3.43 9.424h-1.745ZM228.097 451.581l8.697-10.456h1.676l-8.697 10.456h-1.676ZM227.193 441.512c.824 0 1.47.137 1.938.413.468.275.746.68.836 1.213.099.534.004 1.197-.284 1.988a9.158 9.158 0 0 1-1.874 3.112 8.927 8.927 0 0 1-2.845 2.078c-1.092.508-2.286.796-3.585.865l.173-1.304c1.157-.06 2.165-.288 3.024-.684a6.194 6.194 0 0 0 2.224-1.769l-.023-.013a6.344 6.344 0 0 1-1.208.414 5.507 5.507 0 0 1-1.261.142c-1.017 0-1.716-.28-2.099-.84-.373-.559-.38-1.334-.02-2.323a4.874 4.874 0 0 1 1.098-1.769 4.823 4.823 0 0 1 1.713-1.123 5.834 5.834 0 0 1 2.193-.4Zm-.503 1.381c-.677 0-1.261.168-1.749.504-.476.327-.822.787-1.039 1.381-.216.594-.215 1.059.001 1.394.229.327.664.491 1.305.491.458 0 .877-.069 1.257-.207a2.762 2.762 0 0 0 1.623-1.626c.122-.336.163-.65.123-.943a.976.976 0 0 0-.415-.71c-.233-.189-.602-.284-1.106-.284ZM214.841 451.194c-1.337 0-2.187-.396-2.549-1.188-.362-.791-.244-2.009.355-3.653.598-1.644 1.366-2.862 2.305-3.654.938-.791 2.076-1.187 3.413-1.187 1.337 0 2.182.396 2.535 1.187.362.792.244 2.01-.354 3.654-.598 1.644-1.367 2.862-2.305 3.653-.929.792-2.063 1.188-3.4 1.188Zm.522-1.433c.76 0 1.414-.275 1.963-.826.548-.551 1.036-1.412 1.462-2.582.429-1.179.568-2.04.417-2.582-.147-.551-.601-.826-1.361-.826-.761 0-1.419.275-1.977.826-.546.542-1.033 1.403-1.462 2.582-.426 1.17-.565 2.031-.418 2.582.157.551.615.826 1.376.826ZM164.777 451.065l3.43-9.424h1.648l2.197 7.1h.027l2.585-7.1h1.511l-3.43 9.424h-1.649l-2.196-7.1h-.028l-2.584 7.1h-1.511ZM154.087 451.065l7.085-9.424h2.047l.21 9.424h-1.662l-.006-8.211h-.028l-5.983 8.211h-1.663Zm2.756-2.362.47-1.291h5.564l-.47 1.291h-5.564ZM151.223 451.065l3.431-9.424h1.511l-3.43 9.424h-1.512Zm-6.182 0 3.43-9.424h1.512l-3.431 9.424h-1.511Zm2.316-4.286.47-1.291h6.182l-.47 1.291h-6.182ZM141.019 451.065l3.43-9.424h1.566l-3.43 9.424h-1.566ZM130.206 451.065l7.085-9.424h2.047l.21 9.424h-1.662l-.006-8.211h-.028l-5.983 8.211h-1.663Zm2.756-2.362.47-1.291h5.564l-.47 1.291h-5.564ZM121.724 451.065l3.43-9.424h3.022c1.475 0 2.469.224 2.984.671.524.448.609 1.158.255 2.13-.347.956-.937 1.67-1.769 2.143-.822.474-1.902.71-3.239.71h-2.556l.451-1.239h2.336c.934 0 1.651-.12 2.151-.361.512-.25.868-.65 1.069-1.201.2-.551.134-.947-.2-1.188-.321-.249-.949-.374-1.883-.374h-1.58l-2.96 8.133h-1.511Zm5.866 0-2.978-4.312h1.909l3.033 4.312h-1.964ZM107.569 451.065l3.43-9.424h1.649l2.197 7.1h.027l2.584-7.1h1.512l-3.43 9.424h-1.649l-2.197-7.1h-.027l-2.584 7.1h-1.512ZM96.88 451.065l7.085-9.424h2.047l.21 9.424h-1.662l-.007-8.211h-.027l-5.983 8.211H96.88Zm2.756-2.362.47-1.291h5.564l-.47 1.291h-5.564ZM94.016 451.065l3.43-9.424h1.511l-3.43 9.424h-1.51Zm-6.182 0 3.43-9.424h1.511l-3.43 9.424h-1.511Zm2.316-4.286.47-1.291h6.182l-.47 1.291H90.15ZM79.14 451.065l3.43-9.424h6.595l-.46 1.265H83.62l-.95 2.608h4.81l-.452 1.239h-4.808l-1.11 3.047h5.084l-.46 1.265H79.14ZM69.668 451.065l3.43-9.424h3.023c1.474 0 2.47.224 2.984.671.524.448.609 1.158.255 2.13-.348.956-.937 1.67-1.77 2.143-.822.474-1.902.71-3.239.71h-2.555l.451-1.239h2.335c.935 0 1.652-.12 2.152-.361.512-.25.868-.65 1.069-1.201.2-.551.133-.947-.2-1.188-.322-.249-.95-.374-1.883-.374h-1.58l-2.96 8.133h-1.512Zm5.866 0-2.978-4.312h1.91l3.033 4.312h-1.965Z" fill="#1A1E1C"/><path fill-rule="evenodd" clip-rule="evenodd" d="M150.381 283.089c3.591-2.36 6.536-5.746 7.905-9.508 1.369-3.762.889-7.147-.985-9.507 3.215-2.112 6.949-3.403 10.532-3.403 7.588 0 11.635 5.78 9.04 12.91-2.595 7.13-10.85 12.91-18.437 12.91-3.584 0-6.378-1.29-8.055-3.402Zm0 0c-3.215 2.112-6.949 3.402-10.532 3.402-7.588 0-11.635-5.78-9.04-12.91 2.595-7.13 10.85-12.91 18.437-12.91 3.584 0 6.378 1.291 8.055 3.403-3.591 2.36-6.535 5.745-7.905 9.507-1.369 3.762-.889 7.148.985 9.508ZM489.539 260.922c.799-.431 1.639-.292 1.878.311 1.273 3.209 2.192 8.682.826 14.778-1.375 6.138-5.094 12.99-13.151 18.687-.746.528-1.652.533-2.024.013-.371-.52-.068-1.37.678-1.897 7.027-4.969 10.3-10.92 11.54-16.453 1.248-5.575.402-10.64-.759-13.568-.239-.603.214-1.441 1.012-1.871Zm-7.977 4.919c.798-.432 1.639-.294 1.879.308.901 2.258 1.553 6.099.595 10.388-.969 4.331-3.609 9.2-9.342 13.245-.746.526-1.651.531-2.022.009-.37-.521-.066-1.37.68-1.896 4.702-3.317 6.893-7.284 7.726-11.007.842-3.766.263-7.198-.525-9.176-.241-.602.211-1.44 1.009-1.871Zm-6.717 5.369c.796-.435 1.64-.301 1.884.299.496 1.221.859 3.282.343 5.6-.524 2.363-1.989 5.071-5.19 7.313-.748.523-1.652.523-2.018 0-.367-.524-.058-1.373.69-1.897 2.163-1.515 3.172-3.315 3.56-5.061.398-1.791.112-3.441-.27-4.381-.244-.6.204-1.439 1.001-1.873Zm-5.944 5.557c-.525 0-1.097.4-1.277.894-.179.494.101.894.626.894.526 0 1.098-.4 1.277-.894.18-.494-.1-.894-.626-.894Zm-4.131.894c.719-1.975 3.005-3.577 5.108-3.577 2.102 0 3.223 1.602 2.504 3.577-.719 1.975-3.006 3.577-5.108 3.577s-3.223-1.602-2.504-3.577Z" fill="#1A1E1C"/><path d="m340.156 374.94 4.424-12.156h-.046l-6.301 3.851 1.284-3.529 6.355-3.873h3.298l-5.717 15.707h-3.297ZM324.976 372.358a109.73 109.73 0 0 0 3.651-2.797 41.601 41.601 0 0 0 2.555-2.237c.688-.675 1.23-1.284 1.627-1.829.397-.545.684-1.062.862-1.549.276-.761.304-1.32.084-1.679-.221-.358-.705-.538-1.453-.538-.977 0-2.226.266-3.747.796l1.018-2.797c1.317-.473 2.8-.71 4.448-.71 1.664 0 2.75.373 3.257 1.119.512.732.481 1.886-.093 3.464a10.02 10.02 0 0 1-1.034 2.023 15.17 15.17 0 0 1-1.63 2.087 28.789 28.789 0 0 1-2.295 2.216 39.633 39.633 0 0 1-2.937 2.345l-.031.086h4.877l-.94 2.582h-9.159l.94-2.582ZM319.641 368.141c-.488 0-.828-.136-1.019-.409-.19-.272-.205-.631-.043-1.075a2.14 2.14 0 0 1 .827-1.076 2.237 2.237 0 0 1 1.316-.409c.489 0 .828.136 1.019.409.196.258.211.617.044 1.076a2.206 2.206 0 0 1-.827 1.075 2.237 2.237 0 0 1-1.317.409Zm-2.553 7.015c-1.267 0-2.188-.237-2.764-.71-.57-.488-.825-1.277-.764-2.367.061-1.09.421-2.539 1.078-4.347l.47-1.291c.663-1.821 1.359-3.27 2.086-4.346.733-1.09 1.559-1.872 2.479-2.345.926-.488 2.022-.732 3.289-.732 1.252 0 2.163.244 2.733.732.591.473.856 1.255.795 2.345-.056 1.076-.415 2.525-1.078 4.346l-.47 1.291c-.658 1.808-1.353 3.257-2.086 4.347-.732 1.09-1.569 1.879-2.51 2.367-.92.473-2.006.71-3.258.71Zm.972-2.668c.519 0 .955-.13 1.308-.388.354-.258.704-.738 1.052-1.441.367-.718.802-1.765 1.303-3.142l.313-.86c.502-1.377.827-2.417.976-3.12.169-.717.171-1.205.006-1.463-.166-.259-.508-.388-1.027-.388-.504 0-.94.129-1.309.388-.353.258-.714.746-1.082 1.463-.347.703-.772 1.743-1.273 3.12l-.313.86c-.501 1.377-.837 2.424-1.006 3.142-.149.703-.141 1.183.025 1.441.181.258.523.388 1.027.388ZM302.079 372.358a109.73 109.73 0 0 0 3.651-2.797 41.254 41.254 0 0 0 2.554-2.237c.689-.675 1.231-1.284 1.628-1.829.397-.545.684-1.062.861-1.549.277-.761.305-1.32.085-1.679-.221-.358-.705-.538-1.453-.538-.977 0-2.226.266-3.748.796l1.019-2.797c1.317-.473 2.8-.71 4.448-.71 1.664 0 2.749.373 3.256 1.119.513.732.482 1.886-.093 3.464a9.961 9.961 0 0 1-1.033 2.023 15.17 15.17 0 0 1-1.63 2.087 28.789 28.789 0 0 1-2.295 2.216 39.633 39.633 0 0 1-2.937 2.345l-.032.086h4.877l-.939 2.582h-9.159l.94-2.582ZM277.168 359.018c1.297 0 2.252.208 2.864.624.611.416.913 1.098.904 2.044.007.947-.277 2.209-.851 3.787-.804 2.209-1.77 4.024-2.898 5.444-1.127 1.42-2.457 2.474-3.99 3.163-1.518.688-3.297 1.047-5.337 1.076l.971-2.668c.931 0 1.805-.137 2.621-.409.837-.287 1.566-.674 2.186-1.162.626-.502 1.086-1.076 1.382-1.721h-.091a7.466 7.466 0 0 1-1.378.451 6.283 6.283 0 0 1-1.284.129c-1.465 0-2.397-.416-2.797-1.247-.379-.847-.247-2.152.395-3.916.726-1.994 1.65-3.422 2.772-4.282 1.143-.875 2.653-1.313 4.531-1.313Zm-.963 2.582c-.687 0-1.277.237-1.77.71-.487.459-.909 1.177-1.264 2.152-.355.975-.458 1.7-.31 2.173.154.459.574.689 1.261.689a2.48 2.48 0 0 0 1.762-.689c.492-.473.916-1.198 1.271-2.173.355-.975.456-1.693.303-2.152-.149-.473-.566-.71-1.253-.71ZM260.015 374.94l4.425-12.156h-.046l-6.302 3.851 1.285-3.529 6.355-3.873h3.297l-5.716 15.707h-3.298ZM250.95 368.141c-.489 0-.828-.136-1.019-.409-.191-.272-.205-.631-.044-1.075.168-.459.443-.818.827-1.076a2.237 2.237 0 0 1 1.317-.409c.488 0 .828.136 1.019.409.196.258.21.617.043 1.076a2.2 2.2 0 0 1-.827 1.075 2.237 2.237 0 0 1-1.316.409Zm-2.553 7.015c-1.267 0-2.188-.237-2.764-.71-.571-.488-.825-1.277-.764-2.367.061-1.09.42-2.539 1.078-4.347l.47-1.291c.663-1.821 1.358-3.27 2.085-4.346.733-1.09 1.559-1.872 2.48-2.345.925-.488 2.021-.732 3.288-.732 1.252 0 2.163.244 2.734.732.591.473.856 1.255.795 2.345-.056 1.076-.415 2.525-1.079 4.346l-.469 1.291c-.658 1.808-1.353 3.257-2.086 4.347-.733 1.09-1.569 1.879-2.51 2.367-.92.473-2.006.71-3.258.71Zm.971-2.668c.519 0 .955-.13 1.309-.388.353-.258.704-.738 1.051-1.441.368-.718.803-1.765 1.304-3.142l.313-.86c.501-1.377.826-2.417.975-3.12.17-.717.172-1.205.006-1.463-.165-.259-.508-.388-1.027-.388-.503 0-.94.129-1.308.388-.354.258-.715.746-1.082 1.463-.348.703-.772 1.743-1.273 3.12l-.314.86c-.501 1.377-.836 2.424-1.006 3.142-.149.703-.14 1.183.025 1.441.181.258.523.388 1.027.388ZM233.387 372.358a109.73 109.73 0 0 0 3.651-2.797 41.601 41.601 0 0 0 2.555-2.237c.688-.675 1.23-1.284 1.627-1.829.397-.545.684-1.062.862-1.549.276-.761.304-1.32.084-1.679-.221-.358-.705-.538-1.453-.538-.977 0-2.226.266-3.747.796l1.018-2.797c1.317-.473 2.8-.71 4.448-.71 1.664 0 2.75.373 3.257 1.119.512.732.481 1.886-.093 3.464a9.968 9.968 0 0 1-1.034 2.023 15.17 15.17 0 0 1-1.63 2.087 28.789 28.789 0 0 1-2.295 2.216 39.633 39.633 0 0 1-2.937 2.345l-.031.086h4.877l-.94 2.582h-9.159l.94-2.582ZM202.772 374.94l4.425-12.156h-.046l-6.302 3.851 1.285-3.529 6.355-3.873h3.297l-5.716 15.707h-3.298ZM191.324 374.94l4.424-12.156h-.045l-6.302 3.851 1.284-3.529 6.356-3.873h3.297l-5.717 15.707h-3.297ZM185.579 359.018c1.297 0 2.252.208 2.864.624.612.416.913 1.098.904 2.044.007.947-.277 2.209-.851 3.787-.804 2.209-1.77 4.024-2.898 5.444-1.127 1.42-2.457 2.474-3.99 3.163-1.518.688-3.297 1.047-5.337 1.076l.971-2.668c.931 0 1.805-.137 2.621-.409a7.347 7.347 0 0 0 2.186-1.162c.626-.502 1.087-1.076 1.383-1.721h-.092a7.466 7.466 0 0 1-1.378.451 6.283 6.283 0 0 1-1.284.129c-1.465 0-2.397-.416-2.797-1.247-.379-.847-.247-2.152.395-3.916.726-1.994 1.65-3.422 2.772-4.282 1.143-.875 2.653-1.313 4.531-1.313Zm-.963 2.582c-.687 0-1.277.237-1.77.71-.487.459-.909 1.177-1.264 2.152-.355.975-.458 1.7-.31 2.173.154.459.574.689 1.261.689a2.48 2.48 0 0 0 1.762-.689c.493-.473.917-1.198 1.272-2.173.355-.975.455-1.693.302-2.152-.148-.473-.566-.71-1.253-.71ZM170.81 368.141c-.489 0-.828-.136-1.019-.409-.191-.272-.206-.631-.044-1.075a2.14 2.14 0 0 1 .827-1.076 2.237 2.237 0 0 1 1.316-.409c.489 0 .829.136 1.019.409.196.258.211.617.044 1.076a2.206 2.206 0 0 1-.827 1.075 2.237 2.237 0 0 1-1.316.409Zm-2.553 7.015c-1.267 0-2.189-.237-2.764-.71-.571-.488-.826-1.277-.765-2.367.061-1.09.421-2.539 1.079-4.347l.469-1.291c.664-1.821 1.359-3.27 2.086-4.346.733-1.09 1.559-1.872 2.479-2.345.926-.488 2.022-.732 3.289-.732 1.252 0 2.163.244 2.733.732.591.473.856 1.255.795 2.345-.055 1.076-.415 2.525-1.078 4.346l-.47 1.291c-.657 1.808-1.353 3.257-2.085 4.347-.733 1.09-1.57 1.879-2.51 2.367-.921.473-2.007.71-3.258.71Zm.971-2.668c.519 0 .955-.13 1.308-.388.354-.258.704-.738 1.052-1.441.368-.718.802-1.765 1.303-3.142l.314-.86c.501-1.377.826-2.417.975-3.12.169-.717.171-1.205.006-1.463-.166-.259-.508-.388-1.027-.388-.504 0-.94.129-1.309.388-.353.258-.714.746-1.082 1.463-.347.703-.771 1.743-1.273 3.12l-.313.86c-.501 1.377-.836 2.424-1.006 3.142-.149.703-.141 1.183.025 1.441.181.258.523.388 1.027.388ZM130.349 372.358a108.833 108.833 0 0 0 3.652-2.797 41.254 41.254 0 0 0 2.554-2.237c.688-.675 1.231-1.284 1.628-1.829.397-.545.684-1.062.861-1.549.277-.761.305-1.32.084-1.679-.22-.358-.704-.538-1.452-.538-.977 0-2.226.266-3.748.796l1.018-2.797c1.318-.473 2.8-.71 4.449-.71 1.664 0 2.749.373 3.256 1.119.513.732.482 1.886-.093 3.464a9.961 9.961 0 0 1-1.033 2.023 15.17 15.17 0 0 1-1.63 2.087 28.789 28.789 0 0 1-2.295 2.216 39.633 39.633 0 0 1-2.937 2.345l-.032.086h4.877l-.939 2.582h-9.159l.939-2.582ZM125.015 368.141c-.488 0-.828-.136-1.019-.409-.191-.272-.205-.631-.043-1.075.167-.459.442-.818.826-1.076a2.24 2.24 0 0 1 1.317-.409c.488 0 .828.136 1.019.409.196.258.21.617.043 1.076a2.199 2.199 0 0 1-.826 1.075 2.237 2.237 0 0 1-1.317.409Zm-2.553 7.015c-1.267 0-2.188-.237-2.764-.71-.57-.488-.825-1.277-.764-2.367.061-1.09.42-2.539 1.078-4.347l.47-1.291c.663-1.821 1.358-3.27 2.086-4.346.732-1.09 1.559-1.872 2.479-2.345.926-.488 2.022-.732 3.289-.732 1.251 0 2.163.244 2.733.732.591.473.856 1.255.795 2.345-.056 1.076-.415 2.525-1.078 4.346l-.47 1.291c-.658 1.808-1.353 3.257-2.086 4.347-.732 1.09-1.569 1.879-2.51 2.367-.92.473-2.006.71-3.258.71Zm.971-2.668c.519 0 .956-.13 1.309-.388.354-.258.704-.738 1.051-1.441.368-.718.803-1.765 1.304-3.142l.313-.86c.501-1.377.827-2.417.976-3.12.169-.717.171-1.205.005-1.463-.165-.259-.507-.388-1.026-.388-.504 0-.94.129-1.309.388-.354.258-.714.746-1.082 1.463-.348.703-.772 1.743-1.273 3.12l-.313.86c-.502 1.377-.837 2.424-1.006 3.142-.149.703-.141 1.183.025 1.441.18.258.523.388 1.026.388ZM111.014 375.156c-1.283 0-2.237-.208-2.864-.624-.612-.416-.921-1.098-.928-2.044.009-.947.3-2.209.875-3.787.809-2.224 1.775-4.038 2.897-5.444 1.127-1.42 2.457-2.474 3.99-3.163 1.533-.688 3.312-1.047 5.338-1.076l-.971 2.668c-.916 0-1.793.144-2.63.431a7.003 7.003 0 0 0-2.178 1.14c-.62.488-1.081 1.062-1.382 1.721h.091a7.552 7.552 0 0 1 1.378-.452 6.283 6.283 0 0 1 1.284-.129c1.465 0 2.387.424 2.766 1.27.4.832.278 2.13-.364 3.894-.726 1.994-1.66 3.429-2.803 4.304-1.122.86-2.622 1.291-4.499 1.291Zm.962-2.582a2.48 2.48 0 0 0 1.762-.689c.493-.473.917-1.198 1.272-2.173.355-.975.456-1.693.302-2.152-.148-.473-.566-.71-1.253-.71-.687 0-1.276.237-1.769.71-.488.459-.909 1.177-1.264 2.152-.355.975-.459 1.7-.31 2.173.153.459.573.689 1.26.689ZM99.735 374.94l4.425-12.156h-.046l-6.302 3.851 1.284-3.529 6.356-3.873h3.297l-5.717 15.707h-3.297ZM391.873 430.762c.238-.656.997-1.187 1.695-1.187h10.738c.698 0 1.07.531.831 1.187l-2.751 7.56c-.167.458-.599.875-1.111 1.072l-6.243 2.403c-.4.153-.799.153-1.086 0l-4.495-2.403c-.368-.197-.497-.614-.33-1.072l2.752-7.56ZM412.085 430.762c.239-.656.998-1.187 1.696-1.187h3.158c.698 0 1.07.531.831 1.187l-.864 2.374c-.238.656-.998 1.187-1.695 1.187h-3.158c-.698 0-1.07-.531-.832-1.187l.864-2.374ZM424.718 430.762c.239-.656.998-1.187 1.696-1.187h10.738c.697 0 1.07.531.831 1.187l-2.592 7.123c-.239.655-.998 1.187-1.696 1.187h-10.738c-.698 0-1.07-.532-.831-1.187l2.592-7.123ZM387.336 443.227c.239-.656.998-1.187 1.695-1.187h10.738c.698 0 1.07.531.832 1.187l-2.593 7.122c-.238.656-.998 1.187-1.695 1.187h-10.738c-.698 0-1.07-.531-.831-1.187l2.592-7.122ZM405.487 438.478c.239-.655.998-1.187 1.695-1.187h10.738c.698 0 1.07.532.832 1.187l-6.049 16.62c-.239.655-.998 1.187-1.696 1.187h-10.738c-.697 0-1.07-.532-.831-1.187l6.049-16.62ZM420.182 443.227c.238-.656.997-1.187 1.695-1.187h10.738c.698 0 1.07.531.831 1.187l-2.592 7.122c-.239.656-.998 1.187-1.696 1.187H418.42c-.697 0-1.069-.531-.831-1.187l2.593-7.122ZM382.799 455.691c.239-.655.998-1.187 1.696-1.187h10.738c.697 0 1.069.532.831 1.187l-2.593 7.123c-.238.656-.997 1.187-1.695 1.187h-10.738c-.698 0-1.07-.531-.831-1.187l2.592-7.123ZM401.284 460.44c.238-.656.997-1.187 1.695-1.187h3.158c.698 0 1.07.531.831 1.187l-.864 2.374c-.238.656-.997 1.187-1.695 1.187h-3.158c-.698 0-1.07-.531-.831-1.187l.864-2.374ZM415.804 455.254c.167-.458.599-.875 1.11-1.072l6.244-2.403c.399-.153.798-.153 1.086 0l4.495 2.403c.368.197.496.614.33 1.072l-2.752 7.56c-.239.656-.998 1.187-1.695 1.187h-10.738c-.698 0-1.07-.531-.832-1.187l2.752-7.56Z" fill="#1A1E1C"/></g><path d="M89.655 143.195c6.92-19.013 28.932-34.426 49.165-34.426h361.776c20.234 0 31.026 15.413 24.106 34.426l-68.916 189.344c-6.92 19.013-28.932 34.426-49.165 34.426H44.845c-20.234 0-31.026-15.413-24.106-34.426l68.916-189.344Z" fill="#2BB32A"/><path fill-rule="evenodd" clip-rule="evenodd" d="M88.51 143.195c7.136-19.607 29.836-35.502 50.702-35.502h361.776c20.865 0 31.995 15.895 24.859 35.502l-68.916 189.344c-7.136 19.607-29.836 35.502-50.702 35.502H44.453c-20.866 0-31.995-15.895-24.859-35.502L88.51 143.195Zm49.919-33.35c-19.601 0-40.926 14.931-47.63 33.35L21.884 332.539c-6.704 18.419 3.751 33.35 23.352 33.35h361.776c19.601 0 40.926-14.931 47.629-33.35l68.916-189.344c6.704-18.419-3.751-33.35-23.352-33.35H138.429Z" fill="url('#paint1_linear_1_137')" fill-opacity=".5"/><path d="M117.946 301.192c-1.475 0-2.479-.352-3.014-1.055-.535-.702-.565-1.706-.09-3.012.46-1.265 1.186-2.259 2.175-2.982 1.001-.723 2.137-1.084 3.408-1.084 1.229 0 2.056.341 2.48 1.024.425.683.409 1.652-.048 2.907a9.365 9.365 0 0 1-.355.843h-6.828l.488-1.34h5.321l-.436.406c.3-.823.35-1.431.15-1.822-.185-.402-.614-.603-1.287-.603-.716 0-1.338.211-1.865.633-.513.412-.918 1.024-1.214 1.837l-.192.528c-.278.763-.27 1.33.022 1.702.296.361.876.542 1.742.542.449 0 .944-.04 1.486-.121.546-.09 1.042-.206 1.489-.346l-.286 1.446c-.461.15-.97.271-1.526.361-.557.091-1.097.136-1.62.136ZM100.079 301.041l2.85-7.832h1.828l-.303.919h.032a4.898 4.898 0 0 1 1.359-.783 4.234 4.234 0 0 1 1.563-.286c.545 0 .97.095 1.274.286.319.18.496.442.532.783h.033a4.716 4.716 0 0 1 1.402-.813 4.624 4.624 0 0 1 1.567-.256c.898 0 1.467.226 1.709.677.245.442.194 1.14-.153 2.094l-1.897 5.211h-1.907l1.732-4.759c.216-.593.272-1.024.167-1.296-.104-.271-.381-.406-.829-.406-.535 0-1.017.165-1.448.497-.43.331-.746.773-.947 1.325l-1.688 4.639h-1.924l1.782-4.895c.186-.512.215-.898.086-1.16-.126-.271-.397-.406-.814-.406-.321 0-.644.08-.969.241-.315.16-.602.376-.861.647a2.775 2.775 0 0 0-.564.934l-1.689 4.639h-1.923ZM93.09 301.192c-.834 0-1.414-.211-1.742-.633-.313-.432-.336-1.014-.069-1.747.333-.914.968-1.617 1.905-2.109.938-.492 2.107-.738 3.507-.738h1.17c.139-.381.191-.672.157-.873-.019-.211-.137-.357-.353-.437-.206-.08-.528-.12-.966-.12-.535 0-1.109.05-1.722.15-.603.101-1.192.251-1.767.452l.275-1.461a14.026 14.026 0 0 1 1.975-.452c.703-.11 1.386-.165 2.048-.165.844 0 1.472.095 1.884.286.422.191.657.512.707.964.049.452-.062 1.049-.332 1.792l-1.798 4.94h-1.875l.312-.904h-.032c-.401.312-.911.568-1.53.769-.614.19-1.199.286-1.754.286Zm1.231-1.446c.395 0 .782-.065 1.161-.196a3.31 3.31 0 0 0 .988-.557c.277-.231.468-.492.574-.783l.345-.949h-.881c-.92 0-1.656.115-2.21.346-.54.221-.894.562-1.062 1.024-.124.342-.095.613.089.814.183.2.515.301.996.301ZM79.295 301.041l4.002-10.995h2.132l2.368 7.893h.033l2.872-7.893h1.988l-4.002 10.995h-2.132l-2.353-7.892h-.032l-2.872 7.892h-2.004ZM226.655 216.052l.773-2.124h2.276l-.773 2.124h-2.276ZM220.81 216.203c-1.346 0-2.26-.352-2.742-1.055-.467-.712-.465-1.717.007-3.012.471-1.295 1.198-2.294 2.181-2.997.997-.713 2.168-1.069 3.514-1.069 1.347 0 2.259.356 2.737 1.069.481.703.486 1.702.015 2.997-.472 1.295-1.206 2.3-2.203 3.012-.993.703-2.162 1.055-3.509 1.055Zm.537-1.476c.738 0 1.377-.216 1.919-.648.546-.442.974-1.089 1.284-1.943.311-.853.352-1.496.125-1.928-.224-.441-.705-.662-1.442-.662a3.01 3.01 0 0 0-1.924.662c-.542.432-.968 1.075-1.279 1.928-.31.854-.354 1.501-.13 1.943.238.432.721.648 1.447.648ZM205.365 216.052l4.002-10.995h2.132l2.368 7.893h.032l2.873-7.893h1.987l-4.001 10.995h-2.132l-2.353-7.892h-.032l-2.872 7.892h-2.004ZM193.747 216.203c-1.112 0-1.847-.357-2.208-1.07-.36-.712-.306-1.712.162-2.997.467-1.285 1.141-2.284 2.02-2.997.879-.713 1.875-1.069 2.986-1.069.556 0 1.025.09 1.408.271.383.181.665.447.847.798h.048l1.486-4.082h1.939l-4.001 10.995h-1.844l.303-.919h-.032a5.034 5.034 0 0 1-3.114 1.07Zm1.061-1.506c.417 0 .814-.081 1.193-.241.39-.161.732-.382 1.027-.663.295-.281.506-.597.634-.949l.515-1.416c.132-.361.151-.677.057-.949a1.178 1.178 0 0 0-.528-.662c-.262-.161-.607-.241-1.034-.241-.674 0-1.278.221-1.812.663-.524.441-.936 1.074-1.236 1.897-.3.824-.348 1.456-.146 1.898.213.442.657.663 1.33.663ZM184.263 216.052l2.85-7.832h1.892l-.522 1.476h.032a7.044 7.044 0 0 1 1.296-.873 6.302 6.302 0 0 1 1.469-.558 6.078 6.078 0 0 1 1.514-.195l-.581 1.596c-.673 0-1.332.121-1.975.362a5.625 5.625 0 0 0-1.671.979c-.466.401-.791.853-.974 1.355l-1.343 3.69h-1.987ZM177.274 216.203c-.834 0-1.414-.211-1.742-.633-.313-.432-.336-1.014-.069-1.747.333-.914.968-1.617 1.905-2.109.938-.492 2.107-.738 3.507-.738h1.17c.139-.381.191-.672.157-.873-.019-.211-.137-.357-.353-.437-.206-.08-.528-.12-.966-.12-.535 0-1.109.05-1.722.15a10.7 10.7 0 0 0-1.767.452l.275-1.461a14.01 14.01 0 0 1 1.976-.452c.702-.11 1.385-.165 2.047-.165.844 0 1.472.095 1.884.286.422.191.657.512.707.964.049.452-.062 1.049-.332 1.792l-1.798 4.94h-1.876l.313-.904h-.032c-.401.312-.911.568-1.529.769a5.95 5.95 0 0 1-1.755.286Zm1.231-1.446a3.53 3.53 0 0 0 1.161-.196c.383-.141.712-.326.988-.557.277-.231.468-.492.574-.783l.345-.949h-.881c-.919 0-1.656.115-2.21.346-.54.221-.894.562-1.062 1.024-.124.342-.095.613.089.814.183.2.515.301.996.301ZM169.564 216.203c-1.272 0-2.285-.226-3.04-.678-.754-.452-1.224-1.099-1.408-1.943-.174-.843-.047-1.852.381-3.027.431-1.185 1.038-2.194 1.823-3.028a8.16 8.16 0 0 1 2.823-1.942c1.083-.452 2.26-.678 3.532-.678 1.453 0 2.633.296 3.539.888l-1.068 1.657c-.877-.582-1.883-.873-3.015-.873-.845 0-1.635.16-2.372.482a5.528 5.528 0 0 0-1.92 1.355 6.272 6.272 0 0 0-1.275 2.139c-.3.823-.393 1.536-.281 2.139.115.592.424 1.049.927 1.37.507.311 1.182.467 2.026.467 1.101 0 2.318-.291 3.652-.874l-.138 1.657a10.22 10.22 0 0 1-4.186.889ZM155.542 216.203c-.983 0-1.624-.191-1.923-.572-.299-.382-.292-1.005.023-1.868l1.48-4.067h-1.86l.538-1.476h1.859l.932-2.56h1.987l-.932 2.56h2.805l-.537 1.476h-2.805l-1.31 3.6c-.183.502-.225.854-.127 1.054.112.191.392.287.841.287.235 0 .488-.021.759-.061a5.13 5.13 0 0 0 .75-.165l-.377 1.521c-.4.1-.768.171-1.103.211-.335.04-.668.06-1 .06ZM150.744 206.835l.646-1.778h1.988l-.647 1.778h-1.987Zm-3.355 9.217 2.834-7.787h1.987l-2.834 7.787h-1.987ZM140.216 216.203c-1.112 0-1.848-.357-2.208-1.07-.36-.712-.306-1.712.161-2.997.468-1.285 1.142-2.284 2.021-2.997.879-.713 1.874-1.069 2.986-1.069.555 0 1.025.09 1.408.271.383.181.665.447.847.798h.048l1.486-4.082h1.939l-4.002 10.995h-1.843l.303-.919h-.032a5.047 5.047 0 0 1-3.114 1.07Zm1.061-1.506c.416 0 .814-.081 1.193-.241.39-.161.732-.382 1.027-.663.295-.281.506-.597.634-.949l.515-1.416c.132-.361.151-.677.057-.949a1.178 1.178 0 0 0-.528-.662c-.262-.161-.607-.241-1.035-.241-.673 0-1.277.221-1.811.663-.525.441-.936 1.074-1.236 1.897-.3.824-.348 1.456-.146 1.898.213.442.656.663 1.33.663ZM132.07 216.203c-1.475 0-2.48-.352-3.014-1.055-.535-.702-.565-1.707-.09-3.012.46-1.265 1.185-2.259 2.175-2.982 1.001-.723 2.137-1.084 3.408-1.084 1.229 0 2.056.341 2.48 1.024.425.683.409 1.651-.048 2.907a9.365 9.365 0 0 1-.355.843h-6.828l.488-1.34h5.321l-.436.406c.299-.823.35-1.431.15-1.822-.185-.402-.614-.603-1.287-.603-.716 0-1.338.211-1.865.633-.513.412-.918 1.024-1.214 1.837l-.192.528c-.278.763-.27 1.33.022 1.702.296.361.876.542 1.742.542.449 0 .944-.04 1.486-.121.546-.09 1.042-.206 1.489-.346l-.286 1.446c-.461.15-.97.271-1.526.361-.557.091-1.097.136-1.62.136ZM121.528 216.052l2.851-7.832h1.891l-.521 1.476h.032a7.037 7.037 0 0 1 1.295-.873 6.302 6.302 0 0 1 1.469-.558 6.078 6.078 0 0 1 1.514-.195l-.581 1.596c-.673 0-1.331.121-1.975.362a5.62 5.62 0 0 0-1.67.979c-.467.401-.792.853-.975 1.355l-1.343 3.69h-1.987ZM115.657 216.203c-1.272 0-2.285-.226-3.039-.678-.755-.452-1.224-1.099-1.409-1.943-.174-.843-.047-1.852.381-3.027.431-1.185 1.039-2.194 1.823-3.028a8.16 8.16 0 0 1 2.823-1.942c1.083-.452 2.261-.678 3.532-.678 1.453 0 2.633.296 3.539.888l-1.067 1.657c-.878-.582-1.884-.873-3.016-.873a5.86 5.86 0 0 0-2.372.482 5.515 5.515 0 0 0-1.919 1.355c-.547.592-.972 1.305-1.276 2.139-.299.823-.393 1.536-.281 2.139a2.02 2.02 0 0 0 .927 1.37c.507.311 1.182.467 2.026.467 1.101 0 2.318-.291 3.652-.874l-.138 1.657a10.22 10.22 0 0 1-4.186.889ZM250.155 296.737l.773-2.123h2.276l-.773 2.123h-2.276ZM247.967 288.755c1.111 0 1.847.356 2.207 1.069.36.713.306 1.712-.161 2.997-.468 1.285-1.142 2.285-2.021 2.997-.879.713-1.874 1.07-2.986 1.07-.545 0-1.014-.091-1.408-.271a1.91 1.91 0 0 1-.847-.799h-.032l-1.486 4.082h-1.971l4.002-10.995h1.875l-.318.919h.032c.448-.351.94-.618 1.476-.798a5.087 5.087 0 0 1 1.638-.271Zm-1.061 1.506c-.407 0-.804.08-1.194.241-.39.16-.732.381-1.027.662a2.51 2.51 0 0 0-.618.949l-.515 1.416c-.128.352-.152.668-.073.949.09.281.272.502.544.663.273.16.613.241 1.019.241.684 0 1.288-.221 1.812-.663.524-.442.936-1.074 1.235-1.898.3-.823.349-1.456.146-1.898-.202-.441-.646-.662-1.329-.662ZM230.786 296.737l4.081-3.946-1.198-3.886h2.18l.699 2.922h.032l2.827-2.922h2.18l-4.027 3.886 1.208 3.946h-2.179l-.716-2.967h-.032l-2.859 2.967h-2.196ZM221.68 296.737l4.002-10.995h7.822l-.592 1.627h-5.819l-1.03 2.832h5.497l-.581 1.596h-5.497l-1.206 3.314h5.818l-.592 1.626h-7.822Z" fill="#595959"/><path d="m248.61 327.133 2.773-7.616h-.028l-4.226 1.949.017-1.407 4.895-2.35h1.744l-3.43 9.424h-1.745ZM239.782 327.133l2.773-7.616h-.028l-4.226 1.949.017-1.407 4.895-2.35h1.744l-3.43 9.424h-1.745ZM228.096 327.65l8.697-10.457h1.676l-8.697 10.457h-1.676ZM227.192 317.58c.824 0 1.47.138 1.938.413.468.276.746.68.836 1.214.099.533.004 1.196-.284 1.988a9.144 9.144 0 0 1-1.874 3.111 8.93 8.93 0 0 1-2.845 2.079c-1.092.507-2.286.796-3.585.865l.173-1.304c1.157-.061 2.166-.289 3.024-.685a6.202 6.202 0 0 0 2.224-1.768l-.023-.013a6.34 6.34 0 0 1-1.208.413 5.452 5.452 0 0 1-1.261.142c-1.017 0-1.716-.28-2.099-.839-.373-.56-.38-1.334-.02-2.324a4.883 4.883 0 0 1 1.098-1.769A4.819 4.819 0 0 1 225 317.98a5.825 5.825 0 0 1 2.192-.4Zm-.503 1.381c-.677 0-1.26.168-1.749.504-.476.327-.822.787-1.039 1.381-.216.594-.215 1.059.001 1.395.229.327.664.49 1.305.49.458 0 .877-.069 1.257-.206.383-.147.712-.358.986-.633.287-.284.499-.615.637-.994.122-.336.163-.65.123-.943a.978.978 0 0 0-.415-.71c-.233-.189-.602-.284-1.106-.284ZM214.84 327.262c-1.337 0-2.187-.395-2.549-1.187-.362-.792-.244-2.01.355-3.654.598-1.644 1.366-2.861 2.305-3.653.938-.792 2.076-1.188 3.413-1.188 1.337 0 2.182.396 2.535 1.188.363.792.244 2.009-.354 3.653-.598 1.644-1.367 2.862-2.305 3.654-.929.792-2.063 1.187-3.4 1.187Zm.522-1.433c.76 0 1.414-.275 1.963-.826.548-.551 1.036-1.411 1.462-2.582.429-1.179.568-2.039.417-2.582-.147-.551-.601-.826-1.361-.826-.761 0-1.419.275-1.977.826-.546.543-1.033 1.403-1.462 2.582-.426 1.171-.565 2.031-.418 2.582.157.551.616.826 1.376.826ZM164.777 327.133l3.43-9.424h1.648l2.197 7.101h.027l2.585-7.101h1.511l-3.43 9.424h-1.649l-2.196-7.1h-.028l-2.584 7.1h-1.511ZM154.087 327.133l7.085-9.424h2.047l.21 9.424h-1.662l-.006-8.21h-.028l-5.983 8.21h-1.663Zm2.756-2.362.47-1.291h5.564l-.47 1.291h-5.564ZM151.223 327.133l3.431-9.424h1.511l-3.43 9.424h-1.512Zm-6.182 0 3.43-9.424h1.512l-3.431 9.424h-1.511Zm2.316-4.286.47-1.291h6.182l-.47 1.291h-6.182ZM141.019 327.133l3.43-9.424h1.566l-3.43 9.424h-1.566ZM130.206 327.133l7.085-9.424h2.047l.21 9.424h-1.662l-.006-8.21h-.028l-5.983 8.21h-1.663Zm2.756-2.362.47-1.291h5.564l-.47 1.291h-5.564ZM121.724 327.133l3.43-9.424h3.022c1.475 0 2.469.224 2.984.672.524.447.609 1.157.255 2.13-.347.955-.937 1.669-1.769 2.143-.822.473-1.902.71-3.239.71h-2.556l.451-1.24h2.336c.934 0 1.651-.12 2.151-.361.512-.25.868-.65 1.069-1.201.2-.551.134-.946-.2-1.187-.321-.25-.949-.375-1.883-.375h-1.58l-2.96 8.133h-1.511Zm5.866 0-2.978-4.311h1.909l3.033 4.311h-1.964ZM107.569 327.133l3.43-9.424h1.649l2.197 7.101h.027l2.584-7.101h1.512l-3.43 9.424h-1.649l-2.197-7.1h-.027l-2.584 7.1h-1.512ZM96.88 327.133l7.085-9.424h2.047l.21 9.424h-1.662l-.007-8.21h-.027l-5.983 8.21H96.88Zm2.756-2.362.47-1.291h5.564l-.47 1.291h-5.564ZM94.016 327.133l3.43-9.424h1.511l-3.43 9.424h-1.51Zm-6.182 0 3.43-9.424h1.511l-3.43 9.424h-1.511Zm2.316-4.286.47-1.291h6.182l-.47 1.291H90.15ZM79.14 327.133l3.43-9.424h6.595l-.46 1.265H83.62l-.95 2.608h4.81l-.452 1.24h-4.808l-1.11 3.046h5.084l-.46 1.265H79.14ZM69.668 327.133l3.43-9.424h3.023c1.474 0 2.47.224 2.984.672.524.447.609 1.157.255 2.13-.348.955-.937 1.669-1.77 2.143-.822.473-1.902.71-3.239.71h-2.555l.451-1.24h2.335c.935 0 1.652-.12 2.152-.361.512-.25.868-.65 1.069-1.201.2-.551.133-.946-.2-1.187-.322-.25-.95-.375-1.883-.375h-1.58l-2.96 8.133h-1.512Zm5.866 0-2.978-4.311h1.91l3.033 4.311h-1.965Z" fill="#424242"/><path fill-rule="evenodd" clip-rule="evenodd" d="M150.38 159.157c3.592-2.36 6.536-5.745 7.906-9.507 1.369-3.762.889-7.148-.985-9.508 3.215-2.112 6.948-3.402 10.532-3.402 7.588 0 11.635 5.78 9.04 12.91-2.595 7.13-10.85 12.91-18.437 12.91-3.584 0-6.379-1.291-8.056-3.403Zm0 0c-3.214 2.112-6.948 3.403-10.531 3.403-7.588 0-11.635-5.78-9.04-12.91 2.595-7.13 10.85-12.91 18.437-12.91 3.584 0 6.378 1.29 8.055 3.402-3.591 2.36-6.536 5.746-7.905 9.508-1.369 3.762-.889 7.147.984 9.507ZM489.538 136.99c.799-.431 1.639-.291 1.878.311 1.273 3.209 2.192 8.683.826 14.779-1.374 6.138-5.094 12.99-13.151 18.687-.746.527-1.652.533-2.024.012-.371-.52-.068-1.369.678-1.896 7.027-4.969 10.3-10.92 11.54-16.453 1.248-5.575.402-10.641-.759-13.569-.239-.603.214-1.44 1.012-1.871Zm-7.977 4.919c.798-.431 1.639-.293 1.88.309.9 2.258 1.553 6.099.594 10.387-.969 4.332-3.609 9.201-9.342 13.245-.746.527-1.651.531-2.022.01-.37-.521-.066-1.371.68-1.897 4.702-3.316 6.893-7.283 7.726-11.007.842-3.765.263-7.198-.525-9.175-.241-.602.211-1.44 1.009-1.872Zm-6.717 5.369c.796-.434 1.64-.3 1.884.3.496 1.22.859 3.281.344 5.6-.525 2.363-1.99 5.071-5.191 7.312-.748.524-1.651.524-2.018 0-.367-.524-.058-1.373.69-1.897 2.163-1.514 3.172-3.314 3.56-5.061.398-1.791.112-3.441-.27-4.381-.244-.6.204-1.439 1.001-1.873Zm-5.944 5.557c-.525 0-1.097.401-1.277.894-.179.494.101.895.626.895.526 0 1.098-.401 1.277-.895.18-.493-.1-.894-.626-.894Zm-4.131.894c.719-1.975 3.006-3.576 5.108-3.576s3.223 1.601 2.504 3.576c-.719 1.976-3.006 3.577-5.108 3.577s-3.223-1.601-2.504-3.577Z" fill="#424242"/><path d="m340.155 251.009 4.424-12.157h-.045l-6.302 3.851 1.284-3.528 6.355-3.873h3.298l-5.717 15.707h-3.297ZM324.975 248.427a111.107 111.107 0 0 0 3.651-2.797 41.244 41.244 0 0 0 2.555-2.238c.688-.674 1.23-1.284 1.627-1.829.397-.545.684-1.061.862-1.549.276-.76.304-1.32.084-1.678-.221-.359-.705-.538-1.453-.538-.977 0-2.226.265-3.747.796l1.018-2.797c1.317-.474 2.8-.71 4.448-.71 1.664 0 2.75.373 3.257 1.119.512.731.481 1.886-.093 3.464a10.013 10.013 0 0 1-1.034 2.022 15.17 15.17 0 0 1-1.63 2.087 28.789 28.789 0 0 1-2.295 2.216 39.631 39.631 0 0 1-2.937 2.346l-.031.086h4.877l-.94 2.582h-9.159l.94-2.582ZM319.64 244.21c-.488 0-.828-.137-1.018-.409-.191-.273-.206-.631-.044-1.076a2.14 2.14 0 0 1 .827-1.076 2.244 2.244 0 0 1 1.316-.409c.489 0 .828.137 1.019.409.196.258.211.617.044 1.076a2.209 2.209 0 0 1-.827 1.076 2.244 2.244 0 0 1-1.317.409Zm-2.553 7.014c-1.267 0-2.188-.237-2.764-.71-.57-.488-.825-1.277-.764-2.367.061-1.09.421-2.539 1.078-4.346l.47-1.291c.663-1.822 1.359-3.271 2.086-4.346.733-1.091 1.559-1.872 2.479-2.346.926-.487 2.022-.731 3.289-.731 1.252 0 2.163.244 2.733.731.591.474.856 1.255.795 2.346-.056 1.075-.415 2.524-1.078 4.346l-.47 1.291c-.658 1.807-1.353 3.256-2.086 4.346-.732 1.09-1.569 1.879-2.51 2.367-.92.473-2.006.71-3.258.71Zm.972-2.668c.519 0 .955-.129 1.308-.387.354-.259.704-.739 1.052-1.442.368-.717.802-1.764 1.303-3.141l.314-.861c.501-1.377.826-2.417.975-3.12.169-.717.171-1.205.006-1.463-.166-.258-.508-.387-1.027-.387-.504 0-.94.129-1.309.387-.353.258-.714.746-1.082 1.463-.347.703-.772 1.743-1.273 3.12l-.313.861c-.501 1.377-.837 2.424-1.006 3.141-.149.703-.141 1.183.025 1.442.181.258.523.387 1.027.387ZM302.078 248.427a111.107 111.107 0 0 0 3.651-2.797 40.903 40.903 0 0 0 2.554-2.238c.689-.674 1.231-1.284 1.628-1.829.397-.545.684-1.061.861-1.549.277-.76.305-1.32.085-1.678-.221-.359-.705-.538-1.453-.538-.977 0-2.226.265-3.748.796l1.019-2.797c1.317-.474 2.8-.71 4.448-.71 1.664 0 2.749.373 3.256 1.119.513.731.482 1.886-.093 3.464a9.955 9.955 0 0 1-1.033 2.022 15.17 15.17 0 0 1-1.63 2.087 28.789 28.789 0 0 1-2.295 2.216 39.631 39.631 0 0 1-2.937 2.346l-.032.086h4.877l-.939 2.582h-9.159l.94-2.582ZM277.167 235.087c1.297 0 2.252.208 2.864.624.611.416.913 1.097.904 2.044.007.946-.277 2.209-.851 3.787-.804 2.209-1.77 4.023-2.898 5.443-1.127 1.42-2.457 2.475-3.99 3.163-1.518.689-3.297 1.047-5.337 1.076l.971-2.668a8.21 8.21 0 0 0 2.621-.409c.837-.287 1.566-.674 2.186-1.162.626-.502 1.086-1.076 1.382-1.721h-.091a7.475 7.475 0 0 1-1.378.452 6.283 6.283 0 0 1-1.284.129c-1.465 0-2.397-.416-2.797-1.248-.379-.846-.247-2.152.395-3.916.726-1.994 1.65-3.421 2.772-4.282 1.143-.875 2.653-1.312 4.531-1.312Zm-.963 2.582c-.687 0-1.277.236-1.77.71-.487.459-.909 1.176-1.264 2.151-.355.976-.458 1.7-.31 2.173.154.459.574.689 1.261.689a2.48 2.48 0 0 0 1.762-.689c.493-.473.916-1.197 1.271-2.173.355-.975.456-1.692.303-2.151-.149-.474-.566-.71-1.253-.71ZM260.014 251.009l4.425-12.157h-.046l-6.302 3.851 1.285-3.528 6.355-3.873h3.297l-5.716 15.707h-3.298ZM250.949 244.21c-.489 0-.828-.137-1.019-.409-.191-.273-.205-.631-.043-1.076.167-.459.442-.818.826-1.076a2.244 2.244 0 0 1 1.317-.409c.488 0 .828.137 1.019.409.196.258.21.617.043 1.076a2.203 2.203 0 0 1-.827 1.076 2.244 2.244 0 0 1-1.316.409Zm-2.553 7.014c-1.267 0-2.188-.237-2.764-.71-.571-.488-.825-1.277-.764-2.367.061-1.09.42-2.539 1.078-4.346l.47-1.291c.663-1.822 1.358-3.271 2.085-4.346.733-1.091 1.559-1.872 2.48-2.346.925-.487 2.021-.731 3.288-.731 1.252 0 2.163.244 2.734.731.591.474.856 1.255.795 2.346-.056 1.075-.415 2.524-1.079 4.346l-.469 1.291c-.658 1.807-1.353 3.256-2.086 4.346-.733 1.09-1.569 1.879-2.51 2.367-.92.473-2.006.71-3.258.71Zm.971-2.668c.519 0 .955-.129 1.309-.387.353-.259.704-.739 1.051-1.442.368-.717.803-1.764 1.304-3.141l.313-.861c.501-1.377.826-2.417.975-3.12.17-.717.172-1.205.006-1.463-.165-.258-.508-.387-1.027-.387-.503 0-.94.129-1.308.387-.354.258-.715.746-1.082 1.463-.348.703-.772 1.743-1.273 3.12l-.314.861c-.501 1.377-.836 2.424-1.006 3.141-.149.703-.14 1.183.025 1.442.181.258.523.387 1.027.387ZM233.386 248.427a111.107 111.107 0 0 0 3.651-2.797 41.244 41.244 0 0 0 2.555-2.238c.688-.674 1.23-1.284 1.627-1.829.397-.545.684-1.061.862-1.549.276-.76.304-1.32.084-1.678-.221-.359-.705-.538-1.453-.538-.977 0-2.226.265-3.747.796l1.018-2.797c1.317-.474 2.8-.71 4.449-.71 1.663 0 2.749.373 3.256 1.119.512.731.481 1.886-.093 3.464a9.961 9.961 0 0 1-1.034 2.022 15.17 15.17 0 0 1-1.63 2.087 28.789 28.789 0 0 1-2.295 2.216 39.424 39.424 0 0 1-2.937 2.346l-.031.086h4.877l-.94 2.582h-9.159l.94-2.582ZM202.771 251.009l4.425-12.157h-.046l-6.301 3.851 1.284-3.528 6.355-3.873h3.297l-5.716 15.707h-3.298ZM191.323 251.009l4.425-12.157h-.046l-6.302 3.851 1.284-3.528 6.356-3.873h3.297l-5.717 15.707h-3.297ZM185.578 235.087c1.297 0 2.252.208 2.864.624.612.416.913 1.097.904 2.044.007.946-.277 2.209-.851 3.787-.804 2.209-1.77 4.023-2.897 5.443-1.128 1.42-2.458 2.475-3.991 3.163-1.518.689-3.297 1.047-5.337 1.076l.971-2.668a8.21 8.21 0 0 0 2.621-.409 7.347 7.347 0 0 0 2.186-1.162c.626-.502 1.087-1.076 1.383-1.721h-.092a7.475 7.475 0 0 1-1.378.452 6.28 6.28 0 0 1-1.283.129c-1.466 0-2.398-.416-2.798-1.248-.379-.846-.247-2.152.395-3.916.726-1.994 1.65-3.421 2.772-4.282 1.143-.875 2.653-1.312 4.531-1.312Zm-.963 2.582c-.687 0-1.277.236-1.77.71-.487.459-.908 1.176-1.264 2.151-.355.976-.458 1.7-.31 2.173.154.459.574.689 1.261.689a2.48 2.48 0 0 0 1.762-.689c.493-.473.917-1.197 1.272-2.173.355-.975.455-1.692.302-2.151-.148-.474-.566-.71-1.253-.71ZM170.809 244.21c-.489 0-.828-.137-1.019-.409-.191-.273-.206-.631-.044-1.076a2.14 2.14 0 0 1 .827-1.076 2.244 2.244 0 0 1 1.316-.409c.489 0 .829.137 1.019.409.196.258.211.617.044 1.076a2.209 2.209 0 0 1-.827 1.076 2.244 2.244 0 0 1-1.316.409Zm-2.553 7.014c-1.267 0-2.189-.237-2.764-.71-.571-.488-.826-1.277-.765-2.367.061-1.09.421-2.539 1.079-4.346l.469-1.291c.664-1.822 1.359-3.271 2.086-4.346.733-1.091 1.559-1.872 2.479-2.346.926-.487 2.022-.731 3.289-.731 1.252 0 2.163.244 2.733.731.591.474.856 1.255.795 2.346-.055 1.075-.415 2.524-1.078 4.346l-.47 1.291c-.657 1.807-1.353 3.256-2.085 4.346-.733 1.09-1.57 1.879-2.51 2.367-.921.473-2.007.71-3.258.71Zm.971-2.668c.519 0 .955-.129 1.308-.387.354-.259.704-.739 1.052-1.442.368-.717.802-1.764 1.303-3.141l.314-.861c.501-1.377.826-2.417.975-3.12.169-.717.171-1.205.006-1.463-.166-.258-.508-.387-1.027-.387-.504 0-.94.129-1.309.387-.353.258-.714.746-1.082 1.463-.347.703-.771 1.743-1.273 3.12l-.313.861c-.501 1.377-.836 2.424-1.006 3.141-.149.703-.141 1.183.025 1.442.181.258.523.387 1.027.387ZM130.349 248.427A111.107 111.107 0 0 0 134 245.63a40.903 40.903 0 0 0 2.554-2.238c.688-.674 1.231-1.284 1.628-1.829.397-.545.684-1.061.861-1.549.277-.76.305-1.32.084-1.678-.22-.359-.704-.538-1.452-.538-.977 0-2.226.265-3.748.796l1.018-2.797c1.318-.474 2.801-.71 4.449-.71 1.664 0 2.749.373 3.256 1.119.513.731.482 1.886-.093 3.464a9.955 9.955 0 0 1-1.033 2.022 15.17 15.17 0 0 1-1.63 2.087 28.789 28.789 0 0 1-2.295 2.216 39.631 39.631 0 0 1-2.937 2.346l-.032.086h4.877l-.939 2.582h-9.159l.94-2.582ZM125.014 244.21c-.488 0-.828-.137-1.019-.409-.191-.273-.205-.631-.043-1.076.167-.459.442-.818.826-1.076.39-.272.829-.409 1.317-.409s.828.137 1.019.409c.196.258.21.617.043 1.076a2.201 2.201 0 0 1-.826 1.076 2.244 2.244 0 0 1-1.317.409Zm-2.553 7.014c-1.267 0-2.188-.237-2.764-.71-.57-.488-.825-1.277-.764-2.367.061-1.09.42-2.539 1.078-4.346l.47-1.291c.663-1.822 1.358-3.271 2.086-4.346.732-1.091 1.559-1.872 2.479-2.346.926-.487 2.022-.731 3.289-.731 1.251 0 2.163.244 2.733.731.591.474.856 1.255.795 2.346-.056 1.075-.415 2.524-1.078 4.346l-.47 1.291c-.658 1.807-1.353 3.256-2.086 4.346-.732 1.09-1.569 1.879-2.51 2.367-.92.473-2.006.71-3.258.71Zm.971-2.668c.519 0 .956-.129 1.309-.387.354-.259.704-.739 1.051-1.442.368-.717.803-1.764 1.304-3.141l.313-.861c.501-1.377.827-2.417.976-3.12.169-.717.171-1.205.005-1.463-.165-.258-.507-.387-1.026-.387-.504 0-.94.129-1.309.387-.354.258-.714.746-1.082 1.463-.348.703-.772 1.743-1.273 3.12l-.313.861c-.502 1.377-.837 2.424-1.006 3.141-.149.703-.141 1.183.025 1.442.18.258.523.387 1.026.387ZM111.013 251.224c-1.283 0-2.237-.208-2.864-.624-.612-.416-.921-1.097-.928-2.044.009-.947.3-2.209.875-3.787.809-2.223 1.775-4.038 2.897-5.444 1.127-1.42 2.457-2.474 3.99-3.163 1.533-.688 3.312-1.047 5.338-1.075l-.971 2.668c-.916 0-1.793.143-2.63.43a7.046 7.046 0 0 0-2.178 1.14c-.62.488-1.081 1.062-1.382 1.722h.091a7.475 7.475 0 0 1 1.378-.452 6.283 6.283 0 0 1 1.284-.129c1.465 0 2.387.423 2.766 1.269.4.832.278 2.13-.364 3.895-.726 1.994-1.66 3.428-2.803 4.303-1.122.861-2.622 1.291-4.499 1.291Zm.962-2.582a2.48 2.48 0 0 0 1.762-.689c.493-.473.917-1.197 1.272-2.173.355-.975.456-1.692.302-2.151-.148-.474-.566-.71-1.253-.71a2.46 2.46 0 0 0-1.769.71c-.488.459-.909 1.176-1.264 2.151-.355.976-.459 1.7-.31 2.173.153.459.573.689 1.26.689ZM99.734 251.009l4.425-12.157h-.046l-6.302 3.851 1.284-3.528 6.356-3.873h3.297l-5.717 15.707h-3.297ZM391.873 306.83c.238-.655.997-1.187 1.695-1.187h10.738c.698 0 1.07.532.831 1.187l-2.751 7.561c-.167.458-.599.875-1.111 1.071l-6.243 2.403c-.4.154-.799.154-1.086 0l-4.495-2.403c-.368-.196-.497-.613-.33-1.071l2.752-7.561ZM412.085 306.83c.239-.655.998-1.187 1.696-1.187h3.158c.698 0 1.07.532.831 1.187l-.864 2.375c-.238.655-.998 1.187-1.695 1.187h-3.158c-.698 0-1.07-.532-.832-1.187l.864-2.375ZM424.718 306.83c.239-.655.998-1.187 1.696-1.187h10.738c.697 0 1.07.532.831 1.187l-2.592 7.123c-.239.656-.998 1.187-1.696 1.187h-10.738c-.698 0-1.07-.531-.831-1.187l2.592-7.123ZM387.336 319.295c.239-.656.998-1.187 1.695-1.187h10.738c.698 0 1.07.531.832 1.187l-2.593 7.123c-.238.655-.998 1.187-1.695 1.187h-10.738c-.698 0-1.07-.532-.831-1.187l2.592-7.123ZM405.487 314.547c.239-.656.998-1.187 1.695-1.187h10.738c.698 0 1.07.531.832 1.187l-6.049 16.619c-.239.656-.998 1.187-1.696 1.187h-10.738c-.697 0-1.07-.531-.831-1.187l6.049-16.619ZM420.182 319.295c.238-.656.997-1.187 1.695-1.187h10.738c.698 0 1.07.531.831 1.187l-2.592 7.123c-.239.655-.998 1.187-1.696 1.187H418.42c-.697 0-1.069-.532-.831-1.187l2.593-7.123ZM382.799 331.76c.239-.656.998-1.187 1.696-1.187h10.738c.697 0 1.069.531.831 1.187l-2.593 7.122c-.238.656-.997 1.187-1.695 1.187h-10.738c-.698 0-1.07-.531-.831-1.187l2.592-7.122ZM401.284 336.508c.238-.656.997-1.187 1.695-1.187h3.158c.698 0 1.07.531.831 1.187l-.864 2.374c-.238.656-.997 1.187-1.695 1.187h-3.158c-.698 0-1.07-.531-.831-1.187l.864-2.374ZM415.804 331.322c.167-.458.599-.875 1.11-1.072l6.244-2.402c.399-.154.798-.154 1.086 0l4.495 2.402c.368.197.496.614.33 1.072l-2.752 7.56c-.239.656-.998 1.187-1.695 1.187h-10.738c-.698 0-1.07-.531-.832-1.187l2.752-7.56Z" fill="#424242"/><g filter="url('#filter1_b_1_137')"><path d="M84.527 35.502c6.92-19.013 28.932-34.426 49.165-34.426h361.777c20.233 0 31.025 15.413 24.105 34.426l-68.916 189.344c-6.92 19.013-28.932 34.426-49.165 34.426H39.717c-20.233 0-31.026-15.413-24.106-34.426L84.527 35.502Z" fill="#fff" fill-opacity=".1"/></g><g filter="url('#filter2_b_1_137')"><path fill-rule="evenodd" clip-rule="evenodd" d="M83.382 35.502C90.518 15.895 113.218 0 134.084 0H495.86c20.866 0 31.995 15.895 24.859 35.502l-68.916 189.344c-7.136 19.607-29.836 35.502-50.702 35.502H39.325c-20.865 0-31.995-15.895-24.859-35.502L83.382 35.502ZM133.3 2.152c-19.601 0-40.925 14.931-47.63 33.35L16.757 224.846c-6.704 18.419 3.751 33.35 23.352 33.35h361.776c19.601 0 40.926-14.931 47.63-33.35l68.915-189.344c6.704-18.419-3.751-33.35-23.352-33.35H133.301Z" fill="url('#paint2_linear_1_137')" fill-opacity=".5"/></g><path d="M112.818 193.499c-1.475 0-2.479-.351-3.014-1.054-.535-.703-.565-1.707-.09-3.012.461-1.265 1.186-2.259 2.175-2.982 1.001-.723 2.137-1.085 3.408-1.085 1.229 0 2.056.342 2.481 1.024.424.683.408 1.652-.049 2.907a8.996 8.996 0 0 1-.186.467 7.25 7.25 0 0 1-.169.377h-6.828l.488-1.341h5.322l-.437.407c.3-.823.35-1.431.151-1.823-.186-.401-.615-.602-1.288-.602-.716 0-1.337.211-1.865.633-.513.411-.918 1.024-1.214 1.837l-.192.527c-.277.763-.27 1.331.022 1.702.296.362.877.542 1.742.542.449 0 .944-.04 1.487-.12.545-.09 1.041-.206 1.488-.347l-.286 1.446a10.18 10.18 0 0 1-1.526.362c-.556.09-1.096.135-1.62.135ZM94.95 193.349l2.852-7.832h1.827l-.303.919h.032a4.893 4.893 0 0 1 1.359-.784 4.259 4.259 0 0 1 1.563-.286c.545 0 .97.096 1.274.286.319.181.497.442.533.784h.032a4.754 4.754 0 0 1 1.402-.814 4.653 4.653 0 0 1 1.567-.256c.898 0 1.468.226 1.709.678.245.442.194 1.14-.153 2.094l-1.896 5.211h-1.908l1.732-4.76c.216-.592.272-1.024.167-1.295-.104-.271-.381-.407-.829-.407-.535 0-1.017.166-1.447.497a2.87 2.87 0 0 0-.948 1.326l-1.688 4.639h-1.923l1.781-4.895c.187-.512.215-.899.086-1.16-.126-.271-.397-.407-.814-.407-.321 0-.644.081-.97.241a3.205 3.205 0 0 0-.86.648 2.766 2.766 0 0 0-.564.934l-1.689 4.639h-1.923ZM87.962 193.499c-.834 0-1.414-.21-1.742-.632-.313-.432-.336-1.014-.069-1.747.333-.914.968-1.617 1.906-2.109.937-.492 2.106-.738 3.506-.738h1.17c.139-.381.191-.673.158-.873-.02-.211-.138-.357-.354-.437-.206-.081-.528-.121-.966-.121-.534 0-1.108.05-1.722.151-.603.1-1.192.251-1.767.452l.275-1.461a13.888 13.888 0 0 1 1.976-.452 13.118 13.118 0 0 1 2.047-.166c.845 0 1.472.096 1.884.286.422.191.658.512.707.964.05.452-.062 1.05-.332 1.793l-1.798 4.94h-1.875l.313-.904h-.032c-.402.311-.912.567-1.53.768-.615.191-1.2.286-1.755.286Zm1.231-1.446c.395 0 .783-.065 1.161-.195.383-.141.712-.327.989-.558.276-.231.467-.492.573-.783l.346-.949h-.882c-.919 0-1.656.116-2.21.347-.54.221-.894.562-1.062 1.024-.124.341-.095.612.089.813.183.201.515.301.996.301ZM74.168 193.349l4.001-10.995h2.132l2.369 7.892h.032l2.872-7.892h1.988l-4.002 10.995h-2.132l-2.352-7.892h-.032l-2.873 7.892h-2.004ZM221.528 108.359l.773-2.124h2.276l-.773 2.124h-2.276ZM215.682 108.509c-1.346 0-2.26-.351-2.741-1.054-.467-.713-.465-1.717.006-3.013.472-1.295 1.199-2.294 2.181-2.997.997-.713 2.168-1.069 3.515-1.069 1.346 0 2.258.356 2.736 1.069.481.703.486 1.702.015 2.997-.471 1.296-1.206 2.3-2.202 3.013-.993.703-2.163 1.054-3.51 1.054Zm.538-1.476c.737 0 1.377-.216 1.918-.648.546-.441.974-1.089 1.285-1.943.31-.853.352-1.496.124-1.927-.224-.442-.704-.663-1.442-.663-.726 0-1.368.221-1.924.663-.542.431-.968 1.074-1.278 1.927-.311.854-.354 1.502-.131 1.943.239.432.721.648 1.448.648ZM200.237 108.358l4.002-10.994h2.132l2.369 7.892h.032l2.872-7.892h1.988l-4.002 10.994h-2.132l-2.353-7.892h-.032l-2.872 7.892h-2.004ZM188.619 108.509c-1.111 0-1.847-.356-2.207-1.069-.361-.713-.307-1.712.161-2.997.468-1.286 1.141-2.285 2.02-2.998.88-.713 1.875-1.069 2.986-1.069.556 0 1.025.09 1.408.271.383.181.666.447.848.798h.048l1.485-4.081h1.94l-4.002 10.994h-1.843l.302-.918h-.032a5.042 5.042 0 0 1-3.114 1.069Zm1.061-1.506c.417 0 .815-.08 1.194-.241a3.293 3.293 0 0 0 1.026-.663c.295-.281.506-.597.634-.949l.515-1.415c.132-.362.151-.678.057-.949a1.183 1.183 0 0 0-.528-.663c-.262-.161-.607-.241-1.034-.241a2.77 2.77 0 0 0-1.812.663c-.524.442-.936 1.074-1.236 1.898-.299.823-.348 1.455-.145 1.897.213.442.656.663 1.329.663ZM179.135 108.358l2.851-7.832h1.891l-.521 1.476h.032a7.037 7.037 0 0 1 1.295-.873 6.254 6.254 0 0 1 1.469-.557 6.033 6.033 0 0 1 1.514-.196l-.581 1.596c-.673 0-1.331.121-1.975.362a5.62 5.62 0 0 0-1.67.979c-.467.401-.792.853-.975 1.355l-1.343 3.69h-1.987ZM172.146 108.509c-.834 0-1.414-.211-1.741-.633-.313-.431-.337-1.014-.07-1.747.333-.913.968-1.616 1.906-2.108.937-.492 2.106-.738 3.506-.738h1.17c.139-.382.191-.673.158-.874-.02-.211-.138-.356-.354-.437-.206-.08-.528-.12-.966-.12-.534 0-1.108.05-1.722.15a10.8 10.8 0 0 0-1.767.452l.275-1.461c.615-.19 1.273-.341 1.976-.451a13.109 13.109 0 0 1 2.048-.166c.844 0 1.471.095 1.883.286.422.191.658.512.707.964.049.452-.061 1.049-.332 1.792l-1.798 4.94h-1.875l.313-.903h-.032c-.402.311-.912.567-1.53.768-.615.191-1.2.286-1.755.286Zm1.231-1.446c.396 0 .783-.065 1.161-.196.383-.14.712-.326.989-.557.276-.231.467-.492.573-.783l.346-.949h-.882c-.919 0-1.655.115-2.21.346-.54.221-.894.563-1.062 1.025-.124.341-.094.612.089.813.183.201.515.301.996.301ZM164.436 108.509c-1.272 0-2.285-.226-3.039-.678-.755-.452-1.224-1.099-1.409-1.943-.174-.843-.047-1.852.381-3.027.431-1.185 1.039-2.194 1.823-3.027a8.167 8.167 0 0 1 2.823-1.943c1.083-.452 2.261-.678 3.532-.678 1.453 0 2.633.296 3.539.889l-1.067 1.656c-.878-.582-1.884-.873-3.016-.873-.844 0-1.635.16-2.371.482a5.523 5.523 0 0 0-1.92 1.355c-.547.593-.972 1.306-1.276 2.139-.299.823-.393 1.536-.281 2.139a2.02 2.02 0 0 0 .927 1.37c.507.312 1.182.467 2.026.467 1.101 0 2.318-.291 3.652-.873l-.138 1.656a10.22 10.22 0 0 1-4.186.889ZM150.415 108.509c-.983 0-1.625-.191-1.924-.572-.299-.382-.291-1.004.023-1.868l1.48-4.066h-1.859l.537-1.476h1.859l.932-2.56h1.988l-.932 2.56h2.805l-.538 1.476h-2.805l-1.31 3.599c-.183.502-.225.854-.127 1.055.112.19.393.286.841.286.236 0 .489-.02.76-.061.271-.04.521-.095.749-.165l-.377 1.521c-.4.1-.768.171-1.103.211a8.42 8.42 0 0 1-.999.06ZM145.616 99.14l.647-1.776h1.987l-.647 1.777h-1.987Zm-3.355 9.218 2.834-7.786h1.988l-2.835 7.786h-1.987ZM135.088 108.509c-1.112 0-1.847-.356-2.208-1.069-.36-.713-.306-1.712.162-2.997.468-1.286 1.141-2.285 2.02-2.998.879-.713 1.875-1.069 2.986-1.069.556 0 1.025.09 1.408.271.383.181.665.447.847.798h.049l1.485-4.081h1.94l-4.002 10.994h-1.844l.303-.918h-.032a5.055 5.055 0 0 1-3.114 1.069Zm1.061-1.506c.417 0 .814-.08 1.194-.241a3.305 3.305 0 0 0 1.026-.663c.295-.281.506-.597.634-.949l.515-1.415c.132-.362.151-.678.057-.949a1.183 1.183 0 0 0-.528-.663c-.262-.161-.607-.241-1.034-.241a2.77 2.77 0 0 0-1.812.663c-.524.442-.936 1.074-1.236 1.898-.3.823-.348 1.455-.146 1.897.214.442.657.663 1.33.663ZM126.942 108.509c-1.475 0-2.479-.351-3.014-1.054-.535-.703-.565-1.707-.09-3.013.461-1.265 1.186-2.259 2.175-2.982 1.001-.723 2.137-1.084 3.408-1.084 1.229 0 2.056.341 2.481 1.024.424.683.408 1.652-.049 2.907-.051.14-.113.296-.186.467-.072.17-.129.296-.169.376h-6.828l.488-1.34h5.322l-.437.407c.3-.824.35-1.431.15-1.823-.185-.402-.614-.602-1.287-.602-.716 0-1.338.21-1.865.632-.513.412-.918 1.024-1.214 1.838l-.192.527c-.277.763-.27 1.33.022 1.702.296.361.877.542 1.742.542.449 0 .944-.04 1.486-.12a10.943 10.943 0 0 0 1.489-.347l-.286 1.446c-.461.151-.969.271-1.526.361-.556.091-1.096.136-1.62.136ZM116.4 108.358l2.851-7.832h1.891l-.521 1.476h.032a7.01 7.01 0 0 1 1.296-.873 6.237 6.237 0 0 1 1.469-.557 6.025 6.025 0 0 1 1.513-.196l-.581 1.596c-.673 0-1.331.121-1.974.362a5.612 5.612 0 0 0-1.671.979c-.467.401-.792.853-.974 1.355l-1.343 3.69H116.4ZM110.529 108.509c-1.272 0-2.285-.226-3.039-.678-.755-.452-1.224-1.099-1.409-1.943-.174-.843-.047-1.852.381-3.027.431-1.185 1.039-2.194 1.823-3.027a8.186 8.186 0 0 1 2.823-1.943c1.083-.452 2.261-.678 3.532-.678 1.454 0 2.633.296 3.54.889l-1.068 1.656c-.878-.582-1.883-.873-3.016-.873-.844 0-1.635.16-2.371.482a5.533 5.533 0 0 0-1.92 1.355c-.547.593-.972 1.306-1.275 2.139-.3.823-.394 1.536-.282 2.139a2.02 2.02 0 0 0 .928 1.37c.506.312 1.181.467 2.026.467 1.1 0 2.317-.291 3.651-.873l-.138 1.656a10.217 10.217 0 0 1-4.186.889ZM245.027 189.045l.773-2.124h2.276l-.773 2.124h-2.276ZM242.839 181.062c1.111 0 1.847.357 2.207 1.07.36.713.307 1.712-.161 2.997-.468 1.285-1.141 2.284-2.021 2.997-.879.713-1.874 1.07-2.985 1.07-.545 0-1.015-.091-1.408-.271a1.907 1.907 0 0 1-.848-.799h-.032l-1.485 4.082h-1.972l4.002-10.995h1.875l-.318.919h.032a4.907 4.907 0 0 1 1.476-.798 5.088 5.088 0 0 1 1.638-.272Zm-1.061 1.507c-.406 0-.804.08-1.194.241-.39.16-.732.381-1.027.662-.28.271-.486.588-.617.949l-.516 1.416c-.128.351-.152.668-.073.949.09.281.272.502.545.663.272.16.612.241 1.018.241.684 0 1.288-.221 1.812-.663.524-.442.936-1.075 1.235-1.898.3-.823.349-1.456.146-1.898-.202-.441-.645-.662-1.329-.662ZM225.659 189.045l4.08-3.946-1.198-3.886h2.18l.7 2.922h.032l2.826-2.922h2.18l-4.027 3.886 1.209 3.946h-2.18l-.715-2.967h-.033l-2.859 2.967h-2.195ZM216.552 189.045l4.002-10.995h7.822l-.592 1.627h-5.818l-1.031 2.831h5.498l-.581 1.597h-5.498l-1.206 3.313h5.818l-.592 1.627h-7.822Z" fill="#EDEDED"/><path d="m243.484 219.44 2.772-7.617h-.028l-4.226 1.95.017-1.408 4.895-2.349h1.744l-3.43 9.424h-1.744ZM234.656 219.44l2.772-7.617h-.028l-4.226 1.95.017-1.408 4.895-2.349h1.744l-3.43 9.424h-1.744ZM222.969 219.956l8.697-10.456h1.676l-8.697 10.456h-1.676ZM222.065 209.887c.825 0 1.471.137 1.938.413.468.275.746.68.836 1.213.099.534.004 1.197-.284 1.988a9.158 9.158 0 0 1-1.874 3.112 8.927 8.927 0 0 1-2.845 2.078c-1.091.508-2.286.796-3.584.865l.172-1.304c1.158-.06 2.166-.288 3.024-.684a6.194 6.194 0 0 0 2.224-1.769l-.023-.013a6.32 6.32 0 0 1-1.208.414 5.507 5.507 0 0 1-1.261.142c-1.016 0-1.716-.28-2.099-.84-.373-.559-.38-1.334-.019-2.323a4.859 4.859 0 0 1 1.097-1.769 4.827 4.827 0 0 1 1.714-1.123 5.832 5.832 0 0 1 2.192-.4Zm-.502 1.381c-.678 0-1.261.168-1.75.504-.476.327-.822.787-1.038 1.381-.217.594-.216 1.059 0 1.394.229.327.664.491 1.306.491.458 0 .876-.069 1.256-.207a2.762 2.762 0 0 0 1.623-1.626c.122-.336.163-.65.123-.943a.976.976 0 0 0-.415-.71c-.233-.189-.602-.284-1.105-.284ZM209.713 219.569c-1.337 0-2.187-.396-2.549-1.188-.362-.791-.244-2.009.355-3.653.598-1.644 1.366-2.862 2.305-3.654.938-.791 2.076-1.187 3.413-1.187 1.338 0 2.183.396 2.536 1.187.362.792.244 2.01-.355 3.654-.598 1.644-1.366 2.862-2.305 3.653-.929.792-2.062 1.188-3.4 1.188Zm.522-1.433c.76 0 1.414-.275 1.963-.826.548-.551 1.036-1.412 1.462-2.582.429-1.179.568-2.04.417-2.582-.147-.551-.601-.826-1.361-.826s-1.419.275-1.977.826c-.545.542-1.033 1.403-1.462 2.582-.426 1.17-.565 2.031-.417 2.582.156.551.615.826 1.375.826ZM159.649 219.44l3.43-9.424h1.649l2.196 7.1h.028l2.584-7.1h1.511l-3.43 9.424h-1.649l-2.196-7.1h-.028l-2.584 7.1h-1.511ZM148.96 219.44l7.084-9.424h2.047l.211 9.424h-1.663l-.006-8.211h-.028l-5.983 8.211h-1.662Zm2.755-2.362.47-1.291h5.564l-.47 1.291h-5.564ZM146.096 219.44l3.43-9.424h1.511l-3.43 9.424h-1.511Zm-6.183 0 3.431-9.424h1.511l-3.43 9.424h-1.512Zm2.316-4.286.47-1.291h6.182l-.47 1.291h-6.182ZM135.891 219.44l3.43-9.424h1.567l-3.43 9.424h-1.567ZM125.079 219.44l7.084-9.424h2.047l.211 9.424h-1.663l-.006-8.211h-.028l-5.983 8.211h-1.662Zm2.755-2.362.47-1.291h5.564l-.47 1.291h-5.564ZM116.596 219.44l3.43-9.424h3.022c1.475 0 2.47.224 2.984.671.525.448.61 1.158.256 2.13-.348.956-.938 1.67-1.77 2.143-.822.474-1.902.71-3.239.71h-2.556l.452-1.239h2.335c.934 0 1.651-.12 2.151-.361a2.07 2.07 0 0 0 1.069-1.201c.201-.551.134-.947-.2-1.188-.321-.249-.949-.374-1.883-.374h-1.58l-2.96 8.133h-1.511Zm5.866 0-2.978-4.312h1.91l3.033 4.312h-1.965ZM102.442 219.44l3.43-9.424h1.648l2.197 7.1h.027l2.585-7.1h1.511l-3.43 9.424h-1.649l-2.196-7.1h-.028l-2.584 7.1h-1.511ZM91.752 219.44l7.085-9.424h2.047l.21 9.424h-1.662l-.006-8.211h-.028l-5.983 8.211h-1.663Zm2.756-2.362.47-1.291h5.564l-.47 1.291h-5.564ZM88.888 219.44l3.43-9.424h1.512l-3.43 9.424h-1.512Zm-6.182 0 3.43-9.424h1.511l-3.43 9.424h-1.51Zm2.316-4.286.47-1.291h6.182l-.47 1.291h-6.182ZM74.012 219.44l3.43-9.424h6.595l-.46 1.265h-5.084l-.949 2.608h4.808l-.45 1.239h-4.81l-1.108 3.047h5.083l-.46 1.265h-6.595ZM64.54 219.44l3.43-9.424h3.023c1.475 0 2.47.224 2.984.671.524.448.61 1.158.255 2.13-.347.956-.937 1.67-1.769 2.143-.822.474-1.902.71-3.24.71h-2.555l.451-1.239h2.336c.934 0 1.65-.12 2.15-.361.513-.25.87-.65 1.07-1.201.2-.551.134-.947-.2-1.188-.321-.249-.949-.374-1.883-.374h-1.58l-2.96 8.133H64.54Zm5.867 0-2.978-4.312h1.91l3.032 4.312h-1.964Z" fill="#fff"/><path fill-rule="evenodd" clip-rule="evenodd" d="M145.253 51.464c3.591-2.36 6.536-5.746 7.905-9.508 1.369-3.762.889-7.147-.984-9.507 3.214-2.112 6.948-3.402 10.532-3.402 7.587 0 11.634 5.78 9.039 12.91-2.595 7.13-10.85 12.91-18.437 12.91-3.584 0-6.378-1.291-8.055-3.403Zm0 0c-3.215 2.112-6.948 3.402-10.532 3.402-7.587 0-11.635-5.78-9.04-12.91 2.595-7.13 10.85-12.91 18.437-12.91 3.584 0 6.379 1.29 8.056 3.403-3.591 2.36-6.536 5.745-7.906 9.507-1.369 3.762-.888 7.148.985 9.508ZM484.412 29.297c.798-.431 1.639-.292 1.878.311 1.272 3.209 2.191 8.682.826 14.778-1.375 6.138-5.095 12.99-13.152 18.688-.746.527-1.652.532-2.023.012-.372-.52-.069-1.37.677-1.897 7.027-4.968 10.301-10.92 11.54-16.453 1.249-5.575.403-10.64-.759-13.568-.239-.603.215-1.44 1.013-1.871Zm-7.978 4.919c.798-.432 1.64-.294 1.88.308.901 2.258 1.553 6.1.594 10.388-.968 4.331-3.608 9.2-9.341 13.245-.747.526-1.652.53-2.023.01-.37-.522-.065-1.37.681-1.897 4.701-3.317 6.893-7.284 7.725-11.007.842-3.766.264-7.198-.525-9.176-.24-.602.212-1.44 1.009-1.871Zm-6.717 5.369c.797-.435 1.64-.3 1.884.3.497 1.22.859 3.28.344 5.6-.525 2.362-1.99 5.07-5.19 7.312-.748.524-1.652.524-2.019 0-.367-.524-.058-1.373.69-1.897 2.163-1.514 3.172-3.315 3.56-5.061.398-1.79.113-3.441-.27-4.381-.244-.6.204-1.439 1.001-1.873Zm-5.943 5.557c-.526 0-1.098.4-1.277.894-.18.494.1.894.626.894.525 0 1.097-.4 1.277-.894.179-.494-.101-.894-.626-.894Zm-4.132.894c.719-1.975 3.006-3.577 5.108-3.577s3.223 1.602 2.504 3.577c-.719 1.975-3.006 3.577-5.108 3.577s-3.223-1.602-2.504-3.577Z" fill="#fff"/><path d="m335.028 143.316 4.424-12.157h-.045l-6.302 3.851 1.284-3.528 6.356-3.873h3.297l-5.717 15.707h-3.297ZM319.848 140.734a110.997 110.997 0 0 0 3.651-2.798 41.264 41.264 0 0 0 2.555-2.237c.688-.674 1.23-1.284 1.627-1.829.397-.545.684-1.062.862-1.549.276-.761.304-1.32.084-1.679-.221-.358-.705-.538-1.453-.538-.977 0-2.226.266-3.747.797l1.018-2.798c1.317-.473 2.8-.71 4.449-.71 1.663 0 2.749.373 3.256 1.119.512.732.481 1.887-.093 3.464a9.968 9.968 0 0 1-1.034 2.023 15.17 15.17 0 0 1-1.63 2.087 28.789 28.789 0 0 1-2.295 2.216 39.426 39.426 0 0 1-2.937 2.345l-.031.087h4.877l-.94 2.582h-9.159l.94-2.582ZM314.514 136.516c-.489 0-.828-.136-1.019-.408-.191-.273-.206-.632-.044-1.076a2.14 2.14 0 0 1 .827-1.076 2.237 2.237 0 0 1 1.316-.409c.489 0 .829.136 1.019.409.197.258.211.617.044 1.076a2.208 2.208 0 0 1-.827 1.076 2.243 2.243 0 0 1-1.316.408Zm-2.553 7.015c-1.267 0-2.189-.237-2.764-.71-.571-.488-.825-1.277-.764-2.367.06-1.09.42-2.539 1.078-4.346l.47-1.291c.663-1.822 1.358-3.271 2.085-4.347.733-1.09 1.559-1.872 2.48-2.345.925-.488 2.021-.732 3.288-.732 1.252 0 2.163.244 2.734.732.59.473.855 1.255.794 2.345-.055 1.076-.415 2.525-1.078 4.347l-.47 1.291c-.657 1.807-1.353 3.256-2.085 4.346-.733 1.09-1.57 1.879-2.51 2.367-.921.473-2.007.71-3.258.71Zm.971-2.668c.519 0 .955-.129 1.309-.388.353-.258.703-.738 1.051-1.441.368-.717.802-1.765 1.304-3.142l.313-.86c.501-1.377.826-2.417.975-3.12.17-.717.171-1.205.006-1.463-.166-.258-.508-.388-1.027-.388-.504 0-.94.13-1.309.388-.353.258-.714.746-1.082 1.463-.347.703-.771 1.743-1.273 3.12l-.313.86c-.501 1.377-.836 2.425-1.006 3.142-.149.703-.14 1.183.025 1.441.181.259.523.388 1.027.388ZM296.951 140.734a110.997 110.997 0 0 0 3.651-2.798 41.264 41.264 0 0 0 2.555-2.237c.688-.674 1.23-1.284 1.627-1.829.397-.545.684-1.062.861-1.549.277-.761.305-1.32.085-1.679-.221-.358-.705-.538-1.453-.538-.977 0-2.226.266-3.747.797l1.018-2.798c1.317-.473 2.8-.71 4.448-.71 1.664 0 2.75.373 3.257 1.119.512.732.481 1.887-.093 3.464a10.02 10.02 0 0 1-1.034 2.023 15.17 15.17 0 0 1-1.63 2.087 28.789 28.789 0 0 1-2.295 2.216 39.633 39.633 0 0 1-2.937 2.345l-.031.087h4.877l-.94 2.582h-9.159l.94-2.582ZM272.04 127.393c1.297 0 2.252.208 2.864.624.612.416.913 1.098.904 2.044.007.947-.277 2.209-.851 3.787-.804 2.209-1.77 4.024-2.897 5.444-1.128 1.42-2.458 2.474-3.991 3.163-1.517.688-3.297 1.047-5.337 1.076l.971-2.668c.931 0 1.805-.137 2.622-.409a7.354 7.354 0 0 0 2.185-1.162c.626-.502 1.087-1.076 1.383-1.721h-.092a7.552 7.552 0 0 1-1.378.452 6.28 6.28 0 0 1-1.283.129c-1.466 0-2.398-.416-2.798-1.248-.379-.847-.247-2.152.395-3.916.726-1.994 1.65-3.421 2.772-4.282 1.143-.875 2.653-1.313 4.531-1.313Zm-.963 2.582c-.687 0-1.277.237-1.77.71-.487.459-.908 1.177-1.263 2.152-.356.975-.459 1.7-.311 2.173.154.459.574.689 1.261.689a2.48 2.48 0 0 0 1.762-.689c.493-.473.917-1.198 1.272-2.173.355-.975.455-1.693.302-2.152-.148-.473-.566-.71-1.253-.71ZM254.888 143.316l4.424-12.157h-.046l-6.301 3.851 1.284-3.528 6.355-3.873h3.298l-5.717 15.707h-3.297ZM245.822 136.516c-.488 0-.828-.136-1.019-.408-.191-.273-.205-.632-.043-1.076.167-.459.442-.818.826-1.076a2.24 2.24 0 0 1 1.317-.409c.488 0 .828.136 1.019.409.196.258.21.617.043 1.076a2.212 2.212 0 0 1-.826 1.076c-.39.272-.828.408-1.317.408Zm-2.553 7.015c-1.267 0-2.188-.237-2.764-.71-.57-.488-.825-1.277-.764-2.367.061-1.09.42-2.539 1.078-4.346l.47-1.291c.663-1.822 1.358-3.271 2.086-4.347.732-1.09 1.559-1.872 2.479-2.345.925-.488 2.022-.732 3.289-.732 1.251 0 2.162.244 2.733.732.591.473.856 1.255.795 2.345-.056 1.076-.415 2.525-1.078 4.347l-.47 1.291c-.658 1.807-1.353 3.256-2.086 4.346-.732 1.09-1.569 1.879-2.51 2.367-.92.473-2.006.71-3.258.71Zm.971-2.668c.519 0 .955-.129 1.309-.388.353-.258.704-.738 1.051-1.441.368-.717.803-1.765 1.304-3.142l.313-.86c.501-1.377.826-2.417.975-3.12.17-.717.172-1.205.006-1.463-.165-.258-.507-.388-1.026-.388-.504 0-.94.13-1.309.388-.354.258-.714.746-1.082 1.463-.348.703-.772 1.743-1.273 3.12l-.313.86c-.502 1.377-.837 2.425-1.006 3.142-.149.703-.141 1.183.024 1.441.181.259.523.388 1.027.388ZM228.259 140.734a110.997 110.997 0 0 0 3.651-2.798 40.972 40.972 0 0 0 2.555-2.237c.688-.674 1.23-1.284 1.627-1.829.397-.545.684-1.062.862-1.549.277-.761.305-1.32.084-1.679-.221-.358-.705-.538-1.453-.538-.977 0-2.226.266-3.747.797l1.018-2.798c1.317-.473 2.8-.71 4.449-.71 1.664 0 2.749.373 3.256 1.119.512.732.481 1.887-.093 3.464a9.968 9.968 0 0 1-1.034 2.023c-.428.674-.972 1.37-1.63 2.087a28.789 28.789 0 0 1-2.295 2.216 39.22 39.22 0 0 1-2.937 2.345l-.031.087h4.877l-.94 2.582h-9.159l.94-2.582ZM197.645 143.316l4.424-12.157h-.046l-6.301 3.851 1.284-3.528 6.355-3.873h3.298l-5.717 15.707h-3.297ZM186.196 143.316l4.425-12.157h-.046l-6.302 3.851 1.284-3.528 6.356-3.873h3.297l-5.717 15.707h-3.297ZM180.451 127.393c1.297 0 2.252.208 2.864.624.612.416.913 1.098.905 2.044.006.947-.278 2.209-.852 3.787-.804 2.209-1.77 4.024-2.897 5.444-1.128 1.42-2.458 2.474-3.991 3.163-1.517.688-3.296 1.047-5.337 1.076l.971-2.668c.931 0 1.805-.137 2.622-.409a7.372 7.372 0 0 0 2.186-1.162c.625-.502 1.086-1.076 1.382-1.721h-.092a7.552 7.552 0 0 1-1.378.452 6.28 6.28 0 0 1-1.283.129c-1.466 0-2.398-.416-2.797-1.248-.379-.847-.248-2.152.394-3.916.726-1.994 1.65-3.421 2.772-4.282 1.143-.875 2.653-1.313 4.531-1.313Zm-.963 2.582c-.687 0-1.277.237-1.769.71-.488.459-.909 1.177-1.264 2.152-.355.975-.459 1.7-.31 2.173.153.459.573.689 1.26.689a2.48 2.48 0 0 0 1.762-.689c.493-.473.917-1.198 1.272-2.173.355-.975.456-1.693.302-2.152-.148-.473-.566-.71-1.253-.71ZM165.682 136.516c-.489 0-.828-.136-1.019-.408-.191-.273-.205-.632-.044-1.076a2.14 2.14 0 0 1 .827-1.076 2.237 2.237 0 0 1 1.317-.409c.488 0 .828.136 1.019.409.196.258.21.617.043 1.076a2.208 2.208 0 0 1-.827 1.076 2.243 2.243 0 0 1-1.316.408Zm-2.553 7.015c-1.267 0-2.188-.237-2.764-.71-.571-.488-.825-1.277-.764-2.367.061-1.09.42-2.539 1.078-4.346l.47-1.291c.663-1.822 1.358-3.271 2.085-4.347.733-1.09 1.559-1.872 2.48-2.345.925-.488 2.021-.732 3.288-.732 1.252 0 2.163.244 2.734.732.591.473.856 1.255.795 2.345-.056 1.076-.416 2.525-1.079 4.347l-.469 1.291c-.658 1.807-1.354 3.256-2.086 4.346-.733 1.09-1.569 1.879-2.51 2.367-.92.473-2.006.71-3.258.71Zm.971-2.668c.519 0 .955-.129 1.309-.388.353-.258.704-.738 1.051-1.441.368-.717.802-1.765 1.304-3.142l.313-.86c.501-1.377.826-2.417.975-3.12.17-.717.172-1.205.006-1.463-.165-.258-.508-.388-1.027-.388-.503 0-.94.13-1.308.388-.354.258-.715.746-1.083 1.463-.347.703-.771 1.743-1.272 3.12l-.314.86c-.501 1.377-.836 2.425-1.006 3.142-.149.703-.14 1.183.025 1.441.181.259.523.388 1.027.388ZM125.222 140.734a110.997 110.997 0 0 0 3.651-2.798 41.264 41.264 0 0 0 2.555-2.237c.688-.674 1.23-1.284 1.627-1.829.397-.545.684-1.062.861-1.549.277-.761.305-1.32.085-1.679-.221-.358-.705-.538-1.453-.538-.977 0-2.226.266-3.747.797l1.018-2.798c1.317-.473 2.8-.71 4.448-.71 1.664 0 2.75.373 3.257 1.119.512.732.481 1.887-.093 3.464a10.02 10.02 0 0 1-1.034 2.023 15.17 15.17 0 0 1-1.63 2.087 28.789 28.789 0 0 1-2.295 2.216 39.633 39.633 0 0 1-2.937 2.345l-.032.087h4.878l-.94 2.582h-9.159l.94-2.582ZM119.887 136.516c-.488 0-.828-.136-1.019-.408-.19-.273-.205-.632-.043-1.076a2.14 2.14 0 0 1 .827-1.076 2.237 2.237 0 0 1 1.316-.409c.489 0 .828.136 1.019.409.196.258.211.617.044 1.076a2.213 2.213 0 0 1-.827 1.076 2.244 2.244 0 0 1-1.317.408Zm-2.553 7.015c-1.267 0-2.188-.237-2.764-.71-.57-.488-.825-1.277-.764-2.367.061-1.09.421-2.539 1.078-4.346l.47-1.291c.663-1.822 1.358-3.271 2.086-4.347.733-1.09 1.559-1.872 2.479-2.345.926-.488 2.022-.732 3.289-.732 1.252 0 2.163.244 2.733.732.591.473.856 1.255.795 2.345-.056 1.076-.415 2.525-1.078 4.347l-.47 1.291c-.658 1.807-1.353 3.256-2.086 4.346-.732 1.09-1.569 1.879-2.51 2.367-.92.473-2.006.71-3.258.71Zm.972-2.668c.519 0 .955-.129 1.308-.388.354-.258.704-.738 1.052-1.441.367-.717.802-1.765 1.303-3.142l.313-.86c.502-1.377.827-2.417.976-3.12.169-.717.171-1.205.006-1.463-.166-.258-.508-.388-1.027-.388-.504 0-.94.13-1.309.388-.353.258-.714.746-1.082 1.463-.347.703-.772 1.743-1.273 3.12l-.313.86c-.501 1.377-.837 2.425-1.006 3.142-.149.703-.141 1.183.025 1.441.18.259.523.388 1.027.388ZM105.886 143.531c-1.282 0-2.237-.208-2.864-.624-.612-.416-.921-1.098-.928-2.044.009-.947.301-2.209.875-3.787.809-2.224 1.775-4.038 2.897-5.444 1.127-1.42 2.458-2.474 3.99-3.163 1.533-.688 3.312-1.047 5.338-1.076l-.971 2.668c-.916 0-1.793.144-2.63.431a7.003 7.003 0 0 0-2.178 1.14c-.62.488-1.081 1.062-1.382 1.721h.092a7.441 7.441 0 0 1 1.378-.451c.413-.086.84-.129 1.283-.129 1.465 0 2.388.423 2.766 1.269.4.832.278 2.13-.364 3.894-.725 1.994-1.66 3.429-2.802 4.304-1.123.86-2.623 1.291-4.5 1.291Zm.962-2.582c.687 0 1.275-.23 1.762-.689.493-.473.917-1.198 1.272-2.173.355-.975.456-1.693.302-2.152-.148-.473-.566-.71-1.252-.71-.687 0-1.277.237-1.77.71-.488.459-.909 1.177-1.264 2.152-.355.975-.458 1.7-.31 2.173.153.459.574.689 1.26.689ZM94.607 143.316l4.425-12.157h-.046l-6.302 3.851 1.285-3.528 6.355-3.873h3.297l-5.717 15.707h-3.297ZM386.745 199.137c.239-.656.998-1.187 1.695-1.187h10.738c.698 0 1.07.531.832 1.187l-2.752 7.56c-.167.458-.599.875-1.11 1.072l-6.244 2.403c-.399.153-.798.153-1.086 0l-4.495-2.403c-.368-.197-.496-.614-.33-1.072l2.752-7.56ZM406.958 199.137c.238-.656.997-1.187 1.695-1.187h3.158c.698 0 1.07.531.832 1.187l-.865 2.374c-.238.656-.997 1.187-1.695 1.187h-3.158c-.698 0-1.07-.531-.831-1.187l.864-2.374ZM419.591 199.137c.238-.656.997-1.187 1.695-1.187h10.738c.698 0 1.07.531.831 1.187l-2.592 7.123c-.239.655-.998 1.187-1.695 1.187H417.83c-.698 0-1.07-.532-.832-1.187l2.593-7.123ZM382.208 211.602c.239-.656.998-1.187 1.696-1.187h10.738c.697 0 1.07.531.831 1.187l-2.593 7.122c-.238.656-.997 1.187-1.695 1.187h-10.738c-.698 0-1.07-.531-.831-1.187l2.592-7.122ZM400.359 206.853c.239-.655.998-1.187 1.696-1.187h10.738c.697 0 1.07.532.831 1.187l-6.049 16.62c-.239.655-.998 1.187-1.695 1.187h-10.738c-.698 0-1.07-.532-.832-1.187l6.049-16.62ZM415.054 211.602c.239-.656.998-1.187 1.695-1.187h10.738c.698 0 1.07.531.832 1.187l-2.593 7.122c-.239.656-.998 1.187-1.695 1.187h-10.738c-.698 0-1.07-.531-.831-1.187l2.592-7.122ZM377.672 224.066c.238-.655.997-1.187 1.695-1.187h10.738c.698 0 1.07.532.831 1.187l-2.592 7.123c-.239.656-.998 1.187-1.696 1.187H375.91c-.697 0-1.07-.531-.831-1.187l2.593-7.123ZM396.156 228.815c.239-.656.998-1.187 1.695-1.187h3.159c.697 0 1.069.531.831 1.187l-.864 2.374c-.239.656-.998 1.187-1.696 1.187h-3.158c-.698 0-1.07-.531-.831-1.187l.864-2.374ZM410.676 223.629c.167-.458.599-.875 1.111-1.072l6.243-2.403c.4-.153.799-.153 1.086 0l4.495 2.403c.368.197.497.614.33 1.072l-2.752 7.56c-.238.656-.997 1.187-1.695 1.187h-10.738c-.698 0-1.07-.531-.831-1.187l2.751-7.56Z" fill="#fff"/><defs><linearGradient id="paint0_linear_1_137" x1="129.934" y1="244.535" x2="283.134" y2="484.209" gradientUnits="userSpaceOnUse"><stop stop-color="#fff"/><stop offset="1" stop-color="#fff" stop-opacity=".55"/></linearGradient><linearGradient id="paint1_linear_1_137" x1="129.934" y1="120.603" x2="283.134" y2="360.278" gradientUnits="userSpaceOnUse"><stop stop-color="#fff"/><stop offset="1" stop-color="#fff" stop-opacity=".55"/></linearGradient><linearGradient id="paint2_linear_1_137" x1="124.806" y1="12.91" x2="278.006" y2="252.584" gradientUnits="userSpaceOnUse"><stop stop-color="#fff"/><stop offset="1" stop-color="#fff" stop-opacity=".55"/></linearGradient><filter id="filter0_d_1_137" x=".341" y="230.77" width="551.598" height="301.374" filterUnits="userSpaceOnUse" color-interpolation-filters="sRGB"><feFlood flood-opacity="0" result="BackgroundImageFix"/><feColorMatrix in="SourceAlpha" values="0 0 0 0 0 0 0 0 0 0 0 0 0 0 0 0 0 0 127 0" result="hardAlpha"/><feOffset dx="3.419" dy="19.658"/><feGaussianBlur stdDeviation="10.257"/><feComposite in2="hardAlpha" operator="out"/><feColorMatrix values="0 0 0 0 0 0 0 0 0 0 0 0 0 0 0 0 0 0 0.08 0"/><feBlend in2="BackgroundImageFix" result="effect1_dropShadow_1_137"/><feBlend in="SourceGraphic" in2="effect1_dropShadow_1_137" result="shape"/></filter><filter id="filter1_b_1_137" x="-.158" y="-12.6" width="535.502" height="285.547" filterUnits="userSpaceOnUse" color-interpolation-filters="sRGB"><feFlood flood-opacity="0" result="BackgroundImageFix"/><feGaussianBlur in="BackgroundImageFix" stdDeviation="6.838"/><feComposite in2="SourceAlpha" operator="in" result="effect1_backgroundBlur_1_137"/><feBlend in="SourceGraphic" in2="effect1_backgroundBlur_1_137" result="shape"/></filter><filter id="filter2_b_1_137" x="-1.368" y="-13.675" width="537.922" height="287.698" filterUnits="userSpaceOnUse" color-interpolation-filters="sRGB"><feFlood flood-opacity="0" result="BackgroundImageFix"/><feGaussianBlur in="BackgroundImageFix" stdDeviation="6.838"/><feComposite in2="SourceAlpha" operator="in" result="effect1_backgroundBlur_1_137"/><feBlend in="SourceGraphic" in2="effect1_backgroundBlur_1_137" result="shape"/></filter></defs></svg>