<svg width="457" height="492" fill="none" xmlns="http://www.w3.org/2000/svg"><path d="M7.896 189.726c-3.658-18.822 8.634-31.114 27.456-27.455l336.536 65.416c18.822 3.658 37.045 21.882 40.704 40.704l36.434 187.438c3.659 18.821-8.633 31.113-27.455 27.455L85.035 417.868c-18.822-3.659-37.046-21.883-40.704-40.704L7.896 189.726Z" fill="#2BB32A"/><path fill-rule="evenodd" clip-rule="evenodd" d="M6.831 189.519c-3.772-19.41 8.904-32.086 28.314-28.313l336.536 65.416c19.41 3.773 38.203 22.566 41.976 41.976l36.434 187.438c3.773 19.409-8.903 32.086-28.313 28.313L85.242 418.933c-19.41-3.773-38.204-22.566-41.976-41.976L6.83 189.519Zm28.728-26.183C17.325 159.792 5.417 171.7 8.96 189.933l36.435 187.438c3.544 18.233 21.198 35.888 39.432 39.432l336.536 65.416c18.233 3.544 30.141-8.364 26.597-26.597l-36.434-187.438c-3.544-18.234-21.199-35.888-39.432-39.432L35.559 163.336Z" fill="url('#paint0_linear_18_11')" fill-opacity=".5"/><path d="M118.29 362.571c-1.372-.267-2.493-.819-3.364-1.658s-1.432-1.904-1.683-3.196c-.243-1.253-.096-2.171.44-2.755.547-.583 1.412-.759 2.595-.529 1.143.222 2.093.732 2.851 1.53.757.797 1.257 1.817 1.498 3.06a8.505 8.505 0 0 1 .118.826l-6.352-1.235-.258-1.327 4.951.963-.191.35c-.158-.815-.434-1.447-.827-1.897-.386-.457-.892-.747-1.518-.869-.666-.129-1.132-.019-1.399.331-.259.342-.31.915-.153 1.72l.101.522c.147.756.455 1.356.924 1.801.467.435 1.103.731 1.908.887.418.082.857.129 1.319.142.46.003.86-.029 1.201-.097l.502 1.475a5.55 5.55 0 0 1-1.228.106 7.923 7.923 0 0 1-1.435-.15ZM101.589 359.181l-1.507-7.753 1.7.331.207.915.03.006a1.58 1.58 0 0 1 .848-.581c.351-.114.785-.121 1.301-.02.507.098.953.276 1.338.532.392.249.696.557.911.924l.03.005c.226-.309.517-.511.872-.605.355-.093.796-.089 1.322.013.835.163 1.485.504 1.95 1.025.463.511.786 1.238.969 2.183l1.003 5.158-1.774-.345-.916-4.711c-.114-.587-.292-1.032-.533-1.337-.241-.305-.57-.499-.987-.58-.497-.096-.858-.009-1.083.263-.224.272-.283.682-.177 1.228l.893 4.593-1.789-.348-.942-4.846c-.099-.507-.278-.91-.537-1.209a1.652 1.652 0 0 0-.972-.576c-.299-.058-.557-.032-.774.079-.208.113-.36.289-.457.528-.087.241-.097.536-.029.884l.893 4.592-1.79-.348ZM95.168 358.077c-.776-.151-1.427-.479-1.956-.983a3.482 3.482 0 0 1-.992-1.857c-.176-.905.042-1.532.653-1.882.61-.35 1.567-.398 2.87-.145l1.088.212c-.073-.378-.18-.676-.317-.894a1.32 1.32 0 0 0-.561-.525c-.234-.122-.555-.223-.963-.302a8.347 8.347 0 0 0-1.521-.152 5.602 5.602 0 0 0-1.404.157l-.52-1.493c.47-.09 1.003-.13 1.598-.119.595.01 1.2.075 1.817.195.785.153 1.42.367 1.904.643.493.277.883.659 1.169 1.145.286.486.5 1.097.643 1.832l.95 4.891-1.744-.339-.189-.898-.03-.006c-.208.256-.546.435-1.015.535a3.89 3.89 0 0 1-1.48-.015Zm.378-1.304c.367.071.693.072.976.003.28-.079.489-.216.623-.41.135-.194.174-.435.118-.723l-.183-.939-.82-.16c-.855-.166-1.479-.177-1.871-.033-.385.135-.533.432-.444.889.065.338.237.629.514.875.277.245.64.411 1.087.498ZM82.256 355.423l-2.116-10.884 1.983.386 6.394 8.76.03.006-1.518-7.813 1.849.359 2.115 10.885-1.983-.386-6.38-8.757-.029-.006 1.519 7.813-1.864-.363ZM174.206 292.342l-.409-2.102 2.118.411.408 2.102-2.117-.411ZM168.849 291.444c-1.253-.244-2.29-.78-3.111-1.609-.813-.837-1.344-1.897-1.593-3.179-.25-1.282-.104-2.206.437-2.77.549-.572 1.449-.737 2.701-.493 1.253.243 2.291.784 3.114 1.623.821.829 1.356 1.885 1.605 3.167.249 1.283.1 2.21-.449 2.782-.551.563-1.452.722-2.704.479Zm-.285-1.461c.686.133 1.167.021 1.441-.337.273-.368.328-.974.163-1.819-.164-.845-.467-1.516-.907-2.013a2.922 2.922 0 0 0-1.693-.96c-.676-.132-1.156-.014-1.438.351-.275.358-.331.96-.166 1.805.164.844.467 1.52.91 2.027a2.99 2.99 0 0 0 1.69.946ZM154.401 288.492l-2.116-10.884 1.983.385 6.395 8.761.029.006-1.518-7.813 1.849.359 2.115 10.884-1.983-.385-6.379-8.758-.03-.005 1.519 7.812-1.864-.362ZM143.673 286.55c-1.034-.201-1.907-.71-2.621-1.528-.714-.818-1.194-1.863-1.441-3.135-.248-1.272-.152-2.205.288-2.799.439-.594 1.175-.79 2.209-.589a4.68 4.68 0 0 1 1.454.541c.452.26.856.592 1.212.996l.045.008-.786-4.04 1.804.351 2.116 10.884-1.714-.334-.207-.915-.03-.006c-.222.282-.539.474-.95.576-.402.094-.862.091-1.379-.01Zm.187-1.398c.388.075.716.063.983-.039a1.04 1.04 0 0 0 .603-.514c.125-.243.153-.539.086-.887l-.273-1.401a2.357 2.357 0 0 0-.451-.992 3.323 3.323 0 0 0-.843-.795 2.99 2.99 0 0 0-1.09-.441c-.626-.122-1.071.002-1.334.372-.252.371-.3.965-.141 1.78.158.815.449 1.474.872 1.977.433.505.962.818 1.588.94ZM134.771 284.676l-1.507-7.753 1.759.342.299 1.464.03.006a2.17 2.17 0 0 1 .741-.688c.31-.179.667-.286 1.071-.323a4.307 4.307 0 0 1 1.304.067l.307 1.581c-.626-.122-1.174-.114-1.645.024-.46.14-.805.384-1.034.732-.221.34-.283.758-.186 1.255l.71 3.653-1.849-.36ZM128.349 283.572c-.775-.151-1.427-.479-1.955-.983a3.472 3.472 0 0 1-.993-1.857c-.175-.905.042-1.532.653-1.882.611-.35 1.568-.398 2.87-.145l1.088.212c-.073-.378-.179-.676-.317-.894a1.32 1.32 0 0 0-.561-.525c-.234-.122-.555-.223-.962-.302a8.355 8.355 0 0 0-1.522-.152 5.596 5.596 0 0 0-1.404.157l-.52-1.492a7.704 7.704 0 0 1 1.598-.12c.595.01 1.201.075 1.817.195.785.153 1.42.367 1.904.643.494.278.884.659 1.169 1.145.286.486.501 1.097.644 1.833l.95 4.89-1.744-.339-.189-.898-.03-.005c-.208.256-.547.434-1.015.534-.47.09-.964.085-1.481-.015Zm.378-1.304c.368.071.693.072.976.003.281-.079.489-.216.624-.41.134-.193.173-.434.117-.723l-.182-.939-.82-.159c-.855-.167-1.479-.178-1.872-.034-.385.135-.533.432-.444.889.066.338.237.63.514.875.278.245.64.411 1.087.498ZM121.177 282.177c-1.183-.23-2.245-.651-3.187-1.265a8.13 8.13 0 0 1-2.342-2.306c-.609-.921-1.027-1.964-1.253-3.127-.228-1.173-.199-2.128.088-2.866.295-.746.827-1.26 1.594-1.541.768-.281 1.744-.307 2.927-.077 1.351.263 2.606.789 3.764 1.578l-.114 1.556c-1.126-.773-2.215-1.263-3.269-1.467-.785-.153-1.435-.126-1.95.08a1.753 1.753 0 0 0-1.066 1.084c-.194.526-.211 1.202-.051 2.027.159.815.45 1.551.874 2.207a5.653 5.653 0 0 0 1.591 1.615c.636.42 1.347.706 2.132.859 1.024.199 2.002.112 2.933-.262l.751 1.724c-.929.384-2.07.444-3.422.181ZM108.134 279.642c-.914-.178-1.612-.495-2.093-.952-.481-.457-.804-1.113-.971-1.968l-.782-4.025-1.73-.336-.284-1.462 1.73.337-.493-2.535 1.849.359.493 2.535 2.609.507.284 1.461-2.609-.507.692 3.564c.097.497.244.86.442 1.09.205.221.517.373.935.454.218.042.443.067.674.074.231.006.434-.007.609-.04l.457 1.538a5.44 5.44 0 0 1-.914.023 6.957 6.957 0 0 1-.898-.117ZM98.696 268.884l-.342-1.759 1.849.359.342 1.759-1.85-.359Zm1.773 9.125-1.498-7.708 1.849.359 1.498 7.708-1.849-.359ZM93.877 276.871c-1.034-.201-1.908-.71-2.621-1.528-.714-.818-1.195-1.863-1.442-3.135-.247-1.273-.151-2.206.288-2.799.44-.594 1.176-.79 2.21-.589.517.1 1.001.28 1.453.54.453.26.857.592 1.213.996l.044.009-.785-4.041 1.804.351 2.116 10.884-1.715-.333-.207-.915-.03-.006c-.222.282-.539.474-.95.576-.402.094-.861.09-1.378-.01Zm.187-1.398c.388.075.715.062.982-.039a1.04 1.04 0 0 0 .603-.514c.125-.244.154-.539.086-.887l-.272-1.402a2.359 2.359 0 0 0-.451-.991 3.324 3.324 0 0 0-.843-.795 3.013 3.013 0 0 0-1.09-.442c-.627-.121-1.071.003-1.334.372-.253.372-.3.965-.142 1.78.159.815.45 1.474.872 1.978.433.505.963.818 1.589.94ZM86.3 275.398c-1.373-.267-2.494-.819-3.364-1.658-.871-.839-1.432-1.904-1.684-3.197-.243-1.252-.096-2.17.44-2.755.547-.582 1.412-.758 2.595-.528 1.143.222 2.093.732 2.851 1.529.758.798 1.257 1.818 1.499 3.061a8.311 8.311 0 0 1 .117.826l-6.351-1.235-.258-1.327 4.95.963-.19.35c-.159-.815-.435-1.447-.828-1.897-.386-.457-.891-.747-1.518-.869-.666-.129-1.132-.019-1.399.331-.258.342-.31.915-.153 1.72l.101.522c.147.756.455 1.356.924 1.801.467.435 1.103.731 1.909.887.417.082.857.129 1.318.142.46.003.86-.029 1.201-.097l.502 1.475a5.545 5.545 0 0 1-1.228.106 7.929 7.929 0 0 1-1.435-.15ZM76.413 273.333l-1.507-7.753 1.76.342.298 1.464.03.005c.193-.287.44-.517.741-.688.31-.179.667-.286 1.071-.322a4.276 4.276 0 0 1 1.304.067l.307 1.58c-.626-.122-1.174-.113-1.645.025-.46.14-.805.384-1.034.731-.22.34-.283.758-.186 1.255l.71 3.653-1.85-.359ZM71.031 272.43c-1.183-.23-2.245-.652-3.187-1.265a8.128 8.128 0 0 1-2.342-2.306c-.61-.922-1.027-1.964-1.253-3.127-.228-1.173-.199-2.129.088-2.867.295-.746.827-1.259 1.594-1.54.768-.282 1.744-.307 2.927-.077 1.351.262 2.606.789 3.764 1.578l-.114 1.556c-1.126-.774-2.215-1.263-3.27-1.468-.784-.152-1.434-.126-1.949.08a1.757 1.757 0 0 0-1.066 1.084c-.194.527-.211 1.203-.05 2.028.158.815.449 1.55.873 2.207a5.657 5.657 0 0 0 1.59 1.614 5.849 5.849 0 0 0 2.133.86 5.11 5.11 0 0 0 2.933-.262l.752 1.724c-.93.383-2.07.444-3.423.181ZM238.91 381.774l-.409-2.102 2.117.411.409 2.103-2.117-.412ZM232.636 372.951c1.033.201 1.907.71 2.621 1.528.713.818 1.194 1.863 1.441 3.135.248 1.272.152 2.205-.288 2.799-.439.594-1.176.79-2.209.589a4.768 4.768 0 0 1-1.454-.541 5.18 5.18 0 0 1-1.212-.996l-.03-.005.785 4.04-1.834-.356-2.115-10.885 1.744.34.192.912.03.006c.23-.29.547-.482.949-.576.403-.094.863-.091 1.38.01Zm-.188 1.398c-.377-.073-.705-.06-.982.039a1.04 1.04 0 0 0-.603.514c-.117.235-.141.532-.071.89l.272 1.401c.068.348.213.678.436.989.233.313.519.579.859.798.339.219.697.365 1.075.438.636.124 1.08 0 1.333-.372.253-.371.301-.965.142-1.78-.158-.815-.449-1.474-.872-1.977a2.695 2.695 0 0 0-1.589-.94ZM220.893 378.272l1.7-3.428-3.178-4.319 2.028.394 2.203 3.211.029.006 1.078-2.574 2.028.394-1.683 3.375 3.22 4.384-2.028-.394-2.241-3.262-.03-.006-1.084 2.616-2.042-.397ZM212.422 376.625l-2.116-10.884 7.276 1.415.313 1.61-5.412-1.052.545 2.803 5.114.994.307 1.58-5.114-.994.638 3.28 5.412 1.052.313 1.611-7.276-1.415Z" fill="#595959"/><path d="m253.403 412.501-1.466-7.54-.025-.005-2.897 1.294-.731-1.483 3.305-1.595 1.623.315 1.814 9.329-1.623-.315ZM245.191 410.905l-1.466-7.541-.026-.004-2.896 1.293-.731-1.482 3.305-1.596 1.623.316 1.814 9.329-1.623-.315ZM234.594 409.337l2.537-9.468 1.56.304-2.538 9.467-1.559-.303ZM228.406 398.542c.767.149 1.441.412 2.022.787a4.648 4.648 0 0 1 1.422 1.432c.375.581.639 1.264.792 2.048.228 1.176.198 2.158-.092 2.946-.282.781-.797 1.341-1.542 1.68-.746.338-1.705.427-2.876.265l-.532-1.346c1.045.146 1.862.087 2.45-.175.587-.272.963-.76 1.13-1.466l-.028-.017a2.763 2.763 0 0 1-.905.217 3.97 3.97 0 0 1-1.097-.078 4.49 4.49 0 0 1-2.398-1.265c-.645-.658-1.062-1.477-1.253-2.457-.132-.681-.105-1.238.082-1.669.187-.431.519-.723.998-.876.477-.161 1.086-.17 1.827-.026Zm.266 1.368c-.631-.123-1.084-.051-1.36.215-.27.259-.347.683-.233 1.271.114.587.361 1.078.741 1.472.387.386.879.638 1.475.754.426.082.779.086 1.059.009.279-.085.473-.249.581-.49.116-.248.138-.559.065-.934a2.947 2.947 0 0 0-.386-.973 2.703 2.703 0 0 0-.763-.824c-.318-.243-.711-.409-1.179-.5ZM222.057 406.531c-1.244-.242-2.244-.814-3.002-1.715-.757-.901-1.294-2.166-1.61-3.793-.316-1.627-.248-2.774.204-3.44.453-.667 1.301-.879 2.545-.637s2.24.812 2.989 1.712c.757.902 1.294 2.166 1.61 3.793.317 1.628.249 2.774-.204 3.441-.444.668-1.288.881-2.532.639Zm-.276-1.419c.707.138 1.17-.035 1.388-.517.217-.482.214-1.303-.012-2.462-.226-1.167-.554-2.05-.982-2.65-.43-.608-.998-.981-1.705-1.119-.707-.137-1.174.035-1.4.515-.22.474-.216 1.295.011 2.462.225 1.159.552 2.042.982 2.65.438.61 1.011.984 1.718 1.121ZM175.418 397.342l-1.814-9.329 1.534.298 5.814 7.894.025.005-1.366-7.029 1.406.273 1.813 9.329-1.533-.298-5.814-7.893-.026-.005 1.367 7.029-1.406-.274ZM165.474 395.41l1.586-8.669 1.905.37 5.2 9.988-1.547-.301-4.366-8.669-.025-.005-1.206 7.586-1.547-.3Zm1.309-1.996-.248-1.278 5.176 1.006.248 1.278-5.176-1.006ZM162.81 394.892l-1.813-9.33 1.406.274 1.813 9.329-1.406-.273Zm-5.751-1.118-1.813-9.329 1.406.273 1.813 9.329-1.406-.273Zm-.122-4.106-.248-1.278 5.751 1.117.248 1.278-5.751-1.117ZM153.318 393.047l-1.814-9.33 1.457.283 1.814 9.33-1.457-.283ZM143.259 391.091l1.586-8.668 1.905.37 5.2 9.988-1.547-.301-4.366-8.669-.025-.005-1.206 7.586-1.547-.301Zm1.309-1.995-.248-1.278 5.176 1.006.248 1.278-5.176-1.006ZM135.368 389.558l-1.813-9.33 2.812.547c1.371.266 2.415.683 3.132 1.248.725.567 1.181 1.332 1.368 2.295.184.946.015 1.593-.507 1.943-.514.351-1.393.405-2.637.164l-2.377-.463-.239-1.226 2.173.422c.869.169 1.472.171 1.809.007.344-.171.463-.529.357-1.074a2 2 0 0 0-.816-1.29c-.432-.322-1.082-.567-1.951-.736l-1.47-.285 1.565 8.051-1.406-.273Zm5.457 1.06-5.059-5.09 1.776.345 5.111 5.101-1.828-.356ZM122.202 386.998l-1.814-9.329 1.534.298 5.814 7.893.025.005-1.366-7.029 1.406.274 1.813 9.329-1.534-.298-5.813-7.893-.026-.005 1.367 7.028-1.406-.273ZM112.258 385.065l1.586-8.668 1.905.37 5.2 9.988-1.547-.301-4.366-8.67-.025-.004-1.206 7.586-1.547-.301Zm1.309-1.996-.248-1.278 5.176 1.007.248 1.278-5.176-1.007ZM109.594 384.548l-1.813-9.33 1.405.273 1.814 9.33-1.406-.273Zm-5.751-1.118-1.813-9.33 1.406.274 1.813 9.329-1.406-.273Zm-.122-4.107-.248-1.278 5.751 1.118.248 1.278-5.751-1.118ZM95.756 381.858l-1.814-9.33 6.135 1.193.243 1.252-4.728-.919.502 2.582 4.472.869.239 1.227-4.473-.87.586 3.016 4.729.92.243 1.252-6.134-1.192ZM86.945 380.145l-1.814-9.329 2.812.546c1.372.267 2.416.683 3.132 1.249.725.567 1.182 1.332 1.369 2.295.184.945.014 1.593-.508 1.942-.514.351-1.393.406-2.637.164l-2.377-.462-.238-1.227 2.172.422c.87.169 1.473.172 1.81.008.343-.171.462-.529.356-1.075a2 2 0 0 0-.816-1.29c-.431-.321-1.082-.566-1.95-.735l-1.47-.286 1.565 8.051-1.406-.273Zm5.457 1.061-5.06-5.091 1.776.345 5.111 5.101-1.827-.355Z" fill="#424242"/><path fill-rule="evenodd" clip-rule="evenodd" d="M72.861 217.558c2.088-1.842 3.03-4.883 2.306-8.608-.724-3.724-2.969-7.385-5.965-10.215 1.87-1.649 4.657-2.336 7.991-1.688 7.058 1.372 13.892 8.206 15.264 15.264 1.372 7.058-3.238 11.668-10.296 10.296-3.333-.648-6.618-2.516-9.3-5.049Zm0 0c-1.868 1.649-4.656 2.336-7.99 1.688-7.058-1.372-13.892-8.206-15.264-15.264-1.372-7.058 3.238-11.668 10.296-10.296 3.333.648 6.618 2.516 9.3 5.049-2.088 1.842-3.03 4.884-2.306 8.608.724 3.724 2.969 7.385 5.964 10.215ZM376.587 255.482c.513-.311 1.37-.012 1.912.668 2.888 3.618 6.649 9.562 8.616 15.751 1.98 6.232 2.158 12.793-2.312 17.351-.413.422-1.253.264-1.875-.352-.622-.617-.791-1.459-.377-1.881 3.898-3.975 3.783-9.666 1.998-15.283-1.798-5.66-5.275-11.161-7.91-14.462-.543-.68-.566-1.482-.052-1.792Zm-4.809 3.75c.513-.311 1.369-.013 1.912.666 2.037 2.547 4.683 6.72 6.069 11.074 1.399 4.398 1.529 9.061-1.657 12.294-.415.421-1.254.262-1.876-.355-.621-.617-.789-1.459-.374-1.88 2.612-2.651 2.544-6.443 1.342-10.223-1.217-3.824-3.578-7.552-5.361-9.782-.543-.679-.568-1.482-.055-1.794Zm-3.398 4.454c.51-.315 1.366-.021 1.912.657 1.11 1.379 2.541 3.62 3.293 5.974.767 2.4.842 4.994-.945 6.782-.418.418-1.258.254-1.878-.365-.619-.619-.782-1.46-.365-1.878 1.208-1.208 1.191-2.926.624-4.699-.581-1.819-1.722-3.613-2.577-4.675-.546-.677-.574-1.481-.064-1.796Zm-2.578 4.792c-.489-.095-.808.225-.713.713.095.489.569.963 1.057 1.058.489.095.809-.225.714-.713-.095-.489-.569-.963-1.058-1.058Zm-3.368.197c-.38-1.955.897-3.232 2.852-2.852 1.956.38 3.849 2.273 4.229 4.229.38 1.955-.897 3.232-2.852 2.852-1.956-.38-3.849-2.273-4.229-4.229Z" fill="#424242"/><path d="m298.198 348.994-2.339-12.034-.043-.009-3.817 2.927-.679-3.493 3.856-2.94 3.067.597 3.022 15.548-3.067-.596ZM282.706 343.523a34.006 34.006 0 0 0 1.911-2.292c.508-.694.904-1.328 1.189-1.901.282-.587.463-1.133.542-1.636.08-.504.073-.997-.021-1.48-.146-.753-.417-1.338-.813-1.757-.395-.418-.941-.695-1.637-.83-.909-.177-1.93-.123-3.063.162l-.538-2.768c.974-.262 2.228-.244 3.761.054 1.548.301 2.756.891 3.623 1.77.865.865 1.45 2.079 1.753 3.641.127.653.165 1.302.113 1.948a6.9 6.9 0 0 1-.408 1.909 9.999 9.999 0 0 1-.958 1.925 12.434 12.434 0 0 1-1.487 1.945l.016.085 4.537.882.497 2.556-8.52-1.657-.497-2.556ZM275.505 338.107a2.21 2.21 0 0 1-1.165-.616 2.177 2.177 0 0 1-.612-1.144c-.088-.454-.022-.783.198-.986.217-.217.553-.282 1.007-.194a2.21 2.21 0 0 1 1.165.616 2.1 2.1 0 0 1 .612 1.144c.086.44.02.769-.198.986-.217.218-.553.282-1.007.194Zm1.35 6.943c-1.179-.229-2.162-.645-2.949-1.249-.789-.618-1.445-1.497-1.967-2.637-.523-1.14-.958-2.604-1.305-4.394l-.249-1.278c-.35-1.803-.473-3.207-.367-4.211.102-1.018.456-1.694 1.061-2.028.601-.347 1.492-.406 2.67-.177 1.165.226 2.142.648 2.931 1.266.801.607 1.463 1.48 1.985 2.62.52 1.126.955 2.59 1.305 4.394l.249 1.278c.347 1.789.47 3.193.367 4.211-.102 1.018-.462 1.7-1.078 2.045-.605.333-1.489.387-2.653.16Zm-.514-2.641c.483.094.82.037 1.012-.172.192-.209.262-.653.212-1.332-.038-.691-.19-1.717-.455-3.081l-.166-.852c-.265-1.363-.514-2.402-.749-3.117-.223-.727-.48-1.241-.771-1.544-.292-.302-.678-.5-1.161-.594-.469-.091-.806-.034-1.012.172-.192.209-.268.658-.23 1.349.05.679.208 1.7.473 3.064l.165.852c.265 1.363.51 2.408.733 3.134.234.715.497 1.224.788 1.527.306.305.693.503 1.161.594ZM261.406 339.383a33.744 33.744 0 0 0 1.912-2.293c.507-.693.903-1.327 1.188-1.9.282-.587.463-1.133.543-1.637a4.24 4.24 0 0 0-.022-1.479c-.146-.753-.417-1.338-.813-1.757-.395-.418-.941-.695-1.637-.831-.908-.176-1.929-.122-3.063.163l-.538-2.769c.974-.261 2.228-.243 3.761.055 1.548.301 2.756.891 3.624 1.77.865.865 1.449 2.079 1.752 3.641.127.653.165 1.302.113 1.948a6.908 6.908 0 0 1-.408 1.909 9.963 9.963 0 0 1-.958 1.924 12.327 12.327 0 0 1-1.487 1.945l.016.086 4.537.881.497 2.556-8.52-1.656-.497-2.556ZM231.15 320.795c1.207.235 2.205.627 2.995 1.177.79.549 1.433 1.323 1.927 2.321.509 1.001.915 2.282 1.219 3.844.425 2.187.49 3.928.195 5.223-.294 1.296-.972 2.168-2.032 2.618-1.046.453-2.511.51-4.394.171l-.513-2.641c.866.168 1.606.182 2.221.042.627-.151 1.099-.429 1.417-.831.315-.417.439-.94.372-1.568l-.086-.016a3.386 3.386 0 0 1-1.042.228 4.758 4.758 0 0 1-1.125-.096c-1.363-.265-2.451-.873-3.265-1.823-.801-.962-1.372-2.317-1.712-4.063-.383-1.974-.282-3.314.305-4.02.599-.717 1.771-.905 3.518-.566Zm.475 2.552c-.639-.124-1.062.019-1.269.429-.21.397-.221 1.078-.033 2.044.188.965.476 1.711.865 2.238.387.512.9.83 1.539.955.639.124 1.063-.012 1.273-.409.207-.41.217-1.098.029-2.064s-.475-1.705-.861-2.217a2.435 2.435 0 0 0-1.543-.976ZM223.649 334.503l-2.339-12.034-.043-.008-3.817 2.926-.679-3.493 3.856-2.939 3.067.596 3.022 15.549-3.067-.597ZM211.606 325.686a2.202 2.202 0 0 1-1.165-.616 2.16 2.16 0 0 1-.612-1.143c-.088-.455-.023-.784.198-.987.217-.217.553-.282 1.007-.193.455.088.843.293 1.165.616a2.1 2.1 0 0 1 .612 1.143c.085.44.019.769-.198.986-.217.218-.553.282-1.007.194Zm1.349 6.944c-1.178-.229-2.161-.646-2.948-1.25-.79-.618-1.445-1.497-1.968-2.637-.522-1.139-.957-2.604-1.305-4.393l-.248-1.278c-.351-1.804-.473-3.207-.368-4.212.103-1.018.457-1.694 1.061-2.027.602-.348 1.492-.407 2.671-.178 1.164.226 2.141.648 2.931 1.267.801.606 1.463 1.479 1.985 2.619.519 1.126.954 2.591 1.305 4.394l.248 1.278c.348 1.789.471 3.193.368 4.211-.103 1.019-.462 1.7-1.078 2.045-.605.334-1.489.387-2.654.161Zm-.513-2.641c.483.093.82.036 1.012-.173.191-.208.262-.652.212-1.332-.038-.69-.19-1.717-.455-3.08l-.166-.852c-.265-1.363-.515-2.403-.749-3.118-.224-.726-.481-1.241-.772-1.543-.291-.303-.678-.501-1.161-.595-.468-.091-.805-.034-1.011.172-.192.209-.269.659-.23 1.349.05.68.208 1.701.473 3.064l.165.852c.265 1.363.509 2.408.732 3.135.235.715.498 1.224.789 1.526.305.305.692.504 1.161.595ZM197.507 326.962a34.006 34.006 0 0 0 1.911-2.292c.508-.694.904-1.328 1.189-1.901.282-.587.463-1.133.542-1.637.08-.503.073-.996-.021-1.479-.146-.753-.417-1.338-.813-1.757-.395-.418-.941-.695-1.637-.83-.909-.177-1.93-.123-3.063.162l-.538-2.769c.974-.261 2.228-.243 3.761.055 1.548.301 2.756.891 3.623 1.77.865.865 1.45 2.079 1.753 3.641.127.653.165 1.302.113 1.948a6.9 6.9 0 0 1-.408 1.909 9.999 9.999 0 0 1-.958 1.925 12.382 12.382 0 0 1-1.487 1.944l.016.086 4.537.882.497 2.556-8.52-1.657-.497-2.556ZM170.4 324.153l-2.34-12.035-.042-.008-3.817 2.927-.679-3.493 3.855-2.94 3.067.596 3.023 15.549-3.067-.596ZM159.75 322.083l-2.34-12.035-.042-.008-3.817 2.927-.679-3.494 3.855-2.939 3.067.596 3.023 15.549-3.067-.596ZM145.951 304.234c1.207.235 2.205.627 2.995 1.177.79.549 1.433 1.323 1.927 2.321.509 1.001.915 2.282 1.219 3.844.425 2.187.49 3.928.195 5.223-.294 1.296-.972 2.168-2.032 2.618-1.046.453-2.511.509-4.394.171l-.513-2.641c.866.168 1.606.182 2.221.042.627-.151 1.099-.429 1.417-.831.315-.417.439-.94.372-1.568l-.086-.016a3.415 3.415 0 0 1-1.042.228 4.758 4.758 0 0 1-1.125-.096c-1.363-.265-2.451-.873-3.265-1.823-.801-.962-1.372-2.317-1.712-4.063-.383-1.974-.282-3.314.305-4.02.599-.717 1.771-.906 3.518-.566Zm.475 2.552c-.639-.124-1.062.019-1.269.429-.21.397-.221 1.078-.033 2.043.188.966.476 1.712.865 2.239.387.512.9.83 1.539.955.639.124 1.063-.012 1.273-.409.207-.41.217-1.099.029-2.064-.188-.966-.475-1.705-.861-2.217a2.435 2.435 0 0 0-1.543-.976ZM137.056 311.195a2.21 2.21 0 0 1-1.165-.616 2.165 2.165 0 0 1-.611-1.143c-.089-.455-.023-.784.197-.987.218-.217.554-.282 1.008-.193.454.088.843.293 1.165.616.319.308.523.689.612 1.143.085.44.019.769-.198.987-.217.217-.553.281-1.008.193Zm1.35 6.944c-1.178-.229-2.161-.646-2.948-1.25-.79-.618-1.446-1.497-1.968-2.637-.522-1.139-.957-2.604-1.305-4.393l-.248-1.278c-.351-1.804-.473-3.207-.368-4.212.103-1.018.456-1.694 1.061-2.027.602-.348 1.492-.407 2.671-.178 1.164.226 2.141.649 2.931 1.267.801.606 1.463 1.479 1.985 2.619.519 1.126.954 2.591 1.305 4.394l.248 1.278c.348 1.789.471 3.193.368 4.211-.103 1.019-.462 1.7-1.078 2.045-.605.334-1.489.387-2.654.161Zm-.513-2.641c.483.093.82.036 1.012-.173.191-.208.262-.652.212-1.331-.039-.691-.19-1.718-.455-3.081l-.166-.852c-.265-1.363-.515-2.403-.749-3.118-.224-.726-.481-1.241-.772-1.543-.291-.303-.678-.501-1.161-.595-.468-.091-.806-.034-1.011.172-.192.209-.269.659-.23 1.349.05.68.207 1.701.472 3.064l.166.852c.265 1.363.509 2.408.732 3.135.235.715.498 1.224.789 1.526.305.305.692.504 1.161.595ZM101.658 308.331a34.347 34.347 0 0 0 1.912-2.293c.507-.693.903-1.327 1.188-1.9.282-.587.463-1.133.542-1.637.08-.503.073-.997-.021-1.479-.146-.753-.417-1.338-.813-1.757-.395-.418-.941-.695-1.637-.831-.908-.176-1.93-.122-3.063.163l-.538-2.769c.974-.261 2.228-.243 3.761.055 1.548.301 2.756.891 3.623 1.77.865.865 1.45 2.079 1.753 3.641.127.653.165 1.302.113 1.948a6.908 6.908 0 0 1-.408 1.909 9.963 9.963 0 0 1-.958 1.924 12.388 12.388 0 0 1-1.487 1.945l.016.086 4.537.881.497 2.556-8.52-1.656-.497-2.556ZM94.457 302.915a2.212 2.212 0 0 1-1.165-.616 2.175 2.175 0 0 1-.612-1.144c-.088-.454-.022-.783.198-.986.217-.218.553-.282 1.008-.194.454.089.842.294 1.165.616.319.308.523.689.611 1.144.086.44.02.769-.198.986-.217.217-.553.282-1.007.194Zm1.35 6.943c-1.179-.229-2.162-.645-2.949-1.249-.79-.618-1.445-1.497-1.967-2.637s-.957-2.605-1.305-4.394l-.249-1.278c-.35-1.803-.473-3.207-.367-4.211.102-1.019.456-1.695 1.06-2.028.603-.347 1.493-.407 2.671-.178 1.165.227 2.142.649 2.931 1.267.802.607 1.463 1.48 1.985 2.62.52 1.126.955 2.59 1.305 4.393l.249 1.278c.347 1.79.47 3.193.367 4.212-.102 1.018-.462 1.7-1.078 2.045-.604.333-1.489.387-2.653.16Zm-.514-2.641c.483.094.82.037 1.012-.172.192-.209.262-.653.212-1.332-.038-.691-.19-1.718-.455-3.081l-.165-.852c-.266-1.363-.515-2.402-.75-3.117-.223-.727-.48-1.241-.771-1.544-.291-.302-.678-.501-1.161-.594-.469-.091-.806-.034-1.012.172-.192.209-.268.658-.23 1.349.05.679.208 1.7.473 3.064l.166.852c.264 1.363.509 2.408.732 3.134.235.715.497 1.224.788 1.527.306.305.693.503 1.161.594ZM85.157 307.788c-1.193-.232-2.191-.624-2.996-1.176-.79-.55-1.44-1.326-1.948-2.326-.495-.998-.894-2.278-1.197-3.84-.428-2.201-.493-3.942-.196-5.223.295-1.296.973-2.168 2.033-2.618 1.06-.45 2.525-.507 4.394-.171l.513 2.642c-.852-.166-1.591-.173-2.218-.022-.629.138-1.102.408-1.42.81-.318.403-.442.926-.372 1.568l.085.016a3.388 3.388 0 0 1 1.042-.227c.339-.017.714.015 1.126.095 1.363.265 2.445.879 3.247 1.841.813.95 1.39 2.299 1.73 4.045.383 1.974.275 3.32-.323 4.037-.587.706-1.754.889-3.5.549Zm-.476-2.552c.64.125 1.064-.012 1.273-.408.208-.411.217-1.099.03-2.064-.188-.966-.475-1.705-.862-2.217a2.431 2.431 0 0 0-1.542-.976c-.64-.125-1.062.019-1.27.429-.21.397-.22 1.078-.032 2.043.187.966.476 1.712.865 2.238.386.513.9.831 1.538.955ZM74.55 305.521l-2.339-12.034-.042-.008-3.817 2.926-.68-3.493 3.856-2.939 3.067.596 3.023 15.549-3.067-.597ZM375.92 417.13c-.126-.649.298-1.073.947-.947l9.989 1.942c.649.126 1.277.754 1.403 1.403l1.455 7.485c.088.453-.092.815-.463.93l-4.533 1.408c-.29.09-.661.018-1.01-.197l-5.457-3.349c-.447-.274-.788-.738-.876-1.191l-1.455-7.484ZM394.723 420.785c-.126-.649.298-1.073.947-.947l2.937.571c.649.126 1.278.755 1.404 1.404l.457 2.35c.126.649-.298 1.073-.947.947l-2.938-.571c-.649-.126-1.277-.755-1.403-1.404l-.457-2.35ZM406.474 423.069c-.126-.649.298-1.073.947-.947l9.989 1.942c.649.126 1.277.755 1.404 1.404l1.37 7.051c.126.649-.298 1.072-.947.946l-9.988-1.941c-.649-.127-1.278-.755-1.404-1.404l-1.371-7.051ZM378.319 429.469c-.126-.649.297-1.073.946-.947l9.989 1.942c.649.126 1.278.755 1.404 1.404l1.37 7.051c.127.649-.297 1.072-.946.946l-9.989-1.941c-.649-.126-1.278-.755-1.404-1.404l-1.37-7.051ZM392.682 427.738c-.126-.649.298-1.073.947-.947l9.989 1.942c.649.126 1.277.755 1.403 1.404l3.198 16.452c.126.649-.297 1.073-.946.947l-9.989-1.942c-.649-.126-1.278-.755-1.404-1.404l-3.198-16.452ZM408.873 435.408c-.126-.649.298-1.073.947-.946l9.988 1.941c.649.126 1.278.755 1.404 1.404l1.371 7.051c.126.649-.298 1.073-.947.946l-9.989-1.941c-.649-.126-1.277-.755-1.404-1.404l-1.37-7.051ZM380.717 441.808c-.126-.649.298-1.073.947-.946l9.989 1.941c.649.126 1.277.755 1.403 1.404l1.371 7.051c.126.649-.298 1.073-.947.946l-9.989-1.941c-.649-.126-1.277-.755-1.403-1.404l-1.371-7.051ZM400.433 450.164c-.126-.649.298-1.073.947-.947l2.938.571c.649.126 1.278.755 1.404 1.404l.457 2.35c.126.649-.298 1.073-.947.947l-2.938-.571c-.649-.126-1.277-.755-1.404-1.404l-.457-2.35ZM411.187 447.314c-.088-.453.093-.815.464-.931l4.532-1.407c.29-.09.661-.018 1.01.196l5.457 3.35c.447.274.788.737.876 1.191l1.455 7.484c.126.649-.298 1.073-.947.947l-9.988-1.942c-.649-.126-1.278-.755-1.404-1.404l-1.455-7.484Z" fill="#424242"/><g filter="url('#filter0_b_18_11')"><path d="M23.332 36.248c-.67-19.162 14.332-34.696 33.506-34.696h342.835c19.174 0 35.26 15.534 35.929 34.696l6.664 190.83c.669 19.162-14.332 34.696-33.506 34.696H65.925c-19.174 0-35.26-15.534-35.93-34.696l-6.663-190.83Z" fill="#fff" fill-opacity=".1"/></g><g filter="url('#filter1_b_18_11')"><path fill-rule="evenodd" clip-rule="evenodd" d="M22.247 36.248C21.557 16.488 37.027.468 56.8.468h342.835c19.773 0 36.362 16.02 37.052 35.78l6.664 190.83c.69 19.761-14.78 35.781-34.553 35.781H65.963c-19.773 0-36.362-16.02-37.052-35.781l-6.664-190.83ZM56.876 2.636c-18.575 0-33.107 15.049-32.46 33.612l6.665 190.83c.648 18.563 16.231 33.612 34.806 33.612h342.835c18.575 0 33.107-15.049 32.459-33.612l-6.664-190.83c-.648-18.563-16.232-33.612-34.806-33.612H56.875Z" fill="url('#paint1_linear_18_11')" fill-opacity=".5"/></g><path d="M110.231 196.427c-1.397 0-2.483-.354-3.257-1.062-.774-.708-1.184-1.72-1.23-3.036-.045-1.275.265-2.277.928-3.006.673-.728 1.612-1.093 2.817-1.093 1.165 0 2.078.345 2.74 1.033.662.688 1.015 1.664 1.059 2.929a8.142 8.142 0 0 1-.016.85h-6.47l-.048-1.351h5.043l-.259.41c-.029-.83-.212-1.442-.55-1.836-.328-.405-.811-.608-1.449-.608-.678 0-1.187.213-1.527.638-.33.415-.48 1.032-.452 1.852l.019.531c.027.769.249 1.341.667 1.715.418.365 1.037.547 1.857.547.425 0 .88-.041 1.363-.122a7.414 7.414 0 0 0 1.279-.349l.279 1.458c-.38.151-.816.273-1.309.364a8.161 8.161 0 0 1-1.484.136ZM93.242 196.276l-.276-7.894h1.732l.063.926h.03c.272-.344.602-.607.99-.789.388-.192.846-.289 1.372-.289.517 0 .956.097 1.317.289.37.182.638.445.802.789h.03a2.64 2.64 0 0 1 1.02-.819c.388-.173.851-.259 1.388-.259.851 0 1.476.228 1.877.684.4.445.617 1.148.651 2.11l.183 5.252h-1.807l-.168-4.797c-.021-.597-.132-1.032-.334-1.306-.202-.273-.516-.409-.941-.409-.506 0-.9.167-1.182.501-.282.333-.414.779-.394 1.335l.163 4.676h-1.823l-.172-4.934c-.018-.516-.138-.905-.36-1.169-.222-.273-.53-.409-.925-.409-.304 0-.58.081-.827.242-.237.162-.427.38-.57.653a1.97 1.97 0 0 0-.18.941l.164 4.676h-1.823ZM86.676 196.427c-.79 0-1.42-.212-1.89-.637-.461-.435-.704-1.022-.73-1.761-.032-.921.302-1.629 1.004-2.125s1.716-.744 3.042-.744h1.109c-.013-.384-.074-.678-.183-.88a.815.815 0 0 0-.501-.44c-.226-.081-.546-.122-.961-.122-.507 0-1.031.051-1.575.152a7.148 7.148 0 0 0-1.503.455l-.294-1.472a9.675 9.675 0 0 1 1.7-.456 10.7 10.7 0 0 1 1.878-.167c.8 0 1.431.097 1.893.289.473.192.819.516 1.037.971.218.456.34 1.058.367 1.807l.174 4.979h-1.777l-.047-.911h-.03c-.263.314-.65.572-1.159.774a4.377 4.377 0 0 1-1.554.288Zm.617-1.457c.375 0 .717-.066 1.026-.197a1.84 1.84 0 0 0 .725-.562 1.21 1.21 0 0 0 .246-.789l-.034-.956h-.835c-.87 0-1.525.116-1.962.349-.428.222-.634.566-.617 1.032.012.344.143.617.393.82.25.202.603.303 1.058.303ZM73.547 196.276l-.387-11.081h2.02l5.244 7.954h.03l-.277-7.954h1.884l.386 11.081h-2.02l-5.229-7.954h-.03l.277 7.954h-1.898ZM180.886 110.618l-.075-2.14h2.157l.075 2.14h-2.157ZM175.404 110.77c-1.276 0-2.275-.354-2.999-1.062-.713-.719-1.093-1.731-1.139-3.036-.045-1.306.264-2.313.928-3.021.673-.719 1.648-1.078 2.924-1.078s2.276.359 2.999 1.078c.724.708 1.108 1.715 1.154 3.021.046 1.305-.268 2.317-.942 3.036-.674.708-1.649 1.062-2.925 1.062Zm-.052-1.487c.699 0 1.223-.218 1.572-.653.349-.445.509-1.098.479-1.958-.03-.86-.235-1.508-.615-1.943-.38-.446-.919-.668-1.618-.668-.689 0-1.212.222-1.572.668-.349.435-.509 1.083-.479 1.943.03.86.236 1.513.616 1.958.389.435.929.653 1.617.653ZM160.711 110.618l-.387-11.08h2.02l5.244 7.953h.031l-.278-7.954h1.883l.387 11.081h-2.02l-5.229-7.954h-.031l.278 7.954h-1.898ZM149.758 110.77c-1.053 0-1.886-.359-2.499-1.077-.612-.719-.941-1.726-.986-3.021-.045-1.296.213-2.302.775-3.021.563-.718 1.37-1.078 2.423-1.078a3.65 3.65 0 0 1 1.438.274c.431.182.8.45 1.106.804h.046l-.144-4.114h1.838l.387 11.081h-1.747l-.062-.925h-.031a2.822 2.822 0 0 1-1.096.804 3.746 3.746 0 0 1-1.448.273Zm.433-1.518a2.14 2.14 0 0 0 1.039-.243c.308-.161.549-.384.721-.667a1.68 1.68 0 0 0 .24-.957l-.05-1.427a1.73 1.73 0 0 0-.306-.956 2.04 2.04 0 0 0-.753-.668 2.277 2.277 0 0 0-1.072-.243c-.637 0-1.126.223-1.465.668-.328.445-.478 1.083-.449 1.913.029.83.223 1.467.583 1.912.37.446.874.668 1.512.668ZM140.713 110.618l-.276-7.893h1.793l.067 1.488h.03c.251-.344.55-.638.896-.881.356-.253.749-.44 1.18-.561a4.617 4.617 0 0 1 1.36-.198l.056 1.609a4.04 4.04 0 0 0-1.734.365 3.117 3.117 0 0 0-1.211.986c-.289.405-.425.86-.407 1.366l.129 3.719h-1.883ZM134.147 110.77c-.79 0-1.42-.212-1.891-.637-.46-.435-.704-1.022-.729-1.761-.033-.921.302-1.629 1.004-2.125.701-.496 1.716-.744 3.042-.744h1.109c-.014-.385-.074-.678-.183-.881a.82.82 0 0 0-.501-.44c-.226-.081-.546-.121-.961-.121-.507 0-1.031.05-1.575.152a7.155 7.155 0 0 0-1.503.455l-.294-1.472a9.588 9.588 0 0 1 1.7-.456c.624-.111 1.25-.167 1.878-.167.8 0 1.431.096 1.893.289.473.192.818.516 1.037.971.218.456.34 1.058.367 1.807l.173 4.978h-1.777l-.047-.91h-.03c-.262.313-.648.571-1.158.774a4.375 4.375 0 0 1-1.554.288Zm.617-1.457c.375 0 .717-.066 1.026-.197a1.84 1.84 0 0 0 .725-.562c.174-.233.256-.496.246-.789l-.034-.957h-.835c-.871 0-1.525.117-1.962.349-.428.223-.634.567-.617 1.033.012.344.143.617.393.819.25.203.603.304 1.058.304ZM126.841 110.77c-1.205 0-2.251-.227-3.138-.683a4.976 4.976 0 0 1-2.073-1.958c-.486-.85-.749-1.867-.79-3.051-.042-1.194.15-2.211.577-3.051a4.498 4.498 0 0 1 1.936-1.958c.855-.456 1.885-.684 3.09-.684 1.377 0 2.608.299 3.692.896l-.382 1.67c-1.054-.587-2.117-.881-3.19-.881-.8 0-1.488.162-2.064.486a3.04 3.04 0 0 0-1.304 1.366c-.293.597-.425 1.316-.396 2.156.029.83.211 1.548.546 2.155a3.474 3.474 0 0 0 1.4 1.382c.598.313 1.298.47 2.098.47 1.042 0 2.085-.293 3.128-.88l.499 1.67c-1.043.597-2.252.895-3.629.895ZM113.554 110.77c-.932 0-1.612-.192-2.041-.577-.428-.384-.658-1.012-.688-1.882l-.143-4.098h-1.762l-.052-1.488h1.762l-.09-2.58h1.883l.09 2.58h2.658l.052 1.488h-2.658l.127 3.628c.017.506.111.86.28 1.062.179.192.481.289.906.289.223 0 .455-.021.697-.061.241-.041.457-.096.647-.167l.221 1.533a6.486 6.486 0 0 1-.965.213c-.302.04-.611.06-.924.06ZM105.445 101.329l-.062-1.792h1.883l.063 1.792h-1.884Zm.324 9.289-.274-7.847h1.884l.274 7.847h-1.884ZM99.03 110.77c-1.054 0-1.887-.359-2.5-1.077-.612-.719-.94-1.726-.986-3.021-.045-1.296.214-2.302.776-3.021.562-.718 1.37-1.078 2.423-1.078.526 0 1.006.091 1.437.274.432.182.801.45 1.107.804h.045l-.143-4.114h1.837l.387 11.081h-1.746l-.063-.925h-.03a2.822 2.822 0 0 1-1.096.804 3.748 3.748 0 0 1-1.449.273Zm.432-1.518c.395 0 .742-.081 1.04-.243.308-.161.548-.384.721-.667.172-.284.252-.603.24-.957l-.05-1.427a1.731 1.731 0 0 0-.307-.956 2.037 2.037 0 0 0-.752-.668 2.28 2.28 0 0 0-1.072-.243c-.638 0-1.126.223-1.465.668-.329.445-.479 1.083-.45 1.913.03.83.224 1.467.583 1.912.37.446.874.668 1.512.668ZM91.31 110.77c-1.398 0-2.483-.354-3.257-1.062-.774-.709-1.184-1.721-1.23-3.036-.045-1.275.265-2.277.928-3.006.673-.728 1.612-1.093 2.817-1.093 1.164 0 2.078.344 2.74 1.032.662.689 1.015 1.665 1.059 2.93a8.036 8.036 0 0 1-.016.85h-6.47l-.048-1.351h5.043l-.26.41c-.028-.83-.211-1.442-.55-1.837-.327-.404-.81-.607-1.448-.607-.679 0-1.188.213-1.527.638-.33.415-.48 1.032-.452 1.852l.019.531c.026.769.249 1.341.667 1.715.418.364 1.037.547 1.857.547.425 0 .88-.041 1.363-.122.483-.091.909-.207 1.279-.349l.278 1.457c-.38.152-.815.274-1.308.365a8.157 8.157 0 0 1-1.484.136ZM81.263 110.618l-.276-7.893h1.792l.068 1.488h.03c.251-.344.55-.638.896-.881.355-.253.749-.44 1.18-.561.43-.132.884-.198 1.36-.198l.056 1.609c-.638 0-1.216.122-1.734.365a3.106 3.106 0 0 0-1.21.986c-.29.405-.426.86-.409 1.366l.13 3.719h-1.883ZM75.756 110.77c-1.205 0-2.25-.227-3.138-.683a4.982 4.982 0 0 1-2.073-1.958c-.485-.85-.749-1.867-.79-3.051-.041-1.194.15-2.211.577-3.051a4.5 4.5 0 0 1 1.937-1.958c.855-.456 1.885-.684 3.09-.684 1.377 0 2.607.299 3.691.896l-.382 1.67c-1.053-.587-2.117-.881-3.19-.881-.8 0-1.488.162-2.064.486a3.045 3.045 0 0 0-1.304 1.366c-.293.597-.425 1.316-.395 2.156.028.83.21 1.548.546 2.155a3.469 3.469 0 0 0 1.4 1.382c.598.313 1.297.47 2.097.47 1.043 0 2.086-.293 3.129-.88l.498 1.67c-1.042.597-2.252.895-3.629.895ZM233.825 191.938l-.075-2.14h2.157l.075 2.14h-2.157ZM228.717 183.893c1.053 0 1.886.359 2.498 1.078.613.718.941 1.725.987 3.02.045 1.296-.214 2.303-.776 3.021-.562.719-1.37 1.078-2.423 1.078-.516 0-.995-.091-1.437-.273a3.22 3.22 0 0 1-1.107-.805h-.03l.144 4.114h-1.868l-.387-11.081h1.777l.047.926h.031a2.754 2.754 0 0 1 1.095-.805c.44-.182.922-.273 1.449-.273Zm-.433 1.518c-.385 0-.731.081-1.04.243a1.801 1.801 0 0 0-.72.668 1.707 1.707 0 0 0-.225.956l.05 1.427c.012.354.109.673.291.956.192.283.448.506.768.668.319.162.671.243 1.056.243.648 0 1.137-.223 1.465-.668.329-.445.479-1.083.45-1.913-.029-.829-.223-1.467-.583-1.912-.36-.446-.864-.668-1.512-.668ZM215.47 191.938l2.368-3.977-2.613-3.916h2.066l1.774 2.945h.03l1.568-2.945h2.066l-2.339 3.916 2.645 3.977h-2.066l-1.806-2.99h-.03l-1.582 2.99h-2.081ZM206.841 191.938l-.387-11.081h7.412l.058 1.639h-5.514l.1 2.854h5.209l.057 1.609h-5.21l.116 3.34h5.514l.057 1.639h-7.412Z" fill="#EDEDED"/><path d="m243.877 221.468-.268-7.677h-.026l-3.264 1.965-.518-1.418 3.745-2.368h1.653l.332 9.498h-1.654ZM235.511 221.468l-.268-7.677h-.026l-3.264 1.965-.518-1.418 3.745-2.368h1.653l.332 9.498h-1.654ZM224.633 221.988l4.267-10.539h1.588l-4.266 10.539h-1.589ZM219.949 211.84c.781 0 1.446.138 1.993.416a2.85 2.85 0 0 1 1.254 1.223c.296.538.459 1.206.487 2.004.041 1.197-.156 2.242-.594 3.135a4.91 4.91 0 0 1-1.906 2.095c-.841.512-1.864.803-3.068.872l-.332-1.314c1.074-.061 1.943-.291 2.606-.69.662-.407 1.141-1.002 1.435-1.782l-.027-.013a3.91 3.91 0 0 1-.988.416 4.278 4.278 0 0 1-1.141.143c-.963 0-1.732-.282-2.307-.846-.567-.563-.868-1.344-.902-2.342-.025-.693.098-1.288.367-1.782a2.655 2.655 0 0 1 1.197-1.132c.529-.269 1.171-.403 1.926-.403Zm.049 1.392c-.643 0-1.131.169-1.467.507-.327.33-.48.794-.459 1.392.021.599.198 1.067.531 1.406.341.329.816.494 1.423.494.434 0 .805-.069 1.113-.208.307-.148.538-.36.693-.638.164-.286.239-.62.226-1.002a2.257 2.257 0 0 0-.242-.949 1.658 1.658 0 0 0-.663-.716c-.293-.191-.678-.286-1.155-.286ZM211.924 221.598c-1.267 0-2.223-.399-2.867-1.197-.644-.798-.995-2.025-1.053-3.682-.058-1.657.208-2.884.796-3.682.588-.798 1.516-1.197 2.783-1.197s2.219.399 2.854 1.197c.644.798.995 2.025 1.053 3.682.058 1.657-.207 2.884-.796 3.682-.579.798-1.503 1.197-2.77 1.197Zm-.05-1.444c.72 0 1.235-.278 1.546-.833.31-.555.445-1.423.404-2.602-.042-1.189-.237-2.056-.586-2.602-.349-.556-.884-.833-1.604-.833-.721 0-1.24.277-1.56.833-.31.546-.445 1.413-.403 2.602.041 1.179.236 2.047.585 2.602.358.555.897.833 1.618.833ZM164.432 221.468l-.332-9.499h1.562l4.781 7.157h.026l-.25-7.157h1.432l.332 9.499h-1.563l-4.78-7.157h-.026l.25 7.157h-1.432ZM154.302 221.468l3.131-9.499h1.94l3.782 9.499h-1.575l-3.127-8.275h-.026l-2.55 8.275h-1.575Zm1.714-2.381-.046-1.302h5.273l.045 1.302h-5.272ZM151.588 221.468l-.332-9.499h1.432l.332 9.499h-1.432Zm-5.859 0-.331-9.499h1.432l.332 9.499h-1.433Zm.566-4.32-.046-1.301h5.859l.045 1.301h-5.858ZM141.918 221.468l-.332-9.499h1.485l.331 9.499h-1.484ZM131.671 221.468l3.132-9.499h1.94l3.781 9.499h-1.575l-3.127-8.275h-.026l-2.549 8.275h-1.576Zm1.714-2.381-.046-1.302h5.273l.046 1.302h-5.273ZM123.633 221.468l-.332-9.499h2.864c1.398 0 2.425.226 3.083.677.667.451 1.017 1.167 1.052 2.147.033.963-.254 1.683-.862 2.16-.6.477-1.533.715-2.8.715h-2.422l-.044-1.249h2.214c.885 0 1.519-.121 1.901-.364.39-.252.576-.655.556-1.21-.019-.555-.233-.954-.64-1.197-.4-.252-1.042-.377-1.927-.377h-1.497l.286 8.197h-1.432Zm5.559 0-4.461-4.346h1.809l4.514 4.346h-1.862ZM110.22 221.468l-.332-9.499h1.562l4.781 7.157h.026l-.25-7.157h1.432l.332 9.499h-1.563l-4.78-7.157h-.026l.25 7.157h-1.432ZM100.09 221.468l3.131-9.499h1.94l3.782 9.499h-1.575l-3.127-8.275h-.027l-2.549 8.275h-1.575Zm1.713-2.381-.045-1.302h5.273l.045 1.302h-5.273ZM97.376 221.468l-.332-9.499h1.432l.332 9.499h-1.432Zm-5.859 0-.331-9.499h1.432l.331 9.499h-1.432Zm.566-4.32-.046-1.301h5.859l.045 1.301h-5.858ZM83.279 221.468l-.332-9.499h6.25l.044 1.276h-4.817l.091 2.628h4.557l.044 1.249h-4.557l.107 3.071h4.817l.045 1.275h-6.25ZM74.303 221.468l-.332-9.499h2.864c1.398 0 2.425.226 3.083.677.667.451 1.017 1.167 1.052 2.147.033.963-.254 1.683-.862 2.16-.6.477-1.533.715-2.8.715h-2.422l-.043-1.249h2.213c.885 0 1.519-.121 1.9-.364.391-.252.577-.655.557-1.21-.019-.555-.233-.954-.64-1.197-.4-.252-1.042-.377-1.927-.377h-1.497l.286 8.197h-1.432Zm5.559 0-4.461-4.346h1.81l4.513 4.346h-1.862Z" fill="#fff"/><path fill-rule="evenodd" clip-rule="evenodd" d="M86.946 52.335c2.506-2.378 4.01-5.79 3.877-9.582-.132-3.791-1.874-7.203-4.546-9.582 2.243-2.128 5.29-3.429 8.687-3.429 7.19 0 13.222 5.826 13.473 13.011.251 7.186-5.374 13.011-12.565 13.011-3.396 0-6.534-1.3-8.926-3.429Zm0 0c-2.244 2.129-5.291 3.43-8.688 3.43-7.19 0-13.222-5.826-13.473-13.012-.25-7.185 5.375-13.01 12.565-13.01 3.396 0 6.534 1.3 8.927 3.428-2.507 2.379-4.01 5.79-3.878 9.582.132 3.792 1.874 7.204 4.547 9.582ZM399.922 29.994c.592-.434 1.442-.293 1.898.314 2.425 3.234 5.377 8.75 6.4 14.895 1.03 6.186.109 13.091-5.36 18.833-.506.532-1.363.537-1.913.013-.55-.525-.585-1.38-.079-1.912 4.77-5.008 5.611-11.005 4.682-16.582-.936-5.618-3.663-10.724-5.876-13.675-.456-.607-.345-1.452.248-1.886Zm-5.69 4.958c.592-.435 1.442-.296 1.898.311 1.712 2.276 3.79 6.147 4.512 10.47.728 4.364.077 9.272-3.818 13.348-.507.53-1.364.535-1.913.01-.549-.526-.583-1.381-.076-1.912 3.194-3.342 3.764-7.34 3.137-11.093-.634-3.795-2.486-7.255-3.985-9.248-.457-.606-.347-1.45.245-1.886Zm-4.325 5.411c.59-.438 1.44-.303 1.899.302.935 1.23 2.061 3.307 2.455 5.644.4 2.382.042 5.11-2.139 7.37-.51.528-1.367.528-1.913 0-.547-.528-.577-1.384-.067-1.912 1.474-1.526 1.746-3.34 1.45-5.1-.304-1.806-1.202-3.469-1.921-4.416-.46-.605-.354-1.45.236-1.888Zm-3.52 5.6a.864.864 0 0 0-.87.902.94.94 0 0 0 .933.901.864.864 0 0 0 .87-.9.94.94 0 0 0-.933-.902Zm-3.576.902a3.46 3.46 0 0 1 3.482-3.605c1.992 0 3.663 1.614 3.732 3.605a3.458 3.458 0 0 1-3.481 3.605c-1.992 0-3.663-1.614-3.733-3.605Z" fill="#fff"/><path d="m301.704 145.06-.428-12.252h-.043l-4.508 3.881-.124-3.556 4.55-3.904h3.125l.552 15.831h-3.124ZM286.337 142.458a60.33 60.33 0 0 0 2.397-2.82 22.868 22.868 0 0 0 1.571-2.255c.395-.679.678-1.294.847-1.843.168-.549.244-1.07.227-1.561-.027-.767-.213-1.33-.558-1.692-.345-.361-.872-.542-1.581-.542-.926 0-2.009.267-3.249.802l-.098-2.819c1.068-.477 2.383-.715 3.946-.715 1.576 0 2.747.376 3.511 1.127.763.738 1.173 1.901 1.228 3.492a7.637 7.637 0 0 1-.211 2.038c-.149.68-.4 1.381-.751 2.104a16.427 16.427 0 0 1-1.332 2.233 21.76 21.76 0 0 1-1.892 2.364l.003.087h4.622l.091 2.602h-8.68l-.091-2.602ZM279.679 138.207c-.462 0-.836-.137-1.121-.412-.284-.274-.434-.636-.45-1.084-.016-.463.109-.824.375-1.084.265-.275.629-.412 1.092-.412.463 0 .836.137 1.121.412.284.26.434.621.45 1.084.016.448-.109.81-.374 1.084-.266.275-.63.412-1.093.412Zm.247 7.07c-1.2 0-2.163-.239-2.889-.716-.726-.492-1.267-1.287-1.624-2.385-.356-1.099-.567-2.559-.63-4.381l-.046-1.301c-.064-1.836.044-3.296.325-4.38.28-1.099.766-1.887 1.458-2.364.692-.492 1.638-.737 2.838-.737 1.187 0 2.143.245 2.869.737.74.477 1.288 1.265 1.644 2.364.357 1.084.567 2.544.631 4.38l.045 1.301c.064 1.822-.044 3.282-.324 4.381-.28 1.098-.773 1.893-1.479 2.385-.692.477-1.632.716-2.818.716Zm-.094-2.689c.492 0 .857-.13 1.093-.391.237-.26.387-.744.449-1.453.076-.722.089-1.778.041-3.166l-.03-.867c-.049-1.388-.136-2.436-.262-3.144-.112-.723-.296-1.215-.551-1.475-.255-.26-.628-.39-1.12-.39-.477 0-.841.13-1.093.39-.237.26-.393.752-.469 1.475-.062.708-.069 1.756-.02 3.144l.03.867c.048 1.388.129 2.444.241 3.166.126.709.316 1.193.571 1.453.27.261.643.391 1.12.391ZM264.639 142.458a60.33 60.33 0 0 0 2.397-2.82c.65-.838 1.174-1.59 1.57-2.255.396-.679.678-1.294.847-1.843.169-.549.245-1.07.228-1.561-.027-.767-.213-1.33-.558-1.692-.346-.361-.873-.542-1.582-.542-.925 0-2.008.267-3.248.802l-.099-2.819c1.069-.477 2.384-.715 3.946-.715 1.577 0 2.747.376 3.511 1.127.764.738 1.173 1.901 1.229 3.492a7.678 7.678 0 0 1-.211 2.038c-.15.68-.4 1.381-.751 2.104a16.427 16.427 0 0 1-1.332 2.233 21.76 21.76 0 0 1-1.892 2.364l.003.087h4.621l.091 2.602h-8.679l-.091-2.602ZM235.961 129.013c1.23 0 2.214.209 2.952.629.738.419 1.282 1.106 1.634 2.06.366.954.577 2.226.632 3.816.078 2.227-.147 4.055-.676 5.487-.529 1.431-1.388 2.493-2.579 3.187-1.177.694-2.726 1.056-4.649 1.085l-.094-2.689c.882 0 1.659-.138 2.329-.412.684-.29 1.227-.68 1.63-1.171.402-.506.62-1.085.655-1.735h-.087a4.68 4.68 0 0 1-1.134.455c-.358.087-.747.13-1.167.13-1.389 0-2.43-.419-3.125-1.257-.681-.853-1.052-2.169-1.114-3.947-.07-2.01.263-3.448.999-4.316.75-.881 2.015-1.322 3.794-1.322Zm.07 2.602c-.651 0-1.12.238-1.407.716-.288.462-.415 1.185-.38 2.168.034.983.211 1.713.532 2.19.32.463.805.694 1.456.694.651 0 1.12-.231 1.408-.694.287-.477.413-1.207.379-2.19-.034-.983-.211-1.706-.531-2.168-.321-.478-.806-.716-1.457-.716ZM225.759 145.06l-.427-12.252h-.044l-4.508 3.881-.124-3.556 4.551-3.904h3.124l.553 15.831h-3.125ZM214.584 138.207c-.463 0-.836-.137-1.121-.412-.284-.274-.434-.636-.45-1.084-.016-.463.109-.824.374-1.084.266-.275.63-.412 1.093-.412.463 0 .836.137 1.121.412.284.26.434.621.45 1.084.015.448-.109.81-.375 1.084-.265.275-.629.412-1.092.412Zm.247 7.07c-1.201 0-2.164-.239-2.889-.716-.726-.492-1.267-1.287-1.624-2.385-.357-1.099-.567-2.559-.63-4.381l-.046-1.301c-.064-1.836.044-3.296.325-4.38.279-1.099.765-1.887 1.458-2.364.691-.492 1.637-.737 2.838-.737 1.186 0 2.142.245 2.868.737.74.477 1.289 1.265 1.645 2.364.356 1.084.566 2.544.63 4.38l.046 1.301c.064 1.822-.045 3.282-.325 4.381-.279 1.098-.772 1.893-1.478 2.385-.693.477-1.632.716-2.818.716Zm-.094-2.689c.492 0 .856-.13 1.093-.391.237-.26.386-.744.448-1.453.076-.722.09-1.778.042-3.166l-.031-.867c-.048-1.388-.135-2.436-.261-3.144-.112-.723-.296-1.215-.551-1.475-.255-.26-.628-.39-1.12-.39-.477 0-.842.13-1.093.39-.237.26-.393.752-.469 1.475-.062.708-.069 1.756-.021 3.144l.031.867c.048 1.388.128 2.444.24 3.166.126.709.317 1.193.572 1.453.269.261.643.391 1.12.391ZM199.544 142.458a61.578 61.578 0 0 0 2.397-2.82c.65-.838 1.174-1.59 1.57-2.255.396-.679.678-1.294.847-1.843a4.72 4.72 0 0 0 .227-1.561c-.026-.767-.212-1.33-.558-1.692-.345-.361-.872-.542-1.581-.542-.926 0-2.009.267-3.248.802l-.099-2.819c1.068-.477 2.384-.715 3.946-.715 1.577 0 2.747.376 3.511 1.127.764.738 1.173 1.901 1.229 3.492a7.678 7.678 0 0 1-.211 2.038c-.15.68-.4 1.381-.751 2.104a16.336 16.336 0 0 1-1.333 2.233 21.64 21.64 0 0 1-1.892 2.364l.003.087h4.622l.091 2.602h-8.679l-.091-2.602ZM171.513 145.06l-.427-12.252h-.044l-4.508 3.881-.124-3.556 4.551-3.904h3.124l.553 15.831h-3.125ZM160.664 145.06l-.428-12.252h-.043l-4.508 3.881-.124-3.556 4.55-3.904h3.125l.553 15.831h-3.125ZM149.168 129.013c1.229 0 2.213.209 2.951.629.738.419 1.283 1.106 1.634 2.06.366.954.577 2.226.633 3.816.077 2.227-.148 4.055-.677 5.487-.528 1.431-1.388 2.493-2.579 3.187-1.176.694-2.726 1.056-4.649 1.085l-.094-2.689c.883 0 1.659-.138 2.329-.412.684-.29 1.228-.68 1.63-1.171a2.99 2.99 0 0 0 .656-1.735h-.087a4.713 4.713 0 0 1-1.134.455c-.359.087-.748.13-1.168.13-1.388 0-2.43-.419-3.125-1.257-.68-.853-1.052-2.169-1.114-3.947-.07-2.01.263-3.448.999-4.316.751-.881 2.016-1.322 3.795-1.322Zm.069 2.602c-.651 0-1.12.238-1.407.716-.288.462-.414 1.185-.38 2.168.034.983.212 1.713.532 2.19.32.463.806.694 1.456.694.651 0 1.121-.231 1.408-.694.287-.477.414-1.207.38-2.19-.035-.983-.212-1.706-.532-2.168-.32-.478-.806-.716-1.457-.716ZM138.64 138.207c-.463 0-.837-.137-1.121-.412-.285-.274-.435-.636-.45-1.084-.017-.463.108-.824.374-1.084.265-.275.629-.412 1.092-.412.463 0 .837.137 1.121.412.284.26.434.621.45 1.084.016.448-.109.81-.374 1.084-.265.275-.629.412-1.092.412Zm.247 7.07c-1.201 0-2.164-.239-2.89-.716-.726-.492-1.267-1.287-1.623-2.385-.357-1.099-.567-2.559-.631-4.381l-.045-1.301c-.064-1.836.044-3.296.324-4.38.28-1.099.766-1.887 1.458-2.364.692-.492 1.638-.737 2.839-.737 1.186 0 2.142.245 2.868.737.74.477 1.288 1.265 1.645 2.364.356 1.084.566 2.544.63 4.38l.045 1.301c.064 1.822-.044 3.282-.324 4.381-.28 1.098-.773 1.893-1.479 2.385-.692.477-1.631.716-2.817.716Zm-.094-2.689c.492 0 .856-.13 1.093-.391.236-.26.386-.744.448-1.453.076-.722.09-1.778.041-3.166l-.03-.867c-.048-1.388-.136-2.436-.262-3.144-.112-.723-.295-1.215-.55-1.475-.255-.26-.629-.39-1.12-.39-.478 0-.842.13-1.093.39-.237.26-.394.752-.47 1.475-.062.708-.069 1.756-.02 3.144l.03.867c.049 1.388.129 2.444.241 3.166.126.709.316 1.193.571 1.453.27.261.643.391 1.121.391ZM101.901 142.458a60.33 60.33 0 0 0 2.397-2.82c.65-.838 1.174-1.59 1.57-2.255.396-.679.678-1.294.847-1.843.169-.549.245-1.07.228-1.561-.027-.767-.213-1.33-.559-1.692-.345-.361-.872-.542-1.581-.542-.926 0-2.008.267-3.248.802l-.099-2.819c1.069-.477 2.384-.715 3.946-.715 1.577 0 2.747.376 3.511 1.127.764.738 1.173 1.901 1.229 3.492a7.678 7.678 0 0 1-.211 2.038c-.15.68-.4 1.381-.751 2.104a16.336 16.336 0 0 1-1.333 2.233 21.64 21.64 0 0 1-1.892 2.364l.003.087h4.622l.091 2.602h-8.679l-.091-2.602ZM95.243 138.207c-.463 0-.837-.137-1.121-.412-.284-.274-.435-.636-.45-1.084-.016-.463.108-.824.374-1.084.265-.275.63-.412 1.092-.412.463 0 .837.137 1.121.412.284.26.434.621.45 1.084.016.448-.109.81-.374 1.084-.265.275-.63.412-1.092.412Zm.247 7.07c-1.2 0-2.164-.239-2.89-.716-.725-.492-1.267-1.287-1.623-2.385-.357-1.099-.567-2.559-.63-4.381l-.046-1.301c-.064-1.836.044-3.296.324-4.38.28-1.099.766-1.887 1.458-2.364.692-.492 1.638-.737 2.839-.737 1.186 0 2.142.245 2.868.737.74.477 1.288 1.265 1.645 2.364.356 1.084.566 2.544.63 4.38l.046 1.301c.063 1.822-.045 3.282-.325 4.381-.28 1.098-.773 1.893-1.479 2.385-.692.477-1.631.716-2.817.716Zm-.094-2.689c.492 0 .856-.13 1.093-.391.237-.26.386-.744.448-1.453.076-.722.09-1.778.041-3.166l-.03-.867c-.048-1.388-.135-2.436-.261-3.144-.112-.723-.296-1.215-.551-1.475-.255-.26-.629-.39-1.12-.39-.478 0-.842.13-1.093.39-.237.26-.394.752-.47 1.475-.062.708-.068 1.756-.02 3.144l.03.867c.049 1.388.13 2.444.241 3.166.126.709.317 1.193.572 1.453.27.261.642.391 1.12.391ZM84.64 145.277c-1.215 0-2.198-.21-2.95-.629-.739-.42-1.29-1.106-1.657-2.06-.351-.955-.555-2.227-.61-3.817-.079-2.241.147-4.07.676-5.486.529-1.432 1.388-2.494 2.58-3.188 1.19-.694 2.74-1.055 4.648-1.084l.094 2.689c-.868 0-1.644.144-2.328.433-.685.275-1.228.658-1.63 1.15a2.9 2.9 0 0 0-.656 1.734h.087a4.735 4.735 0 0 1 1.134-.455c.358-.087.747-.13 1.167-.13 1.389 0 2.423.426 3.104 1.279.695.839 1.073 2.147 1.135 3.925.07 2.01-.27 3.456-1.02 4.337-.736.868-1.994 1.302-3.773 1.302Zm-.069-2.603c.651 0 1.12-.231 1.408-.694.287-.477.414-1.207.38-2.19-.035-.983-.212-1.706-.532-2.168-.32-.477-.806-.716-1.457-.716s-1.12.239-1.407.716c-.288.462-.414 1.185-.38 2.168.034.983.212 1.713.532 2.19.32.463.805.694 1.456.694ZM73.87 145.06l-.427-12.252h-.044l-4.508 3.881-.124-3.556 4.55-3.904h3.125l.553 15.831h-3.124ZM371.926 201.167a1.148 1.148 0 0 1 1.156-1.196h10.176c.661 0 1.215.536 1.238 1.196l.267 7.62c.016.461-.235.882-.645 1.08l-5.004 2.421c-.32.155-.698.155-1.029 0l-5.172-2.421a1.25 1.25 0 0 1-.721-1.08l-.266-7.62ZM391.081 201.167a1.148 1.148 0 0 1 1.155-1.196h2.993c.661 0 1.216.536 1.239 1.196l.084 2.393a1.149 1.149 0 0 1-1.156 1.197h-2.993a1.25 1.25 0 0 1-1.239-1.197l-.083-2.393ZM403.052 201.167a1.148 1.148 0 0 1 1.156-1.196h10.176c.661 0 1.215.536 1.238 1.196l.251 7.179a1.147 1.147 0 0 1-1.155 1.196h-10.176a1.248 1.248 0 0 1-1.239-1.196l-.251-7.179ZM372.365 213.73a1.148 1.148 0 0 1 1.155-1.197h10.176a1.25 1.25 0 0 1 1.239 1.197l.251 7.178a1.148 1.148 0 0 1-1.156 1.197h-10.175a1.248 1.248 0 0 1-1.239-1.197l-.251-7.178ZM387.761 208.944a1.147 1.147 0 0 1 1.155-1.196h10.176c.661 0 1.216.535 1.239 1.196l.585 16.75a1.147 1.147 0 0 1-1.155 1.196h-10.176a1.248 1.248 0 0 1-1.239-1.196l-.585-16.75ZM403.491 213.73a1.148 1.148 0 0 1 1.155-1.197h10.176a1.25 1.25 0 0 1 1.239 1.197l.251 7.178a1.148 1.148 0 0 1-1.156 1.197h-10.175a1.248 1.248 0 0 1-1.239-1.197l-.251-7.178ZM372.804 226.292a1.148 1.148 0 0 1 1.155-1.196h10.176c.661 0 1.216.536 1.239 1.196l.251 7.179a1.148 1.148 0 0 1-1.156 1.196h-10.176a1.248 1.248 0 0 1-1.239-1.196l-.25-7.179ZM392.125 231.078a1.148 1.148 0 0 1 1.156-1.196h2.993c.661 0 1.215.535 1.238 1.196l.084 2.393a1.147 1.147 0 0 1-1.155 1.196h-2.993a1.248 1.248 0 0 1-1.239-1.196l-.084-2.393ZM403.914 225.851a1.148 1.148 0 0 1 .645-1.08l5.003-2.421a1.199 1.199 0 0 1 1.03 0l5.172 2.421c.424.198.704.619.72 1.08l.267 7.62a1.148 1.148 0 0 1-1.156 1.196h-10.176a1.248 1.248 0 0 1-1.239-1.196l-.266-7.62Z" fill="#fff"/><defs><linearGradient id="paint0_linear_18_11" x1="33.369" y1="173.158" x2="282.528" y2="471.137" gradientUnits="userSpaceOnUse"><stop stop-color="#fff"/><stop offset="1" stop-color="#fff" stop-opacity=".55"/></linearGradient><linearGradient id="paint1_linear_18_11" x1="52.914" y1="13.479" x2="280.78" y2="262.729" gradientUnits="userSpaceOnUse"><stop stop-color="#fff"/><stop offset="1" stop-color="#fff" stop-opacity=".55"/></linearGradient><filter id="filter0_b_18_11" x="10.351" y="-11.407" width="444.896" height="286.141" filterUnits="userSpaceOnUse" color-interpolation-filters="sRGB"><feFlood flood-opacity="0" result="BackgroundImageFix"/><feGaussianBlur in="BackgroundImageFix" stdDeviation="6.48"/><feComposite in2="SourceAlpha" operator="in" result="effect1_backgroundBlur_18_11"/><feBlend in="SourceGraphic" in2="effect1_backgroundBlur_18_11" result="shape"/></filter><filter id="filter1_b_18_11" x="9.265" y="-12.492" width="447.067" height="288.31" filterUnits="userSpaceOnUse" color-interpolation-filters="sRGB"><feFlood flood-opacity="0" result="BackgroundImageFix"/><feGaussianBlur in="BackgroundImageFix" stdDeviation="6.48"/><feComposite in2="SourceAlpha" operator="in" result="effect1_backgroundBlur_18_11"/><feBlend in="SourceGraphic" in2="effect1_backgroundBlur_18_11" result="shape"/></filter></defs></svg>