<svg width="455" height="490" fill="none" xmlns="http://www.w3.org/2000/svg"><rect width="412.27" height="260.381" rx="34.718" transform="matrix(.98163 .1908 .1908 .98163 0 155.562)" fill="#2BB32A" stroke="url('#paint0_linear_18_11')" stroke-opacity=".5" stroke-width="2.17"/><path d="m80.984 355.339-2.116-10.884 1.983.385 6.395 8.761.03.005-1.52-7.812 1.85.359 2.115 10.884-1.983-.385-6.38-8.758-.029-.006 1.519 7.813-1.864-.362Zm12.912 2.653c-.775-.151-1.427-.478-1.956-.983a3.474 3.474 0 0 1-.992-1.857c-.176-.904.042-1.531.653-1.881.61-.35 1.567-.398 2.87-.145l1.088.211c-.073-.378-.18-.675-.317-.894a1.32 1.32 0 0 0-.561-.525c-.234-.122-.555-.222-.963-.302a8.437 8.437 0 0 0-1.522-.152 5.6 5.6 0 0 0-1.403.158l-.52-1.493c.47-.09 1.003-.13 1.598-.12.595.011 1.2.076 1.817.196.785.152 1.42.366 1.903.642.494.278.884.66 1.17 1.146.286.486.5 1.096.643 1.832l.95 4.89-1.744-.339-.189-.897-.03-.006c-.208.256-.546.434-1.015.534a3.85 3.85 0 0 1-1.48-.015Zm.378-1.304c.367.072.693.073.976.004.28-.08.489-.216.623-.41.135-.194.174-.435.118-.723l-.183-.94-.82-.159c-.855-.166-1.478-.177-1.871-.034-.385.136-.533.432-.445.889.066.338.238.63.515.875s.64.411 1.087.498Zm6.043 2.409-1.507-7.753 1.7.33.207.915.03.006c.212-.284.495-.477.848-.581.351-.113.785-.12 1.302-.019.506.098.952.276 1.337.532.392.249.696.556.911.923l.03.006c.226-.31.517-.512.872-.605.355-.094.796-.089 1.322.013.835.162 1.485.504 1.95 1.025.463.51.786 1.238.969 2.182l1.003 5.159-1.774-.345-.916-4.711c-.114-.587-.292-1.033-.533-1.338-.241-.305-.57-.498-.987-.579-.497-.097-.858-.009-1.083.263-.224.272-.283.681-.177 1.228l.893 4.592-1.789-.348-.942-4.845c-.099-.507-.278-.91-.537-1.209a1.659 1.659 0 0 0-.972-.577c-.299-.058-.557-.031-.774.08a1 1 0 0 0-.457.528c-.087.241-.097.536-.029.883l.893 4.593-1.79-.348Zm16.701 3.39c-1.372-.267-2.493-.82-3.364-1.658-.871-.839-1.432-1.905-1.683-3.197-.243-1.252-.096-2.171.44-2.755.547-.582 1.412-.759 2.595-.529 1.143.223 2.093.732 2.851 1.53.757.798 1.257 1.818 1.498 3.06a8.55 8.55 0 0 1 .118.827l-6.352-1.235-.258-1.327 4.951.962-.191.351c-.158-.816-.434-1.448-.827-1.897-.386-.458-.892-.747-1.518-.869-.666-.13-1.132-.019-1.399.33-.259.342-.31.916-.153 1.721l.101.522c.147.755.455 1.355.924 1.801.467.435 1.103.73 1.908.887.418.081.858.128 1.319.142.46.003.86-.029 1.201-.097l.502 1.475a5.554 5.554 0 0 1-1.228.105 8.01 8.01 0 0 1-1.435-.149ZM69.76 272.346c-1.184-.23-2.246-.652-3.188-1.265a8.139 8.139 0 0 1-2.342-2.306c-.61-.922-1.027-1.964-1.253-3.127-.228-1.173-.199-2.129.088-2.867.295-.746.827-1.26 1.594-1.541.768-.281 1.744-.306 2.927-.077 1.351.263 2.606.789 3.764 1.579l-.114 1.556c-1.126-.774-2.215-1.263-3.269-1.468-.785-.153-1.435-.126-1.95.08a1.754 1.754 0 0 0-1.066 1.084c-.194.527-.211 1.202-.05 2.027.158.815.449 1.551.873 2.207a5.65 5.65 0 0 0 1.59 1.615c.637.42 1.348.707 2.133.859 1.024.199 2.002.112 2.933-.262l.751 1.725c-.93.383-2.07.444-3.422.181Zm5.38.902-1.506-7.753 1.76.342.298 1.464.03.006c.193-.288.44-.517.741-.688a2.58 2.58 0 0 1 1.071-.323 4.278 4.278 0 0 1 1.304.068l.307 1.58c-.626-.122-1.174-.114-1.645.024-.46.141-.805.384-1.034.732-.22.34-.283.758-.186 1.255l.71 3.653-1.85-.36Zm9.887 2.066c-1.371-.267-2.493-.82-3.364-1.658-.87-.839-1.431-1.905-1.682-3.197-.244-1.252-.097-2.171.44-2.755.546-.582 1.411-.759 2.594-.529 1.143.223 2.093.732 2.851 1.53s1.257 1.818 1.499 3.06a8.356 8.356 0 0 1 .117.827l-6.351-1.235-.258-1.327 4.95.962-.19.351c-.159-.816-.435-1.448-.828-1.897-.386-.458-.891-.747-1.518-.869-.666-.13-1.132-.019-1.399.331-.258.341-.31.915-.153 1.72l.101.522c.147.755.455 1.355.924 1.801.467.435 1.104.73 1.909.887.417.081.857.128 1.318.142.46.003.86-.029 1.201-.097l.502 1.475a5.55 5.55 0 0 1-1.228.105 8.015 8.015 0 0 1-1.435-.149Zm7.578 1.473c-1.034-.201-1.908-.711-2.621-1.529-.714-.817-1.195-1.862-1.442-3.135-.247-1.272-.151-2.205.288-2.799.44-.593 1.176-.79 2.21-.589a4.707 4.707 0 0 1 2.666 1.537l.044.009-.785-4.041 1.804.351 2.116 10.884-1.715-.333-.207-.916-.03-.005c-.222.282-.539.473-.95.575-.402.094-.861.091-1.378-.009Zm.187-1.399c.388.076.715.063.982-.038.278-.099.479-.271.603-.514.125-.244.154-.54.086-.887l-.272-1.402a2.358 2.358 0 0 0-.451-.991 3.309 3.309 0 0 0-.843-.796 2.994 2.994 0 0 0-1.09-.441c-.627-.122-1.071.002-1.334.372-.253.372-.3.965-.142 1.78.159.815.45 1.474.872 1.977.433.505.963.819 1.589.94Zm4.632-6.588-.342-1.76 1.849.36.342 1.759-1.85-.359Zm1.773 9.125-1.498-7.709 1.849.36 1.498 7.708-1.849-.359Zm7.665 1.633c-.914-.178-1.612-.495-2.093-.952-.481-.457-.804-1.113-.971-1.968l-.782-4.025-1.73-.337-.284-1.461 1.73.336-.493-2.534 1.849.359.493 2.535 2.609.507.284 1.461-2.609-.507.692 3.563c.097.497.244.861.442 1.09.206.222.517.374.935.455.218.042.443.067.674.073a2.85 2.85 0 0 0 .609-.039l.457 1.538a5.44 5.44 0 0 1-.914.023 6.957 6.957 0 0 1-.898-.117Zm13.043 2.535c-1.183-.23-2.245-.651-3.187-1.265a8.13 8.13 0 0 1-2.342-2.306c-.609-.922-1.027-1.964-1.253-3.127-.228-1.173-.199-2.128.088-2.867.295-.746.827-1.259 1.594-1.54.768-.281 1.744-.307 2.927-.077 1.351.263 2.606.789 3.764 1.578l-.114 1.556c-1.126-.774-2.215-1.263-3.269-1.468-.785-.152-1.435-.126-1.95.08a1.758 1.758 0 0 0-1.066 1.084c-.194.527-.211 1.203-.051 2.028.159.815.45 1.551.874 2.207a5.666 5.666 0 0 0 1.591 1.615c.636.42 1.347.706 2.132.859 1.024.199 2.002.112 2.933-.262l.751 1.724c-.929.384-2.07.444-3.422.181Zm7.172 1.394c-.775-.15-1.427-.478-1.955-.982a3.48 3.48 0 0 1-.993-1.857c-.175-.905.042-1.532.653-1.882.611-.35 1.568-.398 2.87-.145l1.088.211c-.073-.377-.179-.675-.317-.893a1.314 1.314 0 0 0-.561-.525c-.234-.123-.555-.223-.962-.302a8.356 8.356 0 0 0-1.522-.153 5.595 5.595 0 0 0-1.404.158l-.52-1.493c.47-.09 1.003-.13 1.598-.12a10.51 10.51 0 0 1 1.817.196c.785.152 1.42.367 1.904.642.494.278.884.66 1.169 1.146.286.486.501 1.097.644 1.832l.95 4.891-1.744-.34-.189-.897-.03-.006c-.208.256-.547.434-1.015.535-.47.09-.964.085-1.481-.016Zm.378-1.303c.368.071.693.072.976.003.281-.08.489-.216.624-.41.134-.194.173-.435.117-.723l-.182-.939-.82-.16c-.855-.166-1.479-.177-1.872-.034-.385.136-.533.432-.444.89.066.338.237.629.514.874.278.245.64.412 1.087.499Zm6.044 2.408-1.507-7.753 1.759.342.299 1.464.03.006a2.17 2.17 0 0 1 .741-.688 2.57 2.57 0 0 1 1.071-.323 4.275 4.275 0 0 1 1.304.067l.307 1.581c-.626-.122-1.174-.114-1.645.024-.46.14-.805.384-1.034.732-.221.339-.283.758-.186 1.255l.71 3.652-1.849-.359Zm8.902 1.874c-1.034-.201-1.907-.71-2.621-1.528-.714-.818-1.194-1.863-1.441-3.135-.248-1.273-.152-2.206.288-2.799.439-.594 1.175-.79 2.209-.589.517.1 1.002.28 1.454.54.452.261.856.593 1.212.996l.045.009-.786-4.04 1.804.35 2.116 10.884-1.714-.333-.207-.915-.03-.006c-.222.282-.539.474-.95.576-.402.094-.862.09-1.379-.01Zm.187-1.398c.388.075.716.062.983-.039a1.04 1.04 0 0 0 .603-.514c.125-.243.153-.539.086-.887l-.273-1.402a2.358 2.358 0 0 0-.451-.991 3.323 3.323 0 0 0-.843-.795 3.009 3.009 0 0 0-1.09-.442c-.626-.121-1.071.003-1.334.372-.252.372-.3.965-.141 1.781.158.815.449 1.474.872 1.977.433.505.962.818 1.588.94Zm10.541 3.34-2.116-10.884 1.983.385 6.395 8.761.029.005-1.518-7.812 1.849.359 2.115 10.884-1.983-.385-6.379-8.758-.03-.006 1.519 7.813-1.864-.362Zm14.448 2.952c-1.253-.244-2.29-.78-3.111-1.609-.813-.837-1.344-1.897-1.593-3.179-.249-1.283-.104-2.206.437-2.77.549-.573 1.449-.737 2.702-.494 1.252.244 2.29.785 3.113 1.624.821.829 1.356 1.885 1.605 3.167.249 1.282.1 2.21-.449 2.782-.551.563-1.452.722-2.704.479Zm-.284-1.462c.685.134 1.166.021 1.44-.336.273-.368.328-.975.163-1.819-.164-.845-.466-1.516-.907-2.013a2.93 2.93 0 0 0-1.693-.961c-.676-.131-1.156-.014-1.438.352-.275.358-.33.959-.166 1.804.164.845.468 1.521.91 2.028a2.983 2.983 0 0 0 1.691.945Zm5.641 2.36-.409-2.103 2.118.412.408 2.102-2.117-.411ZM211.15 376.541l-2.116-10.884 7.276 1.414.313 1.611-5.412-1.052.545 2.803 5.114.994.307 1.58-5.114-.994.638 3.28 5.412 1.052.313 1.611-7.276-1.415Zm8.471 1.647 1.7-3.428-3.178-4.319 2.028.394 2.203 3.211.029.006 1.078-2.574 2.028.394-1.683 3.375 3.22 4.384-2.028-.394-2.241-3.262-.03-.006-1.084 2.616-2.042-.397Zm11.743-5.321c1.033.201 1.907.71 2.621 1.528.713.818 1.194 1.863 1.441 3.135.248 1.272.152 2.205-.288 2.799-.439.594-1.176.79-2.209.589a4.768 4.768 0 0 1-1.454-.541 5.18 5.18 0 0 1-1.212-.996l-.03-.006.785 4.041-1.834-.356-2.115-10.885 1.744.339.192.913.03.006c.23-.29.547-.482.949-.576.403-.094.863-.091 1.38.01Zm-.188 1.398c-.377-.073-.705-.061-.982.039a1.04 1.04 0 0 0-.603.514c-.117.235-.141.532-.071.89l.272 1.401c.068.348.213.678.436.989.233.313.519.579.859.798.339.219.697.365 1.075.438.636.124 1.08 0 1.333-.372.253-.371.301-.965.142-1.78-.158-.815-.449-1.474-.872-1.977a2.695 2.695 0 0 0-1.589-.94Zm6.462 7.425-.409-2.102 2.117.411.409 2.103-2.117-.412Z" fill="#595959"/><path d="M220.785 406.447c-1.244-.242-2.244-.814-3.002-1.715-.757-.901-1.294-2.166-1.61-3.793-.316-1.627-.248-2.774.204-3.44.453-.667 1.301-.879 2.545-.637s2.24.812 2.989 1.712c.757.902 1.294 2.166 1.61 3.793.317 1.628.249 2.774-.204 3.441-.444.668-1.288.881-2.532.639Zm-.276-1.419c.707.138 1.17-.035 1.388-.517.217-.482.214-1.303-.012-2.462-.226-1.167-.554-2.05-.982-2.65-.43-.608-.998-.981-1.705-1.119-.707-.137-1.174.035-1.4.515-.22.474-.216 1.295.011 2.462.225 1.159.552 2.042.982 2.65.438.61 1.011.984 1.718 1.121Zm6.625-6.57c.767.149 1.441.411 2.022.787a4.637 4.637 0 0 1 1.422 1.432c.375.581.639 1.264.792 2.048.228 1.175.198 2.157-.092 2.945-.282.782-.797 1.342-1.542 1.68-.746.339-1.705.427-2.876.265l-.532-1.345c1.045.146 1.862.087 2.45-.176.587-.271.963-.759 1.13-1.465l-.028-.017a2.788 2.788 0 0 1-.905.217 3.97 3.97 0 0 1-1.097-.078c-.946-.184-1.745-.605-2.398-1.265-.645-.658-1.062-1.477-1.253-2.457-.132-.682-.105-1.238.082-1.669.187-.431.519-.723.998-.876.477-.161 1.086-.17 1.827-.026Zm.266 1.368c-.631-.123-1.084-.051-1.36.215-.27.259-.347.683-.233 1.27.114.588.361 1.079.741 1.473.387.386.879.638 1.475.753.426.083.779.086 1.059.01.279-.086.473-.249.581-.49.116-.248.138-.559.065-.934a2.938 2.938 0 0 0-.386-.973 2.706 2.706 0 0 0-.763-.825c-.318-.242-.711-.408-1.179-.499Zm5.922 9.427 2.537-9.468 1.56.303-2.538 9.468-1.559-.303Zm10.597 1.568-1.466-7.541-.026-.005-2.896 1.294-.731-1.482 3.305-1.596 1.623.316 1.814 9.329-1.623-.315Zm8.212 1.596-1.466-7.54-.025-.005-2.897 1.294-.731-1.483 3.305-1.595 1.623.315 1.814 9.329-1.623-.315ZM85.673 380.061l-1.814-9.33 2.812.547c1.372.266 2.416.683 3.132 1.248.725.567 1.182 1.332 1.369 2.295.184.946.014 1.593-.508 1.943-.514.351-1.393.405-2.637.164l-2.377-.463-.238-1.226 2.172.422c.87.169 1.472.171 1.81.007.343-.171.462-.529.356-1.074a2 2 0 0 0-.816-1.29c-.431-.322-1.082-.567-1.95-.736l-1.47-.285 1.565 8.051-1.406-.273Zm5.457 1.06-5.06-5.09 1.776.345 5.111 5.101-1.827-.356Zm3.354.652-1.813-9.329 6.134 1.192.243 1.253-4.728-.919.502 2.581 4.472.87.239 1.227-4.473-.87.586 3.016 4.729.919.243 1.253-6.134-1.193Zm13.838 2.69-1.813-9.329 1.405.273 1.814 9.329-1.406-.273Zm-5.751-1.118-1.813-9.329 1.406.273 1.813 9.33-1.406-.274Zm-.122-4.106-.248-1.278 5.751 1.118.248 1.278-5.751-1.118Zm8.537 5.742 1.586-8.669 1.905.371 5.2 9.987-1.547-.3-4.366-8.67-.025-.005-1.206 7.587-1.547-.301Zm1.309-1.996-.248-1.278 5.176 1.006.248 1.278-5.176-1.006Zm8.635 3.929-1.814-9.329 1.534.298 5.814 7.893.025.005-1.366-7.029 1.406.273 1.813 9.33-1.534-.298-5.813-7.894-.026-.005 1.367 7.029-1.406-.273Zm13.166 2.559-1.813-9.329 2.812.546c1.371.267 2.415.683 3.132 1.249.725.567 1.181 1.332 1.368 2.295.184.945.015 1.593-.507 1.942-.514.351-1.393.406-2.637.164l-2.377-.462-.238-1.227 2.172.423c.869.168 1.472.171 1.809.007.344-.171.463-.529.357-1.074a1.995 1.995 0 0 0-.816-1.29c-.432-.322-1.082-.567-1.951-.736l-1.47-.286 1.565 8.051-1.406-.273Zm5.457 1.061-5.059-5.091 1.776.345 5.111 5.101-1.828-.355Zm2.434.473 1.586-8.668 1.905.37 5.2 9.987-1.547-.3-4.366-8.67-.025-.005-1.206 7.587-1.547-.301Zm1.309-1.996-.248-1.278 5.176 1.006.248 1.278-5.176-1.006Zm8.75 3.951-1.814-9.329 1.457.283 1.814 9.329-1.457-.283Zm9.492 1.845-1.813-9.329 1.406.273 1.813 9.33-1.406-.274Zm-5.751-1.118-1.813-9.329 1.406.273 1.813 9.33-1.406-.274Zm-.122-4.106-.248-1.278 5.751 1.118.248 1.278-5.751-1.118Zm8.537 5.742 1.586-8.668 1.905.37 5.2 9.987-1.547-.3-4.366-8.67-.025-.005-1.206 7.587-1.547-.301Zm1.309-1.996-.248-1.278 5.176 1.006.248 1.278-5.176-1.006Zm8.635 3.929-1.814-9.329 1.534.298 5.814 7.893.025.005-1.366-7.029 1.406.273 1.813 9.33-1.533-.298-5.814-7.894-.026-.005 1.367 7.029-1.406-.273Z" fill="#424242"/><path fill-rule="evenodd" clip-rule="evenodd" d="M71.59 217.474c2.087-1.842 3.028-4.884 2.305-8.608-.724-3.724-2.969-7.385-5.965-10.215 1.87-1.649 4.657-2.336 7.991-1.688 7.058 1.372 13.892 8.206 15.264 15.264 1.372 7.058-3.238 11.667-10.296 10.295-3.333-.648-6.618-2.515-9.3-5.048Zm0 0c-1.87 1.648-4.657 2.336-7.991 1.688-7.058-1.372-13.892-8.206-15.264-15.264-1.372-7.058 3.238-11.668 10.296-10.296 3.333.648 6.618 2.515 9.3 5.049-2.088 1.841-3.03 4.883-2.306 8.607.724 3.725 2.969 7.386 5.964 10.216ZM375.315 255.397c.513-.31 1.37-.011 1.912.669 2.888 3.618 6.649 9.562 8.616 15.751 1.98 6.232 2.158 12.793-2.312 17.351-.413.422-1.253.264-1.875-.353-.622-.616-.791-1.458-.377-1.88 3.898-3.975 3.783-9.666 1.998-15.283-1.798-5.66-5.275-11.161-7.91-14.462-.543-.68-.566-1.482-.052-1.793Zm-4.809 3.751c.513-.311 1.369-.013 1.912.666 2.037 2.547 4.683 6.719 6.069 11.074 1.399 4.398 1.529 9.061-1.657 12.294-.415.421-1.254.262-1.876-.355-.621-.618-.789-1.459-.374-1.88 2.612-2.651 2.544-6.443 1.342-10.223-1.217-3.824-3.578-7.552-5.361-9.782-.543-.679-.568-1.482-.055-1.794Zm-3.398 4.454c.51-.315 1.366-.021 1.912.657 1.11 1.378 2.541 3.619 3.293 5.974.767 2.4.842 4.994-.945 6.782-.418.417-1.258.254-1.878-.365-.619-.62-.782-1.46-.365-1.878 1.208-1.208 1.191-2.926.624-4.7-.581-1.818-1.722-3.612-2.577-4.674-.546-.677-.574-1.482-.064-1.796Zm-2.578 4.792c-.489-.095-.808.224-.713.713.095.489.569.962 1.057 1.057.489.095.809-.224.714-.713-.095-.489-.569-.962-1.058-1.057Zm-3.368.197c-.38-1.955.897-3.233 2.852-2.852 1.956.38 3.849 2.273 4.229 4.229.38 1.955-.897 3.232-2.852 2.852-1.956-.38-3.849-2.274-4.229-4.229Z" fill="#424242"/><path d="m73.279 305.437-2.34-12.034-.042-.008-3.817 2.926-.68-3.493 3.856-2.94 3.067.597 3.023 15.548-3.067-.596Zm10.606 2.267c-1.193-.232-2.192-.624-2.996-1.177-.79-.55-1.44-1.325-1.948-2.326-.495-.997-.894-2.277-1.197-3.839-.428-2.201-.493-3.942-.196-5.224.295-1.295.972-2.168 2.033-2.617 1.06-.45 2.525-.507 4.394-.171l.513 2.641c-.852-.165-1.591-.172-2.218-.021-.629.137-1.102.407-1.42.81-.318.403-.442.925-.372 1.568l.085.016a3.361 3.361 0 0 1 1.042-.228c.339-.016.714.016 1.126.096 1.363.265 2.445.878 3.247 1.84.813.951 1.39 2.3 1.73 4.046.383 1.974.276 3.319-.323 4.037-.587.705-1.754.888-3.5.549Zm-.476-2.552c.64.124 1.064-.012 1.273-.408.208-.411.217-1.099.03-2.065-.188-.965-.475-1.704-.862-2.217a2.435 2.435 0 0 0-1.542-.976c-.64-.124-1.062.019-1.27.43-.21.396-.22 1.077-.032 2.043.187.966.476 1.712.865 2.238.386.513.9.831 1.538.955Zm9.776-2.322a2.198 2.198 0 0 1-1.165-.616 2.168 2.168 0 0 1-.612-1.143c-.088-.455-.022-.783.198-.987.217-.217.553-.281 1.008-.193.454.088.842.293 1.164.616.32.308.524.689.612 1.143.086.441.02.769-.198.987-.217.217-.553.282-1.007.193Zm1.35 6.944c-1.179-.229-2.162-.646-2.949-1.249-.79-.618-1.445-1.497-1.967-2.637s-.957-2.605-1.305-4.394l-.249-1.278c-.35-1.803-.473-3.207-.367-4.211.102-1.019.456-1.695 1.06-2.028.603-.348 1.493-.407 2.671-.178 1.165.226 2.142.649 2.931 1.267.802.606 1.463 1.48 1.985 2.619.52 1.126.955 2.591 1.305 4.394l.249 1.278c.347 1.789.47 3.193.367 4.212-.102 1.018-.462 1.7-1.078 2.044-.604.334-1.489.387-2.653.161Zm-.514-2.641c.483.094.82.036 1.012-.172.192-.209.263-.653.213-1.332-.04-.691-.19-1.718-.456-3.081l-.166-.852c-.264-1.363-.514-2.402-.749-3.118-.223-.726-.48-1.241-.771-1.543-.291-.303-.678-.501-1.161-.595-.469-.091-.806-.033-1.012.173-.192.208-.268.658-.23 1.349.05.679.208 1.7.473 3.063l.166.852c.264 1.363.509 2.408.732 3.135.234.715.497 1.224.788 1.526.306.306.693.504 1.161.595Zm6.365 1.114a34.043 34.043 0 0 0 1.912-2.293c.507-.694.903-1.327 1.188-1.9.282-.588.463-1.133.542-1.637.08-.504.073-.997-.021-1.48-.146-.752-.417-1.338-.813-1.756-.395-.419-.941-.696-1.637-.831-.908-.176-1.93-.122-3.063.163l-.538-2.769c.974-.261 2.228-.243 3.761.055 1.548.301 2.756.891 3.623 1.77.865.865 1.45 2.078 1.753 3.64.127.654.165 1.303.113 1.949a6.893 6.893 0 0 1-.408 1.908 9.97 9.97 0 0 1-.958 1.925 12.327 12.327 0 0 1-1.487 1.945l.016.085 4.537.882.497 2.556-8.52-1.656-.497-2.556Zm35.398 2.864a2.216 2.216 0 0 1-1.165-.616 2.168 2.168 0 0 1-.611-1.144c-.089-.454-.023-.783.197-.986.218-.217.554-.282 1.008-.194.454.089.843.294 1.165.616.319.308.523.689.612 1.144.085.44.019.769-.198.986-.217.218-.553.282-1.008.194Zm1.35 6.943c-1.178-.229-2.161-.645-2.948-1.249-.79-.618-1.446-1.497-1.968-2.637s-.957-2.604-1.305-4.393l-.248-1.278c-.351-1.804-.473-3.208-.368-4.212.103-1.018.456-1.694 1.061-2.028.602-.347 1.492-.406 2.671-.177 1.164.226 2.141.648 2.931 1.266.801.607 1.463 1.48 1.985 2.62.519 1.126.954 2.59 1.305 4.394l.248 1.278c.348 1.789.471 3.193.368 4.211-.103 1.019-.462 1.7-1.078 2.045-.605.333-1.489.387-2.654.16Zm-.513-2.641c.483.094.82.037 1.012-.172.191-.209.262-.653.212-1.332-.039-.69-.19-1.717-.455-3.081l-.166-.852c-.265-1.363-.515-2.402-.749-3.117-.224-.727-.481-1.241-.772-1.544-.291-.302-.678-.5-1.161-.594-.468-.091-.806-.034-1.011.172-.192.209-.269.658-.23 1.349.05.679.207 1.701.472 3.064l.166.852c.265 1.363.509 2.408.732 3.134.235.715.498 1.224.789 1.527.305.305.692.503 1.161.594Zm8.058-11.263c1.207.234 2.205.627 2.995 1.176.79.55 1.433 1.324 1.927 2.322.509 1.001.915 2.282 1.219 3.844.425 2.187.49 3.928.195 5.223-.294 1.296-.972 2.168-2.032 2.618-1.046.452-2.511.509-4.394.171l-.513-2.642c.866.169 1.606.183 2.221.043.627-.152 1.099-.429 1.417-.832.315-.416.439-.939.372-1.567l-.086-.016a3.383 3.383 0 0 1-1.042.227 4.702 4.702 0 0 1-1.125-.095c-1.363-.265-2.451-.873-3.265-1.824-.801-.962-1.372-2.316-1.712-4.063-.383-1.973-.282-3.313.305-4.019.599-.717 1.771-.906 3.518-.566Zm.475 2.552c-.639-.125-1.062.019-1.269.429-.21.397-.221 1.078-.033 2.043.188.966.476 1.712.865 2.239.387.512.9.83 1.539.954.639.125 1.063-.012 1.273-.408.207-.411.217-1.099.029-2.064-.188-.966-.475-1.705-.861-2.217a2.435 2.435 0 0 0-1.543-.976Zm13.324 15.296-2.34-12.034-.042-.008-3.817 2.926-.679-3.493 3.855-2.94 3.067.597 3.023 15.548-3.067-.596Zm10.65 2.07-2.34-12.034-.042-.008-3.817 2.926-.679-3.493 3.855-2.939 3.067.596 3.023 15.549-3.067-.597Zm27.107 2.81a33.999 33.999 0 0 0 1.911-2.293c.508-.693.904-1.327 1.189-1.9.282-.587.463-1.133.542-1.637.08-.503.073-.997-.021-1.479-.146-.753-.417-1.339-.813-1.757-.395-.419-.941-.695-1.637-.831-.909-.176-1.93-.122-3.063.163l-.538-2.769c.974-.261 2.228-.243 3.761.055 1.548.301 2.756.891 3.623 1.77.865.865 1.45 2.078 1.753 3.64.127.654.165 1.303.113 1.949a6.908 6.908 0 0 1-.408 1.909 9.991 9.991 0 0 1-.958 1.924 12.388 12.388 0 0 1-1.487 1.945l.016.085 4.537.882.497 2.556-8.52-1.656-.497-2.556Zm14.099-1.276a2.21 2.21 0 0 1-1.165-.616 2.163 2.163 0 0 1-.612-1.144c-.088-.454-.023-.783.198-.986.217-.218.553-.282 1.007-.194a2.21 2.21 0 0 1 1.165.616 2.1 2.1 0 0 1 .612 1.144c.085.44.02.769-.198.986-.217.217-.553.282-1.007.194Zm1.349 6.943c-1.178-.229-2.161-.645-2.948-1.249-.79-.618-1.445-1.497-1.968-2.637-.522-1.14-.957-2.604-1.305-4.394l-.248-1.278c-.351-1.803-.473-3.207-.368-4.211.103-1.019.457-1.694 1.061-2.028.602-.347 1.492-.407 2.671-.177 1.164.226 2.141.648 2.931 1.266.801.607 1.463 1.48 1.985 2.62.519 1.126.954 2.59 1.305 4.394l.248 1.277c.348 1.79.471 3.193.368 4.212-.103 1.018-.462 1.7-1.078 2.045-.605.333-1.489.387-2.654.16Zm-.513-2.641c.483.094.82.037 1.012-.172.191-.209.262-.653.212-1.332-.038-.691-.19-1.718-.455-3.081l-.166-.852c-.265-1.363-.515-2.402-.749-3.117-.224-.727-.481-1.241-.772-1.544-.291-.302-.678-.5-1.161-.594-.468-.091-.805-.034-1.011.172-.192.209-.269.658-.23 1.349.05.679.208 1.7.473 3.064l.165.852c.265 1.363.509 2.408.732 3.134.235.715.498 1.224.789 1.527.305.305.692.503 1.161.594Zm11.207 4.515-2.339-12.034-.043-.009-3.817 2.927-.679-3.493 3.856-2.94 3.067.596 3.022 15.549-3.067-.596Zm7.501-13.708c1.207.234 2.205.627 2.995 1.176.79.55 1.433 1.324 1.927 2.322.509 1.001.915 2.282 1.219 3.844.425 2.187.49 3.928.195 5.223-.294 1.296-.972 2.168-2.032 2.618-1.046.452-2.511.509-4.394.171l-.513-2.642c.866.169 1.606.183 2.221.043.627-.152 1.099-.429 1.417-.832.315-.416.439-.939.372-1.567l-.086-.016a3.383 3.383 0 0 1-1.042.227 4.702 4.702 0 0 1-1.125-.095c-1.363-.265-2.451-.873-3.265-1.824-.801-.962-1.372-2.316-1.712-4.063-.383-1.973-.282-3.313.305-4.019.599-.717 1.771-.906 3.518-.566Zm.475 2.552c-.639-.125-1.062.019-1.269.429-.21.397-.221 1.078-.033 2.043.188.966.476 1.712.865 2.239.387.512.9.83 1.539.954.639.125 1.063-.012 1.273-.408.207-.411.217-1.099.029-2.064-.188-.966-.475-1.705-.861-2.217a2.435 2.435 0 0 0-1.543-.976Zm29.781 16.036a33.744 33.744 0 0 0 1.912-2.293c.507-.694.903-1.327 1.188-1.9.282-.588.463-1.133.543-1.637a4.246 4.246 0 0 0-.022-1.48c-.146-.752-.417-1.338-.812-1.756-.396-.419-.942-.696-1.638-.831-.908-.177-1.929-.122-3.063.163l-.538-2.769c.974-.262 2.228-.243 3.761.055 1.548.301 2.756.891 3.624 1.77.865.865 1.449 2.078 1.752 3.64.127.653.165 1.303.113 1.949a6.893 6.893 0 0 1-.408 1.908 9.97 9.97 0 0 1-.958 1.925 12.327 12.327 0 0 1-1.487 1.945l.017.085 4.536.882.497 2.556-8.52-1.656-.497-2.556Zm14.099-1.277a2.2 2.2 0 0 1-1.165-.615 2.18 2.18 0 0 1-.612-1.144c-.088-.455-.022-.783.198-.986.217-.218.553-.282 1.007-.194.455.088.843.294 1.165.616a2.1 2.1 0 0 1 .612 1.144c.086.44.02.768-.198.986-.217.217-.553.282-1.007.193Zm1.35 6.944c-1.179-.229-2.162-.645-2.949-1.249-.789-.618-1.445-1.497-1.967-2.637-.523-1.14-.958-2.605-1.305-4.394l-.249-1.278c-.35-1.803-.473-3.207-.367-4.211.102-1.019.456-1.695 1.061-2.028.601-.348 1.492-.407 2.67-.178 1.165.227 2.142.649 2.931 1.267.801.606 1.463 1.48 1.985 2.62.52 1.125.955 2.59 1.305 4.393l.249 1.278c.347 1.789.47 3.193.367 4.212-.102 1.018-.462 1.7-1.078 2.045-.605.333-1.489.386-2.653.16Zm-.514-2.641c.483.094.82.036 1.012-.172.192-.209.262-.653.212-1.332-.038-.691-.19-1.718-.455-3.081l-.166-.852c-.265-1.363-.514-2.402-.749-3.117-.223-.727-.48-1.241-.771-1.544-.292-.303-.678-.501-1.161-.595-.469-.091-.806-.033-1.012.173-.192.208-.268.658-.23 1.349.05.679.208 1.7.473 3.063l.165.852c.265 1.364.51 2.408.733 3.135.234.715.497 1.224.788 1.526.306.306.693.504 1.161.595Zm6.365 1.114a33.999 33.999 0 0 0 1.911-2.293c.508-.693.904-1.327 1.189-1.9.282-.587.463-1.133.542-1.637.08-.503.073-.997-.021-1.479-.146-.753-.417-1.339-.813-1.757-.395-.419-.941-.695-1.637-.831-.909-.176-1.93-.122-3.063.163l-.538-2.769c.974-.261 2.228-.243 3.761.055 1.548.301 2.756.891 3.623 1.77.865.865 1.45 2.078 1.753 3.64.127.654.165 1.303.113 1.949a6.908 6.908 0 0 1-.408 1.909 9.991 9.991 0 0 1-.958 1.924 12.388 12.388 0 0 1-1.487 1.945l.016.085 4.537.882.497 2.556-8.52-1.656-.497-2.556Zm15.492 5.471-2.339-12.034-.043-.009-3.817 2.927-.679-3.493 3.856-2.94 3.067.596 3.022 15.549-3.067-.596ZM374.648 417.046c-.126-.649.298-1.073.947-.947l9.989 1.942c.649.126 1.277.754 1.403 1.403l1.455 7.484c.088.454-.092.816-.463.931l-4.533 1.408c-.29.09-.661.018-1.01-.197l-5.457-3.349c-.447-.274-.788-.738-.876-1.191l-1.455-7.484ZM393.451 420.701c-.126-.649.298-1.073.947-.947l2.937.571c.649.126 1.278.755 1.404 1.404l.457 2.35c.126.649-.298 1.073-.947.947l-2.938-.571c-.649-.127-1.277-.755-1.403-1.404l-.457-2.35ZM405.202 422.985c-.126-.649.298-1.073.947-.947l9.989 1.942c.649.126 1.277.754 1.404 1.403l1.37 7.051c.126.649-.298 1.073-.947.947l-9.988-1.942c-.649-.126-1.278-.754-1.404-1.403l-1.371-7.051ZM377.047 429.385c-.126-.649.297-1.073.946-.947l9.989 1.942c.649.126 1.278.754 1.404 1.403l1.37 7.051c.127.649-.297 1.073-.946.947l-9.989-1.942c-.649-.126-1.278-.754-1.404-1.403l-1.37-7.051ZM391.41 427.654c-.126-.649.298-1.073.947-.947l9.989 1.942c.649.126 1.277.754 1.403 1.403l3.198 16.453c.126.649-.297 1.072-.946.946l-9.989-1.941c-.649-.127-1.278-.755-1.404-1.404l-3.198-16.452ZM407.601 435.324c-.126-.649.298-1.073.947-.947l9.988 1.942c.649.126 1.278.755 1.404 1.404l1.371 7.05c.126.65-.298 1.073-.947.947l-9.989-1.941c-.649-.127-1.277-.755-1.404-1.404l-1.37-7.051ZM379.445 441.724c-.126-.649.298-1.073.947-.947l9.989 1.942c.649.126 1.277.755 1.403 1.404l1.371 7.051c.126.649-.298 1.072-.947.946l-9.989-1.941c-.649-.127-1.277-.755-1.403-1.404l-1.371-7.051ZM399.161 450.08c-.126-.649.298-1.073.947-.947l2.938.571c.649.126 1.278.754 1.404 1.403l.457 2.351c.126.649-.298 1.073-.947.947l-2.938-.572c-.649-.126-1.277-.754-1.404-1.403l-.457-2.35ZM409.915 447.23c-.088-.453.092-.815.464-.931l4.532-1.407c.29-.09.661-.018 1.01.196l5.457 3.349c.447.275.788.738.876 1.192l1.455 7.484c.126.649-.298 1.073-.947.946l-9.988-1.941c-.649-.126-1.278-.755-1.404-1.404l-1.455-7.484Z" fill="#424242"/><g filter="url('#filter0_b_18_11')" transform="matrix(1 0 .0349 .9994 20.848 1.468)"><rect width="412.27" height="260.381" rx="34.718" fill="#fff" fill-opacity=".1"/><rect width="412.27" height="260.381" rx="34.718" stroke="url('#paint1_linear_18_11')" stroke-opacity=".5" stroke-width="2.17"/></g><path d="m72.275 196.191-.387-11.081h2.02l5.245 7.954h.03l-.278-7.954h1.884l.386 11.081h-2.02l-5.229-7.954h-.03l.278 7.954h-1.9Zm13.13.152c-.79 0-1.42-.212-1.891-.637-.461-.435-.704-1.022-.73-1.761-.032-.921.302-1.629 1.004-2.125s1.716-.744 3.042-.744h1.109c-.013-.385-.074-.678-.183-.881a.82.82 0 0 0-.501-.44c-.226-.081-.546-.121-.961-.121-.507 0-1.031.05-1.575.152a7.151 7.151 0 0 0-1.503.455l-.294-1.472a9.588 9.588 0 0 1 1.7-.456 10.7 10.7 0 0 1 1.878-.167c.8 0 1.431.096 1.894.289.472.192.817.516 1.036.971.218.456.34 1.058.367 1.807l.174 4.978h-1.778l-.046-.91h-.03c-.263.313-.65.571-1.159.774a4.378 4.378 0 0 1-1.554.288Zm.617-1.457c.374 0 .716-.066 1.025-.197a1.84 1.84 0 0 0 .725-.562 1.21 1.21 0 0 0 .246-.789l-.034-.957h-.835c-.87 0-1.525.117-1.962.349-.428.223-.634.567-.617 1.033.012.344.143.617.393.819.25.203.603.304 1.059.304Zm5.948 1.305-.275-7.893h1.731l.063.926h.03c.272-.344.602-.607.99-.789.388-.193.846-.289 1.372-.289.517 0 .956.096 1.317.289.37.182.638.445.802.789h.03c.29-.374.63-.648 1.02-.82.389-.172.851-.258 1.388-.258.851 0 1.476.228 1.877.683.4.446.617 1.149.651 2.11l.183 5.252h-1.807l-.168-4.796c-.021-.597-.132-1.033-.334-1.306-.202-.273-.516-.41-.94-.41-.507 0-.901.167-1.183.501-.282.334-.414.78-.394 1.336l.163 4.675h-1.823l-.172-4.933c-.018-.516-.138-.906-.36-1.169-.222-.273-.53-.41-.925-.41-.304 0-.58.081-.827.243-.238.162-.427.38-.57.653a1.972 1.972 0 0 0-.18.941l.164 4.675H91.97Zm16.989.152c-1.397 0-2.483-.354-3.257-1.062-.774-.709-1.184-1.721-1.23-3.036-.045-1.275.265-2.277.928-3.006.673-.728 1.612-1.093 2.817-1.093 1.165 0 2.078.344 2.74 1.032.662.689 1.015 1.665 1.059 2.93a8.142 8.142 0 0 1-.016.85h-6.47l-.047-1.351h5.042l-.259.41c-.029-.83-.212-1.442-.55-1.837-.328-.404-.811-.607-1.449-.607-.678 0-1.187.213-1.527.638-.33.415-.48 1.032-.452 1.852l.019.531c.027.769.249 1.341.667 1.715.418.364 1.037.547 1.857.547.425 0 .88-.041 1.363-.122a7.414 7.414 0 0 0 1.279-.349l.279 1.457c-.38.152-.816.274-1.309.365a8.161 8.161 0 0 1-1.484.136ZM74.484 110.686c-1.205 0-2.25-.228-3.137-.683a4.982 4.982 0 0 1-2.074-1.958c-.485-.85-.748-1.867-.79-3.051-.041-1.194.15-2.212.577-3.051a4.5 4.5 0 0 1 1.937-1.959c.855-.455 1.885-.683 3.09-.683 1.377 0 2.607.299 3.691.896l-.382 1.67c-1.053-.587-2.117-.881-3.19-.881-.8 0-1.488.162-2.064.486a3.045 3.045 0 0 0-1.304 1.366c-.293.597-.425 1.316-.395 2.156.029.829.21 1.548.546 2.155a3.46 3.46 0 0 0 1.4 1.381c.598.314 1.297.471 2.097.471 1.043 0 2.086-.293 3.129-.88l.498 1.669c-1.042.597-2.252.896-3.629.896Zm5.507-.152-.276-7.893h1.792l.067 1.487h.03c.252-.344.55-.637.897-.88.355-.253.749-.44 1.18-.562a4.65 4.65 0 0 1 1.36-.197l.056 1.609c-.638 0-1.216.121-1.734.364a3.117 3.117 0 0 0-1.21.987c-.29.405-.426.86-.409 1.366l.13 3.719h-1.883Zm10.047.152c-1.397 0-2.483-.354-3.257-1.063-.774-.708-1.184-1.72-1.23-3.036-.045-1.275.264-2.276.928-3.005.673-.729 1.612-1.093 2.817-1.093 1.164 0 2.078.344 2.74 1.032.662.688 1.015 1.665 1.059 2.93a8.096 8.096 0 0 1-.016.85h-6.47l-.048-1.351h5.043l-.26.41c-.028-.83-.211-1.442-.55-1.837-.327-.405-.81-.607-1.448-.607-.679 0-1.188.212-1.527.637-.33.415-.48 1.033-.452 1.852l.019.532c.026.769.249 1.34.667 1.715.418.364 1.037.546 1.857.546.425 0 .88-.04 1.363-.121a7.41 7.41 0 0 0 1.279-.349l.278 1.457c-.38.152-.815.273-1.308.364a8.158 8.158 0 0 1-1.484.137Zm7.72 0c-1.054 0-1.887-.359-2.5-1.078-.611-.718-.94-1.725-.986-3.021-.045-1.295.214-2.302.776-3.02.562-.719 1.37-1.078 2.423-1.078.526 0 1.006.091 1.437.273.432.182.8.451 1.107.805h.045l-.143-4.114h1.837l.387 11.081h-1.746l-.063-.926h-.03a2.836 2.836 0 0 1-1.096.805c-.44.182-.922.273-1.449.273Zm.432-1.518c.395 0 .742-.081 1.04-.243.308-.162.548-.384.72-.668.173-.283.253-.602.241-.956l-.05-1.427a1.732 1.732 0 0 0-.307-.956 2.028 2.028 0 0 0-.752-.668 2.278 2.278 0 0 0-1.072-.243c-.638 0-1.126.223-1.465.668-.329.445-.479 1.083-.45 1.912.03.83.224 1.468.583 1.913.37.445.874.668 1.512.668Zm5.983-7.924-.062-1.79h1.883l.063 1.79h-1.884Zm.325 9.29-.275-7.848h1.884l.274 7.848h-1.883Zm7.784.152c-.932 0-1.612-.192-2.041-.577-.428-.384-.658-1.012-.688-1.882l-.143-4.099h-1.762l-.052-1.487h1.762l-.09-2.581h1.883l.09 2.581h2.658l.052 1.487h-2.658l.127 3.628c.017.506.111.861.28 1.063.179.192.481.288.906.288.223 0 .455-.02.697-.06.241-.041.457-.097.647-.167l.221 1.533a6.354 6.354 0 0 1-1.889.273Zm13.287 0c-1.205 0-2.251-.228-3.138-.683a4.976 4.976 0 0 1-2.073-1.958c-.486-.85-.749-1.867-.79-3.051-.042-1.194.15-2.212.577-3.051a4.497 4.497 0 0 1 1.936-1.959c.855-.455 1.885-.683 3.09-.683 1.377 0 2.608.299 3.692.896l-.382 1.67c-1.054-.587-2.117-.881-3.19-.881-.8 0-1.488.162-2.064.486a3.04 3.04 0 0 0-1.304 1.366c-.293.597-.425 1.316-.396 2.156.029.829.211 1.548.546 2.155a3.466 3.466 0 0 0 1.4 1.381c.598.314 1.298.471 2.098.471 1.042 0 2.085-.293 3.128-.88l.499 1.669c-1.043.597-2.252.896-3.629.896Zm7.306 0c-.79 0-1.42-.213-1.891-.638-.46-.435-.704-1.022-.729-1.76-.033-.921.302-1.63 1.004-2.126.701-.495 1.716-.743 3.042-.743h1.109c-.014-.385-.074-.678-.183-.881a.82.82 0 0 0-.501-.44c-.226-.081-.546-.121-.961-.121-.507 0-1.031.05-1.575.151a7.156 7.156 0 0 0-1.503.456l-.294-1.473a9.59 9.59 0 0 1 1.7-.455c.624-.111 1.25-.167 1.878-.167.8 0 1.431.096 1.893.288.473.193.818.517 1.037.972.218.455.34 1.057.367 1.806l.173 4.979h-1.777l-.047-.911h-.03c-.262.314-.648.572-1.158.775a4.375 4.375 0 0 1-1.554.288Zm.617-1.457c.375 0 .717-.066 1.026-.198.309-.141.551-.328.725-.561.174-.233.256-.496.246-.79l-.034-.956h-.835c-.871 0-1.525.116-1.962.349-.428.223-.634.567-.617 1.032.012.345.143.618.393.82.25.203.603.304 1.058.304Zm5.949 1.305-.276-7.893h1.793l.067 1.487h.03c.251-.344.55-.637.896-.88.356-.253.749-.44 1.18-.562a4.65 4.65 0 0 1 1.36-.197l.057 1.609c-.638 0-1.216.121-1.734.364a3.124 3.124 0 0 0-1.212.987c-.289.405-.425.86-.407 1.366l.129 3.719h-1.883Zm9.045.152c-1.053 0-1.886-.359-2.499-1.078-.612-.718-.941-1.725-.986-3.021-.045-1.295.213-2.302.775-3.02.563-.719 1.37-1.078 2.423-1.078.527 0 1.006.091 1.438.273.431.182.8.451 1.106.805h.046l-.144-4.114h1.838l.387 11.081h-1.747l-.062-.926h-.031a2.827 2.827 0 0 1-1.096.805 3.746 3.746 0 0 1-1.448.273Zm.433-1.518a2.14 2.14 0 0 0 1.039-.243c.309-.162.549-.384.721-.668.173-.283.253-.602.24-.956l-.05-1.427a1.73 1.73 0 0 0-.306-.956 2.031 2.031 0 0 0-.753-.668 2.275 2.275 0 0 0-1.072-.243c-.637 0-1.126.223-1.465.668-.328.445-.478 1.083-.449 1.912.029.83.223 1.468.583 1.913.37.445.874.668 1.512.668Zm10.52 1.366-.387-11.08h2.02l5.244 7.953h.031l-.278-7.954h1.883l.387 11.081h-2.02l-5.229-7.954h-.031l.278 7.954h-1.898Zm14.693.152c-1.276 0-2.275-.354-2.999-1.063-.713-.718-1.093-1.73-1.139-3.036-.045-1.305.264-2.312.928-3.02.673-.719 1.648-1.078 2.924-1.078s2.276.359 2.999 1.078c.724.708 1.108 1.715 1.154 3.02.046 1.306-.268 2.318-.942 3.036-.674.709-1.649 1.063-2.925 1.063Zm-.052-1.488c.699 0 1.223-.217 1.572-.652.349-.446.509-1.098.479-1.959-.03-.86-.235-1.507-.615-1.942-.38-.446-.919-.668-1.618-.668-.689 0-1.212.222-1.572.668-.349.435-.509 1.082-.479 1.942.031.861.236 1.513.616 1.959.39.435.929.652 1.617.652Zm5.534 1.336-.075-2.14h2.157l.075 2.14h-2.157ZM205.569 191.854l-.387-11.081h7.412l.058 1.639h-5.514l.1 2.854h5.209l.057 1.609h-5.21l.116 3.34h5.514l.057 1.639h-7.412Zm8.629 0 2.368-3.977-2.613-3.916h2.066l1.774 2.944h.03l1.568-2.944h2.066l-2.339 3.916 2.645 3.977h-2.066l-1.806-2.99h-.03l-1.582 2.99h-2.081Zm13.247-8.045c1.053 0 1.886.359 2.498 1.078.613.718.941 1.725.987 3.02.045 1.296-.214 2.303-.776 3.021-.562.719-1.37 1.078-2.423 1.078-.516 0-.995-.091-1.437-.273a3.22 3.22 0 0 1-1.107-.805h-.03l.144 4.114h-1.868l-.387-11.081h1.777l.047.926h.031a2.754 2.754 0 0 1 1.095-.805c.44-.182.922-.273 1.449-.273Zm-.433 1.518c-.385 0-.731.081-1.04.243a1.801 1.801 0 0 0-.72.668 1.707 1.707 0 0 0-.225.956l.05 1.427c.012.354.109.673.291.956.192.283.448.506.768.668.319.162.671.243 1.056.243.648 0 1.137-.223 1.465-.668.329-.445.479-1.083.45-1.913-.029-.83-.223-1.467-.583-1.912-.36-.446-.864-.668-1.512-.668Zm5.541 6.527-.075-2.14h2.157l.075 2.14h-2.157Z" fill="#EDEDED"/><path d="M210.652 221.514c-1.267 0-2.223-.399-2.867-1.197-.644-.798-.995-2.026-1.053-3.683-.058-1.656.208-2.884.796-3.682.588-.798 1.516-1.197 2.783-1.197s2.219.399 2.854 1.197c.644.798.995 2.026 1.053 3.682.058 1.657-.207 2.885-.796 3.683-.579.798-1.503 1.197-2.77 1.197Zm-.05-1.445c.72 0 1.235-.277 1.546-.832.31-.556.445-1.423.404-2.603-.042-1.188-.237-2.055-.586-2.602-.349-.555-.884-.833-1.604-.833-.721 0-1.24.278-1.56.833-.31.547-.445 1.414-.403 2.602.041 1.18.236 2.047.585 2.603.358.555.897.832 1.618.832Zm8.075-8.314c.781 0 1.446.139 1.993.417.548.277.966.685 1.254 1.223.296.537.459 1.205.487 2.003.041 1.197-.157 2.243-.594 3.136a4.91 4.91 0 0 1-1.906 2.095c-.841.512-1.864.802-3.068.872l-.332-1.315c1.074-.06 1.943-.29 2.606-.689.662-.408 1.141-1.002 1.435-1.783l-.027-.013a3.95 3.95 0 0 1-.988.417 4.278 4.278 0 0 1-1.141.143c-.963 0-1.732-.282-2.307-.846-.567-.564-.868-1.344-.902-2.342-.025-.694.098-1.288.367-1.782a2.655 2.655 0 0 1 1.197-1.132c.529-.269 1.171-.404 1.926-.404Zm.049 1.392c-.643 0-1.131.17-1.467.508-.327.329-.48.794-.459 1.392.021.599.198 1.067.531 1.405.341.33.816.495 1.423.495.434 0 .805-.07 1.113-.209.307-.147.538-.36.693-.637.164-.286.239-.62.226-1.002a2.261 2.261 0 0 0-.242-.95 1.656 1.656 0 0 0-.663-.715c-.293-.191-.678-.287-1.155-.287Zm4.635 8.757 4.267-10.539h1.588l-4.266 10.539h-1.589Zm10.878-.521-.268-7.676h-.026l-3.264 1.965-.518-1.419 3.745-2.368h1.653l.332 9.498h-1.654Zm8.366 0-.268-7.676h-.026l-3.264 1.965-.518-1.419 3.745-2.368h1.653l.332 9.498h-1.654ZM73.03 221.383l-.331-9.498h2.864c1.398 0 2.425.226 3.083.677.667.451 1.017 1.167 1.052 2.147.033.963-.254 1.683-.862 2.16-.6.477-1.533.715-2.8.715h-2.422l-.044-1.249h2.214c.885 0 1.519-.121 1.9-.364.391-.252.577-.655.557-1.21-.019-.555-.233-.954-.64-1.197-.4-.252-1.042-.378-1.927-.378h-1.497l.286 8.197H73.03Zm5.56 0-4.461-4.345h1.81l4.513 4.345H78.59Zm3.417 0-.332-9.498h6.25l.044 1.275h-4.817l.091 2.629H87.8l.044 1.249h-4.557l.107 3.07h4.817l.045 1.275h-6.25Zm14.097 0-.332-9.498h1.432l.332 9.498h-1.432Zm-5.859 0-.331-9.498h1.432l.331 9.498h-1.432Zm.566-4.319-.046-1.301h5.859l.045 1.301h-5.858Zm8.007 4.319 3.131-9.498h1.94l3.782 9.498h-1.575l-3.127-8.275h-.027l-2.549 8.275h-1.575Zm1.713-2.381-.045-1.301h5.273l.045 1.301h-5.273Zm8.417 2.381-.332-9.498h1.562l4.781 7.156h.026l-.25-7.156h1.432l.332 9.498h-1.563l-4.78-7.156h-.026l.25 7.156h-1.432Zm13.413 0-.332-9.498h2.864c1.398 0 2.425.226 3.083.677.667.451 1.017 1.167 1.052 2.147.033.963-.254 1.683-.862 2.16-.6.477-1.533.715-2.8.715h-2.422l-.044-1.249h2.214c.885 0 1.519-.121 1.901-.364.39-.252.576-.655.556-1.21-.019-.555-.233-.954-.64-1.197-.4-.252-1.042-.378-1.927-.378h-1.497l.286 8.197h-1.432Zm5.559 0-4.461-4.345h1.809l4.514 4.345h-1.862Zm2.479 0 3.132-9.498h1.94l3.781 9.498h-1.575l-3.127-8.275h-.026l-2.549 8.275h-1.576Zm1.714-2.381-.046-1.301h5.273l.046 1.301h-5.273Zm8.533 2.381-.332-9.498h1.485l.331 9.498h-1.484Zm9.67 0-.332-9.498h1.432l.332 9.498h-1.432Zm-5.859 0-.331-9.498h1.432l.332 9.498h-1.433Zm.566-4.319-.046-1.301h5.859l.045 1.301h-5.858Zm8.007 4.319 3.132-9.498h1.939l3.782 9.498h-1.575l-3.127-8.275h-.026l-2.55 8.275h-1.575Zm1.714-2.381-.046-1.301h5.273l.045 1.301h-5.272Zm8.416 2.381-.332-9.498h1.562l4.781 7.156h.026l-.25-7.156h1.432l.332 9.498h-1.563l-4.78-7.156h-.026l.25 7.156h-1.432Z" fill="#fff"/><path fill-rule="evenodd" clip-rule="evenodd" d="M85.674 52.251c2.506-2.378 4.01-5.79 3.877-9.582-.132-3.792-1.874-7.204-4.547-9.582 2.244-2.129 5.292-3.429 8.688-3.429 7.19 0 13.222 5.825 13.473 13.011.251 7.186-5.374 13.011-12.565 13.011-3.396 0-6.534-1.3-8.926-3.429Zm0 0c-2.244 2.129-5.292 3.43-8.688 3.43-7.19 0-13.222-5.826-13.473-13.012-.25-7.186 5.375-13.011 12.565-13.011 3.396 0 6.534 1.3 8.926 3.43-2.506 2.377-4.01 5.79-3.877 9.581.132 3.792 1.874 7.204 4.547 9.582ZM398.65 29.91c.592-.434 1.442-.294 1.898.314 2.425 3.234 5.377 8.75 6.4 14.894 1.03 6.186.109 13.092-5.36 18.834-.506.531-1.363.537-1.913.013-.55-.525-.585-1.38-.079-1.912 4.77-5.008 5.611-11.006 4.682-16.582-.936-5.619-3.663-10.724-5.876-13.675-.456-.607-.345-1.452.248-1.886Zm-5.69 4.958c.592-.435 1.442-.296 1.898.31 1.712 2.277 3.79 6.148 4.512 10.47.728 4.365.077 9.273-3.818 13.349-.507.53-1.364.535-1.913.01-.549-.526-.583-1.382-.076-1.912 3.194-3.343 3.764-7.34 3.137-11.093-.634-3.796-2.486-7.255-3.985-9.248-.457-.607-.347-1.451.245-1.886Zm-4.325 5.41c.59-.437 1.44-.302 1.899.303.935 1.23 2.061 3.307 2.455 5.644.4 2.381.042 5.11-2.139 7.37-.51.527-1.367.527-1.913 0-.547-.528-.577-1.384-.067-1.912 1.474-1.526 1.746-3.34 1.45-5.1-.304-1.806-1.202-3.469-1.921-4.416-.46-.605-.354-1.45.236-1.888Zm-3.52 5.602a.864.864 0 0 0-.87.9.94.94 0 0 0 .933.902.864.864 0 0 0 .87-.901.94.94 0 0 0-.933-.901Zm-3.576.9a3.459 3.459 0 0 1 3.482-3.604c1.992 0 3.663 1.614 3.732 3.605a3.458 3.458 0 0 1-3.481 3.605c-1.992 0-3.663-1.614-3.733-3.605Z" fill="#fff"/><path d="m72.599 144.975-.428-12.252h-.044l-4.508 3.882-.124-3.556 4.55-3.904h3.125l.553 15.83H72.6Zm10.77.217c-1.216 0-2.2-.209-2.952-.629-.738-.419-1.29-1.105-1.656-2.06-.351-.954-.555-2.226-.61-3.816-.078-2.241.147-4.07.676-5.487.529-1.431 1.389-2.493 2.58-3.187 1.19-.694 2.74-1.056 4.648-1.085l.094 2.689c-.868 0-1.644.145-2.328.434-.685.275-1.228.658-1.63 1.149a2.905 2.905 0 0 0-.656 1.735h.087a4.694 4.694 0 0 1 1.134-.455c.358-.087.748-.13 1.167-.13 1.389 0 2.423.426 3.104 1.279.695.839 1.073 2.147 1.135 3.925.07 2.01-.27 3.455-1.02 4.337-.736.868-1.994 1.301-3.773 1.301Zm-.07-2.602c.651 0 1.12-.231 1.408-.694.287-.477.414-1.207.38-2.19-.035-.983-.212-1.706-.532-2.169-.32-.477-.806-.715-1.457-.715s-1.12.238-1.407.715c-.288.463-.414 1.186-.38 2.169.034.983.212 1.713.532 2.19.32.463.805.694 1.456.694Zm10.672-4.467c-.463 0-.837-.137-1.121-.412-.284-.275-.435-.636-.45-1.084-.016-.463.108-.824.374-1.085.265-.274.63-.412 1.092-.412.463 0 .837.138 1.121.412.284.261.434.622.45 1.085.016.448-.109.809-.374 1.084s-.63.412-1.092.412Zm.247 7.069c-1.2 0-2.164-.238-2.89-.715-.725-.492-1.267-1.287-1.623-2.386-.357-1.098-.567-2.558-.63-4.38l-.046-1.301c-.064-1.836.044-3.296.324-4.381.28-1.098.766-1.886 1.458-2.363.692-.492 1.638-.738 2.839-.738 1.186 0 2.142.246 2.868.738.74.477 1.288 1.265 1.645 2.363.356 1.085.566 2.545.63 4.381l.046 1.301c.063 1.822-.045 3.282-.325 4.38-.28 1.099-.773 1.894-1.479 2.386-.692.477-1.631.715-2.817.715Zm-.094-2.689c.492 0 .856-.13 1.093-.39s.386-.744.448-1.453c.076-.723.09-1.778.041-3.166l-.03-.867c-.048-1.388-.136-2.436-.261-3.145-.113-.723-.296-1.214-.551-1.474-.255-.26-.628-.391-1.12-.391-.478 0-.842.131-1.093.391-.237.26-.394.751-.47 1.474-.062.709-.068 1.757-.02 3.145l.03.867c.049 1.388.13 2.443.241 3.166.126.709.317 1.193.572 1.453.27.26.642.39 1.12.39Zm6.505-.13a59.843 59.843 0 0 0 2.397-2.819c.65-.838 1.174-1.59 1.57-2.255.396-.68.678-1.294.847-1.843.169-.55.245-1.07.228-1.562-.027-.766-.213-1.33-.559-1.691-.345-.362-.872-.542-1.581-.542-.926 0-2.008.267-3.248.802l-.099-2.819c1.069-.477 2.384-.716 3.946-.716 1.577 0 2.747.376 3.511 1.128.764.737 1.173 1.901 1.229 3.491a7.685 7.685 0 0 1-.211 2.039c-.15.679-.4 1.38-.751 2.103a16.284 16.284 0 0 1-1.333 2.234 21.521 21.521 0 0 1-1.892 2.364l.003.086h4.622l.091 2.602h-8.679l-.091-2.602Zm36.739-4.25c-.463 0-.837-.137-1.121-.412-.285-.275-.435-.636-.45-1.084-.017-.463.108-.824.374-1.085.265-.274.629-.412 1.092-.412.463 0 .837.138 1.121.412.284.261.434.622.45 1.085.016.448-.109.809-.374 1.084s-.629.412-1.092.412Zm.247 7.069c-1.201 0-2.164-.238-2.89-.715-.726-.492-1.267-1.287-1.623-2.386-.357-1.098-.567-2.558-.631-4.38l-.045-1.301c-.064-1.836.044-3.296.324-4.381.28-1.098.766-1.886 1.458-2.363.692-.492 1.638-.738 2.839-.738 1.186 0 2.142.246 2.868.738.74.477 1.288 1.265 1.645 2.363.356 1.085.566 2.545.63 4.381l.045 1.301c.064 1.822-.044 3.282-.324 4.38-.28 1.099-.773 1.894-1.479 2.386-.692.477-1.631.715-2.817.715Zm-.094-2.689c.492 0 .856-.13 1.093-.39s.386-.744.448-1.453c.076-.723.09-1.778.041-3.166l-.03-.867c-.048-1.388-.136-2.436-.262-3.145-.112-.723-.295-1.214-.55-1.474-.255-.26-.629-.391-1.12-.391-.478 0-.842.131-1.093.391-.237.26-.394.751-.47 1.474-.062.709-.069 1.757-.02 3.145l.03.867c.049 1.388.129 2.443.241 3.166.126.709.316 1.193.571 1.453.27.26.643.39 1.121.39Zm10.375-13.575c1.229 0 2.213.21 2.951.629.738.42 1.283 1.106 1.634 2.06.366.955.577 2.227.633 3.817.077 2.226-.148 4.055-.677 5.486-.528 1.432-1.388 2.494-2.579 3.188-1.176.694-2.726 1.055-4.649 1.084l-.094-2.689c.883 0 1.659-.137 2.329-.412.684-.289 1.228-.679 1.63-1.171.402-.506.62-1.084.656-1.734h-.087a4.754 4.754 0 0 1-1.134.455c-.359.087-.748.13-1.168.13-1.388 0-2.43-.419-3.125-1.258-.68-.853-1.052-2.168-1.114-3.946-.07-2.01.263-3.448.999-4.316.751-.882 2.016-1.323 3.795-1.323Zm.069 2.603c-.651 0-1.12.238-1.407.715-.288.463-.414 1.186-.38 2.169.034.983.212 1.713.532 2.19.32.463.806.694 1.456.694.651 0 1.121-.231 1.408-.694.287-.477.414-1.207.38-2.19-.035-.983-.212-1.706-.532-2.169-.32-.477-.806-.715-1.457-.715Zm11.427 13.444-.428-12.252h-.043l-4.508 3.882-.124-3.556 4.55-3.904h3.125l.553 15.83h-3.125Zm10.849 0-.427-12.252h-.044l-4.508 3.882-.124-3.556 4.551-3.904h3.124l.553 15.83h-3.125Zm28.031-2.602a60.45 60.45 0 0 0 2.397-2.819c.65-.838 1.174-1.59 1.57-2.255.396-.68.678-1.294.847-1.843.169-.55.245-1.07.227-1.562-.026-.766-.212-1.33-.558-1.691-.345-.362-.872-.542-1.581-.542-.926 0-2.009.267-3.248.802l-.099-2.819c1.068-.477 2.384-.716 3.946-.716 1.577 0 2.747.376 3.511 1.128.764.737 1.173 1.901 1.229 3.491a7.685 7.685 0 0 1-.211 2.039c-.15.679-.4 1.38-.751 2.103a16.284 16.284 0 0 1-1.333 2.234 21.64 21.64 0 0 1-1.892 2.364l.003.086h4.622l.091 2.602h-8.679l-.091-2.602Zm15.04-4.25c-.463 0-.836-.137-1.121-.412-.284-.275-.434-.636-.45-1.084-.016-.463.109-.824.374-1.085.266-.274.63-.412 1.093-.412.463 0 .836.138 1.121.412.284.261.434.622.45 1.085.015.448-.109.809-.375 1.084-.265.275-.629.412-1.092.412Zm.247 7.069c-1.201 0-2.164-.238-2.889-.715-.726-.492-1.267-1.287-1.624-2.386-.357-1.098-.567-2.558-.63-4.38l-.046-1.301c-.064-1.836.044-3.296.325-4.381.279-1.098.765-1.886 1.458-2.363.691-.492 1.637-.738 2.838-.738 1.186 0 2.142.246 2.868.738.74.477 1.289 1.265 1.645 2.363.356 1.085.566 2.545.63 4.381l.046 1.301c.064 1.822-.045 3.282-.324 4.38-.28 1.099-.773 1.894-1.479 2.386-.693.477-1.632.715-2.818.715Zm-.094-2.689c.492 0 .856-.13 1.093-.39s.386-.744.448-1.453c.076-.723.09-1.778.042-3.166l-.031-.867c-.048-1.388-.135-2.436-.261-3.145-.112-.723-.296-1.214-.551-1.474-.255-.26-.628-.391-1.12-.391-.477 0-.842.131-1.093.391-.237.26-.393.751-.469 1.474-.062.709-.069 1.757-.021 3.145l.031.867c.048 1.388.128 2.443.24 3.166.126.709.317 1.193.572 1.453.269.26.643.39 1.12.39Zm11.022 2.472-.427-12.252h-.044l-4.508 3.882-.124-3.556 4.551-3.904h3.124l.553 15.83h-3.125Zm10.202-16.047c1.23 0 2.214.21 2.952.629.738.42 1.282 1.106 1.634 2.06.366.955.577 2.227.632 3.817.078 2.226-.147 4.055-.676 5.486-.529 1.432-1.388 2.494-2.579 3.188-1.177.694-2.726 1.055-4.649 1.084l-.094-2.689c.882 0 1.659-.137 2.329-.412.684-.289 1.227-.679 1.63-1.171a2.98 2.98 0 0 0 .655-1.734h-.087a4.722 4.722 0 0 1-1.134.455c-.358.087-.747.13-1.167.13-1.389 0-2.43-.419-3.125-1.258-.681-.853-1.052-2.168-1.114-3.946-.07-2.01.263-3.448.999-4.316.75-.882 2.015-1.323 3.794-1.323Zm.07 2.603c-.651 0-1.12.238-1.407.715-.288.463-.415 1.186-.38 2.169.034.983.211 1.713.532 2.19.32.463.805.694 1.456.694.651 0 1.12-.231 1.408-.694.287-.477.413-1.207.379-2.19-.034-.983-.211-1.706-.531-2.169-.321-.477-.806-.715-1.457-.715Zm28.608 10.842a59.843 59.843 0 0 0 2.397-2.819c.65-.838 1.174-1.59 1.57-2.255.396-.68.678-1.294.847-1.843.169-.55.245-1.07.228-1.562-.027-.766-.213-1.33-.558-1.691-.346-.362-.873-.542-1.582-.542-.925 0-2.008.267-3.248.802l-.099-2.819c1.069-.477 2.384-.716 3.946-.716 1.577 0 2.747.376 3.511 1.128.764.737 1.173 1.901 1.229 3.491a7.685 7.685 0 0 1-.211 2.039c-.15.679-.4 1.38-.751 2.103a16.374 16.374 0 0 1-1.332 2.234 21.76 21.76 0 0 1-1.892 2.364l.003.086h4.621l.091 2.602h-8.679l-.091-2.602Zm15.04-4.25c-.462 0-.836-.137-1.121-.412-.284-.275-.434-.636-.45-1.084-.016-.463.109-.824.375-1.085.265-.274.629-.412 1.092-.412.463 0 .836.138 1.121.412.284.261.434.622.45 1.085.016.448-.109.809-.374 1.084-.266.275-.63.412-1.093.412Zm.247 7.069c-1.2 0-2.163-.238-2.889-.715-.726-.492-1.267-1.287-1.624-2.386-.356-1.098-.567-2.558-.63-4.38l-.046-1.301c-.064-1.836.044-3.296.325-4.381.28-1.098.766-1.886 1.458-2.363.692-.492 1.638-.738 2.838-.738 1.187 0 2.143.246 2.869.738.74.477 1.288 1.265 1.644 2.363.357 1.085.567 2.545.631 4.381l.045 1.301c.064 1.822-.044 3.282-.324 4.38-.28 1.099-.773 1.894-1.479 2.386-.692.477-1.632.715-2.818.715Zm-.094-2.689c.492 0 .857-.13 1.093-.39.237-.26.387-.744.449-1.453.076-.723.089-1.778.041-3.166l-.03-.867c-.049-1.388-.136-2.436-.262-3.145-.112-.723-.296-1.214-.551-1.474-.255-.26-.628-.391-1.12-.391-.477 0-.841.131-1.093.391-.237.26-.393.751-.469 1.474-.062.709-.069 1.757-.02 3.145l.03.867c.048 1.388.129 2.443.241 3.166.126.709.316 1.193.571 1.453.27.26.643.39 1.12.39Zm6.505-.13a59.843 59.843 0 0 0 2.397-2.819 22.868 22.868 0 0 0 1.571-2.255c.395-.68.678-1.294.847-1.843.168-.55.244-1.07.227-1.562-.027-.766-.213-1.33-.558-1.691-.345-.362-.872-.542-1.581-.542-.926 0-2.009.267-3.249.802l-.098-2.819c1.068-.477 2.383-.716 3.946-.716 1.576 0 2.747.376 3.511 1.128.763.737 1.173 1.901 1.228 3.491a7.644 7.644 0 0 1-.211 2.039c-.149.679-.4 1.38-.751 2.103a16.374 16.374 0 0 1-1.332 2.234 21.76 21.76 0 0 1-1.892 2.364l.003.086h4.622l.091 2.602h-8.68l-.091-2.602Zm15.367 2.602-.428-12.252h-.043l-4.508 3.882-.124-3.556 4.55-3.904h3.125l.552 15.83h-3.124ZM370.654 201.083a1.148 1.148 0 0 1 1.156-1.196h10.176c.661 0 1.215.535 1.238 1.196l.267 7.62c.016.461-.235.881-.645 1.08l-5.004 2.421c-.32.155-.698.155-1.029 0l-5.172-2.421a1.252 1.252 0 0 1-.721-1.08l-.266-7.62ZM389.809 201.083a1.147 1.147 0 0 1 1.155-1.196h2.993c.661 0 1.216.535 1.239 1.196l.084 2.393a1.148 1.148 0 0 1-1.156 1.196h-2.993a1.248 1.248 0 0 1-1.239-1.196l-.083-2.393ZM401.78 201.083a1.148 1.148 0 0 1 1.156-1.196h10.176c.661 0 1.215.535 1.238 1.196l.251 7.179a1.148 1.148 0 0 1-1.155 1.196H403.27a1.249 1.249 0 0 1-1.239-1.196l-.251-7.179ZM371.093 213.646a1.148 1.148 0 0 1 1.155-1.197h10.176a1.25 1.25 0 0 1 1.239 1.197l.251 7.178a1.148 1.148 0 0 1-1.156 1.197h-10.175a1.248 1.248 0 0 1-1.239-1.197l-.251-7.178ZM386.489 208.86a1.148 1.148 0 0 1 1.155-1.197h10.176a1.25 1.25 0 0 1 1.239 1.197l.585 16.75a1.147 1.147 0 0 1-1.155 1.196h-10.176a1.248 1.248 0 0 1-1.239-1.196l-.585-16.75ZM402.219 213.646a1.148 1.148 0 0 1 1.155-1.197h10.176a1.25 1.25 0 0 1 1.239 1.197l.251 7.178a1.148 1.148 0 0 1-1.156 1.197h-10.175a1.248 1.248 0 0 1-1.239-1.197l-.251-7.178ZM371.532 226.208a1.147 1.147 0 0 1 1.155-1.196h10.176c.661 0 1.216.535 1.239 1.196l.251 7.179a1.148 1.148 0 0 1-1.156 1.196h-10.176a1.249 1.249 0 0 1-1.239-1.196l-.25-7.179ZM390.853 230.994a1.149 1.149 0 0 1 1.156-1.197h2.993c.661 0 1.215.536 1.238 1.197l.084 2.393a1.148 1.148 0 0 1-1.155 1.196h-2.993a1.249 1.249 0 0 1-1.239-1.196l-.084-2.393ZM402.642 225.767a1.148 1.148 0 0 1 .645-1.08l5.003-2.421a1.199 1.199 0 0 1 1.03 0l5.172 2.421c.424.198.704.619.72 1.08l.267 7.62a1.148 1.148 0 0 1-1.156 1.196h-10.176a1.249 1.249 0 0 1-1.239-1.196l-.266-7.62Z" fill="#fff"/><defs><linearGradient id="paint0_linear_18_11" x1="30.378" y1="11.934" x2="250.617" y2="260.381" gradientUnits="userSpaceOnUse"><stop stop-color="#fff"/><stop offset="1" stop-color="#fff" stop-opacity=".55"/></linearGradient><linearGradient id="paint1_linear_18_11" x1="30.378" y1="11.934" x2="250.617" y2="260.381" gradientUnits="userSpaceOnUse"><stop stop-color="#fff"/><stop offset="1" stop-color="#fff" stop-opacity=".55"/></linearGradient><filter id="filter0_b_18_11" x="7.993" y="-12.576" width="447.067" height="288.309" filterUnits="userSpaceOnUse" color-interpolation-filters="sRGB"><feFlood flood-opacity="0" result="BackgroundImageFix"/><feGaussianBlur in="BackgroundImageFix" stdDeviation="6.48"/><feComposite in2="SourceAlpha" operator="in" result="effect1_backgroundBlur_18_11"/><feBlend in="SourceGraphic" in2="effect1_backgroundBlur_18_11" result="shape"/></filter></defs></svg>