<svg width="59" height="48" fill="none" xmlns="http://www.w3.org/2000/svg"><path d="M.114 2.506a1.6 1.6 0 0 1 1.601-1.6h13.607a1.6 1.6 0 0 1 1.601 1.6v10.195a1.6 1.6 0 0 1-.912 1.446l-6.804 3.24a1.601 1.601 0 0 1-1.376 0l-6.804-3.24A1.6 1.6 0 0 1 .114 12.7V2.506ZM25.728 2.506a1.6 1.6 0 0 1 1.601-1.6h4.002a1.6 1.6 0 0 1 1.601 1.6v3.202a1.6 1.6 0 0 1-1.6 1.6h-4.003a1.6 1.6 0 0 1-1.6-1.6V2.506ZM41.737 2.506a1.6 1.6 0 0 1 1.6-1.6h13.608a1.6 1.6 0 0 1 1.6 1.6v9.605a1.6 1.6 0 0 1-1.6 1.601H43.338c-.885 0-1.601-.717-1.601-1.6V2.505ZM.114 19.315a1.6 1.6 0 0 1 1.601-1.6h13.607a1.6 1.6 0 0 1 1.601 1.6v9.605a1.6 1.6 0 0 1-1.6 1.601H1.714a1.6 1.6 0 0 1-1.6-1.6v-9.606ZM20.925 12.912a1.6 1.6 0 0 1 1.601-1.601h13.608a1.6 1.6 0 0 1 1.6 1.6v22.413a1.6 1.6 0 0 1-1.6 1.6H22.526a1.6 1.6 0 0 1-1.6-1.6V12.912ZM41.737 19.315c0-.884.716-1.6 1.6-1.6h13.608a1.6 1.6 0 0 1 1.6 1.6v9.605a1.6 1.6 0 0 1-1.6 1.601H43.338c-.885 0-1.601-.717-1.601-1.6v-9.606ZM.114 36.124a1.6 1.6 0 0 1 1.601-1.6h13.607a1.6 1.6 0 0 1 1.601 1.6v9.605a1.6 1.6 0 0 1-1.6 1.601H1.714a1.6 1.6 0 0 1-1.6-1.6v-9.606ZM25.728 42.528a1.6 1.6 0 0 1 1.601-1.601h4.002a1.6 1.6 0 0 1 1.601 1.6v3.202a1.6 1.6 0 0 1-1.6 1.601h-4.003a1.6 1.6 0 0 1-1.6-1.6v-3.202ZM41.737 35.534c0-.617.355-1.18.912-1.445l6.804-3.24a1.601 1.601 0 0 1 1.377 0l6.803 3.24a1.6 1.6 0 0 1 .913 1.445V45.73a1.6 1.6 0 0 1-1.601 1.601H43.338a1.6 1.6 0 0 1-1.601-1.6V35.533Z" fill="#fff"/></svg>