<svg width="554" height="351" fill="none" xmlns="http://www.w3.org/2000/svg"><g filter="url('#filter0_b_139_403')"><path d="M1.667 33.411c0-17.673 14.327-32 32-32h487.298c17.673 0 32 14.327 32 32V317.6c0 17.673-14.327 32-32 32H33.667c-17.673 0-32-14.327-32-32V33.411Z" fill="url('#paint0_linear_139_403')" fill-opacity=".37"/></g><g filter="url('#filter1_b_139_403')"><path fill-rule="evenodd" clip-rule="evenodd" d="M.667 33.411c0-18.225 14.774-33 33-33h487.298c18.225 0 33 14.775 33 33V317.6c0 18.226-14.775 33-33 33H33.667c-18.226 0-33-14.774-33-33V33.411Zm33-31c-17.121 0-31 13.88-31 31V317.6c0 17.121 13.879 31 31 31h487.298c17.121 0 31-13.879 31-31V33.411c0-17.12-13.879-31-31-31H33.667Z" fill="url('#paint1_linear_139_403')" fill-opacity=".5"/></g><path d="M94.64 254.029c-1.288 0-2.278-.327-2.968-.98-.69-.654-1.036-1.587-1.036-2.8 0-1.176.317-2.1.952-2.772.644-.672 1.521-1.008 2.632-1.008 1.073 0 1.904.317 2.492.952.588.634.882 1.535.882 2.702a7.412 7.412 0 0 1-.042.784h-5.964v-1.246h4.648l-.252.378c0-.766-.15-1.33-.448-1.694-.29-.374-.728-.56-1.316-.56-.626 0-1.102.196-1.428.588-.318.382-.476.952-.476 1.708v.49c0 .709.186 1.236.56 1.582.373.336.938.504 1.694.504a7.76 7.76 0 0 0 1.26-.112 7.106 7.106 0 0 0 1.19-.322l.21 1.344c-.355.14-.76.252-1.218.336a7.58 7.58 0 0 1-1.372.126ZM78.986 253.889v-7.28h1.596l.028.854h.028c.26-.318.573-.56.938-.728.364-.178.788-.266 1.274-.266.476 0 .877.088 1.204.266.335.168.573.41.713.728h.029c.28-.346.601-.598.965-.756.365-.159.794-.238 1.288-.238.784 0 1.354.21 1.708.63.355.41.532 1.059.532 1.946v4.844h-1.665v-4.424c0-.551-.09-.952-.266-1.204-.178-.252-.463-.378-.855-.378-.466 0-.835.154-1.106.462-.27.308-.406.718-.406 1.232v4.312h-1.68v-4.55c0-.476-.098-.836-.294-1.078-.195-.252-.475-.378-.84-.378-.28 0-.536.074-.77.224a1.7 1.7 0 0 0-.545.602c-.131.252-.197.541-.197.868v4.312h-1.68ZM72.928 254.029c-.727 0-1.302-.196-1.721-.588-.411-.402-.616-.943-.616-1.624 0-.85.33-1.503.994-1.96.662-.458 1.605-.686 2.828-.686h1.022c0-.355-.047-.626-.14-.812a.717.717 0 0 0-.448-.406c-.206-.075-.5-.112-.882-.112-.467 0-.953.046-1.457.14a6.729 6.729 0 0 0-1.4.42l-.224-1.358a8.954 8.954 0 0 1 1.582-.42 9.888 9.888 0 0 1 1.737-.154c.737 0 1.316.088 1.736.266.429.177.737.476.924.896.186.42.28.975.28 1.666v4.592h-1.639l-.014-.84h-.027c-.252.289-.616.527-1.092.714a4.11 4.11 0 0 1-1.442.266Zm.617-1.344c.345 0 .662-.061.951-.182.29-.131.519-.304.687-.518.167-.215.251-.458.251-.728v-.882h-.77c-.802 0-1.409.107-1.82.322-.4.205-.601.522-.601.952 0 .317.112.569.336.756.224.186.546.28.966.28ZM60.832 253.889v-10.22h1.862l4.578 7.336h.028v-7.336h1.736v10.22h-1.862l-4.564-7.336h-.028v7.336h-1.75ZM162.526 139.276v-1.974h1.988v1.974h-1.988ZM157.468 139.416c-1.176 0-2.086-.326-2.73-.98-.634-.662-.952-1.596-.952-2.8 0-1.204.318-2.132.952-2.786.644-.662 1.554-.994 2.73-.994s2.086.332 2.73.994c.644.654.966 1.582.966 2.786s-.322 2.138-.966 2.8c-.644.654-1.554.98-2.73.98Zm0-1.372c.644 0 1.134-.2 1.47-.602.336-.41.504-1.012.504-1.806 0-.793-.168-1.39-.504-1.792-.336-.41-.826-.616-1.47-.616-.634 0-1.124.206-1.47.616-.336.402-.504.999-.504 1.792 0 .794.168 1.396.504 1.806.346.402.836.602 1.47.602ZM143.93 139.276v-10.22h1.862l4.578 7.336h.028v-7.336h1.736v10.22h-1.862l-4.564-7.336h-.028v7.336h-1.75ZM133.829 139.416c-.97 0-1.726-.331-2.268-.994-.541-.662-.812-1.591-.812-2.786 0-1.194.271-2.123.812-2.786.542-.662 1.298-.994 2.268-.994.486 0 .924.084 1.316.252.392.168.724.416.994.742h.042v-3.794h1.694v10.22h-1.61l-.028-.854h-.028c-.27.318-.616.565-1.036.742-.41.168-.858.252-1.344.252Zm.448-1.4c.364 0 .686-.074.966-.224.29-.149.518-.354.686-.616.168-.261.252-.555.252-.882v-1.316c0-.336-.084-.63-.252-.882a1.788 1.788 0 0 0-.672-.616 2.054 2.054 0 0 0-.98-.224c-.588 0-1.045.206-1.372.616-.317.411-.476.999-.476 1.764 0 .766.159 1.354.476 1.764.327.411.784.616 1.372.616ZM125.497 139.276v-7.28h1.652l.014 1.372h.028a3.739 3.739 0 0 1 1.96-1.33 4.348 4.348 0 0 1 1.26-.182v1.484c-.588 0-1.124.112-1.61.336a3.032 3.032 0 0 0-1.148.91 2.05 2.05 0 0 0-.42 1.26v3.43h-1.736ZM119.44 139.416c-.728 0-1.302-.196-1.722-.588-.41-.401-.616-.942-.616-1.624 0-.849.332-1.502.994-1.96.663-.457 1.606-.686 2.828-.686h1.022c0-.354-.046-.625-.14-.812a.719.719 0 0 0-.448-.406c-.205-.074-.499-.112-.882-.112-.466 0-.952.047-1.456.14a6.87 6.87 0 0 0-1.4.42l-.224-1.358a9.147 9.147 0 0 1 1.582-.42 9.993 9.993 0 0 1 1.736-.154c.738 0 1.316.089 1.736.266.43.178.738.476.924.896.187.42.28.976.28 1.666v4.592h-1.638l-.014-.84h-.028c-.252.29-.616.528-1.092.714a4.085 4.085 0 0 1-1.442.266Zm.616-1.344c.346 0 .663-.06.952-.182.29-.13.518-.303.686-.518.168-.214.252-.457.252-.728v-.882h-.77c-.802 0-1.409.108-1.82.322-.401.206-.602.523-.602.952 0 .318.112.57.336.756.224.187.546.28.966.28ZM112.706 139.416c-1.111 0-2.067-.21-2.87-.63a4.364 4.364 0 0 1-1.848-1.806c-.42-.784-.63-1.722-.63-2.814 0-1.101.21-2.039.63-2.814a4.364 4.364 0 0 1 1.848-1.806c.803-.42 1.759-.63 2.87-.63 1.269 0 2.394.276 3.374.826l-.406 1.54c-.952-.541-1.923-.812-2.912-.812-.737 0-1.377.15-1.918.448a2.96 2.96 0 0 0-1.246 1.26c-.289.551-.434 1.214-.434 1.988 0 .766.145 1.428.434 1.988.289.551.705.976 1.246 1.274.541.29 1.181.434 1.918.434.961 0 1.932-.27 2.912-.812l.406 1.54c-.98.551-2.105.826-3.374.826ZM100.459 139.416c-.859 0-1.48-.177-1.862-.532-.383-.354-.574-.933-.574-1.736v-3.78h-1.624v-1.372h1.624v-2.38h1.736v2.38h2.45v1.372h-2.45v3.346c0 .467.075.794.224.98.159.178.434.266.826.266.205 0 .42-.018.644-.056.224-.037.425-.088.602-.154l.154 1.414a5.869 5.869 0 0 1-1.75.252ZM93.29 130.708v-1.652h1.735v1.652H93.29Zm0 8.568v-7.238h1.735v7.238H93.29ZM87.071 139.416c-.97 0-1.726-.331-2.268-.994-.54-.662-.812-1.591-.812-2.786 0-1.194.271-2.123.812-2.786.542-.662 1.298-.994 2.268-.994.486 0 .924.084 1.316.252.392.168.724.416.994.742h.042v-3.794h1.694v10.22h-1.61l-.028-.854h-.028c-.27.318-.616.565-1.036.742-.41.168-.858.252-1.344.252Zm.448-1.4c.364 0 .686-.074.966-.224.29-.149.518-.354.686-.616.168-.261.252-.555.252-.882v-1.316c0-.336-.084-.63-.252-.882a1.788 1.788 0 0 0-.672-.616 2.056 2.056 0 0 0-.98-.224c-.588 0-1.045.206-1.372.616-.317.411-.476.999-.476 1.764 0 .766.16 1.354.476 1.764.327.411.784.616 1.372.616ZM79.956 139.416c-1.288 0-2.277-.326-2.968-.98-.69-.653-1.036-1.586-1.036-2.8 0-1.176.318-2.1.952-2.772.644-.672 1.522-1.008 2.632-1.008 1.074 0 1.904.318 2.492.952.588.635.882 1.536.882 2.702a7.358 7.358 0 0 1-.042.784h-5.964v-1.246h4.648l-.252.378c0-.765-.149-1.33-.448-1.694-.289-.373-.728-.56-1.316-.56-.625 0-1.101.196-1.428.588-.317.383-.476.952-.476 1.708v.49c0 .71.187 1.237.56 1.582.374.336.938.504 1.694.504a7.65 7.65 0 0 0 1.26-.112 7.011 7.011 0 0 0 1.19-.322l.21 1.344c-.354.14-.76.252-1.218.336a7.58 7.58 0 0 1-1.372.126ZM70.7 139.276v-7.28h1.653l.014 1.372h.027a3.718 3.718 0 0 1 1.96-1.33 4.341 4.341 0 0 1 1.26-.182v1.484c-.588 0-1.124.112-1.61.336a3.026 3.026 0 0 0-1.148.91 2.05 2.05 0 0 0-.42 1.26v3.43H70.7ZM65.62 139.416c-1.11 0-2.067-.21-2.87-.63a4.368 4.368 0 0 1-1.848-1.806c-.42-.784-.63-1.722-.63-2.814 0-1.101.21-2.039.63-2.814a4.368 4.368 0 0 1 1.848-1.806c.803-.42 1.76-.63 2.87-.63 1.27 0 2.394.276 3.374.826l-.406 1.54c-.952-.541-1.923-.812-2.912-.812-.737 0-1.377.15-1.918.448a2.96 2.96 0 0 0-1.246 1.26c-.29.551-.434 1.214-.434 1.988 0 .766.145 1.428.434 1.988.29.551.705.976 1.246 1.274.541.29 1.18.434 1.918.434.961 0 1.932-.27 2.912-.812l.406 1.54c-.98.551-2.105.826-3.374.826ZM264.15 254.086v-1.974h1.988v1.974h-1.988ZM259.701 246.666c.971 0 1.727.331 2.268.994.541.662.812 1.591.812 2.786 0 1.194-.271 2.123-.812 2.786-.541.662-1.297.994-2.268.994-.476 0-.915-.084-1.316-.252a2.825 2.825 0 0 1-.994-.742h-.028v3.794h-1.722v-10.22h1.638l.014.854h.028c.28-.327.625-.574 1.036-.742a3.518 3.518 0 0 1 1.344-.252Zm-.448 1.4c-.355 0-.677.074-.966.224a1.749 1.749 0 0 0-.686.616 1.617 1.617 0 0 0-.238.882v1.316c0 .326.079.62.238.882.168.261.397.466.686.616.289.149.611.224.966.224.597 0 1.055-.206 1.372-.616.317-.411.476-.999.476-1.764 0-.766-.159-1.354-.476-1.764-.317-.411-.775-.616-1.372-.616ZM247.232 254.086l2.31-3.668-2.282-3.612h1.904l1.54 2.716h.028l1.54-2.716h1.904l-2.282 3.612 2.31 3.668H252.3l-1.568-2.758h-.028l-1.554 2.758h-1.918ZM239.279 254.086v-10.22h6.832v1.512h-5.082v2.632h4.802v1.484h-4.802v3.08h5.082v1.512h-6.832Z" fill="#B9BEBD"/><path d="M272.916 289.609v-7.08h-.024l-3.072 1.812-.432-1.308 3.528-2.184h1.524v8.76h-1.524ZM265.205 289.609v-7.08h-.024l-3.072 1.812-.432-1.308 3.528-2.184h1.524v8.76h-1.524ZM255.161 290.089l4.272-9.72h1.464l-4.272 9.72h-1.464ZM251.17 280.729c.72 0 1.328.128 1.824.384s.868.632 1.116 1.128c.256.496.384 1.112.384 1.848 0 1.104-.216 2.068-.648 2.892a4.766 4.766 0 0 1-1.824 1.932c-.792.472-1.744.74-2.856.804l-.264-1.212c.992-.056 1.8-.268 2.424-.636.624-.376 1.084-.924 1.38-1.644l-.024-.012a3.757 3.757 0 0 1-.924.384c-.32.088-.672.132-1.056.132-.888 0-1.588-.26-2.1-.78-.504-.52-.756-1.24-.756-2.16 0-.64.132-1.188.396-1.644a2.58 2.58 0 0 1 1.14-1.044c.496-.248 1.092-.372 1.788-.372Zm0 1.284c-.592 0-1.048.156-1.368.468-.312.304-.468.732-.468 1.284s.148.984.444 1.296c.304.304.736.456 1.296.456.4 0 .744-.064 1.032-.192a1.48 1.48 0 0 0 .66-.588c.16-.264.24-.572.24-.924 0-.312-.064-.604-.192-.876a1.46 1.46 0 0 0-.588-.66c-.264-.176-.616-.264-1.056-.264ZM243.459 289.729c-1.168 0-2.036-.368-2.604-1.104-.568-.736-.852-1.868-.852-3.396 0-1.528.284-2.66.852-3.396.568-.736 1.436-1.104 2.604-1.104 1.168 0 2.032.368 2.592 1.104.568.736.852 1.868.852 3.396 0 1.528-.284 2.66-.852 3.396-.56.736-1.424 1.104-2.592 1.104Zm0-1.332c.664 0 1.148-.256 1.452-.768.304-.512.456-1.312.456-2.4 0-1.096-.152-1.896-.456-2.4-.304-.512-.788-.768-1.452-.768-.664 0-1.152.256-1.464.768-.304.504-.456 1.304-.456 2.4 0 1.088.152 1.888.456 2.4.312.512.8.768 1.464.768ZM143.792 289.61v-8.76h1.44l4.176 6.6h.024v-6.6h1.32v8.76h-1.44l-4.176-6.6h-.024v6.6h-1.32ZM134.456 289.61l3.192-8.76h1.788l3.18 8.76h-1.452l-2.616-7.632h-.024l-2.616 7.632h-1.452Zm1.656-2.196v-1.2h4.86v1.2h-4.86ZM131.954 289.61v-8.76h1.32v8.76h-1.32Zm-5.4 0v-8.76h1.32v8.76h-1.32Zm.66-3.984v-1.2h5.4v1.2h-5.4ZM123.041 289.61v-8.76h1.368v8.76h-1.368ZM113.596 289.61l3.192-8.76h1.788l3.18 8.76h-1.452l-2.616-7.632h-.024l-2.616 7.632h-1.452Zm1.656-2.196v-1.2h4.86v1.2h-4.86ZM106.187 289.61v-8.76h2.64c1.288 0 2.228.208 2.82.624.6.416.9 1.076.9 1.98 0 .888-.288 1.552-.864 1.992-.568.44-1.436.66-2.604.66h-2.232v-1.152h2.04c.816 0 1.404-.112 1.764-.336.368-.232.552-.604.552-1.116 0-.512-.184-.88-.552-1.104-.36-.232-.948-.348-1.764-.348h-1.38v7.56h-1.32Zm5.124 0-3.972-4.008h1.668l4.02 4.008h-1.716ZM93.823 289.61v-8.76h1.44l4.176 6.6h.025v-6.6h1.319v8.76h-1.44l-4.175-6.6h-.025v6.6h-1.32ZM84.487 289.61l3.192-8.76h1.788l3.18 8.76h-1.452l-2.616-7.632h-.024l-2.616 7.632h-1.452Zm1.656-2.196v-1.2h4.86v1.2h-4.86ZM81.985 289.61v-8.76h1.32v8.76h-1.32Zm-5.4 0v-8.76h1.32v8.76h-1.32Zm.66-3.984v-1.2h5.4v1.2h-5.4ZM68.992 289.61v-8.76h5.76v1.176h-4.44v2.424h4.2v1.152h-4.2v2.832h4.44v1.176h-5.76ZM60.718 289.61v-8.76h2.64c1.288 0 2.228.208 2.82.624.6.416.9 1.076.9 1.98 0 .888-.288 1.552-.864 1.992-.568.44-1.436.66-2.604.66h-2.232v-1.152h2.04c.816 0 1.404-.112 1.764-.336.368-.232.552-.604.552-1.116 0-.512-.184-.88-.552-1.104-.36-.232-.948-.348-1.764-.348h-1.38v7.56h-1.32Zm5.124 0-3.972-4.008h1.668l4.02 4.008h-1.716Z" fill="#fff"/><path fill-rule="evenodd" clip-rule="evenodd" d="M85.984 69.362a17.363 17.363 0 0 0 5.632-12.82c0-5.074-2.17-9.64-5.632-12.822a17.35 17.35 0 0 1 11.777-4.588c9.615 0 17.409 7.794 17.409 17.41 0 9.614-7.794 17.409-17.41 17.409a17.35 17.35 0 0 1-11.776-4.589Zm0 0a17.349 17.349 0 0 1-11.777 4.589c-9.615 0-17.41-7.795-17.41-17.41s7.795-17.41 17.41-17.41c4.541 0 8.678 1.74 11.777 4.59a17.363 17.363 0 0 0-5.633 12.82c0 5.074 2.17 9.639 5.633 12.821ZM505.544 39.47a1.81 1.81 0 0 1 2.524.42c3.092 4.327 6.781 11.707 7.863 19.928 1.088 8.278-.465 17.518-8.048 25.2a1.809 1.809 0 1 1-2.574-2.54c6.613-6.7 8.016-14.726 7.035-22.188-.989-7.518-4.398-14.349-7.22-18.297a1.81 1.81 0 0 1 .42-2.524Zm-7.84 6.633a1.809 1.809 0 0 1 2.524.416c2.183 3.045 4.781 8.225 5.544 14.008.771 5.841-.329 12.407-5.729 17.862a1.809 1.809 0 1 1-2.57-2.545c4.427-4.473 5.375-9.822 4.713-14.843-.67-5.079-2.986-9.708-4.898-12.374a1.809 1.809 0 0 1 .416-2.524Zm-6.036 7.24a1.809 1.809 0 0 1 2.526.404c1.192 1.646 2.602 4.425 3.018 7.552.425 3.187-.182 6.839-3.204 9.861a1.809 1.809 0 1 1-2.558-2.558c2.042-2.042 2.49-4.47 2.176-6.825-.321-2.415-1.444-4.64-2.362-5.908a1.809 1.809 0 0 1 .404-2.526Z" fill="#fff"/><path d="M400.925 189.35v-18.08h-.064l-6.848 5.728v-5.248l6.912-5.76h4.608v23.36h-4.608ZM378.397 185.51a93.874 93.874 0 0 0 3.68-4.16c1.003-1.238 1.813-2.347 2.432-3.328.619-1.003 1.067-1.91 1.344-2.72.277-.811.416-1.579.416-2.304 0-1.131-.245-1.963-.736-2.496-.491-.534-1.259-.8-2.304-.8-1.365 0-2.976.394-4.832 1.184v-4.16c1.6-.704 3.552-1.056 5.856-1.056 2.325 0 4.032.554 5.12 1.664 1.088 1.088 1.632 2.805 1.632 5.152 0 .981-.139 1.984-.416 3.008-.256 1.002-.661 2.037-1.216 3.104a25.37 25.37 0 0 1-2.08 3.296 33.716 33.716 0 0 1-2.912 3.488v.128h6.816v3.84h-12.8v-3.84ZM368.797 179.238c-.683 0-1.227-.203-1.632-.608-.405-.406-.608-.939-.608-1.6 0-.683.203-1.216.608-1.6.405-.406.949-.608 1.632-.608.683 0 1.227.202 1.632.608.405.384.608.917.608 1.6 0 .661-.203 1.194-.608 1.6-.405.405-.949.608-1.632.608Zm0 10.432c-1.771 0-3.179-.352-4.224-1.056-1.045-.726-1.803-1.899-2.272-3.52-.469-1.622-.704-3.776-.704-6.464v-1.92c0-2.71.235-4.864.704-6.464.469-1.622 1.227-2.784 2.272-3.488 1.045-.726 2.453-1.088 4.224-1.088 1.749 0 3.147.362 4.192 1.088 1.067.704 1.835 1.866 2.304 3.488.469 1.6.704 3.754.704 6.464v1.92c0 2.688-.235 4.842-.704 6.464-.469 1.621-1.237 2.794-2.304 3.52-1.045.704-2.443 1.056-4.192 1.056Zm0-3.968c.725 0 1.269-.192 1.632-.576.363-.384.608-1.099.736-2.144.149-1.067.224-2.624.224-4.672v-1.28c0-2.048-.075-3.595-.224-4.64-.128-1.067-.373-1.792-.736-2.176-.363-.384-.907-.576-1.632-.576-.704 0-1.248.192-1.632.576-.363.384-.619 1.109-.768 2.176-.128 1.045-.192 2.592-.192 4.64v1.28c0 2.048.064 3.605.192 4.672.149 1.045.405 1.76.768 2.144.384.384.928.576 1.632.576ZM346.397 185.51a93.874 93.874 0 0 0 3.68-4.16c1.003-1.238 1.813-2.347 2.432-3.328.619-1.003 1.067-1.91 1.344-2.72.277-.811.416-1.579.416-2.304 0-1.131-.245-1.963-.736-2.496-.491-.534-1.259-.8-2.304-.8-1.365 0-2.976.394-4.832 1.184v-4.16c1.6-.704 3.552-1.056 5.856-1.056 2.325 0 4.032.554 5.12 1.664 1.088 1.088 1.632 2.805 1.632 5.152 0 .981-.139 1.984-.416 3.008-.256 1.002-.661 2.037-1.216 3.104a25.37 25.37 0 0 1-2.08 3.296 33.716 33.716 0 0 1-2.912 3.488v.128h6.816v3.84h-12.8v-3.84ZM304.797 165.67c1.813 0 3.253.309 4.32.928 1.067.618 1.835 1.632 2.304 3.04.491 1.408.736 3.285.736 5.632 0 3.285-.427 5.984-1.28 8.096s-2.176 3.68-3.968 4.704c-1.771 1.024-4.075 1.557-6.912 1.6v-3.968c1.301 0 2.453-.203 3.456-.608 1.024-.427 1.845-1.003 2.464-1.728.619-.747.971-1.6 1.056-2.56h-.128a7.17 7.17 0 0 1-1.696.672 7.389 7.389 0 0 1-1.728.192c-2.048 0-3.563-.619-4.544-1.856-.96-1.259-1.44-3.2-1.44-5.824 0-2.966.565-5.088 1.696-6.368 1.152-1.302 3.04-1.952 5.664-1.952Zm-.032 3.84c-.96 0-1.664.352-2.112 1.056-.448.682-.672 1.749-.672 3.2 0 1.45.224 2.528.672 3.232.448.682 1.152 1.024 2.112 1.024.96 0 1.664-.342 2.112-1.024.448-.704.672-1.782.672-3.232 0-1.451-.224-2.518-.672-3.2-.448-.704-1.152-1.056-2.112-1.056ZM288.925 189.35v-18.08h-.064l-6.848 5.728v-5.248l6.912-5.76h4.608v23.36h-4.608ZM272.797 179.238c-.683 0-1.227-.203-1.632-.608-.405-.406-.608-.939-.608-1.6 0-.683.203-1.216.608-1.6.405-.406.949-.608 1.632-.608.683 0 1.227.202 1.632.608.405.384.608.917.608 1.6 0 .661-.203 1.194-.608 1.6-.405.405-.949.608-1.632.608Zm0 10.432c-1.771 0-3.179-.352-4.224-1.056-1.045-.726-1.803-1.899-2.272-3.52-.469-1.622-.704-3.776-.704-6.464v-1.92c0-2.71.235-4.864.704-6.464.469-1.622 1.227-2.784 2.272-3.488 1.045-.726 2.453-1.088 4.224-1.088 1.749 0 3.147.362 4.192 1.088 1.067.704 1.835 1.866 2.304 3.488.469 1.6.704 3.754.704 6.464v1.92c0 2.688-.235 4.842-.704 6.464-.469 1.621-1.237 2.794-2.304 3.52-1.045.704-2.443 1.056-4.192 1.056Zm0-3.968c.725 0 1.269-.192 1.632-.576.363-.384.608-1.099.736-2.144.149-1.067.224-2.624.224-4.672v-1.28c0-2.048-.075-3.595-.224-4.64-.128-1.067-.373-1.792-.736-2.176-.363-.384-.907-.576-1.632-.576-.704 0-1.248.192-1.632.576-.363.384-.619 1.109-.768 2.176-.128 1.045-.192 2.592-.192 4.64v1.28c0 2.048.064 3.605.192 4.672.149 1.045.405 1.76.768 2.144.384.384.928.576 1.632.576ZM250.397 185.51a93.874 93.874 0 0 0 3.68-4.16c1.003-1.238 1.813-2.347 2.432-3.328.619-1.003 1.067-1.91 1.344-2.72.277-.811.416-1.579.416-2.304 0-1.131-.245-1.963-.736-2.496-.491-.534-1.259-.8-2.304-.8-1.365 0-2.976.394-4.832 1.184v-4.16c1.6-.704 3.552-1.056 5.856-1.056 2.325 0 4.032.554 5.12 1.664 1.088 1.088 1.632 2.805 1.632 5.152 0 .981-.139 1.984-.416 3.008-.256 1.002-.661 2.037-1.216 3.104a25.37 25.37 0 0 1-2.08 3.296 33.716 33.716 0 0 1-2.912 3.488v.128h6.816v3.84h-12.8v-3.84ZM208.925 189.35v-18.08h-.064l-6.848 5.728v-5.248l6.912-5.76h4.608v23.36h-4.608ZM192.925 189.35v-18.08h-.064l-6.848 5.728v-5.248l6.912-5.76h4.608v23.36h-4.608ZM176.797 165.67c1.813 0 3.253.309 4.32.928 1.067.618 1.835 1.632 2.304 3.04.491 1.408.736 3.285.736 5.632 0 3.285-.427 5.984-1.28 8.096s-2.176 3.68-3.968 4.704c-1.771 1.024-4.075 1.557-6.912 1.6v-3.968c1.301 0 2.453-.203 3.456-.608 1.024-.427 1.845-1.003 2.464-1.728.619-.747.971-1.6 1.056-2.56h-.128a7.17 7.17 0 0 1-1.696.672 7.389 7.389 0 0 1-1.728.192c-2.048 0-3.563-.619-4.544-1.856-.96-1.259-1.44-3.2-1.44-5.824 0-2.966.565-5.088 1.696-6.368 1.152-1.302 3.04-1.952 5.664-1.952Zm-.032 3.84c-.96 0-1.664.352-2.112 1.056-.448.682-.672 1.749-.672 3.2 0 1.45.224 2.528.672 3.232.448.682 1.152 1.024 2.112 1.024.96 0 1.664-.342 2.112-1.024.448-.704.672-1.782.672-3.232 0-1.451-.224-2.518-.672-3.2-.448-.704-1.152-1.056-2.112-1.056ZM160.797 179.238c-.683 0-1.227-.203-1.632-.608-.405-.406-.608-.939-.608-1.6 0-.683.203-1.216.608-1.6.405-.406.949-.608 1.632-.608.683 0 1.227.202 1.632.608.405.384.608.917.608 1.6 0 .661-.203 1.194-.608 1.6-.405.405-.949.608-1.632.608Zm0 10.432c-1.771 0-3.179-.352-4.224-1.056-1.045-.726-1.803-1.899-2.272-3.52-.469-1.622-.704-3.776-.704-6.464v-1.92c0-2.71.235-4.864.704-6.464.469-1.622 1.227-2.784 2.272-3.488 1.045-.726 2.453-1.088 4.224-1.088 1.749 0 3.147.362 4.192 1.088 1.067.704 1.835 1.866 2.304 3.488.469 1.6.704 3.754.704 6.464v1.92c0 2.688-.235 4.842-.704 6.464-.469 1.621-1.237 2.794-2.304 3.52-1.045.704-2.443 1.056-4.192 1.056Zm0-3.968c.725 0 1.269-.192 1.632-.576.363-.384.608-1.099.736-2.144.149-1.067.224-2.624.224-4.672v-1.28c0-2.048-.075-3.595-.224-4.64-.128-1.067-.373-1.792-.736-2.176-.363-.384-.907-.576-1.632-.576-.704 0-1.248.192-1.632.576-.363.384-.619 1.109-.768 2.176-.128 1.045-.192 2.592-.192 4.64v1.28c0 2.048.064 3.605.192 4.672.149 1.045.405 1.76.768 2.144.384.384.928.576 1.632.576ZM106.397 185.51a93.874 93.874 0 0 0 3.68-4.16c1.003-1.238 1.813-2.347 2.432-3.328.619-1.003 1.067-1.91 1.344-2.72.277-.811.416-1.579.416-2.304 0-1.131-.245-1.963-.736-2.496-.491-.534-1.259-.8-2.304-.8-1.365 0-2.976.394-4.832 1.184v-4.16c1.6-.704 3.552-1.056 5.856-1.056 2.325 0 4.032.554 5.12 1.664 1.088 1.088 1.632 2.805 1.632 5.152 0 .981-.139 1.984-.416 3.008-.256 1.002-.661 2.037-1.216 3.104a25.37 25.37 0 0 1-2.08 3.296 33.716 33.716 0 0 1-2.912 3.488v.128h6.816v3.84h-12.8v-3.84ZM96.797 179.238c-.683 0-1.227-.203-1.632-.608-.405-.406-.608-.939-.608-1.6 0-.683.203-1.216.608-1.6.405-.406.95-.608 1.632-.608.683 0 1.227.202 1.632.608.405.384.608.917.608 1.6 0 .661-.203 1.194-.608 1.6-.405.405-.95.608-1.632.608Zm0 10.432c-1.77 0-3.179-.352-4.224-1.056-1.045-.726-1.803-1.899-2.272-3.52-.47-1.622-.704-3.776-.704-6.464v-1.92c0-2.71.235-4.864.704-6.464.47-1.622 1.227-2.784 2.272-3.488 1.045-.726 2.453-1.088 4.224-1.088 1.75 0 3.147.362 4.192 1.088 1.067.704 1.835 1.866 2.304 3.488.469 1.6.704 3.754.704 6.464v1.92c0 2.688-.235 4.842-.704 6.464-.469 1.621-1.237 2.794-2.304 3.52-1.045.704-2.443 1.056-4.192 1.056Zm0-3.968c.725 0 1.27-.192 1.632-.576.363-.384.608-1.099.736-2.144.15-1.067.224-2.624.224-4.672v-1.28c0-2.048-.075-3.595-.224-4.64-.128-1.067-.373-1.792-.736-2.176-.363-.384-.907-.576-1.632-.576-.704 0-1.248.192-1.632.576-.363.384-.619 1.109-.768 2.176-.128 1.045-.192 2.592-.192 4.64v1.28c0 2.048.064 3.605.192 4.672.15 1.045.405 1.76.768 2.144.384.384.928.576 1.632.576ZM80.797 189.67c-1.792 0-3.232-.31-4.32-.928-1.067-.619-1.845-1.632-2.336-3.04-.47-1.408-.704-3.286-.704-5.632 0-3.307.427-6.006 1.28-8.096.853-2.112 2.176-3.68 3.968-4.704 1.792-1.024 4.096-1.558 6.912-1.6v3.968c-1.28 0-2.432.213-3.456.64-1.024.405-1.845.97-2.464 1.696-.619.725-.97 1.578-1.056 2.56h.128a7.168 7.168 0 0 1 1.696-.672 7.393 7.393 0 0 1 1.728-.192c2.048 0 3.552.629 4.512 1.888.981 1.237 1.472 3.168 1.472 5.792 0 2.965-.576 5.098-1.728 6.4-1.13 1.28-3.008 1.92-5.632 1.92Zm.032-3.84c.96 0 1.664-.342 2.112-1.024.448-.704.672-1.782.672-3.232 0-1.451-.224-2.518-.672-3.2-.448-.704-1.152-1.056-2.112-1.056-.96 0-1.664.352-2.112 1.056-.448.682-.672 1.749-.672 3.2 0 1.45.224 2.528.672 3.232.448.682 1.152 1.024 2.112 1.024ZM64.925 189.35v-18.08h-.064l-6.848 5.728v-5.248l6.912-5.76h4.608v23.36h-4.608ZM460.114 268.506c0-.884.717-1.601 1.601-1.601h13.608a1.6 1.6 0 0 1 1.6 1.601v10.195c0 .618-.355 1.18-.912 1.446l-6.804 3.24a1.602 1.602 0 0 1-1.376 0l-6.804-3.24a1.601 1.601 0 0 1-.913-1.446v-10.195ZM485.728 268.506c0-.884.717-1.601 1.601-1.601h4.002c.884 0 1.601.717 1.601 1.601v3.202c0 .884-.717 1.601-1.601 1.601h-4.002a1.601 1.601 0 0 1-1.601-1.601v-3.202ZM501.737 268.506c0-.884.717-1.601 1.601-1.601h13.607c.884 0 1.601.717 1.601 1.601v9.605c0 .884-.717 1.601-1.601 1.601h-13.607a1.601 1.601 0 0 1-1.601-1.601v-9.605ZM460.114 285.315c0-.884.717-1.601 1.601-1.601h13.608a1.6 1.6 0 0 1 1.6 1.601v9.605a1.6 1.6 0 0 1-1.6 1.601h-13.608a1.601 1.601 0 0 1-1.601-1.601v-9.605ZM480.926 278.912a1.6 1.6 0 0 1 1.6-1.601h13.608c.884 0 1.601.717 1.601 1.601v22.412c0 .884-.717 1.601-1.601 1.601h-13.608a1.6 1.6 0 0 1-1.6-1.601v-22.412ZM501.737 285.315c0-.884.717-1.601 1.601-1.601h13.607c.884 0 1.601.717 1.601 1.601v9.605c0 .884-.717 1.601-1.601 1.601h-13.607a1.601 1.601 0 0 1-1.601-1.601v-9.605ZM460.114 302.124c0-.884.717-1.601 1.601-1.601h13.608a1.6 1.6 0 0 1 1.6 1.601v9.605a1.6 1.6 0 0 1-1.6 1.601h-13.608a1.6 1.6 0 0 1-1.601-1.601v-9.605ZM485.728 308.528c0-.884.717-1.601 1.601-1.601h4.002c.884 0 1.601.717 1.601 1.601v3.201a1.6 1.6 0 0 1-1.601 1.601h-4.002a1.6 1.6 0 0 1-1.601-1.601v-3.201ZM501.737 301.534a1.6 1.6 0 0 1 .912-1.445l6.804-3.24a1.604 1.604 0 0 1 1.377 0l6.803 3.24a1.6 1.6 0 0 1 .913 1.445v10.195a1.6 1.6 0 0 1-1.601 1.601h-13.607a1.6 1.6 0 0 1-1.601-1.601v-10.195Z" fill="#fff"/><defs><linearGradient id="paint0_linear_139_403" x1="65.644" y1="26.197" x2="556.33" y2="348.687" gradientUnits="userSpaceOnUse"><stop stop-color="#fff"/><stop offset="1" stop-color="#fff" stop-opacity="0"/></linearGradient><linearGradient id="paint1_linear_139_403" x1="42.289" y1="17.37" x2="336.798" y2="349.599" gradientUnits="userSpaceOnUse"><stop stop-color="#fff"/><stop offset="1" stop-color="#fff" stop-opacity=".55"/></linearGradient><filter id="filter0_b_139_403" x="-73.333" y="-73.589" width="701.298" height="498.188" filterUnits="userSpaceOnUse" color-interpolation-filters="sRGB"><feFlood flood-opacity="0" result="BackgroundImageFix"/><feGaussianBlur in="BackgroundImageFix" stdDeviation="37.5"/><feComposite in2="SourceAlpha" operator="in" result="effect1_backgroundBlur_139_403"/><feBlend in="SourceGraphic" in2="effect1_backgroundBlur_139_403" result="shape"/></filter><filter id="filter1_b_139_403" x="-74.333" y="-74.589" width="703.298" height="500.188" filterUnits="userSpaceOnUse" color-interpolation-filters="sRGB"><feFlood flood-opacity="0" result="BackgroundImageFix"/><feGaussianBlur in="BackgroundImageFix" stdDeviation="37.5"/><feComposite in2="SourceAlpha" operator="in" result="effect1_backgroundBlur_139_403"/><feBlend in="SourceGraphic" in2="effect1_backgroundBlur_139_403" result="shape"/></filter></defs></svg>