<svg width="101" height="32" fill="none" xmlns="http://www.w3.org/2000/svg"><path d="m43.593 0-16.88 12.48a14.263 14.263 0 0 0-5.2-7.737 15.097 15.097 0 0 0-9.051-3.052H.427v28.64h12.08c3.295.06 6.514-.986 9.143-2.971a13.805 13.805 0 0 0 5.063-7.817L43.593 32l16.834-12.457V30.33h18.995v-5.817H66.85V1.657h-6.857v10.8l-16 12.469-3.428-2.903 7.771-5.817 8.206-6.229-4.755-3.737-15.93 12.046-3.43-2.903 16-11.634L43.594 0ZM6.896 7.486h5.177a7.611 7.611 0 0 1 3.097.651 8.434 8.434 0 0 1 2.618 1.829c.773.8 1.39 1.738 1.817 2.765a9.222 9.222 0 0 1 0 6.766 8.8 8.8 0 0 1-1.715 2.789 8.056 8.056 0 0 1-2.605 1.943 7.761 7.761 0 0 1-3.292.72H6.896V7.486ZM101 24.514v5.817H82.005V1.67h6.914v22.857h12.08v-.012Z" fill="#3D544D"/></svg>