<svg width="60" height="35" fill="none" xmlns="http://www.w3.org/2000/svg"><path fill-rule="evenodd" clip-rule="evenodd" d="M29.984 30.362a17.363 17.363 0 0 0 5.632-12.821c0-5.073-2.17-9.639-5.632-12.821A17.35 17.35 0 0 1 41.76.132c9.614 0 17.41 7.794 17.41 17.409 0 9.615-7.796 17.41-17.41 17.41a17.35 17.35 0 0 1-11.777-4.589Zm0 0a17.35 17.35 0 0 1-11.777 4.588c-9.615 0-17.41-7.794-17.41-17.409 0-9.615 7.795-17.41 17.41-17.41A17.35 17.35 0 0 1 29.984 4.72a17.363 17.363 0 0 0-5.633 12.821c0 5.073 2.17 9.639 5.633 12.821Z" fill="#fff"/></svg>