<svg width="27" height="47" fill="none" xmlns="http://www.w3.org/2000/svg"><path fill-rule="evenodd" clip-rule="evenodd" d="M15.544.47a1.809 1.809 0 0 1 2.524.419c3.092 4.328 6.781 11.708 7.863 19.93 1.088 8.277-.465 17.517-8.048 25.2a1.809 1.809 0 0 1-2.574-2.541c6.613-6.7 8.016-14.726 7.035-22.188-.989-7.518-4.398-14.349-7.22-18.298a1.809 1.809 0 0 1 .42-2.523Zm-7.84 6.633a1.809 1.809 0 0 1 2.524.416c2.183 3.045 4.781 8.225 5.544 14.008.77 5.841-.329 12.407-5.729 17.862a1.809 1.809 0 0 1-2.57-2.546C11.9 32.371 12.848 27.023 12.186 22c-.67-5.078-2.986-9.707-4.898-12.373a1.809 1.809 0 0 1 .416-2.524Zm-6.036 7.24a1.809 1.809 0 0 1 2.526.404c1.192 1.646 2.602 4.425 3.018 7.552.425 3.187-.182 6.838-3.204 9.861a1.809 1.809 0 0 1-2.558-2.558c2.042-2.042 2.49-4.47 2.176-6.825-.321-2.415-1.444-4.64-2.362-5.908a1.809 1.809 0 0 1 .404-2.526Z" fill="#fff"/></svg>