<svg width="237" height="32" fill="none" xmlns="http://www.w3.org/2000/svg"><path d="M18.628 3.712c0-2.56-2.431-3.2-4.351-3.2v.384c1.152 0 2.048.384 2.048 1.28 0 .512-.384 1.28-1.536 1.28-.896 0-2.816-.512-4.224-1.024-1.664-.64-3.2-1.152-4.48-1.152-2.56 0-4.352 1.92-4.352 4.096 0 1.92 1.408 2.56 1.92 2.816l.128-.256c-.256-.256-.64-.512-.64-1.28 0-.512.512-1.408 1.792-1.408 1.152 0 2.688.512 4.736 1.152 1.791.512 3.711.896 4.736 1.024v3.968l-1.92 1.664v.128l1.92 1.664v5.504c-1.024.64-2.176.768-3.2.768-1.92 0-3.584-.512-4.992-2.048l5.247-2.56V7.68l-6.4 2.816C5.574 8.832 6.98 7.68 8.39 6.912l-.128-.384C4.42 7.552.965 11.136.965 15.488c0 5.12 4.224 8.96 8.96 8.96 5.12 0 8.447-4.096 8.447-8.32h-.256c-.767 1.664-1.92 3.2-3.327 3.968v-5.248l2.048-1.664v-.128l-2.048-1.664V7.424c1.92 0 3.84-1.28 3.84-3.712ZM7.493 17.792l-1.536.768c-.896-1.152-1.408-2.688-1.408-4.864 0-.896 0-1.92.256-2.688l2.688-1.152v7.936Zm13.568 2.944-1.664 1.28.256.256.768-.64 2.816 2.56 3.84-2.56-.128-.256-1.024.64-1.28-1.28v-8.704l1.024-.768 2.176 1.792v7.808c0 4.864-1.024 5.632-3.2 6.4v.384c3.584.128 6.912-1.024 6.912-7.296v-8.448l1.152-.896-.256-.256-1.024.768-3.2-2.688-3.584 2.688V1.024h-.256l-4.48 3.072v.256c.512.256 1.28.512 1.28 1.92l-.128 14.464Zm23.424-1.408-3.2 2.432-3.2-2.56v-1.536l6.016-4.096v-.128l-3.072-4.608-6.656 3.584v8.448l-1.28 1.024.256.256 1.152-.896 4.352 3.2 5.76-4.608-.128-.512Zm-6.4-2.176V10.88l.256-.128 2.816 4.48-3.072 1.92ZM68.933 2.56c0-.384-.128-.768-.256-1.152h-.256c-.384 1.024-.896 1.536-2.176 1.536-1.152 0-1.92-.64-2.432-1.152L60.1 6.016l.256.256 1.28-1.152c.768.64 1.408 1.152 3.2 1.28v10.624L57.285 4.096c-.64-1.024-1.536-2.432-3.328-2.432-2.048 0-3.84 1.792-3.584 4.608h.384c.128-.768.512-1.664 1.408-1.664.64 0 1.28.64 1.664 1.28v4.224c-2.304 0-3.84 1.024-3.84 2.944 0 1.024.512 2.56 2.048 2.944v-.256c-.256-.256-.384-.512-.384-.896 0-.64.512-1.152 1.408-1.152h.64v5.376c-2.688 0-4.864 1.536-4.864 4.096 0 2.432 2.048 3.584 4.352 3.456v-.256c-1.408-.128-2.048-.768-2.048-1.664 0-1.152.768-1.664 1.792-1.664s1.92.64 2.56 1.408l3.712-4.096-.256-.256-.896 1.024c-1.408-1.28-2.176-1.664-3.84-1.92V6.4l10.24 17.92h.768V6.4c1.92-.128 3.712-1.664 3.712-3.84Zm9.344 16.768-3.2 2.432-3.2-2.56v-1.536l6.016-4.096v-.128L74.82 8.832l-6.656 3.584v8.448l-1.28 1.024.256.256 1.152-.896 4.352 3.2 5.76-4.608-.128-.512Zm-6.4-2.176V10.88l.256-.128 2.816 4.48-3.072 1.92ZM99.14 10.24l-.896.64-2.432-2.048-2.816 2.56 1.152 1.152v9.6l-3.072-1.92v-7.936l1.024-.64-2.944-2.816-2.816 2.56 1.152 1.152v9.216l-.384.256-2.688-1.92v-7.68c0-1.792-.896-2.304-1.92-2.944-.896-.64-1.408-1.024-1.408-1.92 0-.768.768-1.152 1.152-1.408v-.256c-1.024 0-3.712 1.024-3.712 3.456 0 1.28.64 1.792 1.28 2.432.64.64 1.28 1.152 1.28 2.304v7.424l-1.408 1.024.256.256 1.28-1.024 2.944 2.56 3.2-2.176 3.584 2.176 6.784-3.968v-8.576l1.664-1.28-.256-.256Zm23.808-7.04-1.28 1.152-2.816-2.56-4.224 3.072V2.048h-.384l.128 20.736c-.384 0-1.536-.256-2.432-.512l-.256-17.28c0-1.28-.896-3.072-3.2-3.072-2.304 0-3.84 1.792-3.84 3.584h.384c.128-.768.512-1.408 1.28-1.408s1.408.512 1.408 2.176v4.992c-2.304.128-3.712 1.408-3.712 3.072 0 1.024.512 2.56 2.048 2.56v-.256c-.512-.256-.64-.64-.64-.896 0-.768.64-1.024 1.664-1.024h.512v7.936c-1.92.64-2.688 2.048-2.688 3.584 0 2.176 1.664 3.712 4.224 3.712 1.792 0 3.328-.256 4.864-.64 1.28-.256 2.944-.64 3.712-.64 1.024 0 1.408.512 1.408 1.152 0 .896-.384 1.28-.896 1.408v.256c2.048-.384 3.328-1.664 3.328-3.584 0-1.92-1.92-3.072-3.968-3.072-1.024 0-3.2.384-4.736.64-1.792.384-3.584.64-4.096.64-.896 0-1.92-.384-1.92-1.664 0-1.024.896-1.92 3.072-1.92 1.152 0 2.56.128 3.968.512 1.536.384 2.944.768 4.224.768 1.92 0 3.584-.64 3.584-3.328V4.736l1.536-1.28-.256-.256Zm-5.248 7.808c-.384.384-.896.768-1.536.768s-1.28-.384-1.536-.768V5.376l1.28-.896 1.792 1.664v4.864Zm0 3.84c-.256-.256-.896-.64-1.536-.64s-1.28.384-1.536.64V11.52c.256.256.896.64 1.536.64s1.28-.384 1.536-.64v3.328Zm0 6.016c0 1.024-.64 2.048-2.048 2.048h-1.024V15.36c.256-.256.896-.64 1.536-.64s1.152.384 1.536.64v5.504Zm17.536-9.088-4.096-2.944-6.272 3.584v8.32l-1.28 1.024.128.256 1.024-.768 4.096 3.072 6.4-3.84v-8.704Zm-6.912 8.064v-9.216l3.2 2.304v9.088l-3.2-2.176Zm19.072-10.752h-.256c-.384.256-.768.512-1.152.512-.512 0-1.152-.256-1.408-.64h-.256l-2.176 2.432-2.176-2.432-3.84 2.56.128.256 1.024-.64 1.28 1.408v8.064l-1.664 1.28.256.256.768-.64 3.072 2.56 3.968-2.688-.128-.256-1.152.64-1.536-1.28v-8.96c.64.64 1.408 1.28 2.304 1.28 1.792.128 2.816-1.664 2.944-3.712Zm15.36 12.288-4.352 2.944-5.888-8.96 4.224-6.528h.256c.512.512 1.28 1.024 2.176 1.024.896 0 1.536-.512 1.92-1.024h.256c-.128 2.56-1.92 4.096-3.2 4.096-1.28 0-1.92-.64-2.688-1.024l-.384.64 6.4 9.472 1.28-.768v.128Zm-14.08-.64-1.664 1.28.256.256.768-.64 2.816 2.56 3.84-2.56-.256-.256-1.024.64-1.28-1.28V1.024h-.128l-4.608 3.072v.256c.512.256 1.28.384 1.28 1.92v14.464Zm35.328-17.024c0-2.56-2.432-3.2-4.352-3.2v.384c1.152 0 2.048.384 2.048 1.28 0 .512-.384 1.28-1.536 1.28-.896 0-2.816-.512-4.224-1.024-1.664-.512-3.2-1.024-4.48-1.024-2.56 0-4.352 1.92-4.352 4.096 0 1.92 1.408 2.56 1.92 2.816l.128-.256c-.384-.256-.768-.512-.768-1.28 0-.512.512-1.408 1.792-1.408 1.152 0 2.688.512 4.736 1.152 1.792.512 3.712.896 4.736 1.024v3.968l-1.92 1.664v.128l1.92 1.664v5.504c-1.024.64-2.176.768-3.2.768-1.92 0-3.584-.512-4.992-2.048l5.248-2.56V7.68l-6.4 2.816c.64-1.664 2.048-2.816 3.328-3.712l-.128-.256c-3.84 1.024-7.296 4.48-7.296 8.832 0 5.12 4.224 8.96 8.96 8.96 5.12 0 8.448-4.096 8.448-8.32h-.256c-.768 1.664-1.92 3.2-3.328 3.968V14.72l2.048-1.664v-.128l-1.92-1.664v-3.84c1.92 0 3.84-1.28 3.84-3.712Zm-11.136 14.08-1.536.768c-.896-1.152-1.408-2.688-1.408-4.864 0-.896.128-1.92.384-2.688l2.688-1.152-.128 7.936Zm15.616-15.36h-.128l-2.56 2.176v.128l2.176 2.432h.256l2.56-2.176v-.128l-2.304-2.432Zm3.84 18.944-1.024.64-1.28-1.28v-8.832l1.28-.896-.256-.256-.896.768-2.304-2.688-3.712 2.56.256.384.896-.64 1.152 1.408v8.32l-1.664 1.28.128.256.896-.64 2.816 2.56 3.84-2.56-.128-.384Zm21.376-.128-.896.64-1.408-1.28v-8.704l1.28-1.024-.256-.256-1.024.896-2.944-2.688-3.84 2.688-2.944-2.688-3.584 2.688-2.304-2.688-3.712 2.56.128.384.896-.64 1.28 1.408v8.32l-1.024 1.024 2.944 2.432 2.816-2.56-1.152-1.152v-8.704l1.152-.768 1.92 1.792v7.68l-1.024 1.024 2.944 2.432 2.816-2.56-1.152-1.152v-8.448l1.024-.64 2.048 1.792v7.68l-.896.896 2.944 2.688 3.968-2.688v-.384Zm11.136-1.92-3.2 2.432-3.2-2.56v-1.536l6.016-4.096v-.128l-3.072-4.608-6.656 3.584v8.704l4.48 3.2 5.76-4.608-.128-.384Zm-6.4-2.176V10.88l.256-.128 2.816 4.48-3.072 1.92ZM236.485 16l-2.432-1.92c1.664-1.408 2.304-3.328 2.304-4.608v-.768h-.256c-.256.64-.768 1.28-1.792 1.28s-1.664-.512-2.304-1.28l-5.76 3.2v4.608l2.176 1.664c-2.176 1.92-2.56 3.2-2.56 4.224 0 1.28.64 2.176 1.664 2.56l.128-.256c-.256-.256-.512-.384-.512-1.024 0-.384.512-1.024 1.536-1.024 1.28 0 2.048.896 2.432 1.28l5.504-3.328V16h-.128Zm-1.408-3.84c-.896 1.536-2.816 3.072-3.968 3.84l-1.408-1.152v-4.48c.512 1.28 1.92 2.304 3.328 2.304.896 0 1.408-.128 2.048-.512Zm-2.176 10.24c-.64-1.408-2.176-2.432-3.712-2.432-.384 0-1.408 0-2.432.64.64-1.024 2.304-2.816 4.48-4.096l1.536 1.28.128 4.608Z" fill="#3D544D"/></svg>