<svg width="91" height="32" fill="none" xmlns="http://www.w3.org/2000/svg"><path fill-rule="evenodd" clip-rule="evenodd" d="M15.136 9.38a4.378 4.378 0 0 0-4.375-4.373H4.992v8.803h5.769a4.369 4.369 0 0 0 4.375-4.43ZM10.76 0a9.387 9.387 0 1 1 0 18.775H4.992v12.891H.002V0H10.76Zm25.77 18.441a5.793 5.793 0 0 0-5.633-4.339c-2.758 0-5.02 1.76-5.64 4.34h11.274ZM30.949 9.68c6.455 0 10.963 5.14 10.963 12.494v.397H25.257c.886 2.759 3.277 4.59 6.094 4.59 2.935 0 5.15-1.848 5.964-2.642l.309-.298 2.999 3.658-.26.253c-2.527 2.483-5.74 3.862-9.053 3.862-6.345 0-11.297-5.029-11.297-11.45A10.778 10.778 0 0 1 30.934 9.68h.014Zm19.117-6.3V10h6.822v4.477h-6.836v9.38a2.779 2.779 0 0 0 2.809 2.816h3.93v5.007h-4.013c-4.69 0-7.724-3.087-7.724-7.865V3.401l5.012-.022Zm26.003 17.417a6.137 6.137 0 1 0-6.138 6.196 6.156 6.156 0 0 0 6.124-6.196h.014Zm.552-8.66v-2.123h4.37v21.652h-4.354v-2.124A10.417 10.417 0 0 1 69.875 32a11.161 11.161 0 1 1 0-22.32c2.458.01 4.836.88 6.72 2.458h.025Zm8.9 19.53V1.668h4.965v29.997h-4.966Z" fill="#3D544D"/></svg>