<svg width="26" height="26" fill="none" xmlns="http://www.w3.org/2000/svg"><path d="M24.75 13c.138 0 .25.112.247.25A12 12 0 1 1 9.055 1.667a.246.246 0 0 1 .314.158l3.126 9.62A2.25 2.25 0 0 0 14.635 13H24.75Z" fill="#fff"/><path fill-rule="evenodd" clip-rule="evenodd" d="M8.818 2.556A11.25 11.25 0 1 0 24.225 13.75h-9.59a3 3 0 0 1-2.853-2.073l-2.964-9.12ZM8.808.96a.996.996 0 0 1 1.274.634l3.126 9.62a1.5 1.5 0 0 0 1.427 1.037H24.75c.548 0 1.01.447.997 1.016A12.75 12.75 0 1 1 8.808.959Z" fill="#fff"/><path d="M14.144 1.597a.244.244 0 0 1 .162-.311 7.333 7.333 0 0 1 9.356 6.797.244.244 0 0 1-.245.25H17.24a1.25 1.25 0 0 1-1.188-.863l-1.909-5.873Z" fill="#fff"/><path fill-rule="evenodd" clip-rule="evenodd" d="M13.431 1.828A.993.993 0 0 1 14.1.565a8.083 8.083 0 0 1 10.313 7.493.994.994 0 0 1-.995 1.025H17.24a2 2 0 0 1-1.902-1.382l-1.908-5.873Zm1.595.053 1.74 5.357a.5.5 0 0 0 .476.345h5.632a6.584 6.584 0 0 0-7.848-5.702Z" fill="#fff"/></svg>