<svg width="20" height="19" fill="none" xmlns="http://www.w3.org/2000/svg"><path fill-rule="evenodd" clip-rule="evenodd" d="M1.515 5.463C2.615 3.478 4.656 1.308 8.353.59l.286 1.473c-3.174.616-4.88 2.445-5.812 4.127A9.692 9.692 0 0 0 1.9 8.577h2.712c.818 0 1.376 0 1.855.127a3.75 3.75 0 0 1 2.651 2.652c.129.479.129 1.037.128 1.855V13.665c0 .612 0 1.029-.071 1.391a3.75 3.75 0 0 1-2.949 2.949c-.363.072-.78.072-1.391.072h-.173c-.612 0-1.03 0-1.392-.072a3.75 3.75 0 0 1-2.948-2.949c-.072-.362-.072-.78-.072-1.39V9.291l.003-.035.747.07-.747-.07v-.005l.001-.006.002-.02.009-.07a9.813 9.813 0 0 1 .214-1.08c.177-.69.49-1.628 1.036-2.613Zm.235 4.614v3.502c0 .73.004.987.043 1.185a2.25 2.25 0 0 0 1.77 1.77c.198.039.454.043 1.185.043.731 0 .987-.004 1.186-.043a2.25 2.25 0 0 0 1.77-1.77c.039-.198.042-.454.042-1.185v-.252c0-.979-.006-1.32-.076-1.583a2.25 2.25 0 0 0-1.591-1.59c-.263-.071-.605-.077-1.583-.077H1.75ZM12.019 5.463c1.1-1.985 3.141-4.155 6.838-4.873l.286 1.473c-3.175.616-4.88 2.445-5.812 4.127a9.694 9.694 0 0 0-.927 2.387h2.712c.818 0 1.376 0 1.855.127a3.75 3.75 0 0 1 2.651 2.652c.128.479.128 1.037.128 1.855V13.665c0 .612 0 1.029-.072 1.391a3.75 3.75 0 0 1-2.948 2.949c-.363.072-.78.072-1.392.072h-.173c-.611 0-1.028 0-1.391-.072a3.75 3.75 0 0 1-2.948-2.949c-.072-.362-.072-.78-.072-1.39V9.291l.003-.035.747.07-.747-.07v-.005l.001-.006.002-.02a6.58 6.58 0 0 1 .044-.31c.034-.205.09-.492.178-.839.178-.691.492-1.629 1.037-2.614Zm.235 4.614v3.502c0 .73.003.987.043 1.185a2.25 2.25 0 0 0 1.769 1.77c.198.039.455.043 1.186.043.731 0 .987-.004 1.186-.043a2.25 2.25 0 0 0 1.769-1.77c.04-.198.043-.454.043-1.185v-.252c0-.979-.006-1.32-.077-1.583a2.25 2.25 0 0 0-1.59-1.59c-.263-.071-.605-.077-1.583-.077h-2.746Z" fill="#fff"/></svg>