<svg width="109" height="32" fill="none" xmlns="http://www.w3.org/2000/svg"><path d="m27.648 32 59.79-5.182H22.465L27.648 32ZM101.299 5.441a6.368 6.368 0 0 0-3.433 1.101V5.83H93.85v17.62h4.016v-10.3a3.31 3.31 0 1 1 6.608 0v10.364h4.016V13.15c0-4.276-2.915-7.709-7.191-7.709ZM84.587 5.377c-4.664 0-7.968 4.08-7.968 9.263 0 5.441 4.146 9.263 8.356 9.263 2.138 0 4.794-.713 7.061-3.951l-3.563-2.073c-2.72 4.016-7.32 2.008-7.838-2.073h11.53c1.037-6.219-3.044-10.43-7.578-10.43Zm-3.693 6.996c.843-4.081 6.413-4.34 7.19 0h-7.19Z" fill="#3D544D"/><path d="M68.069 17.62a6.019 6.019 0 0 0 5.96 6.283 8.46 8.46 0 0 0 3.886-1.101l-2.591-3.498a2.442 2.442 0 0 1-1.36.453 1.944 1.944 0 0 1-1.88-2.138V10.04h3.434V5.83h-3.433V1.425h-4.016V5.83H65.93v4.21h2.138v7.58ZM57.121 23.903a6.367 6.367 0 0 0 3.434-1.101v.647h4.016V5.83h-4.016v10.364a3.31 3.31 0 1 1-6.608 0V5.83h-4.016v10.364c0 4.276 2.915 7.709 7.19 7.709Z" fill="#3D544D"/><path d="m38.854 16.26 5.96 7.254h5.57l-7.967-9.393 6.866-8.291h-5.57l-4.859 6.154V0h-4.08v23.514h4.08V16.26ZM28.49 22.672v.777h4.016V5.83H28.49v.777a6.51 6.51 0 0 0-3.757-1.23c-4.535 0-8.033 4.145-8.033 9.263 0 5.117 3.433 9.263 8.033 9.263a6.36 6.36 0 0 0 3.757-1.23Zm-7.709-7.968c0-2.785 1.62-4.987 3.887-4.987s3.822 2.202 3.822 4.987c0 2.786-1.555 4.988-3.822 4.988-2.267 0-3.887-2.202-3.887-4.988Z" fill="#3D544D"/><path d="M15.405 9.004a7.586 7.586 0 0 0-7.58-7.579H.96V23.45h4.21v-6.801h2.916l5.117 6.801h5.247l-6.218-8.226a7.52 7.52 0 0 0 3.174-6.219ZM7.89 12.502H5.17V5.636h2.72a3.433 3.433 0 1 1 0 6.866Z" fill="#3D544D"/></svg>