<svg width="26" height="26" fill="none" xmlns="http://www.w3.org/2000/svg"><path d="M9.667 25h-6v-4.352c0-2.25 0-3.375.573-4.164.185-.254.409-.478.663-.663.789-.573 1.914-.573 4.164-.573h.6v-.115c0-2.492 0-3.738.536-4.666a4 4 0 0 1 1.464-1.464c.928-.536 2.174-.536 4.666-.536V4a3 3 0 0 1 6 0v21H9.667Z" fill="#fff"/><path d="M25 25h-2.667M1 25h2.667m12.666 0H9.667m6.666 0V8.467m0 16.533h6M9.667 25h-6m6 0v-9.752m-6 9.752v-4.352c0-2.25 0-3.375.573-4.164.185-.254.409-.478.663-.663.789-.573 1.914-.573 4.164-.573h.6m0 0v-.115c0-2.492 0-3.738.536-4.666a4 4 0 0 1 1.464-1.464c.928-.536 2.174-.536 4.666-.536v0m0 0V4a3 3 0 0 1 3-3v0a3 3 0 0 1 3 3v21" stroke="#fff" stroke-width="1.5" stroke-linecap="round"/></svg>