<svg width="24" height="25" fill="none" xmlns="http://www.w3.org/2000/svg"><path d="M10.547 2.242c.832-.898 1.248-1.346 1.586-1.402a.82.82 0 0 1 .329.001c.338.057.754.51 1.585 1.414.85.924 1.93 1.86 3.049 2.21.902.283 2.123.278 3.107.206.761-.057 1.142-.085 1.406.065.088.05.162.107.231.18.21.22.266.55.38 1.21.405 2.353.893 6.685-.334 9.502-1.131 2.596-4.2 5.01-6.563 6.573-1.11.735-1.666 1.102-2.577 1.224-.24.032-.66.04-.901.018-.915-.085-1.486-.431-2.627-1.123-2.53-1.533-5.883-3.97-7.092-6.692-1.245-2.805-.752-7.13-.34-9.489.115-.665.173-.998.386-1.219a.979.979 0 0 1 .236-.18c.268-.148.65-.114 1.413-.045 1.14.103 2.625.132 3.694-.23 1.107-.374 2.181-1.307 3.032-2.223Z" fill="#fff"/><path fill-rule="evenodd" clip-rule="evenodd" d="M12.283 1.576c-.015.01-.09.054-.249.2-.224.207-.513.518-.938.976-.87.937-2.05 1.987-3.34 2.424-1.23.416-2.854.37-4.003.266a9.82 9.82 0 0 0-.82-.056.736.736 0 0 0-.168.014m-.053.041a.525.525 0 0 0-.049.129c-.042.146-.078.35-.139.698-.202 1.157-.421 2.784-.44 4.456-.018 1.687.17 3.342.728 4.6.54 1.216 1.587 2.42 2.858 3.531 1.261 1.103 2.693 2.07 3.937 2.824 1.165.706 1.591.95 2.307 1.017.186.017.548.01.733-.014.712-.095 1.128-.356 2.263-1.106 1.16-.768 2.482-1.737 3.645-2.822 1.171-1.093 2.137-2.263 2.643-3.426.552-1.265.736-2.927.717-4.617-.018-1.675-.235-3.303-.434-4.458a7.661 7.661 0 0 0-.137-.692.526.526 0 0 0-.048-.128m-18.584.008.003-.003-.003.003Zm.049-.04h.001Zm9.522-3.825a.48.48 0 0 1 .013-.002.48.48 0 0 1 .013.002c.015.01.09.055.249.203.224.208.513.522.937.984.87.945 2.06 2.005 3.377 2.418 1.046.328 2.39.311 3.386.237.396-.029.64-.046.819-.042.109.002.155.012.168.016m.004.001ZM12.012.1c.214-.035.36-.035.575.001.41.07.743.346.994.58.271.254.6.61.997 1.042l.022.024c.83.903 1.798 1.713 2.72 2.002.757.238 1.856.245 2.827.174l.033-.003c.353-.026.668-.05.928-.044.273.006.58.043.87.207.153.087.285.19.406.317.22.231.331.497.404.752.065.231.114.512.165.814l.006.033c.207 1.198.436 2.912.456 4.696.02 1.768-.165 3.68-.841 5.232-.625 1.434-1.759 2.77-2.996 3.923-1.244 1.162-2.64 2.182-3.84 2.977a94.13 94.13 0 0 1-.077.05c-1.044.691-1.733 1.147-2.816 1.292-.296.04-.772.049-1.07.02-1.088-.1-1.795-.53-2.867-1.18a45.236 45.236 0 0 0-.079-.047c-1.286-.78-2.797-1.798-4.146-2.977-1.34-1.172-2.574-2.547-3.242-4.053-.687-1.548-.876-3.457-.856-5.224.02-1.782.252-3.496.461-4.698l.006-.033a8.36 8.36 0 0 1 .17-.82 1.74 1.74 0 0 1 .41-.758c.123-.126.259-.23.413-.315.294-.163.604-.196.88-.198.26-.001.577.027.93.06l.033.002c1.132.103 2.479.114 3.387-.193.922-.312 1.89-1.128 2.722-2.023l.022-.024c.397-.428.726-.782.998-1.034.252-.232.585-.506.995-.574Z" fill="#fff"/></svg>