<svg xmlns="http://www.w3.org/2000/svg"><symbol id="master-card" viewBox="0 0 60 35"><path fill-rule="evenodd" clip-rule="evenodd" d="M29.984 30.362a17.363 17.363 0 0 0 5.632-12.821c0-5.073-2.17-9.639-5.632-12.821A17.35 17.35 0 0 1 41.76.132c9.614 0 17.41 7.794 17.41 17.409 0 9.615-7.796 17.41-17.41 17.41a17.35 17.35 0 0 1-11.777-4.589Zm0 0a17.35 17.35 0 0 1-11.777 4.588c-9.615 0-17.41-7.794-17.41-17.409 0-9.615 7.795-17.41 17.41-17.41A17.35 17.35 0 0 1 29.984 4.72a17.363 17.363 0 0 0-5.633 12.821c0 5.073 2.17 9.639 5.633 12.821Z" fill="currentColor"/></symbol><symbol id="nfs" viewBox="0 0 27 47"><path fill-rule="evenodd" clip-rule="evenodd" d="M15.544.47a1.809 1.809 0 0 1 2.524.419c3.092 4.328 6.781 11.708 7.863 19.93 1.088 8.277-.465 17.517-8.048 25.2a1.809 1.809 0 0 1-2.574-2.541c6.613-6.7 8.016-14.726 7.035-22.188-.989-7.518-4.398-14.349-7.22-18.298a1.809 1.809 0 0 1 .42-2.523Zm-7.84 6.633a1.809 1.809 0 0 1 2.524.416c2.183 3.045 4.781 8.225 5.544 14.008.77 5.841-.329 12.407-5.729 17.862a1.809 1.809 0 0 1-2.57-2.546C11.9 32.371 12.848 27.023 12.186 22c-.67-5.078-2.986-9.707-4.898-12.373a1.809 1.809 0 0 1 .416-2.524Zm-6.036 7.24a1.809 1.809 0 0 1 2.526.404c1.192 1.646 2.602 4.425 3.018 7.552.425 3.187-.182 6.838-3.204 9.861a1.809 1.809 0 0 1-2.558-2.558c2.042-2.042 2.49-4.47 2.176-6.825-.321-2.415-1.444-4.64-2.362-5.908a1.809 1.809 0 0 1 .404-2.526Z" fill="currentColor"/></symbol><symbol id="chip" viewBox="0 0 59 48"><path d="M.114 2.506a1.6 1.6 0 0 1 1.601-1.6h13.607a1.6 1.6 0 0 1 1.601 1.6v10.195a1.6 1.6 0 0 1-.912 1.446l-6.804 3.24a1.601 1.601 0 0 1-1.376 0l-6.804-3.24A1.6 1.6 0 0 1 .114 12.7V2.506ZM25.728 2.506a1.6 1.6 0 0 1 1.601-1.6h4.002a1.6 1.6 0 0 1 1.601 1.6v3.202a1.6 1.6 0 0 1-1.6 1.6h-4.003a1.6 1.6 0 0 1-1.6-1.6V2.506ZM41.737 2.506a1.6 1.6 0 0 1 1.6-1.6h13.608a1.6 1.6 0 0 1 1.6 1.6v9.605a1.6 1.6 0 0 1-1.6 1.601H43.338c-.885 0-1.601-.717-1.601-1.6V2.505ZM.114 19.315a1.6 1.6 0 0 1 1.601-1.6h13.607a1.6 1.6 0 0 1 1.601 1.6v9.605a1.6 1.6 0 0 1-1.6 1.601H1.714a1.6 1.6 0 0 1-1.6-1.6v-9.606ZM20.925 12.912a1.6 1.6 0 0 1 1.601-1.601h13.608a1.6 1.6 0 0 1 1.6 1.6v22.413a1.6 1.6 0 0 1-1.6 1.6H22.526a1.6 1.6 0 0 1-1.6-1.6V12.912ZM41.737 19.315c0-.884.716-1.6 1.6-1.6h13.608a1.6 1.6 0 0 1 1.6 1.6v9.605a1.6 1.6 0 0 1-1.6 1.601H43.338c-.885 0-1.601-.717-1.601-1.6v-9.606ZM.114 36.124a1.6 1.6 0 0 1 1.601-1.6h13.607a1.6 1.6 0 0 1 1.601 1.6v9.605a1.6 1.6 0 0 1-1.6 1.601H1.714a1.6 1.6 0 0 1-1.6-1.6v-9.606ZM25.728 42.528a1.6 1.6 0 0 1 1.601-1.601h4.002a1.6 1.6 0 0 1 1.601 1.6v3.202a1.6 1.6 0 0 1-1.6 1.601h-4.003a1.6 1.6 0 0 1-1.6-1.6v-3.202ZM41.737 35.534c0-.617.355-1.18.912-1.445l6.804-3.24a1.601 1.601 0 0 1 1.377 0l6.803 3.24a1.6 1.6 0 0 1 .913 1.445V45.73a1.6 1.6 0 0 1-1.601 1.601H43.338a1.6 1.6 0 0 1-1.601-1.6V35.533Z" fill="currentColor"/></symbol></svg>