<svg xmlns="http://www.w3.org/2000/svg"><symbol id="master-card" viewBox="0 0 60 35"><path fill-rule="evenodd" clip-rule="evenodd" d="M29.984 30.362a17.363 17.363 0 0 0 5.632-12.821c0-5.073-2.17-9.639-5.632-12.821A17.35 17.35 0 0 1 41.76.132c9.614 0 17.41 7.794 17.41 17.409 0 9.615-7.796 17.41-17.41 17.41a17.35 17.35 0 0 1-11.777-4.589Zm0 0a17.35 17.35 0 0 1-11.777 4.588c-9.615 0-17.41-7.794-17.41-17.409 0-9.615 7.795-17.41 17.41-17.41A17.35 17.35 0 0 1 29.984 4.72a17.363 17.363 0 0 0-5.633 12.821c0 5.073 2.17 9.639 5.633 12.821Z" fill="currentColor"/></symbol><symbol id="nfs" viewBox="0 0 27 47"><path fill-rule="evenodd" clip-rule="evenodd" d="M15.544.47a1.809 1.809 0 0 1 2.524.419c3.092 4.328 6.781 11.708 7.863 19.93 1.088 8.277-.465 17.517-8.048 25.2a1.809 1.809 0 0 1-2.574-2.541c6.613-6.7 8.016-14.726 7.035-22.188-.989-7.518-4.398-14.349-7.22-18.298a1.809 1.809 0 0 1 .42-2.523Zm-7.84 6.633a1.809 1.809 0 0 1 2.524.416c2.183 3.045 4.781 8.225 5.544 14.008.77 5.841-.329 12.407-5.729 17.862a1.809 1.809 0 0 1-2.57-2.546C11.9 32.371 12.848 27.023 12.186 22c-.67-5.078-2.986-9.707-4.898-12.373a1.809 1.809 0 0 1 .416-2.524Zm-6.036 7.24a1.809 1.809 0 0 1 2.526.404c1.192 1.646 2.602 4.425 3.018 7.552.425 3.187-.182 6.838-3.204 9.861a1.809 1.809 0 0 1-2.558-2.558c2.042-2.042 2.49-4.47 2.176-6.825-.321-2.415-1.444-4.64-2.362-5.908a1.809 1.809 0 0 1 .404-2.526Z" fill="currentColor"/></symbol><symbol id="chip" viewBox="0 0 59 48"><path d="M.114 2.506a1.6 1.6 0 0 1 1.601-1.6h13.607a1.6 1.6 0 0 1 1.601 1.6v10.195a1.6 1.6 0 0 1-.912 1.446l-6.804 3.24a1.601 1.601 0 0 1-1.376 0l-6.804-3.24A1.6 1.6 0 0 1 .114 12.7V2.506ZM25.728 2.506a1.6 1.6 0 0 1 1.601-1.6h4.002a1.6 1.6 0 0 1 1.601 1.6v3.202a1.6 1.6 0 0 1-1.6 1.6h-4.003a1.6 1.6 0 0 1-1.6-1.6V2.506ZM41.737 2.506a1.6 1.6 0 0 1 1.6-1.6h13.608a1.6 1.6 0 0 1 1.6 1.6v9.605a1.6 1.6 0 0 1-1.6 1.601H43.338c-.885 0-1.601-.717-1.601-1.6V2.505ZM.114 19.315a1.6 1.6 0 0 1 1.601-1.6h13.607a1.6 1.6 0 0 1 1.601 1.6v9.605a1.6 1.6 0 0 1-1.6 1.601H1.714a1.6 1.6 0 0 1-1.6-1.6v-9.606ZM20.925 12.912a1.6 1.6 0 0 1 1.601-1.601h13.608a1.6 1.6 0 0 1 1.6 1.6v22.413a1.6 1.6 0 0 1-1.6 1.6H22.526a1.6 1.6 0 0 1-1.6-1.6V12.912ZM41.737 19.315c0-.884.716-1.6 1.6-1.6h13.608a1.6 1.6 0 0 1 1.6 1.6v9.605a1.6 1.6 0 0 1-1.6 1.601H43.338c-.885 0-1.601-.717-1.601-1.6v-9.606ZM.114 36.124a1.6 1.6 0 0 1 1.601-1.6h13.607a1.6 1.6 0 0 1 1.601 1.6v9.605a1.6 1.6 0 0 1-1.6 1.601H1.714a1.6 1.6 0 0 1-1.6-1.6v-9.606ZM25.728 42.528a1.6 1.6 0 0 1 1.601-1.601h4.002a1.6 1.6 0 0 1 1.601 1.6v3.202a1.6 1.6 0 0 1-1.6 1.601h-4.003a1.6 1.6 0 0 1-1.6-1.6v-3.202ZM41.737 35.534c0-.617.355-1.18.912-1.445l6.804-3.24a1.601 1.601 0 0 1 1.377 0l6.803 3.24a1.6 1.6 0 0 1 .913 1.445V45.73a1.6 1.6 0 0 1-1.601 1.601H43.338a1.6 1.6 0 0 1-1.601-1.6V35.533Z" fill="currentColor"/></symbol><symbol id="app-store" viewBox="0 0 123 33"><path d="M19.488 15.279c-.033-3.533 2.966-5.251 3.103-5.331-1.698-2.415-4.33-2.745-5.256-2.771-2.211-.227-4.356 1.29-5.482 1.29-1.15 0-2.884-1.268-4.753-1.23-2.406.035-4.656 1.393-5.89 3.502-2.548 4.3-.648 10.618 1.793 14.093 1.22 1.703 2.647 3.603 4.514 3.536 1.827-.073 2.509-1.135 4.713-1.135 2.184 0 2.825 1.135 4.73 1.093 1.96-.031 3.194-1.71 4.372-3.428 1.411-1.95 1.978-3.872 2-3.97-.046-.016-3.807-1.416-3.844-5.65ZM15.89 4.89c.983-1.197 1.655-2.827 1.468-4.48-1.421.06-3.2.958-4.224 2.13-.906 1.032-1.715 2.724-1.506 4.316 1.597.116 3.237-.786 4.262-1.965ZM40.758 4.565c0 1.29-.397 2.261-1.19 2.913-.733.602-1.777.904-3.128.904-.67 0-1.243-.029-1.723-.086V1.248c.626-.099 1.3-.15 2.029-.15 1.287 0 2.257.273 2.911.82.733.616 1.1 1.499 1.1 2.647Zm-1.242.032c0-.836-.227-1.477-.681-1.925-.455-.446-1.118-.67-1.991-.67-.371 0-.687.025-.949.075v5.359c.145.022.41.031.796.031.901 0 1.597-.244 2.087-.733.49-.489.738-1.201.738-2.137ZM47.344 5.692c0 .795-.233 1.446-.698 1.956-.488.525-1.134.787-1.941.787-.778 0-1.398-.25-1.86-.755-.46-.503-.69-1.138-.69-1.903 0-.8.236-1.456.713-1.966.476-.51 1.117-.765 1.924-.765.778 0 1.403.251 1.877.754.45.489.675 1.12.675 1.892Zm-1.222.037c0-.477-.105-.885-.316-1.226-.247-.412-.599-.618-1.056-.618-.474 0-.833.206-1.08.618-.212.34-.317.756-.317 1.247 0 .477.106.886.316 1.226.256.413.61.619 1.07.619.449 0 .802-.21 1.056-.63.218-.347.327-.76.327-1.236ZM56.175 3.151l-1.658 5.167h-1.08l-.686-2.244a16.438 16.438 0 0 1-.426-1.669h-.021a11.971 11.971 0 0 1-.426 1.67l-.73 2.243h-1.092L48.498 3.15h1.211l.6 2.457c.144.58.263 1.134.359 1.658h.021c.088-.432.233-.982.438-1.648l.752-2.466h.96l.72 2.414c.174.588.316 1.155.425 1.7h.033c.08-.53.2-1.097.36-1.7l.642-2.414h1.157ZM62.282 8.318h-1.178v-2.96c0-.911-.355-1.367-1.068-1.367-.35 0-.631.125-.85.376a1.314 1.314 0 0 0-.328.885v3.065H57.68v-3.69c0-.453-.014-.945-.042-1.478h1.035l.055.808h.032c.138-.251.342-.458.61-.624a2.03 2.03 0 0 1 1.069-.29c.494 0 .906.156 1.233.468.407.382.61.953.61 1.712v3.095ZM65.531 8.318h-1.177V.78h1.177v7.537ZM72.467 5.692c0 .795-.233 1.446-.698 1.956-.488.525-1.136.787-1.942.787-.779 0-1.398-.25-1.859-.755-.46-.503-.691-1.138-.691-1.903 0-.8.237-1.456.713-1.966.477-.51 1.118-.765 1.924-.765.779 0 1.403.251 1.877.754.45.489.676 1.12.676 1.892Zm-1.223.037c0-.477-.106-.885-.316-1.226-.246-.412-.6-.618-1.056-.618-.474 0-.834.206-1.08.618-.211.34-.316.756-.316 1.247 0 .477.106.886.316 1.226.255.413.61.619 1.069.619.45 0 .801-.21 1.055-.63.22-.347.328-.76.328-1.236ZM78.168 8.318H77.11l-.087-.595h-.033c-.362.474-.878.712-1.548.712-.5 0-.905-.157-1.21-.468a1.447 1.447 0 0 1-.414-1.052c0-.631.27-1.112.813-1.446.541-.333 1.304-.496 2.285-.488v-.097c0-.68-.367-1.02-1.1-1.02-.523 0-.984.128-1.382.382l-.24-.754c.493-.297 1.1-.446 1.818-.446 1.385 0 2.08.713 2.08 2.137v1.903c0 .516.026.927.076 1.232Zm-1.223-1.776v-.796c-1.3-.022-1.95.325-1.95 1.04 0 .27.075.472.227.607a.837.837 0 0 0 .575.202c.259 0 .5-.08.721-.24a.977.977 0 0 0 .427-.813ZM84.862 8.318h-1.045l-.055-.83h-.033c-.334.632-.903.947-1.702.947-.638 0-1.17-.244-1.591-.733-.422-.489-.632-1.123-.632-1.903 0-.836.228-1.513.687-2.03a2.135 2.135 0 0 1 1.635-.724c.712 0 1.21.234 1.493.702h.022V.78h1.18v6.145c0 .503.013.967.041 1.392Zm-1.22-2.179v-.861c0-.15-.012-.27-.033-.362a1.303 1.303 0 0 0-.426-.696 1.176 1.176 0 0 0-.788-.282c-.44 0-.784.17-1.037.511-.25.34-.377.776-.377 1.308 0 .51.12.925.362 1.244.255.34.599.51 1.03.51.386 0 .695-.142.93-.426.227-.262.338-.578.338-.946ZM94.938 5.692c0 .795-.233 1.446-.698 1.956-.488.525-1.134.787-1.942.787-.777 0-1.396-.25-1.86-.755-.46-.503-.69-1.138-.69-1.903 0-.8.237-1.456.713-1.966.477-.51 1.118-.765 1.926-.765.777 0 1.403.251 1.875.754.45.489.676 1.12.676 1.892Zm-1.221.037c0-.477-.106-.885-.316-1.226-.248-.412-.6-.618-1.058-.618-.472 0-.832.206-1.08.618-.212.34-.316.756-.316 1.247 0 .477.106.886.316 1.226.255.413.61.619 1.069.619.45 0 .804-.21 1.058-.63.217-.347.327-.76.327-1.236ZM101.272 8.318h-1.177v-2.96c0-.911-.355-1.367-1.07-1.367-.349 0-.63.125-.849.376a1.308 1.308 0 0 0-.327.885v3.065h-1.18v-3.69c0-.453-.013-.945-.04-1.478h1.033l.055.808h.033c.138-.251.343-.458.61-.624.32-.193.677-.29 1.07-.29.493 0 .904.156 1.231.468.409.382.611.953.611 1.712v3.095ZM109.2 4.012h-1.297v2.51c0 .637.23.956.687.956.211 0 .387-.017.525-.053l.03.871c-.233.086-.538.128-.915.128-.465 0-.827-.138-1.089-.414-.263-.276-.394-.74-.394-1.393V4.012h-.774v-.86h.774v-.948l1.155-.34V3.15h1.297v.862h.001ZM115.437 8.318h-1.179V5.38c0-.926-.356-1.39-1.067-1.39-.547 0-.92.268-1.124.805a1.405 1.405 0 0 0-.055.414v3.107h-1.177V.78h1.177v3.113h.022c.371-.566.903-.849 1.592-.849.488 0 .891.156 1.212.468.399.39.599.968.599 1.733v3.072ZM121.87 5.49c0 .206-.016.38-.044.52h-3.533c.016.512.184.9.512 1.17.299.241.684.362 1.156.362.523 0 1-.081 1.429-.244l.184.797c-.502.213-1.093.32-1.778.32-.821 0-1.467-.236-1.935-.708-.469-.47-.702-1.103-.702-1.897 0-.779.217-1.428.654-1.945.456-.553 1.074-.829 1.853-.829.762 0 1.341.276 1.732.829.316.438.472.98.472 1.625Zm-1.124-.297a1.521 1.521 0 0 0-.228-.882c-.205-.319-.516-.479-.938-.479-.384 0-.698.156-.937.468a1.709 1.709 0 0 0-.35.893h2.453ZM45.923 28.124H43.37l-1.398-4.284h-4.86l-1.333 4.284h-2.485l4.816-14.586h2.974l4.84 14.586Zm-4.373-6.082-1.264-3.809c-.134-.389-.385-1.305-.755-2.747h-.044c-.148.62-.385 1.536-.71 2.747l-1.243 3.81h4.016ZM58.307 22.736c0 1.788-.495 3.202-1.487 4.24-.888.924-1.99 1.386-3.307 1.386-1.42 0-2.441-.498-3.063-1.493h-.045v5.54h-2.397V21.07c0-1.125-.03-2.279-.088-3.462h2.107l.134 1.667h.045c.8-1.256 2.012-1.883 3.64-1.883 1.272 0 2.335.49 3.184 1.47.852.982 1.277 2.274 1.277 3.875Zm-2.441.085c0-1.023-.236-1.867-.71-2.531-.519-.693-1.215-1.04-2.087-1.04-.591 0-1.129.194-1.608.574a2.65 2.65 0 0 0-.944 1.505c-.074.289-.11.526-.11.712v1.754c0 .765.24 1.41.72 1.937.482.527 1.107.79 1.876.79.902 0 1.605-.34 2.108-1.016.503-.679.755-1.573.755-2.685ZM70.714 22.736c0 1.788-.495 3.202-1.488 4.24-.887.924-1.99 1.386-3.306 1.386-1.421 0-2.442-.498-3.062-1.493h-.045v5.54h-2.397V21.07c0-1.125-.03-2.279-.088-3.462h2.107l.134 1.667h.045c.798-1.256 2.01-1.883 3.64-1.883 1.271 0 2.333.49 3.185 1.47.85.982 1.275 2.274 1.275 3.875Zm-2.441.085c0-1.023-.237-1.867-.712-2.531-.518-.693-1.212-1.04-2.085-1.04-.593 0-1.129.194-1.61.574a2.648 2.648 0 0 0-.942 1.505 3.05 3.05 0 0 0-.111.712v1.754c0 .765.24 1.41.72 1.937.48.526 1.105.79 1.876.79.903 0 1.606-.34 2.108-1.016.504-.679.756-1.573.756-2.685ZM84.586 24.034c0 1.24-.442 2.25-1.329 3.029-.975.852-2.331 1.277-4.075 1.277-1.61 0-2.9-.303-3.877-.909l.555-1.948a6.697 6.697 0 0 0 3.465.932c.903 0 1.605-.2 2.11-.596.502-.397.753-.93.753-1.594 0-.591-.207-1.09-.622-1.495-.412-.404-1.101-.78-2.064-1.127-2.619-.953-3.927-2.348-3.927-4.183 0-1.199.459-2.182 1.377-2.947.915-.766 2.136-1.149 3.662-1.149 1.361 0 2.492.232 3.395.693l-.6 1.905c-.842-.447-1.796-.67-2.862-.67-.843 0-1.502.202-1.974.605-.4.36-.6.8-.6 1.321 0 .576.229 1.053.688 1.428.398.346 1.124.721 2.176 1.126 1.287.505 2.232 1.096 2.84 1.773.606.675.909 1.52.909 2.529ZM92.51 19.36h-2.642v5.106c0 1.3.465 1.948 1.398 1.948.428 0 .784-.036 1.065-.109l.066 1.775c-.472.172-1.094.259-1.864.259-.946 0-1.686-.282-2.22-.844-.532-.564-.8-1.508-.8-2.836v-5.301H85.94v-1.754h1.574V15.68l2.354-.693v2.618h2.642v1.756ZM104.428 22.779c0 1.616-.474 2.944-1.421 3.981-.992 1.069-2.31 1.602-3.952 1.602-1.583 0-2.843-.512-3.783-1.536s-1.41-2.316-1.41-3.873c0-1.63.484-2.965 1.454-4.003.968-1.039 2.274-1.558 3.917-1.558 1.582 0 2.856.512 3.817 1.536.92.994 1.378 2.278 1.378 3.85Zm-2.486.075c0-.97-.213-1.802-.643-2.495-.503-.84-1.221-1.259-2.152-1.259-.963 0-1.695.42-2.197 1.259-.43.694-.643 1.54-.643 2.54 0 .969.212 1.8.643 2.494.518.84 1.242 1.258 2.176 1.258.915 0 1.633-.428 2.151-1.28.442-.707.665-1.548.665-2.517ZM112.218 19.662a4.256 4.256 0 0 0-.755-.065c-.843 0-1.495.31-1.954.931-.399.549-.599 1.241-.599 2.077v5.519h-2.395l.022-7.205c0-1.213-.03-2.316-.09-3.311h2.088l.087 2.012h.067c.253-.692.652-1.248 1.198-1.666a2.948 2.948 0 0 1 1.732-.563c.222 0 .422.015.599.042v2.229ZM122.937 22.368c0 .418-.028.771-.088 1.06h-7.19c.028 1.038.376 1.833 1.043 2.381.606.49 1.39.735 2.352.735 1.065 0 2.036-.165 2.909-.497l.376 1.622c-1.021.434-2.226.65-3.617.65-1.672 0-2.985-.48-3.941-1.44-.953-.958-1.431-2.246-1.431-3.862 0-1.585.444-2.906 1.334-3.96.93-1.124 2.188-1.686 3.771-1.686 1.555 0 2.732.562 3.531 1.687.633.893.951 1.998.951 3.31Zm-2.286-.606c.016-.693-.14-1.292-.465-1.797-.415-.65-1.052-.974-1.91-.974-.783 0-1.421.317-1.907.952-.399.505-.637 1.112-.71 1.817h4.992v.002Z" fill="currentColor"/></symbol><symbol id="google-play" viewBox="0 0 140 33"><path d="M1.486 1.756c-.348.355-.55.908-.55 1.625v25.543c0 .716.202 1.269.55 1.624l.086.078 14.68-14.308v-.338L1.573 1.673l-.086.083ZM22.918 21.09l-4.888-4.772v-.338l4.894-4.771.11.062 5.795 3.215c1.654.912 1.654 2.414 0 3.332l-5.796 3.21-.115.062ZM22.145 21.916l-5.004-4.878L2.375 31.437c.549.563 1.445.63 2.464.067l17.306-9.588ZM22.145 10.382 4.839.794C3.819.237 2.924.304 2.375.868L17.14 15.26l5.004-4.879ZM46.185 4.88c0 .965-.296 1.737-.88 2.314-.67.682-1.544 1.026-2.614 1.026-1.023 0-1.897-.35-2.614-1.038-.718-.699-1.076-1.556-1.076-2.583 0-1.026.358-1.884 1.076-2.577.717-.695 1.59-1.044 2.614-1.044.51 0 .995.103 1.458.293.462.192.838.452 1.111.773l-.619.609c-.475-.547-1.122-.817-1.95-.817-.747 0-1.394.254-1.943.766-.543.514-.816 1.18-.816 1.997 0 .817.273 1.489.816 2.003.55.506 1.197.766 1.943.766.792 0 1.458-.26 1.984-.772.347-.34.544-.807.595-1.405h-2.58v-.834h3.442c.042.18.053.355.053.524ZM51.645 1.987h-3.232v2.195h2.914v.834h-2.914v2.195h3.232v.85h-4.148V1.137h4.148v.85ZM55.498 8.061h-.915V1.987H52.6v-.85h4.883v.85h-1.985v6.074ZM61.016 8.061V1.137h.913V8.06h-.913ZM65.98 8.061h-.908V1.987h-1.99v-.85h4.887v.85h-1.99v6.074ZM77.213 7.17c-.7.7-1.569 1.05-2.604 1.05-1.04 0-1.908-.35-2.609-1.05-.699-.698-1.047-1.556-1.047-2.57 0-1.016.348-1.873 1.047-2.572.7-.7 1.568-1.05 2.61-1.05 1.029 0 1.896.35 2.597 1.055.705.705 1.053 1.557 1.053 2.566 0 1.015-.348 1.873-1.047 2.571Zm-4.536-.58c.527.518 1.168.778 1.932.778.759 0 1.406-.26 1.927-.778.526-.518.792-1.184.792-1.99 0-.808-.266-1.474-.792-1.992-.521-.518-1.168-.778-1.927-.778-.764 0-1.405.26-1.932.778-.526.518-.792 1.184-.792 1.991 0 .807.266 1.473.792 1.991ZM79.543 8.061V1.137h1.111l3.453 5.385h.04l-.04-1.331V1.137h.914V8.06h-.954l-3.616-5.65h-.04l.04 1.336v4.314h-.907ZM70.728 18.174c-2.782 0-5.055 2.064-5.055 4.913 0 2.825 2.273 4.911 5.055 4.911 2.789 0 5.062-2.086 5.062-4.911 0-2.849-2.273-4.913-5.062-4.913Zm0 7.89c-1.526 0-2.84-1.229-2.84-2.977 0-1.772 1.314-2.979 2.84-2.979 1.527 0 2.846 1.207 2.846 2.979 0 1.748-1.319 2.977-2.846 2.977Zm-11.03-7.89c-2.788 0-5.056 2.064-5.056 4.913 0 2.825 2.267 4.911 5.056 4.911 2.787 0 5.055-2.086 5.055-4.911 0-2.849-2.268-4.913-5.055-4.913Zm0 7.89c-1.528 0-2.846-1.229-2.846-2.977 0-1.772 1.318-2.979 2.846-2.979 1.526 0 2.84 1.207 2.84 2.979 0 1.748-1.313 2.977-2.84 2.977Zm-13.126-6.385v2.088h5.113c-.15 1.167-.55 2.024-1.162 2.622-.747.722-1.909 1.523-3.951 1.523-3.147 0-5.61-2.476-5.61-5.544 0-3.068 2.463-5.544 5.61-5.544 1.701 0 2.94.648 3.853 1.489l1.509-1.472c-1.278-1.19-2.978-2.103-5.362-2.103-4.315 0-7.942 3.423-7.942 7.63s3.627 7.63 7.942 7.63c2.332 0 4.084-.745 5.461-2.142 1.411-1.376 1.851-3.31 1.851-4.873 0-.485-.041-.931-.115-1.304h-7.197Zm53.673 1.619c-.416-1.099-1.7-3.124-4.315-3.124-2.591 0-4.749 1.99-4.749 4.913 0 2.752 2.135 4.911 4.998 4.911a5.023 5.023 0 0 0 4.199-2.177l-1.717-1.116c-.573.817-1.354 1.359-2.482 1.359-1.121 0-1.925-.501-2.44-1.489l6.739-2.718-.233-.56Zm-6.87 1.636a2.726 2.726 0 0 1 2.63-2.865c.88 0 1.626.429 1.875 1.043l-4.506 1.822ZM87.896 27.7h2.215V13.262h-2.215V27.7Zm-3.628-8.432h-.074c-.498-.575-1.447-1.095-2.65-1.095-2.523 0-4.83 2.16-4.83 4.93 0 2.753 2.307 4.895 4.83 4.895 1.203 0 2.152-.524 2.65-1.116h.074v.705c0 1.878-1.03 2.887-2.69 2.887-1.353 0-2.192-.952-2.539-1.754l-1.927.784c.556 1.303 2.026 2.905 4.467 2.905 2.597 0 4.788-1.49 4.788-5.115v-8.822h-2.1v.796Zm-2.534 6.796c-1.527 0-2.805-1.246-2.805-2.961 0-1.732 1.278-2.995 2.805-2.995 1.505 0 2.69 1.264 2.69 2.995 0 1.715-1.185 2.96-2.69 2.96Zm28.882-12.802h-5.299V27.7h2.21v-5.47h3.089c2.453 0 4.86-1.732 4.86-4.485 0-2.752-2.413-4.483-4.86-4.483Zm.057 6.959h-3.146v-4.95h3.146a2.537 2.537 0 0 1 2.592 2.474c0 1.117-.942 2.476-2.592 2.476Zm13.658-2.075c-1.597 0-3.257.687-3.939 2.21l1.96.802c.422-.802 1.198-1.061 2.019-1.061 1.146 0 2.308.671 2.326 1.856v.152c-.4-.225-1.256-.559-2.309-.559-2.111 0-4.263 1.134-4.263 3.249 0 1.934 1.73 3.18 3.674 3.18 1.487 0 2.307-.654 2.823-1.415h.075v1.117h2.134v-5.539c0-2.56-1.961-3.992-4.5-3.992Zm-.267 7.912c-.722 0-1.729-.35-1.729-1.223 0-1.117 1.255-1.546 2.342-1.546.973 0 1.429.21 2.02.485-.173 1.337-1.353 2.284-2.633 2.284Zm12.541-7.596-2.54 6.26h-.075l-2.625-6.26h-2.383l3.945 8.747-2.251 4.867h2.309l6.078-13.614h-2.458ZM116.691 27.7h2.215V13.262h-2.215V27.7Z" fill="currentColor"/></symbol></svg>