<svg width="106" height="32" fill="none" xmlns="http://www.w3.org/2000/svg"><path d="M68.338 7.397a8.55 8.55 0 1 0 8.472 8.511 8.492 8.492 0 0 0-8.472-8.51Zm.067 13.604a4.92 4.92 0 0 1-3.534-1.433 4.958 4.958 0 1 1 8.443-3.544 5.093 5.093 0 0 1-4.928 4.977h.02Zm18.736-9.576a4.367 4.367 0 0 0-4.309 4.444v8.124h-3.689l-.048-16.121h3.689v2.527a5.877 5.877 0 0 1 4.734-2.556h1.075v3.582h-1.452ZM50.348 8.017l2.76 11.057 2.904-11.086h3.689l-4.56 16.17h-3.583l-2.904-11.27-2.799 11.318h-3.592L37.422 8.094h3.592l3.234 11.028 2.585-11.086 3.515-.02Zm49.06 7.146a8.581 8.581 0 0 0 4.251-7.417h-3.69a4.92 4.92 0 0 1-4.84 4.976h-.533L94.557 0h-3.689l.145 23.954h3.69v-7.59h.425a.968.968 0 0 1 .969.522l5.199 7.039h4.318l-6.206-8.763ZM28.902 7.59c-4.009 0-7.049 2.664-8.192 6.885a37.194 37.194 0 0 1-4.25-9.15h-4.212V16.5a4.009 4.009 0 1 1-8.017 0V5.325L0 5.403l.048 11.173a8.269 8.269 0 0 0 8.27 8.298 8.258 8.258 0 0 0 8.142-8.414v-1.937a35.06 35.06 0 0 0 3.089 5.045L16.992 32l4.31-.048 1.858-8.976a10.65 10.65 0 0 0 5.81 1.666 8.55 8.55 0 0 0-.078-17.09l.01.039Zm.058 12.743a7.484 7.484 0 0 1-4.754-1.869l.416-1.685v-.096c.31-1.792 1.24-4.841 4.405-4.841a4.23 4.23 0 0 1 4.241 4.192 4.493 4.493 0 0 1-4.308 4.299Z" fill="#3D544D"/></svg>