<svg width="102" height="32" fill="none" xmlns="http://www.w3.org/2000/svg"><path fill-rule="evenodd" clip-rule="evenodd" d="M101.937 4.731c.11.436-.378.854-.631 1.174-2.13 2.666-4.49 5.82-7.327 7.846.204 1.06.096 2.468-.274 3.246.743.946 1.531 1.842 1.99 3.067-.604 3.2-2.007 5.682-4.251 7.305-2.19 1.582-5.148 2.206-8.505 2.976-6.49 1.492-17.17 2.962-21.984-.903-5.214 3.05-15.75 3.452-20.626-.18-3.467 4.373-17.14 3.99-15.107-4.69-2.536 1.915-6.285 4.554-9.863 6.044-4.148 1.726-12.004 1.531-11.219-4.33.095-.697.391-1.092.725-1.713-1.214-2.111-1.98-3.576-2.715-5.412-.702-1.76-1.774-3.763-1.9-6.222-.263-5.23 3.826-8.545 7.874-10.102C10.19 2.042 11.867.89 13.913.314c3.057-.868 5.677.808 5.88 3.607C23.347 2.87 27.675 1.71 32.369 2.39 36.106-.51 43.404 1.28 48.2 2.657c1.084.312 2.544 1.118 3.347 1.084.68-.028 1.909-.948 2.622-1.263C57.535.99 61.935-.594 66.746.223c.91.153 1.744.634 2.713.72.658.06 1.463-.145 2.171-.178 11.243-.548 20.602 2.46 30.307 3.966Zm-31.481-.358c-1.15.137-1.964 1.39-2.715 1.803.055-.006.106-.015.09-.091.136-.615.4-1.106.452-1.803-6.02-2.114-11.88.976-16.192 3.336-3.45 1.886-6.526 4.103-8.686 6.312.78-1.325 1.61-2.637 2.534-3.876.937-1.259 1.98-2.397 2.806-3.517-1.804-.47-3.612-.968-5.431-1.354-2.585-.549-6.18-1.457-8.322-.27-.62.343-1.127 1.188-1.72 1.263-.49.063-1.296-.294-1.9-.36-2.21-.246-4.244-.041-6.242.36-1.871.374-5.826 1.037-6.334 2.794-.325 1.13.4 2.223.272 3.34-.123 1.097-1.182 2.55-1.719 3.426-.657 1.074-1.326 2.025-2.443 2.525-.677-3.36.06-6.349.634-9.198.354-1.757 1.069-3.554.454-5.322-1.726-.24-3.178 1.122-4.887 1.802-3.21 1.28-6.783 2.447-7.237 6.134-.256 2.076.527 3.396 1.086 4.87a35.58 35.58 0 0 0 4.434 8.298c-.48.877-1.608 1.106-1.72 2.342.51.72 1.573.816 2.623.813 3.036-.007 5.525-1.53 7.78-2.795 4.91-2.755 8.208-6.994 11.672-11.003.608-.705 1.108-1.554 1.9-1.984.777 3.563-.735 5.468-1.811 8.387-.415 1.124-1.724 4.644-1.086 6.312.7 1.834 6.655 1.914 8.233.724.796-.6 1.112-1.954 1.54-2.796.545-1.084 1.017-2.019 1.447-2.976.023 3.95 2.967 5.11 6.15 5.952 6.766 1.782 13.589-1.403 17.28-3.606-.461 2.927.68 3.22 2.987 3.697 5.965 1.227 11.973-.189 16.826-1.354 4.449-1.068 8.026-1.822 8.686-6.224-.712-.614-2.492-.537-3.709-.36-3.588.524-7.063 2.332-11.851 1.984-.875-.063-2.761-.367-2.898-.9-.21-.833 1.285-1.416 2.538-1.624 3.588-.605 8.777.006 11.667-1.085 1.387-.522 3.062-2.028 2.894-3.696-.11-1.127-1.585-1.717-2.985-1.803-3.96-.247-6.789 2.057-10.943 1.262.519-.654.612-1.731 1.264-2.254 3.039-.064 5.99.537 8.866.36 3.998-.249 6.252-1.928 8.143-4.148.202-.24.71-.497.543-.9-6.944-1.055-16.41-3.844-24.97-2.797Zm-13.753 6.941c-.445 2.023-1.377 4.339-1.899 6.583 2.875.041 5.909-.544 8.865-.721.4-.533.597-1.269.815-1.984.593.837 1.01 2.402.453 3.607-4.49-.063-7.718 3.603-12.123 3.607-1.972.002-3.649-1.128-2.715-3.337 1.319-3.115 4.59-5.29 6.605-7.755Zm10.495-3.337c.846.961 2.698.92 3.8 1.625-1.488.38-3.36.379-4.706.9.318-.828.602-1.686.906-2.525Z" fill="#3D544D"/></svg>