<svg width="59" height="48" viewBox="0 0 59 48" fill="none" xmlns="http://www.w3.org/2000/svg">
<path d="M0.114258 2.50602C0.114258 1.62188 0.830989 0.905151 1.71512 0.905151L15.3225 0.905151C16.2066 0.905151 16.9233 1.62188 16.9233 2.50602V12.7013C16.9233 13.3188 16.5682 13.8812 16.0107 14.1466L9.20706 17.3865C8.77164 17.5938 8.26595 17.5938 7.83053 17.3865L1.02686 14.1466C0.469371 13.8812 0.114258 13.3188 0.114258 12.7013L0.114258 2.50602Z" fill="white"/>
<path d="M25.7281 2.50602C25.7281 1.62188 26.4448 0.905151 27.329 0.905151L31.3311 0.905151C32.2153 0.905151 32.932 1.62188 32.932 2.50602V5.70775C32.932 6.59188 32.2153 7.30861 31.3311 7.30861L27.329 7.30861C26.4448 7.30861 25.7281 6.59188 25.7281 5.70775V2.50602Z" fill="white"/>
<path d="M41.7367 2.50602C41.7367 1.62188 42.4535 0.905151 43.3376 0.905151L56.945 0.905151C57.8291 0.905151 58.5458 1.62188 58.5458 2.50602V12.1112C58.5458 12.9953 57.8291 13.7121 56.945 13.7121L43.3376 13.7121C42.4535 13.7121 41.7367 12.9953 41.7367 12.1112V2.50602Z" fill="white"/>
<path d="M0.114258 19.3151C0.114258 18.431 0.830989 17.7142 1.71512 17.7142L15.3225 17.7142C16.2066 17.7142 16.9233 18.431 16.9233 19.3151V28.9203C16.9233 29.8044 16.2066 30.5212 15.3225 30.5212L1.71512 30.5212C0.830989 30.5212 0.114258 29.8044 0.114258 28.9203L0.114258 19.3151Z" fill="white"/>
<path d="M20.9255 12.9116C20.9255 12.0275 21.6422 11.3108 22.5264 11.3108L36.1337 11.3108C37.0179 11.3108 37.7346 12.0275 37.7346 12.9116L37.7346 35.3237C37.7346 36.2079 37.0179 36.9246 36.1337 36.9246L22.5264 36.9246C21.6422 36.9246 20.9255 36.2079 20.9255 35.3237L20.9255 12.9116Z" fill="white"/>
<path d="M41.7367 19.3151C41.7367 18.431 42.4535 17.7142 43.3376 17.7142H56.945C57.8291 17.7142 58.5458 18.431 58.5458 19.3151L58.5458 28.9203C58.5458 29.8044 57.8291 30.5212 56.945 30.5212H43.3376C42.4535 30.5212 41.7367 29.8044 41.7367 28.9203L41.7367 19.3151Z" fill="white"/>
<path d="M0.114258 36.1242C0.114258 35.24 0.830989 34.5233 1.71512 34.5233H15.3225C16.2066 34.5233 16.9233 35.24 16.9233 36.1242L16.9233 45.7294C16.9233 46.6135 16.2066 47.3302 15.3225 47.3302H1.71512C0.830989 47.3302 0.114258 46.6135 0.114258 45.7294L0.114258 36.1242Z" fill="white"/>
<path d="M25.7281 42.5276C25.7281 41.6435 26.4448 40.9268 27.329 40.9268H31.3311C32.2153 40.9268 32.932 41.6435 32.932 42.5276V45.7294C32.932 46.6135 32.2153 47.3302 31.3311 47.3302H27.329C26.4448 47.3302 25.7281 46.6135 25.7281 45.7294V42.5276Z" fill="white"/>
<path d="M41.7367 35.5341C41.7367 34.9166 42.0919 34.3542 42.6493 34.0887L49.453 30.8489C49.8884 30.6416 50.3941 30.6416 50.8296 30.8489L57.6332 34.0887C58.1907 34.3542 58.5458 34.9166 58.5458 35.5341V45.7294C58.5458 46.6135 57.8291 47.3302 56.945 47.3302H43.3376C42.4535 47.3302 41.7367 46.6135 41.7367 45.7294V35.5341Z" fill="white"/>
</svg>
