<svg width="60" height="35" viewBox="0 0 60 35" fill="none" xmlns="http://www.w3.org/2000/svg">
<path fill-rule="evenodd" clip-rule="evenodd" d="M29.9837 30.3621C33.446 27.1798 35.6162 22.6144 35.6162 17.541C35.6162 12.4676 33.446 7.90225 29.9837 4.71999C33.083 1.87176 37.2193 0.131622 41.7607 0.131622C51.3754 0.131622 59.1701 7.92625 59.1701 17.541C59.1701 27.1558 51.3754 34.9504 41.7607 34.9504C37.2193 34.9504 33.083 33.2103 29.9837 30.3621ZM29.9837 30.3621C26.8845 33.2103 22.7481 34.9504 18.2068 34.9504C8.59199 34.9504 0.797363 27.1558 0.797363 17.541C0.797363 7.92625 8.59199 0.131622 18.2068 0.131622C22.7481 0.131622 26.8845 1.87176 29.9837 4.71999C26.5214 7.90225 24.3513 12.4676 24.3513 17.541C24.3513 22.6144 26.5214 27.1798 29.9837 30.3621Z" fill="white"/>
</svg>
