<svg width="27" height="47" viewBox="0 0 27 47" fill="none" xmlns="http://www.w3.org/2000/svg">
<path fill-rule="evenodd" clip-rule="evenodd" d="M15.5443 0.469159C16.357 -0.11168 17.4867 0.0763063 18.0676 0.889038C21.1603 5.21653 24.8493 12.5973 25.9306 20.8184C27.0193 29.0957 25.4657 38.336 17.8834 46.0187C17.1817 46.7297 16.0365 46.7372 15.3255 46.0355C14.6145 45.3338 14.6069 44.1886 15.3086 43.4776C21.9216 36.7771 23.3254 28.7517 22.344 21.2901C21.3551 13.7723 17.9464 6.94105 15.1244 2.99244C14.5436 2.17971 14.7316 1.05 15.5443 0.469159ZM7.70415 7.10286C8.51601 6.52081 9.646 6.70712 10.228 7.51899C12.4112 10.5642 15.009 15.7436 15.7721 21.5273C16.5428 27.368 15.4432 33.9345 10.0434 39.3886C9.34059 40.0985 8.19536 40.1042 7.48546 39.4014C6.77557 38.6986 6.76983 37.5534 7.47265 36.8435C11.9004 32.3711 12.8482 27.0218 12.1857 22.0005C11.5156 16.9222 9.19965 12.2932 7.28801 9.62676C6.70597 8.81489 6.89228 7.6849 7.70415 7.10286ZM1.66796 14.3429C2.47705 13.757 3.60791 13.938 4.19381 14.7471C5.38588 16.3933 6.79552 19.1721 7.21226 22.2991C7.63695 25.4857 7.03025 29.1375 4.00781 32.16C3.30144 32.8663 2.15619 32.8663 1.44983 32.16C0.743461 31.4536 0.743461 30.3083 1.44983 29.602C3.49192 27.5599 3.94033 25.1322 3.62644 22.777C3.30461 20.3621 2.18198 18.1367 1.26382 16.8688C0.677927 16.0597 0.858865 14.9288 1.66796 14.3429Z" fill="white"/>
</svg>
