<svg width="20" height="19" viewBox="0 0 20 19" fill="none" xmlns="http://www.w3.org/2000/svg">
<path fill-rule="evenodd" clip-rule="evenodd" d="M1.51515 5.4633C2.61433 3.47813 4.65637 1.30769 8.35335 0.590332L8.63908 2.06287C5.46453 2.67885 3.75846 4.5084 2.82742 6.1899C2.35772 7.03818 2.08555 7.85066 1.93138 8.45073C1.9203 8.49386 1.90984 8.53584 1.89997 8.5766H4.49624C4.53541 8.5766 4.574 8.57659 4.61203 8.57657C5.43 8.5763 5.98815 8.57612 6.46681 8.70438C7.7609 9.05113 8.77171 10.0619 9.11846 11.356C9.24671 11.8347 9.24653 12.3928 9.24626 13.2108C9.24625 13.2488 9.24624 13.2874 9.24624 13.3266V13.5785C9.24624 13.6078 9.24624 13.6366 9.24625 13.6651C9.2464 14.2767 9.2465 14.6937 9.17454 15.0564C8.87911 16.5454 7.71507 17.7095 6.22601 18.0049C5.86329 18.0769 5.44638 18.0768 4.83471 18.0766C4.80627 18.0766 4.77741 18.0766 4.74812 18.0766C4.71882 18.0766 4.68996 18.0766 4.66152 18.0766C4.04985 18.0768 3.63294 18.0769 3.27022 18.0049C1.78117 17.7095 0.617121 16.5454 0.321692 15.0564C0.249729 14.6937 0.249832 14.2767 0.249983 13.6651C0.24999 13.6366 0.249997 13.6078 0.249997 13.5785V9.29154L0.253268 9.25663L0.999997 9.3266C0.253268 9.25663 0.253229 9.25705 0.253268 9.25663L0.253436 9.25486L0.253667 9.25247L0.254327 9.24586L0.256493 9.22545C0.258337 9.20869 0.261009 9.18567 0.264686 9.15676C0.272039 9.09896 0.283424 9.01753 0.300262 8.91546C0.333914 8.71147 0.389502 8.42411 0.478565 8.07747C0.656254 7.38587 0.969727 6.44835 1.51515 5.4633ZM1.75 10.0766V13.5785C1.75 14.3096 1.75361 14.5659 1.79301 14.7645C1.97027 15.6579 2.6687 16.3563 3.56213 16.5336C3.76073 16.573 4.01703 16.5766 4.74812 16.5766C5.4792 16.5766 5.7355 16.573 5.9341 16.5336C6.82753 16.3563 7.52596 15.6579 7.70322 14.7645C7.74262 14.5659 7.74624 14.3096 7.74624 13.5785V13.3266C7.74624 12.3483 7.73979 12.0063 7.66957 11.7443C7.46152 10.9678 6.85504 10.3613 6.07858 10.1533C5.81649 10.083 5.47449 10.0766 4.49624 10.0766H1.75Z" fill="white"/>
<path fill-rule="evenodd" clip-rule="evenodd" d="M12.0189 5.4633C13.1181 3.47813 15.1601 1.30769 18.8571 0.590332L19.1428 2.06287C15.9683 2.67885 14.2622 4.5084 13.3312 6.1899C12.8615 7.03818 12.5893 7.85066 12.4351 8.45073C12.4241 8.49386 12.4136 8.53584 12.4037 8.5766H15C15.0392 8.5766 15.0778 8.57659 15.1158 8.57657C15.9338 8.5763 16.4919 8.57612 16.9706 8.70438C18.2647 9.05113 19.2755 10.0619 19.6222 11.356C19.7505 11.8347 19.7503 12.3928 19.75 13.2108C19.75 13.2488 19.75 13.2874 19.75 13.3266V13.5785C19.75 13.6078 19.75 13.6366 19.75 13.6651C19.7502 14.2767 19.7503 14.6937 19.6783 15.0564C19.3829 16.5454 18.2188 17.7095 16.7298 18.0049C16.3671 18.0769 15.9501 18.0768 15.3385 18.0766C15.31 18.0766 15.2812 18.0766 15.2519 18.0766C15.2226 18.0766 15.1937 18.0766 15.1653 18.0766C14.5536 18.0768 14.1367 18.0769 13.774 18.0049C12.2849 17.7095 11.1209 16.5454 10.8255 15.0564C10.7535 14.6937 10.7536 14.2767 10.7538 13.6651C10.7538 13.6366 10.7538 13.6078 10.7538 13.5785V9.29154L10.757 9.25663L11.5038 9.3266C10.757 9.25663 10.757 9.25705 10.757 9.25663L10.7572 9.25486L10.7574 9.25247L10.7581 9.24586L10.7603 9.22545C10.7621 9.20869 10.7648 9.18567 10.7685 9.15676C10.7758 9.09896 10.7872 9.01753 10.804 8.91546C10.8377 8.71147 10.8933 8.42411 10.9823 8.07747C11.16 7.38587 11.4735 6.44835 12.0189 5.4633ZM12.2538 10.0766V13.5785C12.2538 14.3096 12.2574 14.5659 12.2968 14.7645C12.474 15.6579 13.1725 16.3563 14.0659 16.5336C14.2645 16.573 14.5208 16.5766 15.2519 16.5766C15.983 16.5766 16.2393 16.573 16.4379 16.5336C17.3313 16.3563 18.0297 15.6579 18.207 14.7645C18.2464 14.5659 18.25 14.3096 18.25 13.5785V13.3266C18.25 12.3483 18.2436 12.0063 18.1733 11.7443C17.9653 10.9678 17.3588 10.3613 16.5823 10.1533C16.3203 10.083 15.9783 10.0766 15 10.0766H12.2538Z" fill="white"/>
</svg>
