<svg xmlns="http://www.w3.org/2000/svg">
	<symbol id="visa" viewBox="0 0 80 27">
		<path d="M34.5862 25.6636H28.1504L32.1758 0.773438H38.6113L34.5862 25.6636Z" fill="#151515" />
		<path d="M57.917 1.37998C56.6476 0.876367 54.6342 0.320312 52.1446 0.320312C45.789 0.320312 41.3135 3.70943 41.286 8.55485C41.2332 12.1298 44.4904 14.1154 46.9265 15.3074C49.4164 16.5254 50.2628 17.3205 50.2628 18.4062C50.2375 20.0736 48.2508 20.8423 46.3979 20.8423C43.8284 20.8423 42.4516 20.446 40.3594 19.5183L39.5119 19.1206L38.6113 24.7079C40.1208 25.3956 42.9017 26.0058 45.789 26.0326C52.5419 26.0326 56.9383 22.6959 56.9904 17.5323C57.016 14.6989 55.2961 12.5278 51.5882 10.7537C49.3372 9.61488 47.9587 8.84696 47.9587 7.68171C47.9851 6.62239 49.1246 5.53737 51.6656 5.53737C53.7578 5.48423 55.2951 5.98715 56.4596 6.49041L57.0417 6.75471L57.917 1.37998Z" fill="#151515" />
		<path fill-rule="evenodd" clip-rule="evenodd" d="M69.437 0.773438H74.4151L79.6072 25.6632H73.6483C73.6483 25.6632 73.0651 22.8034 72.8803 21.9296H64.6173C64.3783 22.5912 63.2666 25.6632 63.2666 25.6632H56.5137L66.0732 2.83858C66.7356 1.22321 67.9019 0.773438 69.437 0.773438ZM69.0404 9.88183C69.0404 9.88183 67.0009 15.416 66.4709 16.8459H71.8203C71.5557 15.6015 70.3369 9.64357 70.3369 9.64357L69.8871 7.49889C69.6977 8.05116 69.4238 8.81046 69.2391 9.32258C69.1138 9.66973 69.0296 9.9033 69.0404 9.88183Z" fill="#151515" />
		<path d="M22.7752 0.773438L16.4724 17.7461L15.7837 14.3039C14.6184 10.332 10.9639 6.01654 6.88574 3.8708L12.6589 25.6372H19.4646L29.5805 0.773438H22.7752V0.773438Z" fill="#151515" />
		<path d="M10.6197 0.773438H0.265112L0.15918 1.27635C8.23641 3.34185 13.5858 8.32065 15.7836 14.3049L13.5327 2.86568C13.1621 1.276 12.0232 0.825876 10.6197 0.773438Z" fill="#151515" />
	</symbol>
</svg>