<svg xmlns="http://www.w3.org/2000/svg">
	<symbol id="master-card" viewBox="0 0 60 35">
		<path fill-rule="evenodd" clip-rule="evenodd" d="M29.9837 30.3621C33.446 27.1798 35.6162 22.6144 35.6162 17.541C35.6162 12.4676 33.446 7.90225 29.9837 4.71999C33.083 1.87176 37.2193 0.131622 41.7607 0.131622C51.3754 0.131622 59.1701 7.92625 59.1701 17.541C59.1701 27.1558 51.3754 34.9504 41.7607 34.9504C37.2193 34.9504 33.083 33.2103 29.9837 30.3621ZM29.9837 30.3621C26.8845 33.2103 22.7481 34.9504 18.2068 34.9504C8.59199 34.9504 0.797363 27.1558 0.797363 17.541C0.797363 7.92625 8.59199 0.131622 18.2068 0.131622C22.7481 0.131622 26.8845 1.87176 29.9837 4.71999C26.5214 7.90225 24.3513 12.4676 24.3513 17.541C24.3513 22.6144 26.5214 27.1798 29.9837 30.3621Z" fill="currentColor"/>
	</symbol>
	<symbol id="nfs" viewBox="0 0 27 47">
		<path fill-rule="evenodd" clip-rule="evenodd" d="M15.5443 0.469159C16.357 -0.11168 17.4867 0.0763063 18.0676 0.889038C21.1603 5.21653 24.8493 12.5973 25.9306 20.8184C27.0193 29.0957 25.4657 38.336 17.8834 46.0187C17.1817 46.7297 16.0365 46.7372 15.3255 46.0355C14.6145 45.3338 14.6069 44.1886 15.3086 43.4776C21.9216 36.7771 23.3254 28.7517 22.344 21.2901C21.3551 13.7723 17.9464 6.94105 15.1244 2.99244C14.5436 2.17971 14.7316 1.05 15.5443 0.469159ZM7.70415 7.10286C8.51601 6.52081 9.646 6.70712 10.228 7.51899C12.4112 10.5642 15.009 15.7436 15.7721 21.5273C16.5428 27.368 15.4432 33.9345 10.0434 39.3886C9.34059 40.0985 8.19536 40.1042 7.48546 39.4014C6.77557 38.6986 6.76983 37.5534 7.47265 36.8435C11.9004 32.3711 12.8482 27.0218 12.1857 22.0005C11.5156 16.9222 9.19965 12.2932 7.28801 9.62676C6.70597 8.81489 6.89228 7.6849 7.70415 7.10286ZM1.66796 14.3429C2.47705 13.757 3.60791 13.938 4.19381 14.7471C5.38588 16.3933 6.79552 19.1721 7.21226 22.2991C7.63695 25.4857 7.03025 29.1375 4.00781 32.16C3.30144 32.8663 2.15619 32.8663 1.44983 32.16C0.743461 31.4536 0.743461 30.3083 1.44983 29.602C3.49192 27.5599 3.94033 25.1322 3.62644 22.777C3.30461 20.3621 2.18198 18.1367 1.26382 16.8688C0.677927 16.0597 0.858865 14.9288 1.66796 14.3429Z" fill="currentColor"/>
	</symbol>
	<symbol id="chip" viewBox="0 0 59 48">
		<path d="M0.114258 2.50602C0.114258 1.62188 0.830989 0.905151 1.71512 0.905151L15.3225 0.905151C16.2066 0.905151 16.9233 1.62188 16.9233 2.50602V12.7013C16.9233 13.3188 16.5682 13.8812 16.0107 14.1466L9.20706 17.3865C8.77164 17.5938 8.26595 17.5938 7.83053 17.3865L1.02686 14.1466C0.469371 13.8812 0.114258 13.3188 0.114258 12.7013L0.114258 2.50602Z" fill="currentColor"/>
		<path d="M25.7281 2.50602C25.7281 1.62188 26.4448 0.905151 27.329 0.905151L31.3311 0.905151C32.2153 0.905151 32.932 1.62188 32.932 2.50602V5.70775C32.932 6.59188 32.2153 7.30861 31.3311 7.30861L27.329 7.30861C26.4448 7.30861 25.7281 6.59188 25.7281 5.70775V2.50602Z" fill="currentColor"/>
		<path d="M41.7367 2.50602C41.7367 1.62188 42.4535 0.905151 43.3376 0.905151L56.945 0.905151C57.8291 0.905151 58.5458 1.62188 58.5458 2.50602V12.1112C58.5458 12.9953 57.8291 13.7121 56.945 13.7121L43.3376 13.7121C42.4535 13.7121 41.7367 12.9953 41.7367 12.1112V2.50602Z" fill="currentColor"/>
		<path d="M0.114258 19.3151C0.114258 18.431 0.830989 17.7142 1.71512 17.7142L15.3225 17.7142C16.2066 17.7142 16.9233 18.431 16.9233 19.3151V28.9203C16.9233 29.8044 16.2066 30.5212 15.3225 30.5212L1.71512 30.5212C0.830989 30.5212 0.114258 29.8044 0.114258 28.9203L0.114258 19.3151Z" fill="currentColor"/>
		<path d="M20.9255 12.9116C20.9255 12.0275 21.6422 11.3108 22.5264 11.3108L36.1337 11.3108C37.0179 11.3108 37.7346 12.0275 37.7346 12.9116L37.7346 35.3237C37.7346 36.2079 37.0179 36.9246 36.1337 36.9246L22.5264 36.9246C21.6422 36.9246 20.9255 36.2079 20.9255 35.3237L20.9255 12.9116Z" fill="currentColor"/>
		<path d="M41.7367 19.3151C41.7367 18.431 42.4535 17.7142 43.3376 17.7142H56.945C57.8291 17.7142 58.5458 18.431 58.5458 19.3151L58.5458 28.9203C58.5458 29.8044 57.8291 30.5212 56.945 30.5212H43.3376C42.4535 30.5212 41.7367 29.8044 41.7367 28.9203L41.7367 19.3151Z" fill="currentColor"/>
		<path d="M0.114258 36.1242C0.114258 35.24 0.830989 34.5233 1.71512 34.5233H15.3225C16.2066 34.5233 16.9233 35.24 16.9233 36.1242L16.9233 45.7294C16.9233 46.6135 16.2066 47.3302 15.3225 47.3302H1.71512C0.830989 47.3302 0.114258 46.6135 0.114258 45.7294L0.114258 36.1242Z" fill="currentColor"/>
		<path d="M25.7281 42.5276C25.7281 41.6435 26.4448 40.9268 27.329 40.9268H31.3311C32.2153 40.9268 32.932 41.6435 32.932 42.5276V45.7294C32.932 46.6135 32.2153 47.3302 31.3311 47.3302H27.329C26.4448 47.3302 25.7281 46.6135 25.7281 45.7294V42.5276Z" fill="currentColor"/>
		<path d="M41.7367 35.5341C41.7367 34.9166 42.0919 34.3542 42.6493 34.0887L49.453 30.8489C49.8884 30.6416 50.3941 30.6416 50.8296 30.8489L57.6332 34.0887C58.1907 34.3542 58.5458 34.9166 58.5458 35.5341V45.7294C58.5458 46.6135 57.8291 47.3302 56.945 47.3302H43.3376C42.4535 47.3302 41.7367 46.6135 41.7367 45.7294V35.5341Z" fill="currentColor"/>
	</symbol>
	<symbol id="app-store" viewBox="0 0 123 33">
		<path d="M19.4876 15.2786C19.455 11.7462 22.4541 10.0277 22.5913 9.94769C20.8927 7.5332 18.2601 7.2033 17.3349 7.17699C15.1238 6.95012 12.979 8.46699 11.8527 8.46699C10.7038 8.46699 8.96934 7.19891 7.09996 7.23618C4.69437 7.27235 2.44391 8.63029 1.20964 10.739C-1.33758 15.0386 0.56216 21.3571 3.00259 24.8325C4.22337 26.5346 5.64986 28.4351 7.517 28.3682C9.34367 28.2948 10.026 27.2327 12.2304 27.2327C14.4145 27.2327 15.0552 28.3682 16.9595 28.3255C18.9199 28.2948 20.1542 26.6157 21.3323 24.8983C22.743 22.9474 23.3096 21.0261 23.332 20.9274C23.2859 20.9121 19.5247 19.5125 19.4876 15.2786Z" fill="currentColor"/>
		<path d="M15.8905 4.89073C16.8729 3.6928 17.5451 2.06305 17.3585 0.40918C15.9365 0.470556 14.1582 1.36818 13.1342 2.53981C12.2281 3.57224 11.4188 5.26447 11.6279 6.85587C13.2252 6.97204 14.8653 6.07003 15.8905 4.89073Z" fill="currentColor"/>
		<path d="M40.7579 4.56523C40.7579 5.85523 40.3611 6.82628 39.5686 7.47841C38.8346 8.08011 37.7914 8.38151 36.4402 8.38151C35.7703 8.38151 35.197 8.35302 34.717 8.29603V1.24763C35.3431 1.14899 36.0176 1.09857 36.746 1.09857C38.0331 1.09857 39.0032 1.37148 39.6574 1.91729C40.3903 2.53434 40.7579 3.41662 40.7579 4.56523ZM39.5158 4.59702C39.5158 3.76077 39.2887 3.1196 38.8346 2.67243C38.3804 2.22636 37.7172 2.00278 36.8438 2.00278C36.4728 2.00278 36.157 2.02689 35.895 2.0773V7.43566C36.0401 7.45758 36.3053 7.46745 36.6909 7.46745C37.5924 7.46745 38.2883 7.22304 38.7784 6.73422C39.2685 6.2454 39.5158 5.533 39.5158 4.59702Z" fill="currentColor"/>
		<path d="M47.3441 5.69192C47.3441 6.48652 47.1114 7.13755 46.646 7.64828C46.1581 8.17327 45.5118 8.43521 44.7047 8.43521C43.9268 8.43521 43.3074 8.18423 42.8454 7.68007C42.3845 7.177 42.1541 6.54242 42.1541 5.77741C42.1541 4.97733 42.3912 4.32082 42.8679 3.81118C43.3445 3.30154 43.9852 3.04617 44.7923 3.04617C45.5702 3.04617 46.1952 3.29715 46.6685 3.80022C47.1181 4.28904 47.3441 4.92033 47.3441 5.69192ZM46.1222 5.72918C46.1222 5.25242 46.0165 4.84361 45.8063 4.50276C45.559 4.09066 45.2071 3.88461 44.7496 3.88461C44.2764 3.88461 43.9167 4.09066 43.6694 4.50276C43.458 4.84361 43.3535 5.259 43.3535 5.75001C43.3535 6.22677 43.4591 6.63558 43.6694 6.97643C43.9245 7.38853 44.2797 7.59458 44.7384 7.59458C45.188 7.59458 45.541 7.38524 45.795 6.96547C46.0131 6.61804 46.1222 6.20594 46.1222 5.72918Z" fill="currentColor"/>
		<path d="M56.175 3.15138L54.517 8.31794H53.4378L52.751 6.07442C52.5768 5.51437 52.4351 4.9576 52.325 4.40521H52.3036C52.2013 4.97294 52.0597 5.52861 51.8776 6.07442L51.148 8.31794H50.0565L48.4974 3.15138H49.708L50.3072 5.60753C50.4522 6.18841 50.5714 6.74189 50.6669 7.26578H50.6883C50.776 6.83395 50.921 6.28376 51.1255 5.61849L51.8776 3.15248H52.8376L53.5581 5.56588C53.7323 6.15443 53.874 6.72106 53.983 7.26687H54.0156C54.0954 6.73531 54.2157 6.16868 54.3753 5.56588L55.0183 3.15248H56.175V3.15138Z" fill="currentColor"/>
		<path d="M62.2823 8.31795H61.1042V5.35874C61.1042 4.44687 60.749 3.99093 60.0363 3.99093C59.6867 3.99093 59.4046 4.11588 59.1854 4.36686C58.9684 4.61784 58.8583 4.91376 58.8583 5.25243V8.31685H57.6802V4.62771C57.6802 4.17396 57.6656 3.68186 57.6375 3.1492H58.6728L58.7279 3.95695H58.7605C58.8976 3.70597 59.1022 3.49883 59.3709 3.33333C59.6901 3.14043 60.0476 3.04289 60.4388 3.04289C60.9334 3.04289 61.3448 3.19852 61.6719 3.51088C62.0788 3.89339 62.2823 4.4644 62.2823 5.22284V8.31795Z" fill="currentColor"/>
		<path d="M65.531 8.31794H64.354V0.780728H65.531V8.31794Z" fill="currentColor"/>
		<path d="M72.4667 5.69192C72.4667 6.48652 72.234 7.13755 71.7686 7.64828C71.2808 8.17327 70.6333 8.43521 69.8273 8.43521C69.0483 8.43521 68.4289 8.18423 67.968 7.68007C67.5071 7.177 67.2767 6.54242 67.2767 5.77741C67.2767 4.97733 67.5139 4.32082 67.9905 3.81118C68.4671 3.30154 69.1079 3.04617 69.9138 3.04617C70.6929 3.04617 71.3167 3.29715 71.7911 3.80022C72.2408 4.28904 72.4667 4.92033 72.4667 5.69192ZM71.2437 5.72918C71.2437 5.25242 71.138 4.84361 70.9278 4.50276C70.6816 4.09066 70.3286 3.88461 69.8723 3.88461C69.3979 3.88461 69.0382 4.09066 68.792 4.50276C68.5807 4.84361 68.4761 5.259 68.4761 5.75001C68.4761 6.22677 68.5818 6.63558 68.792 6.97643C69.0472 7.38853 69.4024 7.59458 69.861 7.59458C70.3107 7.59458 70.6625 7.38524 70.9165 6.96547C71.1357 6.61804 71.2437 6.20594 71.2437 5.72918Z" fill="currentColor"/>
		<path d="M78.1682 8.31794H77.1104L77.0227 7.72281H76.9901C76.6281 8.19738 76.1122 8.43521 75.4422 8.43521C74.942 8.43521 74.5373 8.27849 74.2327 7.96722C73.9561 7.68445 73.8179 7.33263 73.8179 6.91506C73.8179 6.28376 74.0877 5.80262 74.6306 5.46943C75.1724 5.13625 75.9346 4.97294 76.9159 4.98061V4.88417C76.9159 4.20355 76.5494 3.86379 75.8154 3.86379C75.2927 3.86379 74.8318 3.99202 74.4339 4.24629L74.1944 3.49224C74.6868 3.19523 75.2949 3.04617 76.0121 3.04617C77.397 3.04617 78.0917 3.75857 78.0917 5.18337V7.08603C78.0917 7.60225 78.1176 8.01325 78.1682 8.31794ZM76.9451 6.54242V5.74562C75.6457 5.7237 74.9959 6.07114 74.9959 6.78683C74.9959 7.05644 75.0701 7.25811 75.2219 7.39291C75.3736 7.52772 75.567 7.59458 75.7974 7.59458C76.056 7.59458 76.2976 7.51457 76.518 7.35565C76.7394 7.19563 76.8754 6.99287 76.926 6.74408C76.9384 6.68818 76.9451 6.62023 76.9451 6.54242Z" fill="currentColor"/>
		<path d="M84.8622 8.31794H83.8168L83.7617 7.48826H83.7291C83.3952 8.11956 82.8265 8.43521 82.0272 8.43521C81.3887 8.43521 80.857 8.1908 80.4355 7.70199C80.0139 7.21317 79.8037 6.57858 79.8037 5.79932C79.8037 4.96307 80.0319 4.28574 80.4906 3.76843C80.9346 3.28619 81.4787 3.04507 82.1261 3.04507C82.8377 3.04507 83.3357 3.27852 83.6189 3.74651H83.6414V0.780728H84.8206V6.92602C84.8206 7.42908 84.8341 7.89269 84.8622 8.31794ZM83.6414 6.13908V5.27763C83.6414 5.12857 83.6302 5.00801 83.6088 4.91595C83.5425 4.63975 83.3997 4.4074 83.1828 4.21998C82.9636 4.03257 82.6994 3.93831 82.3948 3.93831C81.9553 3.93831 81.6113 4.10819 81.3584 4.44905C81.1077 4.78991 80.9807 5.22502 80.9807 5.75658C80.9807 6.26732 81.101 6.68161 81.3426 7.00054C81.5978 7.3403 81.9418 7.51018 82.3723 7.51018C82.759 7.51018 83.0681 7.3688 83.3031 7.08494C83.5301 6.82299 83.6414 6.50734 83.6414 6.13908Z" fill="currentColor"/>
		<path d="M94.9376 5.69192C94.9376 6.48652 94.7049 7.13755 94.2395 7.64828C93.7516 8.17327 93.1064 8.43521 92.2982 8.43521C91.5214 8.43521 90.902 8.18423 90.4389 7.68007C89.978 7.177 89.7476 6.54242 89.7476 5.77741C89.7476 4.97733 89.9848 4.32082 90.4614 3.81118C90.938 3.30154 91.5787 3.04617 92.387 3.04617C93.1637 3.04617 93.7898 3.29715 94.262 3.80022C94.7116 4.28904 94.9376 4.92033 94.9376 5.69192ZM93.7168 5.72918C93.7168 5.25242 93.6111 4.84361 93.4009 4.50276C93.1525 4.09066 92.8018 3.88461 92.3431 3.88461C91.871 3.88461 91.5113 4.09066 91.2629 4.50276C91.0515 4.84361 90.947 5.259 90.947 5.75001C90.947 6.22677 91.0527 6.63558 91.2629 6.97643C91.518 7.38853 91.8733 7.59458 92.3319 7.59458C92.7815 7.59458 93.1356 7.38524 93.3897 6.96547C93.6066 6.61804 93.7168 6.20594 93.7168 5.72918Z" fill="currentColor"/>
		<path d="M101.272 8.31795H100.095V5.35874C100.095 4.44687 99.7397 3.99093 99.0259 3.99093C98.6763 3.99093 98.3942 4.11588 98.1761 4.36686C97.958 4.61784 97.849 4.91376 97.849 5.25243V8.31685H96.6698V4.62771C96.6698 4.17396 96.6563 3.68186 96.6282 3.1492H97.6624L97.7175 3.95695H97.7501C97.8883 3.70597 98.0929 3.49883 98.3605 3.33333C98.6808 3.14043 99.0372 3.04289 99.4295 3.04289C99.923 3.04289 100.334 3.19852 100.661 3.51088C101.07 3.89339 101.272 4.4644 101.272 5.22284V8.31795Z" fill="currentColor"/>
		<path d="M109.2 4.01175H107.903V6.5216C107.903 7.15947 108.133 7.47841 108.59 7.47841C108.801 7.47841 108.977 7.46087 109.115 7.4247L109.145 8.29603C108.912 8.38151 108.607 8.42426 108.23 8.42426C107.765 8.42426 107.403 8.28616 107.141 8.00997C106.878 7.73378 106.747 7.26907 106.747 6.61695V4.01175H105.973V3.15139H106.747V2.20444L107.902 1.86468V3.15029H109.199V4.01175H109.2Z" fill="currentColor"/>
		<path d="M115.437 8.31794H114.258V5.38065C114.258 4.45453 113.902 3.99092 113.191 3.99092C112.644 3.99092 112.271 4.25944 112.067 4.79648C112.032 4.90937 112.012 5.04747 112.012 5.20968V8.31684H110.835V0.780728H112.012V3.89447H112.034C112.405 3.32784 112.937 3.04507 113.626 3.04507C114.114 3.04507 114.517 3.2007 114.838 3.51306C115.237 3.90214 115.437 4.48083 115.437 5.24584V8.31794Z" fill="currentColor"/>
		<path d="M121.87 5.49025C121.87 5.6963 121.854 5.86947 121.826 6.01085H118.293C118.309 6.52159 118.477 6.91067 118.805 7.18028C119.104 7.42141 119.489 7.54197 119.961 7.54197C120.484 7.54197 120.961 7.46086 121.39 7.29756L121.574 8.09545C121.072 8.30807 120.481 8.41438 119.796 8.41438C118.975 8.41438 118.329 8.17874 117.861 7.70746C117.392 7.23618 117.159 6.60379 117.159 5.81028C117.159 5.03102 117.376 4.38219 117.813 3.86488C118.269 3.31249 118.887 3.0363 119.666 3.0363C120.428 3.0363 121.007 3.31249 121.398 3.86488C121.714 4.30328 121.87 4.8458 121.87 5.49025ZM120.746 5.19323C120.755 4.85238 120.677 4.55865 120.518 4.31095C120.313 3.99201 120.002 3.832 119.58 3.832C119.196 3.832 118.882 3.98763 118.643 4.29999C118.447 4.54878 118.331 4.8458 118.293 5.19323H120.746Z" fill="currentColor"/>
		<path d="M45.9232 28.1238H43.3703L41.9719 23.8395H37.1113L35.7792 28.1238H33.2938L38.1095 13.5382H41.0839L45.9232 28.1238ZM41.5504 22.0421L40.2858 18.2335C40.152 17.8444 39.9013 16.9281 39.5315 15.4858H39.4865C39.3393 16.1061 39.1021 17.0224 38.7761 18.2335L37.534 22.0421H41.5504Z" fill="currentColor"/>
		<path d="M58.3074 22.7359C58.3074 24.5245 57.8117 25.9384 56.8202 26.9763C55.9322 27.9002 54.8294 28.3616 53.5131 28.3616C52.0923 28.3616 51.0716 27.8641 50.4499 26.8689H50.405V32.4092H48.0084V21.0688C48.0084 19.9443 47.978 18.7902 47.9196 17.6066H50.0273L50.161 19.2736H50.206C51.0052 18.0176 52.2182 17.3907 53.8459 17.3907C55.1183 17.3907 56.1806 17.8806 57.0304 18.8615C57.8825 19.8435 58.3074 21.1346 58.3074 22.7359ZM55.8659 22.8213C55.8659 21.7977 55.6298 20.9538 55.1554 20.2896C54.6372 19.5969 53.9414 19.2506 53.0691 19.2506C52.4778 19.2506 51.9405 19.4435 51.4605 19.8238C50.9794 20.2074 50.6646 20.7083 50.5174 21.3286C50.4432 21.6179 50.4061 21.8547 50.4061 22.041V23.7946C50.4061 24.5596 50.6467 25.2052 51.1278 25.7323C51.6089 26.2595 52.2339 26.5225 53.0028 26.5225C53.9054 26.5225 54.608 26.1828 55.1105 25.5055C55.6141 24.827 55.8659 23.9327 55.8659 22.8213Z" fill="currentColor"/>
		<path d="M70.7142 22.7359C70.7142 24.5245 70.2185 25.9384 69.2259 26.9763C68.339 27.9002 67.2362 28.3616 65.9199 28.3616C64.499 28.3616 63.4783 27.8641 62.8578 26.8689H62.8129V32.4092H60.4163V21.0688C60.4163 19.9443 60.3859 18.7902 60.3275 17.6066H62.4352L62.5689 19.2736H62.6139C63.412 18.0176 64.6249 17.3907 66.2538 17.3907C67.5251 17.3907 68.5874 17.8806 69.4395 18.8615C70.2882 19.8435 70.7142 21.1346 70.7142 22.7359ZM68.2726 22.8213C68.2726 21.7977 68.0355 20.9538 67.5611 20.2896C67.0429 19.5969 66.3493 19.2506 65.4759 19.2506C64.8835 19.2506 64.3473 19.4435 63.8661 19.8238C63.385 20.2074 63.0714 20.7083 62.9241 21.3286C62.8511 21.6179 62.8129 21.8547 62.8129 22.041V23.7946C62.8129 24.5596 63.0534 25.2052 63.5323 25.7323C64.0134 26.2584 64.6384 26.5225 65.4095 26.5225C66.3122 26.5225 67.0148 26.1828 67.5172 25.5055C68.0208 24.827 68.2726 23.9327 68.2726 22.8213Z" fill="currentColor"/>
		<path d="M84.5857 24.0335C84.5857 25.2742 84.1439 26.2836 83.257 27.0629C82.2824 27.9145 80.9256 28.3397 79.1821 28.3397C77.5724 28.3397 76.2819 28.0372 75.305 27.4311L75.8603 25.4835C76.9125 26.1039 78.067 26.4151 79.3248 26.4151C80.2275 26.4151 80.9301 26.2157 81.4348 25.8189C81.9373 25.4222 82.1879 24.8895 82.1879 24.2253C82.1879 23.6335 81.9811 23.1348 81.5663 22.7304C81.1538 22.3259 80.4647 21.95 79.5024 21.6026C76.8833 20.6502 75.5748 19.2549 75.5748 17.4202C75.5748 16.2212 76.0335 15.2381 76.9519 14.4731C77.8669 13.707 79.0876 13.3245 80.6142 13.3245C81.9755 13.3245 83.1063 13.5557 84.009 14.0171L83.4098 15.922C82.5667 15.4748 81.6135 15.2513 80.5467 15.2513C79.7037 15.2513 79.0449 15.454 78.5728 15.8573C78.1738 16.2179 77.9737 16.6574 77.9737 17.178C77.9737 17.7545 78.2019 18.2313 78.6605 18.6061C79.0595 18.9525 79.7846 19.3273 80.8368 19.7317C82.1239 20.237 83.0692 20.8277 83.6774 21.505C84.2833 22.1802 84.5857 23.0252 84.5857 24.0335Z" fill="currentColor"/>
		<path d="M92.5095 19.3601H89.8678V24.4664C89.8678 25.7652 90.3332 26.414 91.2662 26.414C91.6945 26.414 92.0497 26.3779 92.3307 26.3055L92.3971 28.0799C91.9249 28.252 91.3033 28.3386 90.5333 28.3386C89.5868 28.3386 88.8471 28.0569 88.3132 27.4947C87.7815 26.9313 87.5139 25.9866 87.5139 24.6593V19.358H85.9402V17.6044H87.5139V15.6787L89.8678 14.986V17.6044H92.5095V19.3601Z" fill="currentColor"/>
		<path d="M104.428 22.7786C104.428 24.3952 103.954 25.7225 103.007 26.7604C102.015 27.829 100.697 28.3616 99.0551 28.3616C97.4724 28.3616 96.2123 27.8498 95.2725 26.8261C94.3327 25.8025 93.8629 24.5103 93.8629 22.9529C93.8629 21.3231 94.3462 19.9882 95.3163 18.9503C96.2842 17.9112 97.5904 17.3917 99.2327 17.3917C100.815 17.3917 102.089 17.9036 103.05 18.9283C103.97 19.9224 104.428 21.2058 104.428 22.7786ZM101.942 22.8542C101.942 21.8843 101.729 21.0524 101.299 20.3586C100.796 19.5191 100.078 19.1004 99.1473 19.1004C98.1839 19.1004 97.4521 19.5202 96.9497 20.3586C96.5191 21.0535 96.3067 21.8985 96.3067 22.8981C96.3067 23.868 96.5191 24.6999 96.9497 25.3926C97.4679 26.2321 98.1918 26.6508 99.1259 26.6508C100.041 26.6508 100.759 26.2233 101.277 25.3706C101.719 24.6637 101.942 23.8231 101.942 22.8542Z" fill="currentColor"/>
		<path d="M112.218 19.6616C111.981 19.6188 111.728 19.5969 111.463 19.5969C110.62 19.5969 109.968 19.9071 109.509 20.5285C109.11 21.0765 108.91 21.7692 108.91 22.6054V28.1238H106.515L106.537 20.9187C106.537 19.7065 106.507 18.6028 106.447 17.6077H108.535L108.622 19.6199H108.689C108.942 18.9283 109.341 18.3716 109.887 17.954C110.421 17.5781 110.998 17.3907 111.619 17.3907C111.841 17.3907 112.041 17.406 112.218 17.4334V19.6616Z" fill="currentColor"/>
		<path d="M122.937 22.3676C122.937 22.7863 122.909 23.1392 122.849 23.4274H115.659C115.687 24.4664 116.035 25.261 116.702 25.809C117.308 26.2989 118.092 26.5445 119.054 26.5445C120.119 26.5445 121.09 26.379 121.963 26.0469L122.339 27.669C121.318 28.103 120.113 28.3189 118.722 28.3189C117.05 28.3189 115.737 27.8388 114.781 26.8798C113.828 25.9208 113.35 24.633 113.35 23.0175C113.35 21.4316 113.794 20.1109 114.684 19.0577C115.614 17.9332 116.872 17.3709 118.455 17.3709C120.01 17.3709 121.187 17.9332 121.986 19.0577C122.619 19.9509 122.937 21.0557 122.937 22.3676ZM120.651 21.7615C120.667 21.0688 120.511 20.4704 120.186 19.9651C119.771 19.3152 119.134 18.9908 118.276 18.9908C117.493 18.9908 116.855 19.3075 116.369 19.9432C115.97 20.4485 115.732 21.0546 115.659 21.7604H120.651V21.7615Z" fill="currentColor"/>
	</symbol>
	<symbol id="google-play" viewBox="0 0 140 33">
		<path d="M1.48611 1.75628C1.13812 2.11145 0.936737 2.66442 0.936737 3.38053V28.9239C0.936737 29.64 1.13812 30.193 1.48611 30.5481L1.572 30.6261L16.2526 16.3182V15.9804L1.572 1.67254L1.48611 1.75628Z" fill="currentColor"/>
		<path d="M22.9177 21.0899L18.0296 16.3182V15.9804L22.9236 11.2087L23.0332 11.2708L28.829 14.4861C30.4831 15.3985 30.4831 16.9001 28.829 17.8183L23.0332 21.0278L22.9177 21.0899Z" fill="currentColor"/>
		<path d="M22.1447 21.9163L17.1411 17.0378L2.37458 31.4366C2.92396 31.9997 3.81984 32.0675 4.83863 31.5045L22.1447 21.9163Z" fill="currentColor"/>
		<path d="M22.1447 10.3823L4.83863 0.794175C3.81984 0.236876 2.92396 0.304732 2.37458 0.867806L17.1411 15.2608L22.1447 10.3823Z" fill="currentColor"/>
		<path d="M46.1855 4.88062C46.1855 5.84507 45.8893 6.61749 45.3059 7.19356C44.6351 7.87647 43.7614 8.22008 42.6908 8.22008C41.6676 8.22008 40.7939 7.87069 40.0772 7.18201C39.359 6.48322 39.0007 5.62561 39.0007 4.59909C39.0007 3.57256 39.359 2.71496 40.0772 2.02194C40.7939 1.32748 41.6676 0.978089 42.6908 0.978089C43.2002 0.978089 43.6859 1.0806 44.1494 1.27118C44.6114 1.4632 44.9875 1.72308 45.26 2.0436L44.641 2.65287C44.1657 2.10568 43.5186 1.83569 42.6908 1.83569C41.9445 1.83569 41.2974 2.0898 40.748 2.60234C40.2046 3.11633 39.9321 3.78191 39.9321 4.59909C39.9321 5.41627 40.2046 6.08762 40.748 6.60161C41.2974 7.10837 41.9445 7.36825 42.6908 7.36825C43.4831 7.36825 44.1494 7.10837 44.6751 6.59583C45.0216 6.25655 45.2185 5.78876 45.2704 5.19104H42.6908V4.35653H46.1322C46.1737 4.537 46.1855 4.7117 46.1855 4.88062Z" fill="currentColor"/>
		<path d="M51.6452 1.98728H48.4126V4.18183H51.3268V5.01633H48.4126V7.21088H51.6452V8.06126H47.4975V1.1369H51.6452V1.98728Z" fill="currentColor"/>
		<path d="M55.4982 8.06126H54.5831V1.98728H52.6003V1.1369H57.4825V1.98728H55.4982V8.06126Z" fill="currentColor"/>
		<path d="M61.0157 8.06126V1.1369H61.9294V8.06126H61.0157Z" fill="currentColor"/>
		<path d="M65.9793 8.06126H65.0716V1.98728H63.0814V1.1369H67.9695V1.98728H65.9793V8.06126Z" fill="currentColor"/>
		<path d="M77.2127 7.17046C76.5123 7.87069 75.6445 8.22008 74.6094 8.22008C73.5684 8.22008 72.7007 7.87069 72.0003 7.17046C71.3013 6.47167 70.9533 5.61406 70.9533 4.59909C70.9533 3.58411 71.3013 2.72651 72.0003 2.02772C72.7007 1.32748 73.5684 0.978089 74.6094 0.978089C75.6386 0.978089 76.5064 1.32748 77.2068 2.03349C77.9116 2.73806 78.2596 3.58989 78.2596 4.59909C78.2596 5.61406 77.9116 6.47167 77.2127 7.17046ZM72.677 6.59006C73.2042 7.10838 73.8453 7.36825 74.6094 7.36825C75.3676 7.36825 76.0147 7.10838 76.536 6.59006C77.0617 6.07174 77.3282 5.40616 77.3282 4.59909C77.3282 3.79201 77.0617 3.12643 76.536 2.60812C76.0147 2.0898 75.3676 1.82992 74.6094 1.82992C73.8453 1.82992 73.2042 2.0898 72.677 2.60812C72.1513 3.12643 71.8848 3.79201 71.8848 4.59909C71.8848 5.40616 72.1513 6.07174 72.677 6.59006Z" fill="currentColor"/>
		<path d="M79.5435 8.06126V1.1369H80.6541L84.1073 6.52219H84.1473L84.1073 5.19103V1.1369H85.021V8.06126H84.0673L80.4512 2.41031H80.4112L80.4512 3.74725V8.06126H79.5435Z" fill="currentColor"/>
		<path d="M70.7283 18.1735C67.9458 18.1735 65.6728 20.2381 65.6728 23.0867C65.6728 25.9122 67.9458 27.9984 70.7283 27.9984C73.5166 27.9984 75.7896 25.9122 75.7896 23.0867C75.7896 20.2381 73.5166 18.1735 70.7283 18.1735ZM70.7283 26.0638C69.2016 26.0638 67.8881 24.8351 67.8881 23.0867C67.8881 21.3152 69.2016 20.1082 70.7283 20.1082C72.255 20.1082 73.5744 21.3152 73.5744 23.0867C73.5744 24.8351 72.255 26.0638 70.7283 26.0638ZM59.6978 18.1735C56.9095 18.1735 54.6424 20.2381 54.6424 23.0867C54.6424 25.9122 56.9095 27.9984 59.6978 27.9984C62.4847 27.9984 64.7532 25.9122 64.7532 23.0867C64.7532 20.2381 62.4847 18.1735 59.6978 18.1735ZM59.6978 26.0638C58.1696 26.0638 56.8517 24.8351 56.8517 23.0867C56.8517 21.3152 58.1696 20.1082 59.6978 20.1082C61.2245 20.1082 62.538 21.3152 62.538 23.0867C62.538 24.8351 61.2245 26.0638 59.6978 26.0638ZM46.572 19.6794V21.7671H51.6852C51.5356 22.9337 51.1358 23.7913 50.5228 24.389C49.7764 25.1109 48.614 25.9122 46.572 25.9122C43.4253 25.9122 40.9613 23.4361 40.9613 20.3681C40.9613 17.3 43.4253 14.824 46.572 14.824C48.2734 14.824 49.5114 15.4722 50.425 16.3125L51.934 14.8413C50.656 13.6516 48.9561 12.7377 46.572 12.7377C42.257 12.7377 38.6305 16.1609 38.6305 20.3681C38.6305 24.5752 42.257 27.9984 46.572 27.9984C48.9043 27.9984 50.656 27.2534 52.0332 25.8559C53.4444 24.4799 53.8842 22.5453 53.8842 20.9831C53.8842 20.498 53.8427 20.0519 53.7687 19.6794H46.572ZM100.245 21.2979C99.8289 20.1991 98.5451 18.1735 95.93 18.1735C93.3386 18.1735 91.1811 20.1645 91.1811 23.0867C91.1811 25.8385 93.3164 27.9984 96.1788 27.9984C98.4932 27.9984 99.8289 26.6225 100.378 25.8212L98.6606 24.7052C98.0875 25.5224 97.3071 26.0638 96.1788 26.0638C95.0578 26.0638 94.2537 25.5628 93.7384 24.5752L100.478 21.8566L100.245 21.2979ZM93.3741 22.9337C93.3164 21.0394 94.8831 20.0692 96.0055 20.0692C96.8851 20.0692 97.6314 20.498 97.8802 21.1116L93.3741 22.9337ZM87.8967 27.6996H90.1119V13.2618H87.8967V27.6996ZM84.2687 19.2679H84.1947C83.6971 18.6933 82.7479 18.1735 81.5455 18.1735C79.0222 18.1735 76.7151 20.3334 76.7151 23.1026C76.7151 25.8559 79.0222 27.9984 81.5455 27.9984C82.7479 27.9984 83.6971 27.4743 84.1947 26.8824H84.2687V27.587C84.2687 29.4653 83.2395 30.4745 81.5796 30.4745C80.2261 30.4745 79.3865 29.5216 79.04 28.7203L77.1135 29.5043C77.6688 30.8066 79.1392 32.4092 81.5796 32.4092C84.1769 32.4092 86.3685 30.9192 86.3685 27.2939V18.4724H84.2687V19.2679ZM81.7351 26.0638C80.2084 26.0638 78.9304 24.8178 78.9304 23.1026C78.9304 21.3715 80.2084 20.1082 81.7351 20.1082C83.2395 20.1082 84.4257 21.3715 84.4257 23.1026C84.4257 24.8178 83.2395 26.0638 81.7351 26.0638ZM110.617 13.2618H105.318V27.6996H107.528V22.2291H110.617C113.07 22.2291 115.477 20.498 115.477 17.7447C115.477 14.9929 113.064 13.2618 110.617 13.2618ZM110.674 20.2208H107.528V15.2701H110.674C112.324 15.2701 113.266 16.6056 113.266 17.7447C113.266 18.8622 112.324 20.2208 110.674 20.2208ZM124.332 18.1461C122.735 18.1461 121.075 18.8333 120.393 20.3565L122.353 21.1578C122.775 20.3565 123.551 20.0966 124.372 20.0966C125.518 20.0966 126.68 20.768 126.698 21.9533V22.1049C126.298 21.8797 125.442 21.5462 124.389 21.5462C122.278 21.5462 120.126 22.6796 120.126 24.7947C120.126 26.7294 121.856 27.9753 123.8 27.9753C125.287 27.9753 126.107 27.3213 126.623 26.5604H126.698V27.6765H128.832V22.1381C128.832 19.5783 126.871 18.1461 124.332 18.1461ZM124.065 26.058C123.343 26.058 122.336 25.7086 122.336 24.8351C122.336 23.7176 123.591 23.2888 124.678 23.2888C125.651 23.2888 126.107 23.4982 126.698 23.7739C126.525 25.1109 125.345 26.058 124.065 26.058ZM136.606 18.4623L134.066 24.7211H133.991L131.366 18.4623H128.983L132.928 27.2087L130.677 32.0757H132.986L139.064 18.4623H136.606ZM116.691 27.6996H118.906V13.2618H116.691V27.6996Z" fill="currentColor"/>
	</symbol>
</svg>






