<svg width="26" height="26" viewBox="0 0 26 26" fill="none" xmlns="http://www.w3.org/2000/svg">
<path d="M24.75 13C24.8881 13 25.0003 13.112 24.9974 13.25C24.9531 15.3762 24.3444 17.4541 23.2317 19.27C22.0754 21.1569 20.4198 22.6874 18.4479 23.6921C16.476 24.6968 14.2647 25.1366 12.0585 24.963C9.85225 24.7894 7.73699 24.009 5.94658 22.7082C4.15617 21.4074 2.76036 19.6368 1.91345 17.5922C1.06655 15.5476 0.801545 13.3086 1.14774 11.1228C1.49394 8.93696 2.43786 6.88945 3.87513 5.20662C5.25824 3.58721 7.04638 2.36621 9.05484 1.66705C9.18523 1.62166 9.32639 1.69377 9.36905 1.82508L12.4948 11.4453C12.7961 12.3723 13.66 13 14.6347 13H24.75Z" fill="white"/>
<path fill-rule="evenodd" clip-rule="evenodd" d="M8.818 2.55623C7.13158 3.23151 5.63005 4.30676 4.44544 5.69376C3.09799 7.27142 2.21307 9.19096 1.88851 11.2402C1.56395 13.2894 1.81239 15.3884 2.60636 17.3052C3.40033 19.2221 4.70891 20.882 6.38742 22.1015C8.06593 23.321 10.049 24.0526 12.1173 24.2154C14.1857 24.3782 16.2588 23.9658 18.1074 23.0239C19.956 22.082 21.5082 20.6472 22.5922 18.8782C23.5453 17.3229 24.1039 15.5626 24.225 13.7501H14.6347C13.335 13.7501 12.1832 12.9132 11.7816 11.6771L8.818 2.55623ZM8.80827 0.958796C9.34522 0.771878 9.91295 1.07203 10.0823 1.59338L13.2081 11.2136C13.409 11.8316 13.9849 12.2501 14.6347 12.2501H24.75C25.2982 12.2501 25.7591 12.6972 25.7472 13.2657C25.7002 15.5248 25.0535 17.7326 23.8712 19.6619C22.6426 21.6668 20.8835 23.2929 18.7884 24.3604C16.6933 25.4279 14.3438 25.8952 11.9997 25.7108C9.65551 25.5263 7.40805 24.6971 5.50574 23.315C3.60343 21.9329 2.12038 20.0517 1.22054 17.8793C0.320705 15.7069 0.0391413 13.328 0.406979 11.0055C0.774816 8.68308 1.77773 6.5076 3.30483 4.71959C4.77438 2.99896 6.67427 1.70166 8.80827 0.958796Z" fill="white"/>
<path d="M14.1444 1.59672C14.1018 1.46541 14.1735 1.32394 14.3062 1.28577C15.3363 0.98949 16.4199 0.922338 17.4805 1.09033C18.6235 1.27136 19.7075 1.72035 20.6437 2.40058C21.58 3.08081 22.342 3.97297 22.8674 5.00411C23.3549 5.96092 23.6259 7.0122 23.6624 8.08341C23.6671 8.2214 23.5547 8.33337 23.4166 8.33337L17.2415 8.33337C16.7 8.33337 16.22 7.98467 16.0527 7.46965L14.1444 1.59672Z" fill="white"/>
<path fill-rule="evenodd" clip-rule="evenodd" d="M13.4312 1.82849C13.2627 1.30986 13.5424 0.725069 14.0989 0.564992C15.2344 0.238411 16.4287 0.164391 17.5978 0.34956C18.8578 0.549113 20.0526 1.04402 21.0846 1.79382C22.1166 2.54362 22.9565 3.52702 23.5356 4.66362C24.073 5.71829 24.3717 6.87708 24.412 8.05785C24.4317 8.63661 23.962 9.08337 23.4167 9.08337L17.2415 9.08337C16.3751 9.08337 15.6071 8.52545 15.3394 7.70141L13.4312 1.82849ZM15.0255 1.88125L16.766 7.23788C16.8329 7.44389 17.0249 7.58337 17.2415 7.58337L22.8738 7.58337C22.7845 6.80484 22.5567 6.04641 22.1991 5.3446C21.7275 4.41892 21.0434 3.61801 20.2029 3.00735C19.3624 2.39668 18.3893 1.99362 17.3632 1.83109C16.5852 1.70787 15.7935 1.72558 15.0255 1.88125Z" fill="white"/>
</svg>
